<svg xmlns="http://www.w3.org/2000/svg" width="108.795" height="103.234" viewBox="0 0 108.795 103.234">
  <g id="Grupo_11907" data-name="Grupo 11907" transform="translate(-347.418 -2322.384)">
    <path id="Trazado_12403" data-name="Trazado 12403" d="M-1875.37,363.37h71.6l37.192,50.053-37.192,53.181h-71.6Z" transform="translate(2222.788 1959.013)" fill="#5fc2c9"/>
    <path id="Trazado_14734" data-name="Trazado 14734" d="M11.973,39.391a8.8,8.8,0,0,1-7.588-3.652Q1.738,32.086,1.738,24.879q0-7.227,2.637-10.859a8.813,8.813,0,0,1,7.6-3.633,8.793,8.793,0,0,1,7.578,3.633q2.637,3.633,2.637,10.859,0,7.207-2.646,10.859A8.783,8.783,0,0,1,11.973,39.391Zm0-5.078A3.711,3.711,0,0,0,15.361,32q1.2-2.314,1.2-7.119T15.352,17.76a3.718,3.718,0,0,0-3.379-2.314q-4.609,0-4.609,9.434T11.973,34.313ZM35.273,20.7q10.84,0,10.84,8.906a9.514,9.514,0,0,1-2.734,7.139,9.883,9.883,0,0,1-7.207,2.666,11.955,11.955,0,0,1-5.049-1.045,8.711,8.711,0,0,1-3.662-3.105A8.317,8.317,0,0,1,26.074,30.5a8.781,8.781,0,0,1,.117-1.406l5.586-.254a8.256,8.256,0,0,0-.137,1.25,3.8,3.8,0,0,0,1.27,3.115,4.784,4.784,0,0,0,3.145,1.045,4.334,4.334,0,0,0,3.281-1.2,4.474,4.474,0,0,0,1.152-3.232,4.023,4.023,0,0,0-1.406-3.3q-1.406-1.152-4.727-1.152h-7.4l1.172-14.59h16.66V15.8h-11.6l-.371,4.9Z" transform="translate(368 2349)" fill="#fff"/>
  </g>
</svg>
