<svg xmlns="http://www.w3.org/2000/svg" width="121" height="121" viewBox="0 0 121 121">
  <g id="Grupo_12668" data-name="Grupo 12668" transform="translate(-320 -10321)">
    <g id="Grupo_12660" data-name="Grupo 12660" transform="translate(0 952)">
      <circle id="Elipse_801" data-name="Elipse 801" cx="60.5" cy="60.5" r="60.5" transform="translate(320 9369)" fill="#feb64f"/>
      <path id="Trazado_14322" data-name="Trazado 14322" d="M53.993,0A53.993,53.993,0,1,1,0,53.993,53.993,53.993,0,0,1,53.993,0Z" transform="translate(327 9376)" fill="#fff"/>
    </g>
    <g id="goal" transform="translate(349.107 10349)">
      <path id="Trazado_14343" data-name="Trazado 14343" d="M66.231,51.8A6.368,6.368,0,1,1,72.6,45.43,6.368,6.368,0,0,1,66.231,51.8Zm0-10.613a4.245,4.245,0,1,0,4.245,4.245,4.245,4.245,0,0,0-4.245-4.245Zm0,0" transform="translate(-53.602 -34.915)" fill="#656565"/>
      <path id="Trazado_14344" data-name="Trazado 14344" d="M38.1,197.646v6.368H26.425V189.452l-6.368-2.123V176.421h9.551a5.314,5.314,0,0,0,5.307-5.306v-2.122H5.2A5.312,5.312,0,0,0-.107,174.3v11.674a3.184,3.184,0,0,0,3.184,3.184H5.2v19.1H-.107v7.429H2.016v-5.307H16.874v5.307H19v-9.552H38.1v9.552h2.123V199.769H61.447v15.919h2.122V197.647ZM5.2,175.36v11.674H3.077a1.061,1.061,0,0,1-1.061-1.061V174.3A3.183,3.183,0,0,1,5.2,171.115H32.793a3.184,3.184,0,0,1-3.184,3.184H17.935V188.86l6.367,2.122v13.032H21.119V192.666l-10.613-3.98v19.573H7.322v-32.9Zm11.674,28.654v4.245H12.629v-16.51L19,194.137v9.878Zm0,0" transform="translate(0 -151.048)" fill="#656565"/>
      <path id="Trazado_14345" data-name="Trazado 14345" d="M387.933,43.414h8.49V16.883h6.145L392.179,0l-10.39,16.883h6.145ZM385.588,14.76l6.59-10.711,6.59,10.711H394.3V41.292h-4.245V14.76Zm0,0" transform="translate(-341.344)" fill="#656565"/>
    </g>
  </g>
</svg>
