<svg xmlns="http://www.w3.org/2000/svg" width="121" height="121" viewBox="0 0 121 121">
  <g id="Grupo_12665" data-name="Grupo 12665" transform="translate(-320 -9847)">
    <g id="Grupo_12636" data-name="Grupo 12636" transform="translate(0 478)">
      <circle id="Elipse_801" data-name="Elipse 801" cx="60.5" cy="60.5" r="60.5" transform="translate(320 9369)" fill="#feb64f"/>
      <path id="Trazado_14322" data-name="Trazado 14322" d="M53.993,0A53.993,53.993,0,1,1,0,53.993,53.993,53.993,0,0,1,53.993,0Z" transform="translate(327 9376)" fill="#fff"/>
    </g>
    <g id="action" transform="translate(343.977 9871)">
      <g id="Grupo_12638" data-name="Grupo 12638" transform="translate(9.762 9.743)">
        <g id="Grupo_12637" data-name="Grupo 12637">
          <path id="Trazado_14332" data-name="Trazado 14332" d="M116.987,87.176l-3.082-1.813c-.092-.371-.191-.741-.3-1.1l2.192-3.318a1.218,1.218,0,0,0,.09-1.181,26.716,26.716,0,0,0-2.787-4.693,1.241,1.241,0,0,0-1.038-.492l-4.085.2q-.385-.395-.787-.77l.2-3.958a1.217,1.217,0,0,0-.515-1.058,27.734,27.734,0,0,0-4.8-2.716,1.215,1.215,0,0,0-1.14.084L97.52,68.514c-.371-.106-.749-.205-1.131-.295l-1.865-3.545a1.218,1.218,0,0,0-1.077-.651H88.163a1.217,1.217,0,0,0-1.077.651l-1.864,3.545q-.571.134-1.132.295l-3.423-2.157a1.215,1.215,0,0,0-1.139-.084,27.679,27.679,0,0,0-4.8,2.717,1.217,1.217,0,0,0-.514,1.057L74.42,74q-.4.375-.787.769l-4.086-.2a1.27,1.27,0,0,0-1.039.493,26.943,26.943,0,0,0-2.784,4.693,1.219,1.219,0,0,0,.089,1.181L68,84.259c-.109.364-.209.733-.3,1.1l-3.082,1.812a1.217,1.217,0,0,0-.6,1.049v5.161a1.217,1.217,0,0,0,.6,1.049L67.7,96.248c.092.371.191.741.3,1.105l-2.192,3.318a1.218,1.218,0,0,0-.09,1.181,26.736,26.736,0,0,0,2.787,4.694,1.249,1.249,0,0,0,1.038.492l4.085-.2q.385.4.787.77l-.2,3.957a1.217,1.217,0,0,0,.515,1.058,27.757,27.757,0,0,0,4.8,2.717,1.219,1.219,0,0,0,1.14-.084L84.09,113.1c.371.106.749.205,1.131.295l1.865,3.545a1.218,1.218,0,0,0,1.077.651h5.283a1.217,1.217,0,0,0,1.077-.651l1.864-3.545q.571-.134,1.132-.295l3.423,2.157a1.218,1.218,0,0,0,1.139.084,27.679,27.679,0,0,0,4.8-2.717,1.217,1.217,0,0,0,.514-1.057l-.2-3.958q.4-.375.787-.77l4.086.2a1.23,1.23,0,0,0,1.038-.492,26.866,26.866,0,0,0,2.786-4.694,1.219,1.219,0,0,0-.089-1.181l-2.192-3.319c.109-.364.209-.733.3-1.1l3.082-1.812a1.216,1.216,0,0,0,.6-1.049V88.226A1.217,1.217,0,0,0,116.987,87.176Zm-1.834,5.514-2.932,1.724a1.217,1.217,0,0,0-.572.787c-.146.665-.327,1.324-.535,1.961a1.218,1.218,0,0,0,.14,1.049h0l2.13,3.226a24.354,24.354,0,0,1-1.864,3.136l-3.981-.2a1.271,1.271,0,0,0-.951.388c-.46.494-.948.971-1.452,1.419a1.216,1.216,0,0,0-.408.973l.2,3.853a25.242,25.242,0,0,1-3.243,1.834l-3.335-2.1a1.212,1.212,0,0,0-1.013-.131c-.654.2-1.332.381-2.013.524a1.214,1.214,0,0,0-.827.625l-1.785,3.394H88.9l-1.785-3.394a1.218,1.218,0,0,0-.826-.625c-.687-.145-1.365-.321-2.014-.524a1.211,1.211,0,0,0-1.013.131l-3.336,2.1a25.327,25.327,0,0,1-3.243-1.836l.2-3.852a1.218,1.218,0,0,0-.409-.974c-.5-.445-.99-.922-1.452-1.418a1.246,1.246,0,0,0-.951-.388l-3.98.2a24.227,24.227,0,0,1-1.865-3.135l2.13-3.225a1.216,1.216,0,0,0,.142-1.05c-.208-.637-.389-1.3-.535-1.962a1.216,1.216,0,0,0-.572-.787L66.457,92.69V88.922L69.388,87.2a1.217,1.217,0,0,0,.572-.787c.146-.665.327-1.324.535-1.961a1.218,1.218,0,0,0-.14-1.049l-2.13-3.227a24.425,24.425,0,0,1,1.864-3.136l3.981.2a1.214,1.214,0,0,0,.951-.388c.46-.494.948-.971,1.452-1.419a1.216,1.216,0,0,0,.408-.973l-.2-3.853a25.244,25.244,0,0,1,3.243-1.834l3.335,2.1A1.217,1.217,0,0,0,84.273,71c.654-.2,1.332-.381,2.013-.524a1.214,1.214,0,0,0,.827-.625L88.9,66.458h3.814L94.5,69.852a1.218,1.218,0,0,0,.826.625c.687.145,1.365.321,2.014.524a1.223,1.223,0,0,0,1.013-.131l3.336-2.1a25.325,25.325,0,0,1,3.243,1.835l-.2,3.852a1.218,1.218,0,0,0,.409.974c.5.445.99.922,1.452,1.418a1.237,1.237,0,0,0,.951.388l3.98-.2a24.229,24.229,0,0,1,1.865,3.135l-2.13,3.225a1.216,1.216,0,0,0-.142,1.05c.208.637.389,1.3.535,1.961a1.216,1.216,0,0,0,.572.787l2.932,1.724V92.69Z" transform="translate(-64.022 -64.023)" fill="#656565"/>
        </g>
      </g>
      <g id="Grupo_12640" data-name="Grupo 12640" transform="translate(18.284 18.265)">
        <g id="Grupo_12639" data-name="Grupo 12639">
          <path id="Trazado_14333" data-name="Trazado 14333" d="M138.284,120.024a18.261,18.261,0,1,0,18.261,18.261A18.261,18.261,0,0,0,138.284,120.024Zm0,34.087a15.826,15.826,0,1,1,15.826-15.826A15.826,15.826,0,0,1,138.284,154.111Z" transform="translate(-120.023 -120.024)" fill="#656565"/>
        </g>
      </g>
      <g id="Grupo_12642" data-name="Grupo 12642" transform="translate(54.806 4.874)">
        <g id="Grupo_12641" data-name="Grupo 12641">
          <path id="Trazado_14334" data-name="Trazado 14334" d="M367.327,32.024v7.3h-7.3v2.435h8.522a1.217,1.217,0,0,0,1.217-1.217h0V32.024Z" transform="translate(-360.023 -32.024)" fill="#656565"/>
        </g>
      </g>
      <g id="Grupo_12644" data-name="Grupo 12644" transform="translate(8.544 58.439)">
        <g id="Grupo_12643" data-name="Grupo 12643">
          <path id="Trazado_14335" data-name="Trazado 14335" d="M57.24,384.024a1.217,1.217,0,0,0-1.217,1.217h0v8.522h2.435v-7.3h7.3v-2.435Z" transform="translate(-56.023 -384.024)" fill="#656565"/>
        </g>
      </g>
      <g id="Grupo_12646" data-name="Grupo 12646" transform="translate(0.023 0.001)">
        <g id="Grupo_12645" data-name="Grupo 12645" transform="translate(0 0)">
          <path id="Trazado_14336" data-name="Trazado 14336" d="M6.32,16.029a36.527,36.527,0,0,0,0,41.006l2.014-1.37A34.091,34.091,0,0,1,55.683,8.315L57.053,6.3A36.527,36.527,0,0,0,6.32,16.029Z" transform="translate(-0.023 -0.001)" fill="#656565"/>
        </g>
      </g>
      <g id="Grupo_12648" data-name="Grupo 12648" transform="translate(16.037 16.375)">
        <g id="Grupo_12647" data-name="Grupo 12647">
          <path id="Trazado_14337" data-name="Trazado 14337" d="M156.231,107.606l-2.031,1.345a34.092,34.092,0,0,1-47.572,47.017l-1.37,2.014a36.527,36.527,0,0,0,50.973-50.376Z" transform="translate(-105.258 -107.606)" fill="#656565"/>
        </g>
      </g>
    </g>
  </g>
</svg>
