<svg xmlns="http://www.w3.org/2000/svg" width="121" height="121" viewBox="0 0 121 121">
  <g id="Grupo_12663" data-name="Grupo 12663" transform="translate(-320 -9369)">
    <g id="Grupo_12634" data-name="Grupo 12634">
      <circle id="Elipse_801" data-name="Elipse 801" cx="60.5" cy="60.5" r="60.5" transform="translate(320 9369)" fill="#feb64f"/>
      <path id="Trazado_14322" data-name="Trazado 14322" d="M53.993,0A53.993,53.993,0,1,1,0,53.993,53.993,53.993,0,0,1,53.993,0Z" transform="translate(327 9376)" fill="#fff"/>
    </g>
    <g id="equipo" transform="translate(350 9396)">
      <g id="Grupo_12617" data-name="Grupo 12617" transform="translate(24.8)">
        <g id="Grupo_12616" data-name="Grupo 12616">
          <path id="Trazado_14323" data-name="Trazado 14323" d="M198.2,0a6.2,6.2,0,1,0,6.2,6.2A6.2,6.2,0,0,0,198.2,0Zm0,10.333A4.133,4.133,0,1,1,202.333,6.2,4.133,4.133,0,0,1,198.2,10.333Z" transform="translate(-192)" fill="#656565"/>
        </g>
      </g>
      <g id="Grupo_12619" data-name="Grupo 12619" transform="translate(21.7 13.433)">
        <g id="Grupo_12618" data-name="Grupo 12618">
          <path id="Trazado_14324" data-name="Trazado 14324" d="M181.433,104h-.244l-.218.108a8.237,8.237,0,0,1-7.343,0l-.218-.108h-.244A5.173,5.173,0,0,0,168,109.167v6.2a3.1,3.1,0,0,0,3.1,3.1h12.4a3.1,3.1,0,0,0,3.1-3.1v-6.2A5.173,5.173,0,0,0,181.433,104Zm3.1,11.367A1.033,1.033,0,0,1,183.5,116.4H171.1a1.033,1.033,0,0,1-1.033-1.033v-6.2a3.1,3.1,0,0,1,2.88-3.092,10.341,10.341,0,0,0,8.707,0,3.1,3.1,0,0,1,2.88,3.092Z" transform="translate(-168 -104)" fill="#656565"/>
        </g>
      </g>
      <g id="Grupo_12621" data-name="Grupo 12621" transform="translate(46.5 34.1)">
        <g id="Grupo_12620" data-name="Grupo 12620">
          <path id="Trazado_14325" data-name="Trazado 14325" d="M366.2,264a6.2,6.2,0,1,0,6.2,6.2A6.2,6.2,0,0,0,366.2,264Zm0,10.333a4.133,4.133,0,1,1,4.133-4.133A4.133,4.133,0,0,1,366.2,274.333Z" transform="translate(-360 -264)" fill="#656565"/>
        </g>
      </g>
      <g id="Grupo_12623" data-name="Grupo 12623" transform="translate(43.4 47.533)">
        <g id="Grupo_12622" data-name="Grupo 12622">
          <path id="Trazado_14326" data-name="Trazado 14326" d="M349.433,368h-.244l-.218.1a8.238,8.238,0,0,1-7.343,0l-.218-.1h-.244A5.173,5.173,0,0,0,336,373.167v6.2a3.1,3.1,0,0,0,3.1,3.1h12.4a3.1,3.1,0,0,0,3.1-3.1v-6.2A5.173,5.173,0,0,0,349.433,368Zm3.1,11.367A1.033,1.033,0,0,1,351.5,380.4H339.1a1.033,1.033,0,0,1-1.033-1.033v-6.2a3.1,3.1,0,0,1,2.88-3.092,10.341,10.341,0,0,0,8.707,0,3.1,3.1,0,0,1,2.88,3.092Z" transform="translate(-336 -368)" fill="#656565"/>
        </g>
      </g>
      <g id="Grupo_12625" data-name="Grupo 12625" transform="translate(3.1 34.1)">
        <g id="Grupo_12624" data-name="Grupo 12624">
          <path id="Trazado_14327" data-name="Trazado 14327" d="M30.2,264a6.2,6.2,0,1,0,6.2,6.2A6.2,6.2,0,0,0,30.2,264Zm0,10.333a4.133,4.133,0,1,1,4.133-4.133A4.133,4.133,0,0,1,30.2,274.333Z" transform="translate(-24 -264)" fill="#656565"/>
        </g>
      </g>
      <g id="Grupo_12627" data-name="Grupo 12627" transform="translate(0 47.533)">
        <g id="Grupo_12626" data-name="Grupo 12626">
          <path id="Trazado_14328" data-name="Trazado 14328" d="M13.433,368h-.244l-.218.1a8.238,8.238,0,0,1-7.343,0l-.218-.1H5.167A5.173,5.173,0,0,0,0,373.167v6.2a3.1,3.1,0,0,0,3.1,3.1H15.5a3.1,3.1,0,0,0,3.1-3.1v-6.2A5.173,5.173,0,0,0,13.433,368Zm3.1,11.367A1.033,1.033,0,0,1,15.5,380.4H3.1a1.033,1.033,0,0,1-1.033-1.033v-6.2a3.1,3.1,0,0,1,2.88-3.092,10.341,10.341,0,0,0,8.707,0,3.1,3.1,0,0,1,2.88,3.092Z" transform="translate(0 -368)" fill="#656565"/>
        </g>
      </g>
      <g id="Grupo_12629" data-name="Grupo 12629" transform="translate(20.666 50.633)">
        <g id="Grupo_12628" data-name="Grupo 12628">
          <path id="Trazado_14329" data-name="Trazado 14329" d="M180.583,393.84l0,0a1.033,1.033,0,0,0-1.356-.546h0a22.921,22.921,0,0,1-14.738,1.015l.967-.284a1.034,1.034,0,1,0-.581-1.984l-4.133,1.212c-.016,0-.027.018-.041.023a1.024,1.024,0,0,0-.267.148.9.9,0,0,0-.1.065,1,1,0,0,0-.253.351,1.035,1.035,0,0,0-.079.427,3.186,3.186,0,0,0,.1.413c.006.014,0,.031.011.045l2.067,3.955a1.034,1.034,0,1,0,1.833-.957l-.841-1.608a24.873,24.873,0,0,0,16.863-.918A1.033,1.033,0,0,0,180.583,393.84Z" transform="translate(-159.998 -391.995)" fill="#656565"/>
        </g>
      </g>
      <g id="Grupo_12631" data-name="Grupo 12631" transform="translate(39.266 8.089)">
        <g id="Grupo_12630" data-name="Grupo 12630">
          <path id="Trazado_14330" data-name="Trazado 14330" d="M323.328,81.7a1.033,1.033,0,0,0-1.461,0l-1.462,1.462A24.763,24.763,0,0,0,305.436,62.7a1.033,1.033,0,0,0-.81,1.9,22.7,22.7,0,0,1,13.668,18.262L317.128,81.7a1.033,1.033,0,0,0-1.461,1.461l3.1,3.1a1.033,1.033,0,0,0,1.461,0l0,0,3.1-3.1A1.033,1.033,0,0,0,323.328,81.7Z" transform="translate(-303.998 -62.622)" fill="#656565"/>
        </g>
      </g>
      <g id="Grupo_12633" data-name="Grupo 12633" transform="translate(6.2 6.217)">
        <g id="Grupo_12632" data-name="Grupo 12632">
          <path id="Trazado_14331" data-name="Trazado 14331" d="M64.5,50.865a.961.961,0,0,0-.027-.179c0-.009-.011-.016-.015-.026s0-.018,0-.026a.991.991,0,0,0-.1-.143,1.043,1.043,0,0,0-.118-.17.97.97,0,0,0-.2-.137.909.909,0,0,0-.116-.084L59.8,48.212a1.033,1.033,0,0,0-.858,1.879l2.14.979A24.762,24.762,0,0,0,48,72.917a1.033,1.033,0,0,0,2.067,0A22.7,22.7,0,0,1,61.25,53.342L60.5,54.9a1.033,1.033,0,0,0,.483,1.377,1.017,1.017,0,0,0,.447.1,1.033,1.033,0,0,0,.93-.586l2.067-4.312a.047.047,0,0,1,.008-.032.994.994,0,0,0,.056-.219,1.07,1.07,0,0,0,.039-.17A1.03,1.03,0,0,0,64.5,50.865Z" transform="translate(-48 -48.134)" fill="#656565"/>
        </g>
      </g>
    </g>
  </g>
</svg>
