<svg xmlns="http://www.w3.org/2000/svg" width="108.795" height="103.234" viewBox="0 0 108.795 103.234">
  <g id="Grupo_11908" data-name="Grupo 11908" transform="translate(-347.418 -2322.384)">
    <path id="Trazado_12403" data-name="Trazado 12403" d="M-1875.37,363.37h71.6l37.192,50.053-37.192,53.181h-71.6Z" transform="translate(2222.788 1959.013)" fill="#30a7ce"/>
    <path id="Trazado_14735" data-name="Trazado 14735" d="M11.973,39.391a8.8,8.8,0,0,1-7.588-3.652Q1.738,32.086,1.738,24.879q0-7.227,2.637-10.859a8.813,8.813,0,0,1,7.6-3.633,8.793,8.793,0,0,1,7.578,3.633q2.637,3.633,2.637,10.859,0,7.207-2.646,10.859A8.783,8.783,0,0,1,11.973,39.391Zm0-5.078A3.711,3.711,0,0,0,15.361,32q1.2-2.314,1.2-7.119T15.352,17.76a3.718,3.718,0,0,0-3.379-2.314q-4.609,0-4.609,9.434T11.973,34.313Zm34.238-4.785a9.2,9.2,0,0,1-.83,3.965A9.356,9.356,0,0,1,43.1,36.627a10.76,10.76,0,0,1-3.35,2.012,11.357,11.357,0,0,1-8.076-.02,10.028,10.028,0,0,1-3.3-2.061,9.7,9.7,0,0,1-2.979-7.012,11.729,11.729,0,0,1,2.5-6.895L36.68,10.777h6.387l-7.324,9.551a9.516,9.516,0,0,1,1.289-.078,9.2,9.2,0,0,1,3.467.664,9.388,9.388,0,0,1,2.92,1.846A8.54,8.54,0,0,1,45.439,25.7,9.872,9.872,0,0,1,46.211,29.527ZM40.7,29.391a4.821,4.821,0,0,0-1.367-3.643,4.973,4.973,0,0,0-3.691-1.416,4.767,4.767,0,0,0-3.574,1.426,5.036,5.036,0,0,0-1.426,3.555,4.63,4.63,0,0,0,4.941,5,5.087,5.087,0,0,0,3.672-1.367A4.766,4.766,0,0,0,40.7,29.391Z" transform="translate(368 2349)" fill="#fff"/>
  </g>
</svg>
