<svg xmlns="http://www.w3.org/2000/svg" width="121" height="121" viewBox="0 0 121 121">
  <g id="Grupo_12669" data-name="Grupo 12669" transform="translate(-320 -10581)">
    <g id="Grupo_12661" data-name="Grupo 12661" transform="translate(0 1212)">
      <circle id="Elipse_801" data-name="Elipse 801" cx="60.5" cy="60.5" r="60.5" transform="translate(320 9369)" fill="#feb64f"/>
      <path id="Trazado_14322" data-name="Trazado 14322" d="M53.993,0A53.993,53.993,0,1,1,0,53.993,53.993,53.993,0,0,1,53.993,0Z" transform="translate(327 9376)" fill="#fff"/>
    </g>
    <g id="goal_1_" data-name="goal (1)" transform="translate(349 10610.816)">
      <path id="Trazado_14346" data-name="Trazado 14346" d="M398.753,190.154a5.136,5.136,0,1,1,5.136-5.136A5.136,5.136,0,0,1,398.753,190.154Zm0-8.217a3.081,3.081,0,1,0,3.081,3.081,3.081,3.081,0,0,0-3.081-3.081Zm0,0" transform="translate(-353.122 -161.212)" fill="#656565"/>
      <path id="Trazado_14347" data-name="Trazado 14347" d="M119.218,190.154a5.136,5.136,0,1,1,5.136-5.136A5.136,5.136,0,0,1,119.218,190.154Zm0-8.217a3.081,3.081,0,1,0,3.081,3.081,3.081,3.081,0,0,0-3.081-3.081Zm0,0" transform="translate(-102.345 -161.212)" fill="#656565"/>
      <path id="Trazado_14348" data-name="Trazado 14348" d="M51.794,35.559l9.791-8.9a2.87,2.87,0,0,0-3.834-4.27l-7.375,6.554H40.009l-7.731,9.449V12.509H42.55v4.108H59.473l-2.465-6.163,2.465-6.162H47.685V.184H30.225V38.392l-7.73-9.449H12.128L4.753,22.387A2.871,2.871,0,0,0,.917,26.659l9.793,8.9v24.2H.438V61.81H62.065V59.755H51.794ZM47.686,6.346h8.754L54.8,10.454l1.643,4.108H44.6V12.509h3.082ZM32.279,2.238H45.631v8.217H32.279Zm-11.3,57.518H17.9V45.376H15.845V59.755H12.764v-25.1L2.3,25.142a.822.822,0,0,1-.124-1.057.813.813,0,0,1,1.214-.158L11.347,31H21.521l7.637,9.335a.835.835,0,1,1-1.28,1.072l-6.9-8.044Zm18.488,0H23.035V38.905l3.287,3.831a2.89,2.89,0,0,0,3.8.52c.038-.026.071-.058.109-.086v8.369h2.054V43.172c.039.029.073.064.114.091a2.89,2.89,0,0,0,3.792-.523l3.279-3.834Zm10.271,0H46.658V45.376H44.6V59.755H41.523v-26.4l-6.9,8.048a.834.834,0,0,1-1.1.147.832.832,0,0,1-.183-1.219L40.983,31H51.157l7.956-7.072a.8.8,0,0,1,.643-.2.806.806,0,0,1,.576.362.815.815,0,0,1-.129,1.051L49.74,34.651Zm0,0" transform="translate(0)" fill="#656565"/>
    </g>
  </g>
</svg>
