<svg xmlns="http://www.w3.org/2000/svg" width="108.795" height="103.234" viewBox="0 0 108.795 103.234">
  <g id="Grupo_11911" data-name="Grupo 11911" transform="translate(-347.418 -2322.384)">
    <path id="Trazado_12403" data-name="Trazado 12403" d="M-1875.37,363.37h71.6l37.192,50.053-37.192,53.181h-71.6Z" transform="translate(2222.788 1959.013)" fill="#c74653"/>
    <path id="Trazado_14738" data-name="Trazado 14738" d="M11.973,39.391a8.8,8.8,0,0,1-7.588-3.652Q1.738,32.086,1.738,24.879q0-7.227,2.637-10.859a8.813,8.813,0,0,1,7.6-3.633,8.793,8.793,0,0,1,7.578,3.633q2.637,3.633,2.637,10.859,0,7.207-2.646,10.859A8.783,8.783,0,0,1,11.973,39.391Zm0-5.078A3.711,3.711,0,0,0,15.361,32q1.2-2.314,1.2-7.119T15.352,17.76a3.718,3.718,0,0,0-3.379-2.314q-4.609,0-4.609,9.434T11.973,34.313ZM35.879,10.406a10.913,10.913,0,0,1,5.264,1.279,9.63,9.63,0,0,1,3.74,3.535,9.479,9.479,0,0,1,1.367,5.01,11.531,11.531,0,0,1-2.52,6.875L34.941,39H28.535l7.3-9.551a9.351,9.351,0,0,1-1.27.078A9.233,9.233,0,0,1,30.1,28.4a8.818,8.818,0,0,1-3.369-3.271,9.251,9.251,0,0,1-1.3-4.883A9.049,9.049,0,0,1,28.5,13.209,10.6,10.6,0,0,1,35.879,10.406Zm5.078,10.039a4.613,4.613,0,0,0-4.922-4.98,5.074,5.074,0,0,0-3.662,1.377,4.758,4.758,0,0,0-1.455,3.545,4.828,4.828,0,0,0,1.367,3.633,4.954,4.954,0,0,0,3.691,1.426,4.727,4.727,0,0,0,3.574-1.426A5.1,5.1,0,0,0,40.957,20.445Z" transform="translate(368 2349)" fill="#fff"/>
  </g>
</svg>
