<svg xmlns="http://www.w3.org/2000/svg" width="121" height="121" viewBox="0 0 121 121">
  <g id="Grupo_12667" data-name="Grupo 12667" transform="translate(-320 -10086)">
    <g id="Grupo_12666" data-name="Grupo 12666">
      <g id="Grupo_12649" data-name="Grupo 12649" transform="translate(0 717)">
        <circle id="Elipse_801" data-name="Elipse 801" cx="60.5" cy="60.5" r="60.5" transform="translate(320 9369)" fill="#feb64f"/>
        <path id="Trazado_14322" data-name="Trazado 14322" d="M53.993,0A53.993,53.993,0,1,1,0,53.993,53.993,53.993,0,0,1,53.993,0Z" transform="translate(327 9376)" fill="#fff"/>
      </g>
      <g id="humanitario" transform="translate(348.464 10114.473)">
        <g id="Grupo_12651" data-name="Grupo 12651" transform="translate(0.009 17.661)">
          <g id="Grupo_12650" data-name="Grupo 12650" transform="translate(0)">
            <path id="Trazado_14338" data-name="Trazado 14338" d="M26.71,165.354,22.2,163.331v-9.09a3.729,3.729,0,0,0-3.725-3.725l-.129,0h0a3.76,3.76,0,0,0-1.063.19v-3.881a3.729,3.729,0,0,0-3.725-3.725l-.129,0h0a3.761,3.761,0,0,0-1.063.19v-.118a3.729,3.729,0,0,0-3.725-3.725l-.129,0a3.708,3.708,0,0,0-3.236,2.113,3.658,3.658,0,0,0-1.375-.337,3.964,3.964,0,0,0-2.878,1.056,3.073,3.073,0,0,0-.987,2.23c0,2.934-.018,9.915-.029,13.815a13.705,13.705,0,0,0,1.77,6.767l3.851,6.817a8.837,8.837,0,0,0,4.005,3.671l4.809,2.746v7.036a1.266,1.266,0,0,0,1.266,1.266H29.232a1.266,1.266,0,0,0,1.266-1.266V171.055A6.168,6.168,0,0,0,26.71,165.354Zm-9.426-11.113a1.187,1.187,0,0,1,1.145-1.191h.047a1.194,1.194,0,0,1,1.192,1.192v7.953l-2.384-1.07v-6.884Zm-4.917-7.413a1.187,1.187,0,0,1,1.145-1.191h.047a1.194,1.194,0,0,1,1.192,1.192v12.01l-2.384-2.409v-9.6Zm-4.917-3.65a1.187,1.187,0,0,1,1.144-1.191h.048a1.194,1.194,0,0,1,1.192,1.192V154.6a3.953,3.953,0,0,0-2.384.07V143.178ZM27.965,184.1H16.976v-6.5a1.266,1.266,0,0,0-.639-1.1l-5.5-3.14q-.055-.031-.112-.057a6.286,6.286,0,0,1-2.892-2.631l-3.851-6.817a11.169,11.169,0,0,1-1.442-5.514c.011-3.9.029-10.885.029-13.822a.559.559,0,0,1,.2-.4,1.431,1.431,0,0,1,1.01-.358,1.242,1.242,0,0,1,1.133,1.26v12.344a3.987,3.987,0,0,0,.985,3.84l5.14,5.532a1.266,1.266,0,0,0,1.856-1.724l-5.151-5.545a2.629,2.629,0,0,1-.424-1.265,1.43,1.43,0,0,1,.382-.773l.157-.142a1.438,1.438,0,0,1,1.92.128l11.57,11.691a1.266,1.266,0,0,0,1.8-1.782L21.739,165.9l3.948,1.771.031.014a3.641,3.641,0,0,1,2.246,3.37V184.1Z" transform="translate(-0.009 -139.453)" fill="#656565"/>
          </g>
        </g>
        <g id="Grupo_12653" data-name="Grupo 12653" transform="translate(13.704 46.048)">
          <g id="Grupo_12652" data-name="Grupo 12652">
            <path id="Trazado_14339" data-name="Trazado 14339" d="M110.305,363.962a1.218,1.218,0,0,0-.193-.158,1.3,1.3,0,0,0-.219-.117,1.281,1.281,0,0,0-.237-.072,1.252,1.252,0,0,0-.5,0,1.343,1.343,0,0,0-.237.072,1.288,1.288,0,0,0-.218.117,1.217,1.217,0,0,0-.193.158,1.261,1.261,0,0,0-.275.41,1.341,1.341,0,0,0-.072.237,1.279,1.279,0,0,0,0,.5,1.279,1.279,0,0,0,.072.237,1.252,1.252,0,0,0,.117.219,1.294,1.294,0,0,0,.158.193,1.213,1.213,0,0,0,.193.157,1.284,1.284,0,0,0,.218.117,1.338,1.338,0,0,0,.237.072,1.27,1.27,0,0,0,.248.025,1.246,1.246,0,0,0,.247-.025,1.277,1.277,0,0,0,.237-.072,1.3,1.3,0,0,0,.219-.117,1.23,1.23,0,0,0,.35-.35,1.252,1.252,0,0,0,.117-.219,1.279,1.279,0,0,0,.072-.237,1.248,1.248,0,0,0,.025-.247A1.276,1.276,0,0,0,110.305,363.962Z" transform="translate(-108.143 -363.59)" fill="#656565"/>
          </g>
        </g>
        <g id="Grupo_12655" data-name="Grupo 12655" transform="translate(34.361 17.661)">
          <g id="Grupo_12654" data-name="Grupo 12654">
            <path id="Trazado_14340" data-name="Trazado 14340" d="M301.713,144.517a3.074,3.074,0,0,0-.987-2.23,3.964,3.964,0,0,0-2.878-1.056,3.657,3.657,0,0,0-1.374.337,3.706,3.706,0,0,0-3.232-2.113l-.132,0a3.729,3.729,0,0,0-3.725,3.725v.118a3.761,3.761,0,0,0-1.063-.19h0l-.129,0a3.729,3.729,0,0,0-3.725,3.725v3.881a3.761,3.761,0,0,0-1.063-.19h0l-.129,0a3.729,3.729,0,0,0-3.725,3.725v9.09l-4.509,2.023a6.167,6.167,0,0,0-3.788,5.7v14.314a1.266,1.266,0,0,0,1.266,1.266h13.522a1.266,1.266,0,0,0,1.266-1.266v-7.036l4.809-2.746a8.838,8.838,0,0,0,4.005-3.671l3.851-6.817a13.706,13.706,0,0,0,1.77-6.767C301.732,154.432,301.713,147.451,301.713,144.517Zm-9.8-1.339a1.192,1.192,0,0,1,1.184-1.192h.058a1.187,1.187,0,0,1,1.142,1.191v11.487a3.953,3.953,0,0,0-2.384-.07V143.178Zm-3.734,2.458h.057a1.187,1.187,0,0,1,1.144,1.191v9.6L287,158.838v-12.01h0A1.192,1.192,0,0,1,288.184,145.636Zm-4.917,7.413h.056a1.187,1.187,0,0,1,1.144,1.191v6.884l-2.384,1.07v-7.953h0A1.192,1.192,0,0,1,283.267,153.049Zm14.5,10.8-3.851,6.817a6.286,6.286,0,0,1-2.892,2.631c-.038.017-.076.036-.112.057l-5.5,3.14a1.267,1.267,0,0,0-.639,1.1v6.5H273.786V171.055a3.641,3.641,0,0,1,2.246-3.37l.031-.014,3.948-1.771-1.412,1.427a1.267,1.267,0,0,0,1.8,1.782l11.145-11.262.427-.432a1.436,1.436,0,0,1,1.917-.126l.157.142a1.431,1.431,0,0,1,.383.773A2.628,2.628,0,0,1,294,159.47l-5.151,5.545a1.266,1.266,0,0,0,1.856,1.724l5.14-5.532a3.987,3.987,0,0,0,.985-3.84V145.022a1.242,1.242,0,0,1,1.133-1.26,1.432,1.432,0,0,1,1.01.358.558.558,0,0,1,.2.4c0,2.937.018,9.921.029,13.822A11.168,11.168,0,0,1,297.768,163.853Z" transform="translate(-271.253 -139.453)" fill="#656565"/>
          </g>
        </g>
        <g id="Grupo_12657" data-name="Grupo 12657" transform="translate(48.622 46.048)">
          <g id="Grupo_12656" data-name="Grupo 12656">
            <path id="Trazado_14341" data-name="Trazado 14341" d="M386.365,364.609a1.31,1.31,0,0,0-.072-.237,1.286,1.286,0,0,0-.117-.218,1.368,1.368,0,0,0-.158-.194,1.285,1.285,0,0,0-.41-.274,1.313,1.313,0,0,0-.237-.072,1.253,1.253,0,0,0-.5,0,1.28,1.28,0,0,0-.237.072,1.294,1.294,0,0,0-.219.117,1.354,1.354,0,0,0-.193.157,1.311,1.311,0,0,0-.274.412,1.308,1.308,0,0,0-.072.237,1.266,1.266,0,0,0-.025.248,1.244,1.244,0,0,0,.025.247,1.276,1.276,0,0,0,.072.237,1.292,1.292,0,0,0,.117.219,1.21,1.21,0,0,0,.157.193,1.273,1.273,0,0,0,.193.157,1.294,1.294,0,0,0,.219.117,1.278,1.278,0,0,0,.237.072,1.223,1.223,0,0,0,.5,0,1.31,1.31,0,0,0,.237-.072,1.282,1.282,0,0,0,.218-.117,1.213,1.213,0,0,0,.192-.157,1.249,1.249,0,0,0,.275-.412,1.279,1.279,0,0,0,.072-.237,1.247,1.247,0,0,0,.024-.247A1.268,1.268,0,0,0,386.365,364.609Z" transform="translate(-383.856 -363.59)" fill="#656565"/>
          </g>
        </g>
        <g id="Grupo_12659" data-name="Grupo 12659" transform="translate(13.711 0)">
          <g id="Grupo_12658" data-name="Grupo 12658" transform="translate(0 0)">
            <path id="Trazado_14342" data-name="Trazado 14342" d="M145.323,9.113a11.881,11.881,0,0,0-4.771-7.425A9.725,9.725,0,0,0,132.645.294a8.063,8.063,0,0,0-1.249.4h0a12.655,12.655,0,0,0-4.3,3.462l-.171.182-.172-.183c-1.792-1.9-3.087-3.281-5.552-3.862a9.727,9.727,0,0,0-7.907,1.393,11.881,11.881,0,0,0-4.771,7.425,14.683,14.683,0,0,0,1.264,9.628c1.14,2.281,3.763,4.978,7.8,8.015,1.58,1.19,3.022,2.162,3.955,2.768a47.807,47.807,0,0,0,5.388,3.051,74.468,74.468,0,0,0,7.752-4.755c5-3.564,8.156-6.619,9.386-9.079A14.685,14.685,0,0,0,145.323,9.113Zm-3.529,8.5c-2.187,4.375-12.211,10.7-14.867,12.25-.218-.129-.5-.294-.825-.5,4.132-2.765,9.829-7.037,11.621-10.622a14.684,14.684,0,0,0,1.264-9.628,1.267,1.267,0,0,0-2.476.535,12.142,12.142,0,0,1-1.053,7.96c-1.257,2.513-5.524,6.25-11.753,10.3-2.507-1.563-9.74-6.471-11.656-10.3a12.143,12.143,0,0,1-1.053-7.96,9.367,9.367,0,0,1,3.722-5.867,7.255,7.255,0,0,1,5.9-1.021c1.723.406,2.634,1.374,4.288,3.132.346.368.7.749,1.108,1.164a1.267,1.267,0,0,0,1.817,0c.4-.415.761-.8,1.108-1.164a10.606,10.606,0,0,1,3.427-2.858h0a5.557,5.557,0,0,1,.861-.274,7.255,7.255,0,0,1,5.9,1.021,9.366,9.366,0,0,1,3.722,5.867A12.145,12.145,0,0,1,141.793,17.608Z" transform="translate(-108.202 0)" fill="#656565"/>
          </g>
        </g>
      </g>
    </g>
  </g>
</svg>
