<svg xmlns="http://www.w3.org/2000/svg" width="360" height="272.955" viewBox="0 0 360 272.955">
  <g id="Grupo_12278" data-name="Grupo 12278" transform="translate(2694.791 -434.349)">
    <g id="Grupo_12266" data-name="Grupo 12266" transform="translate(-2686.78 434.349)">
      <path id="Trazado_13712" data-name="Trazado 13712" d="M-2648.267,1316.177l161.339-4.871,190.65-10.055-188.2,31.583Z" transform="translate(2648.267 -1151.982)" fill="#f8fcff"/>
      <g id="Grupo_12265" data-name="Grupo 12265" transform="translate(53.454 0)">
        <g id="Grupo_12264" data-name="Grupo 12264">
          <path id="Trazado_13713" data-name="Trazado 13713" d="M-2251.939,474.327s-34.157-3.108-40.663-.242-.566,11.782-6.05,12.447-39.172,2.5-39.172,2.5l7.021,6.206-5.414,6.853s45.9-2.5,49.741-2.59c7.941-.192-.7-12.57,6.851-13.257s29.816,1.887,29.816,1.887Z" transform="translate(2337.825 -466.238)" fill="#f99746"/>
          <g id="Grupo_12263" data-name="Grupo 12263" transform="translate(84.147)">
            <path id="Trazado_13714" data-name="Trazado 13714" d="M-1833.381,525.3l-15.739-90.051a.768.768,0,0,1,.624-.889.768.768,0,0,1,.888.624l15.749,89.635C-1831.784,525.037-1833.321,525.644-1833.381,525.3Z" transform="translate(1849.131 -434.349)" fill="#2b478b"/>
          </g>
        </g>
        <path id="Trazado_13715" data-name="Trazado 13715" d="M-1916.557,951.056l-33.742,94.477,55.814,5.191,60.094-13.5Z" transform="translate(2017.026 -862.086)" fill="#cde0fb"/>
        <path id="Trazado_13716" data-name="Trazado 13716" d="M-2029.345,951.056l9.863,99.668-67.065-5.688Z" transform="translate(2129.814 -862.086)" fill="#afcdfb"/>
      </g>
    </g>
    <g id="Grupo_12268" data-name="Grupo 12268" transform="translate(-2431.677 440.293)">
      <path id="Trazado_13717" data-name="Trazado 13717" d="M-774.484,528.961s-2.268-4.031,0-4.851,3.295-.064,3.4.854a25.121,25.121,0,0,1-.864,4.536Z" transform="translate(842.856 -514.308)" fill="#ffb27d"/>
      <path id="Trazado_13718" data-name="Trazado 13718" d="M-915.244,574.843a73.345,73.345,0,0,1-11.369,1.168,63.377,63.377,0,0,1-8.74-.393q-1.03-.118-1.981-.264a39.347,39.347,0,0,1-10.393-2.816s6.118-12.806,11.059-12.315c5.8.578,15.623,5.781,16.6,4.322,1.1-1.644,2.02-15.743,2.02-15.743,2.571-1.761,4.105.1,4.105.1S-908.921,573.7-915.244,574.843Z" transform="translate(985.435 -534.41)" fill="#f99746"/>
      <path id="Trazado_13719" data-name="Trazado 13719" d="M-863.086,669.852a73.324,73.324,0,0,1-11.369,1.168,63.4,63.4,0,0,1-8.74-.393c-1.542-4.906-2.652-9.917.451-6.9C-877.272,669.059-863.086,669.852-863.086,669.852Z" transform="translate(933.277 -629.419)" fill="#ed7d2b"/>
      <path id="Trazado_13720" data-name="Trazado 13720" d="M-950.85,1294.7s-.44,5.091.636,5.62l13.772-.028s0-1.589-2.212-1.943-6.1-1.648-6.755-4.533S-950.85,1294.7-950.85,1294.7Z" transform="translate(988.094 -1150.871)" fill="#233862"/>
      <path id="Trazado_13721" data-name="Trazado 13721" d="M-975.883,869.668c-.068,3.329-.228,6.763-.541,9.849-1.487,14.643-2.01,32.336-2.224,35.747-.37,5.921-1.54,15.381-1.54,15.381s-2.32,2.2-6.842,1.151a153.96,153.96,0,0,1-4.584-27.971c-.013-.235-.026-.472-.038-.708-.1-1.9-.2-4.066-.3-6.4-.689-15.664-1.438-38.933-1.438-38.933l17.282-4.058S-975.714,861.369-975.883,869.668Z" transform="translate(1023.238 -787.454)" fill="#2a4e96"/>
      <path id="Trazado_13722" data-name="Trazado 13722" d="M-991.955,896.712c-.689-15.664-1.438-38.933-1.438-38.933l17.282-4.058S-988.611,891.146-991.955,896.712Z" transform="translate(1023.238 -787.454)" fill="#233862"/>
      <path id="Trazado_13723" data-name="Trazado 13723" d="M-1163.125,861.323s-2.812,3.307-3.065,4.224a18.377,18.377,0,0,0-.462,5.213c.241.993,2.111-2.768,2.791-3.17s-.51,1.5-.278,1.813,1.576-1.108,2.1-1.589.472-3.076,1.1-4.61S-1163.125,861.323-1163.125,861.323Z" transform="translate(1166.721 -793.747)" fill="#ffb27d"/>
      <path id="Trazado_13724" data-name="Trazado 13724" d="M-1159.449,1265.477s-2.451,2.237-1.973,3.826,2.691,2.649,2.989,4.592,1.494,3,2.571,3h5.13s.792-1.367-1.121-1.779-2.634-2.7-2.515-4.814a37.341,37.341,0,0,0-.179-4.945l-4.066-.942Z" transform="translate(1162.386 -1127.434)" fill="#233862"/>
      <path id="Trazado_13725" data-name="Trazado 13725" d="M-1108.2,854.061s-16.178,34.614-24.787,49.8-11.3,19.426-11.3,19.426-4.932-1.943-5.381-3.267c0,0,3.292-29.321,9.057-36.468,3.258-4.039,7.085-16.159,7.264-20.4s3.959-14.355,3.959-14.355Z" transform="translate(1152.603 -783.381)" fill="#2a4e96"/>
      <path id="Trazado_13726" data-name="Trazado 13726" d="M-1020.211,647.438a28.036,28.036,0,0,1-15.538,3.9c-4-.175-11.923-1.307-13.2-4.485-.3-.746-.08-1.693.37-3.146,1.169-3.777,3.9-10.971,3.072-26.92a26.225,26.225,0,0,1,.107-4.186c.858-7.856,5.36-12.509,9.712-14.029,10.613-3.709,14.151,1.43,14.151,1.43s4.691,3.717,5.4,11.473C-1014.729,626.989-1020.211,647.438-1020.211,647.438Z" transform="translate(1069.344 -575.126)" fill="#f99746"/>
      <path id="Trazado_13727" data-name="Trazado 13727" d="M-953.213,552.6s4.869,2.962,10.151,2.124c0,0,1.044-.265.531-1.491a15.676,15.676,0,0,0,.469-1.636,24.711,24.711,0,0,0,.6-2.668l-3-3.15-2.839-3.01C-948.078,549.961-953.213,552.6-953.213,552.6Z" transform="translate(989.976 -530.041)" fill="#ffb27d"/>
      <path id="Trazado_13728" data-name="Trazado 13728" d="M-921.477,558.615a11.739,11.739,0,0,0,5.686,6.1c.463-1.692.764-3.462.764-3.462l-3.157-2.357Z" transform="translate(963.705 -543.161)" fill="#ed985f"/>
      <path id="Trazado_13729" data-name="Trazado 13729" d="M-916.66,504.6s-9.3,1.162-9.948-4.55-2.292-9.409,3.616-10.392,7.311,1.07,8,2.925S-914.259,504.152-916.66,504.6Z" transform="translate(968.541 -485.868)" fill="#ffb27d"/>
      <path id="Trazado_13730" data-name="Trazado 13730" d="M-943.591,471.729c-.08-.1-.271-.184-.7-.224a1.745,1.745,0,0,1,.813-.2,2.167,2.167,0,0,1,1.511-1.861,1.293,1.293,0,0,0-.661.908c1.24-1.18,3.83-1.976,10.889-1.149,9.3,1.089,6,6.947,4.767,7.613s-4.2-1.4-6.459-1.307-2.808,3.329-3.589,3.747-.451-.36-1.466-.866-1.178,1.2-.922,2.326-1.219,2.539-1.219,2.539l-1.376-1.6c-1.376-1.6-2.48-8.193-1.776-9.563Z" transform="translate(982.59 -468.866)" fill="#1d2a49"/>
      <g id="Grupo_12267" data-name="Grupo 12267" transform="translate(50.717 4.594)">
        <path id="Trazado_13731" data-name="Trazado 13731" d="M-851.745,521.841l-15.78.14-.108-2.374,15.731-1.219Z" transform="translate(868.415 -514.455)" fill="#2a4e96"/>
        <path id="Trazado_13732" data-name="Trazado 13732" d="M-789.725,514.8l-17.18.248-.2-4.316,17.131-1.327Z" transform="translate(818.306 -507.021)" fill="#2a4e96"/>
        <path id="Trazado_13733" data-name="Trazado 13733" d="M-709.83,508.471l-14.488.018-.264-5.827,14.429-1.313Z" transform="translate(749.996 -500.35)" fill="#233862"/>
        <path id="Trazado_13734" data-name="Trazado 13734" d="M-643.412,504.651h0a.81.81,0,0,0,.772-.846l-.34-7.485a.81.81,0,0,0-.846-.772h0a.811.811,0,0,0-.773.846l.34,7.485A.81.81,0,0,0-643.412,504.651Z" transform="translate(683.785 -495.547)" fill="#233862"/>
        <path id="Trazado_13735" data-name="Trazado 13735" d="M-871.335,525.94h0a.72.72,0,0,1-.752-.687l-.089-1.942a.72.72,0,0,1,.687-.752h0a.72.72,0,0,1,.752.687l.088,1.942A.72.72,0,0,1-871.335,525.94Z" transform="translate(872.176 -517.908)" fill="#2a4e96"/>
      </g>
      <path id="Trazado_13736" data-name="Trazado 13736" d="M-1046.137,717.538c1.169-3.777,3.9-10.971,3.072-26.92a26.2,26.2,0,0,1,.107-4.186h0c3.493-.3,8.831,3.475,8.831,3.475S-1037.413,709.953-1046.137,717.538Z" transform="translate(1066.9 -648.956)" fill="#ed7d2b"/>
      <path id="Trazado_13737" data-name="Trazado 13737" d="M-1118.09,599.864s-8.955,1.54-13.626,7.241-12.184,13.742-13.961,16.558-6.708,21.976-6.708,21.976.325.616,1.686.974a3.206,3.206,0,0,0,2.246-.189s6.534-11.182,8.992-16.768c1.021-2.321,18.691-11.512,25.334-10.56C-1111.518,619.471-1118.09,599.864-1118.09,599.864Z" transform="translate(1154.854 -577.308)" fill="#f99746"/>
      <path id="Trazado_13738" data-name="Trazado 13738" d="M-775.91,511.4s1.926,1.178,3.078.68,1.051-.955,1.051-.955S-775.262,510.155-775.91,511.4Z" transform="translate(843.202 -503.549)" fill="#ffb27d"/>
      <path id="Trazado_13739" data-name="Trazado 13739" d="M-1070.3,634.034s-3.93,24.813-31.815,32.037l-3.038,5.993,5.336.9s31.746-9.2,31.318-39.372Z" transform="translate(1115.757 -605.231)" fill="#bc3f3f"/>
      <path id="Trazado_13740" data-name="Trazado 13740" d="M-912.471,613.142l-1.287.126v1.863l1.9,1.971,1.8-.439v-2.586l-1.3-.936Z" transform="translate(957.315 -588.3)" fill="#a02e2e"/>
      <path id="Trazado_13741" data-name="Trazado 13741" d="M-955.3,584.485s-1.246.281-4.094,2.648c0,0,2.833,6.013,8.809,6.733a19.994,19.994,0,0,1,.336-4.447S-954.987,587.724-955.3,584.485Z" transform="translate(995.094 -564.577)" fill="#ed7d2b"/>
      <path id="Trazado_13742" data-name="Trazado 13742" d="M-906.283,605.193s2.916,1.548,3.132,3.96c0,0,1.115-1.766.792-2.989a9.965,9.965,0,0,0-1.323-2.625S-903.583,605.013-906.283,605.193Z" transform="translate(951.127 -580.351)" fill="#ed7d2b"/>
    </g>
    <g id="Grupo_12270" data-name="Grupo 12270" transform="translate(-2527.341 480.81)">
      <path id="Trazado_13743" data-name="Trazado 13743" d="M-1308.631,909.674s3.678-3.787,4.074-2.453-.847,4.537-.847,4.537l-2.948.8Z" transform="translate(1379.859 -872.023)" fill="#ffb27d"/>
      <path id="Trazado_13744" data-name="Trazado 13744" d="M-1449.289,873.621s-10.123,10.6-14.72,10.166a35.614,35.614,0,0,1-8.833-2.46c-2.6-1.062-4.652-2.216-4.855-2.938-.245-.872-.6-6.776-.853-11.683-.193-3.687-.333-6.808-.333-6.808s14.026,16.46,16.189,15.348,13.126-4.511,13.126-4.511Z" transform="translate(1520.796 -833.084)" fill="#2a4e96"/>
      <path id="Trazado_13745" data-name="Trazado 13745" d="M-1471.233,914.06h-.006c-2.6-1.062-4.652-2.216-4.855-2.938-.244-.872-.6-6.776-.853-11.683C-1472.178,902.154-1471.233,914.06-1471.233,914.06Z" transform="translate(1519.193 -865.817)" fill="#1e3d70"/>
      <path id="Trazado_13746" data-name="Trazado 13746" d="M-1545.33,800.367s3.839,4.741,8.883,2.89a15.169,15.169,0,0,0,1.182-4.5c.006-.236.014-.465.022-.683.07-2.161.167-3.373.167-3.373h-.005c-.226-.1-7.59-3.3-7.589-3.042C-1542.659,797.5-1545.33,800.367-1545.33,800.367Z" transform="translate(1575.802 -776.58)" fill="#ffb27d"/>
      <path id="Trazado_13747" data-name="Trazado 13747" d="M-1525.739,799.656a11.617,11.617,0,0,0,6.71,5.007c.069-2.161.167-3.373.167-3.373h-.005C-1519.072,801.229-1525.944,799.26-1525.739,799.656Z" transform="translate(1559.588 -783.172)" fill="#ed975d"/>
      <path id="Trazado_13748" data-name="Trazado 13748" d="M-1527.549,741.743s-8.389,1.8-9.428-3.444-2.821-8.539,2.491-9.908,6.752.424,7.525,2.089S-1525.394,741.14-1527.549,741.743Z" transform="translate(1569.834 -723.819)" fill="#ffb27d"/>
      <path id="Trazado_13749" data-name="Trazado 13749" d="M-1557.1,720.082c-.115.071-1.923.587-5.191-6.259a5.9,5.9,0,0,1,.454-5.393c1.285-2.009,5.732-3.521,9.414-4.144s4.521,1.458,5.344,3.549a11.2,11.2,0,0,0,3.447,4.04c-3.2,1.7-6.958-.9-8.285-.509s-1.835,2.46-1.948,3.125-.276,1.216-1.923.588-.8,2.337-.543,2.906C-1556.327,717.985-1556.132,719.491-1557.1,720.082Z" transform="translate(1590.21 -704.174)" fill="#a9453d"/>
      <g id="Grupo_12269" data-name="Grupo 12269" transform="translate(0 68.297)">
        <path id="Trazado_13750" data-name="Trazado 13750" d="M-1711.7,1517.415h-5.057c-1.06,0-2.238-1.061-2.533-3s-2.474-3-2.946-4.6,1.945-3.83,1.945-3.83l.4-.519.42-.541,4.006.942s.1.954.161,2.169c.043.877.066,1.892.016,2.781-.118,2.121.594,4.405,2.478,4.818S-1711.7,1517.415-1711.7,1517.415Z" transform="translate(1722.3 -1435.343)" fill="#2c3a64"/>
        <path id="Trazado_13751" data-name="Trazado 13751" d="M-1525.168,1542.379h-13.4a1.213,1.213,0,0,1-.285-.083c-.895-.448-.615-3.875-.507-4.933.021-.2.035-.311.035-.311s4.713-3.77,5.362-.884c.021.09.044.179.069.266v0c.818,2.7,4.476,3.927,6.589,4.269A2.3,2.3,0,0,1-1525.168,1542.379Z" transform="translate(1570.969 -1460.307)" fill="#2c3a64"/>
        <path id="Trazado_13752" data-name="Trazado 13752" d="M-1568.155,1122.585s-.715,8.931-1.557,19.667c-1.144,14.584-2.519,32.5-2.655,35.891-.235,5.893-1.179,15.319-1.179,15.319s-2.238,2.24-6.717,1.3a154.207,154.207,0,0,1-5.131-27.694q-.027-.35-.053-.7c-1.06-14.494-2.71-45.013-2.71-45.013Z" transform="translate(1611.254 -1117.813)" fill="#f99746"/>
        <path id="Trazado_13753" data-name="Trazado 13753" d="M-1568.155,1122.585s-.715,8.931-1.557,19.667l-15.681,24.812q-.027-.35-.053-.7c-1.06-14.494-2.71-45.013-2.71-45.013Z" transform="translate(1611.254 -1117.813)" fill="#ed7d2b"/>
        <path id="Trazado_13754" data-name="Trazado 13754" d="M-1672.83,1106.652s-12.9,32.346-21.387,47.546-11.135,19.443-11.135,19.443-4.861-1.944-5.3-3.27c0,0,3.244-29.346,8.926-36.5,3.21-4.042,6.981-16.173,7.158-20.415s1.149-12.638,1.149-12.638Z" transform="translate(1712.66 -1100.819)" fill="#f99746"/>
      </g>
      <path id="Trazado_13755" data-name="Trazado 13755" d="M-1588.661,853.074c-.1,2.747-.322,5.831-.6,8.961,0,.021,0,.041-.007.063-.017.186-.037.374-.054.56-.091,1.008-.184,2.016-.284,3.018-.093.941-.19,1.878-.292,2.8q-.126,1.149-.263,2.263l-.016.1c-.011.281-.052.582-.086.855-.846,7.148-1.7,12.79-1.837,12.877a.8.8,0,0,1-.552.125c-1.874-.273-7.486.043-12.053-1.045a34.78,34.78,0,0,1-10.648-4.664c-.461-.288-1.514-1.043-1.419-1.588.1-.6.274-1.469.5-2.562.266-1.309.6-2.942.943-4.835.337-1.854.686-3.957.993-6.246.294-2.153.549-4.468.729-6.9q.159-2.139.428-4.219a63.887,63.887,0,0,1,2.073-10.056c1.683-5.631,4.861-9.26,7.792-10.9.385-.2,1.618.47,3.466,1.707a7.134,7.134,0,0,0,4.807,1.519l2.01,1.6a17.38,17.38,0,0,1,4.263,9.351c.034.309.065.636.088.982A61.305,61.305,0,0,1-1588.661,853.074Z" transform="translate(1634.945 -809.697)" fill="#2a4e96"/>
      <path id="Trazado_13756" data-name="Trazado 13756" d="M-1574.584,975.989s6.91,18.1,18.455,21.494l.795-6.3Z" transform="translate(1600.019 -929.186)" fill="#1e3d70"/>
      <path id="Trazado_13757" data-name="Trazado 13757" d="M-1494.694,969.048c0,.022,0,.041-.007.063-.017.186-.037.374-.054.56-.091,1.008-.184,2.016-.284,3.018-.718.346-1.3.565-1.3.565l-6.2-10.817.348-1.519S-1498.978,967.25-1494.694,969.048Z" transform="translate(1540.38 -916.71)" fill="#1e3d70"/>
    </g>
    <g id="Grupo_12272" data-name="Grupo 12272" transform="translate(-2637.777 478.294)">
      <path id="Trazado_13758" data-name="Trazado 13758" d="M-2299.182,719.826c-.508-.979,11.079-4.506,11.262,5.159,0,0,21.7-.534,11.341-12.631-3.588-4.188-3.219-7.651-3.111-10.874s-2.234-12.593-10.268-11.65a5.982,5.982,0,0,0-4.73.506C-2300.659,693.434-2314.035,723.391-2299.182,719.826Z" transform="translate(2315.885 -689.565)" fill="#163560"/>
      <path id="Trazado_13759" data-name="Trazado 13759" d="M-2179.251,849.54a21.169,21.169,0,0,0,2.161,3.268c1.679,2.1,4.267,4.532,7.517,5.011a8.068,8.068,0,0,0,4.466-.725h.005a20.362,20.362,0,0,0,6.915-5.782,3.246,3.246,0,0,0-.443-3.184s-7.97,1.793-8.73,1.413-5.187-13.136-6.241-14.739-4.648-2.436-4.648-2.436Z" transform="translate(2211.007 -807.777)" fill="#b0d0ff"/>
      <path id="Trazado_13760" data-name="Trazado 13760" d="M-2167.907,930.781c1.679,2.1,4.268,4.532,7.518,5.011a8.07,8.07,0,0,0,4.466-.725c-.155.02-4.1.507-5.668-2.3-1.6-2.868-3.336-7.423-5.717-5.9C-2168.336,927.515-2168.29,929.143-2167.907,930.781Z" transform="translate(2201.823 -885.75)" fill="#98baf4"/>
      <path id="Trazado_13761" data-name="Trazado 13761" d="M-2361.658,1426.733s-2.432,2.22-1.958,3.8,2.669,2.628,2.966,4.556,1.483,2.979,2.551,2.979h5.09s.786-1.357-1.112-1.765-2.614-2.674-2.5-4.777a37.041,37.041,0,0,0-.178-4.906l-4.033-.935Z" transform="translate(2363.677 -1298.932)" fill="#233862"/>
      <path id="Trazado_13762" data-name="Trazado 13762" d="M-2234.021,1437.261s-.875,9.4.193,9.928l13.665-.028s0-1.577-2.195-1.928-6.051-1.635-6.7-4.5S-2234.021,1437.261-2234.021,1437.261Z" transform="translate(2256.625 -1308.517)" fill="#233862"/>
      <path id="Trazado_13763" data-name="Trazado 13763" d="M-2289.25,826.782c2.812-6.306,4.532-8.116,4.2-10.074-.245-1.457.744-27.162.744-27.162.334-.1,1-.2,1.368-.277a3.429,3.429,0,0,0,2.505-2.179,17.485,17.485,0,0,0,.851-5.8l.36.071,6.057,1.2s-.138,1.906-.142,3.7v.045a3.483,3.483,0,0,0,2.514,3.368c.765.221,1.43.41,1.43.41a55.54,55.54,0,0,1,2.649,12.872c.425,6.523-4.044,9.356.033,22.391C-2262.512,838.662-2290.8,830.267-2289.25,826.782Z" transform="translate(2302.116 -765.497)" fill="#ffb27d"/>
      <path id="Trazado_13764" data-name="Trazado 13764" d="M-2224.63,782.9s-.138,1.906-.142,3.7c-3.389-.1-5.181-3.187-5.915-4.9Z" transform="translate(2253.586 -765.839)" fill="#e8945b"/>
      <path id="Trazado_13765" data-name="Trazado 13765" d="M-2227.95,733.492s-8.019.132-8.024-4.863-1.044-8.342,4.076-8.637,6.117,1.609,6.523,3.276S-2225.864,733.329-2227.95,733.492Z" transform="translate(2258.037 -714.727)" fill="#ffb27d"/>
      <path id="Trazado_13766" data-name="Trazado 13766" d="M-2240.642,714.547s-2.2,5.86-5.564,6.726-4.831-.036-4.831-.036a9.542,9.542,0,0,0,3.121-5.637S-2242.3,711.758-2240.642,714.547Z" transform="translate(2270.433 -709.405)" fill="#163560"/>
      <path id="Trazado_13767" data-name="Trazado 13767" d="M-2193.822,717.6a4.975,4.975,0,0,1,2.3,1.8,8.075,8.075,0,0,1,1.084,4.586s1.654-3.983-.205-6.236C-2192.616,715.353-2193.822,717.6-2193.822,717.6Z" transform="translate(2223.069 -711.979)" fill="#163560"/>
      <path id="Trazado_13768" data-name="Trazado 13768" d="M-2199.071,779.2a2.015,2.015,0,0,0,1.66.676,1.473,1.473,0,0,0,1.235-.816A5.386,5.386,0,0,0-2199.071,779.2Z" transform="translate(2227.414 -763.534)" fill="#ebf3fa"/>
      <path id="Trazado_13769" data-name="Trazado 13769" d="M-2293.447,840.606s1.9-1.229,2.1,2.216c.135,2.284.345,9.442.673,10.2.822,1.9,1.75,2.207,1.75,2.207l7.175,1.759,2.523.617,7.955-2.376s3.623-10.114,2.168-15.807a43.759,43.759,0,0,0-3.677-9.647s-6.492,6.356-14.944-.539Z" transform="translate(2305.539 -805.185)" fill="#b0d0ff"/>
      <path id="Trazado_13770" data-name="Trazado 13770" d="M-2238.925,917.052s-9.464-9.132-10.978-13.513c0,0,2.388,12.71,5.827,14.081S-2238.925,917.052-2238.925,917.052Z" transform="translate(2269.493 -866.695)" fill="#98baf4"/>
      <path id="Trazado_13771" data-name="Trazado 13771" d="M-2281.251,894.286c.135,2.284.345,8.567.673,9.323.822,1.9,1.75,2.207,1.75,2.207l7.175,1.759,3.116-.916s-11.281-7.363-10.128-16.313Z" transform="translate(2295.443 -855.774)" fill="#98baf4"/>
      <path id="Trazado_13772" data-name="Trazado 13772" d="M-2231.055,989.108s3.939,12.263,4.192,16.438-7.531,59.31-7.844,61.234c-.295,1.813-2.547,2.969-2.547,2.969a3.407,3.407,0,0,1-2.514.193,6.212,6.212,0,0,1-2.7-1.272s-3.067-39.322-1.169-53.369a222.513,222.513,0,0,0,1.92-26.194Z" transform="translate(2264.818 -937.53)" fill="#ed7d2b"/>
      <path id="Trazado_13773" data-name="Trazado 13773" d="M-2332.907,986.985s-6.009,8.063-6.57,13.514-.879,24.6-2.072,29.911-5.579,15.539-5.579,32.113a3.308,3.308,0,0,0,1.863,1.456,15.41,15.41,0,0,0,1.639.453,2.575,2.575,0,0,0,2.881-1.368c2.965-5.969,12.409-25.222,12.894-29.219.343-2.828,3.324-21.547,9.829-32.53,1.562-2.637-.958-13.123-.958-13.123Z" transform="translate(2349.978 -935.773)" fill="#f99746"/>
      <path id="Trazado_13774" data-name="Trazado 13774" d="M-2198.037,779.514s.139.589,1.6.5c0,0,1.229-.076,1.192-.723A3.956,3.956,0,0,0-2198.037,779.514Z" transform="translate(2226.558 -763.714)" fill="#fff"/>
      <path id="Trazado_13775" data-name="Trazado 13775" d="M-2251.31,978.114a8.261,8.261,0,0,1-4.724,1.314c-3.753.076-13.052-.957-13.052-.957a7.7,7.7,0,0,0-.4,2.374s11.358,2.865,17.938.418A4.159,4.159,0,0,0-2251.31,978.114Z" transform="translate(2285.702 -928.43)" fill="#233862"/>
      <g id="Grupo_12271" data-name="Grupo 12271" transform="translate(28.856 50.357)">
        <path id="Trazado_13776" data-name="Trazado 13776" d="M-2196.091,983.956a1.838,1.838,0,0,1,1.712-1.938,1.838,1.838,0,0,1,1.712,1.938,1.838,1.838,0,0,1-1.712,1.938A1.838,1.838,0,0,1-2196.091,983.956Zm.568,0a1.274,1.274,0,0,0,1.145,1.37,1.274,1.274,0,0,0,1.145-1.37,1.275,1.275,0,0,0-1.145-1.37A1.274,1.274,0,0,0-2195.523,983.956Z" transform="translate(2196.091 -982.018)" fill="#fff"/>
      </g>
      <path id="Trazado_13777" data-name="Trazado 13777" d="M-2059.444,913.485s3.678-3.787,4.074-2.453-.847,4.537-.847,4.537l-2.948.8Z" transform="translate(2111.829 -872.663)" fill="#ffb27d"/>
    </g>
    <g id="Grupo_12273" data-name="Grupo 12273" transform="translate(-2686.78 583.618)">
      <path id="Trazado_13778" data-name="Trazado 13778" d="M-2648.267,1316.177l163.786,16.657,188.2-31.583-70.886,89.685h-202.451Z" transform="translate(2648.267 -1301.251)" fill="#f0f7ff"/>
      <path id="Trazado_13779" data-name="Trazado 13779" d="M-2106.348,1484.673l-85.134,58.1h202.451Z" transform="translate(2270.134 -1453.09)" fill="#cde0fb" opacity="0.5"/>
      <path id="Trazado_13780" data-name="Trazado 13780" d="M-2648.267,1387.936l78.652,74.759,85.133-58.1Z" transform="translate(2648.267 -1373.01)" fill="#cde0fb"/>
    </g>
    <g id="Grupo_12275" data-name="Grupo 12275" transform="translate(-2694.791 493.924)">
      <g id="Grupo_12274" data-name="Grupo 12274" transform="translate(0 0)">
        <rect id="Rect치ngulo_3006" data-name="Rect치ngulo 3006" width="1.396" height="192.907" transform="translate(127.622 0) rotate(32.982)" fill="#1e3d70"/>
        <path id="Trazado_13781" data-name="Trazado 13781" d="M-2675.99,1665.849l18.058-27.655a11.129,11.129,0,0,0-3.224-15.358l-.218-.143a11.128,11.128,0,0,0-15.358,3.224l-18.058,27.656Z" transform="translate(2694.791 -1476.164)" fill="#f99746"/>
      </g>
      <path id="Trazado_13782" data-name="Trazado 13782" d="M-2045.44,911.944s-1.386-2.654.2-4.586,2.741-.6,2.679.784S-2043.848,911.592-2045.44,911.944Z" transform="translate(2157.713 -884.685)" fill="#ffb27d"/>
      <path id="Trazado_13783" data-name="Trazado 13783" d="M-2146.65,1024.31a5.415,5.415,0,0,0,.917-.387,2.387,2.387,0,0,1,.616-.106s-.185.419-.328.762a5.888,5.888,0,0,1,3.021,1.409,1.221,1.221,0,0,1,.46.843.539.539,0,0,1-.56.655c-.977.066-.619-.094-1.992.028a3.4,3.4,0,0,1-3.212-1.236l-.913-.7.752-1.714S-2147.282,1024.1-2146.65,1024.31Z" transform="translate(2242.681 -981.893)" fill="#ffb27d"/>
      <path id="Trazado_13784" data-name="Trazado 13784" d="M-2299.935,829.135s-7.161,1.974-8.239,8.607,8.945,18.965,14.361,22.293,13.222,4.712,13.222,4.712,1.289-1.718.957-1.94-10.751-7.821-12.417-9.682c-1.859-2.078-4.683-6.99-6.327-12.619A52.624,52.624,0,0,1-2299.935,829.135Z" transform="translate(2374.811 -820.733)" fill="#b0d0ff"/>
    </g>
    <g id="Grupo_12277" data-name="Grupo 12277" transform="translate(-2545.998 502.758)">
      <g id="Grupo_12276" data-name="Grupo 12276" transform="translate(0 0.576)">
        <rect id="Rect치ngulo_3007" data-name="Rect치ngulo 3007" width="1.396" height="192.908" transform="translate(99.3 0) rotate(24.275)" fill="#1e3d70"/>
        <path id="Trazado_13785" data-name="Trazado 13785" d="M-1810.213,1799.1l13.665-30.069a11.129,11.129,0,0,0-5.511-14.693l-.238-.108a11.129,11.129,0,0,0-14.693,5.512l-13.664,30.07Z" transform="translate(1830.655 -1595.131)" fill="#f99746"/>
      </g>
      <path id="Trazado_13786" data-name="Trazado 13786" d="M-1292.341,908.022s-1.386-2.654.2-4.586,2.741-.6,2.679.784S-1290.749,907.67-1292.341,908.022Z" transform="translate(1385.495 -890.272)" fill="#ffb27d"/>
      <path id="Trazado_13787" data-name="Trazado 13787" d="M-1390.608,1085.462a6.968,6.968,0,0,0,1.193-.5,3.125,3.125,0,0,1,.8-.138s-.241.545-.427.991a7.655,7.655,0,0,1,3.929,1.833,1.59,1.59,0,0,1,.6,1.1.7.7,0,0,1-.729.851c-1.271.086-.8-.122-2.592.037s-3.529-.484-4.177-1.607l-1.187-.91.978-2.229S-1391.43,1085.187-1390.608,1085.462Z" transform="translate(1468.522 -1041.227)" fill="#ffb27d"/>
      <path id="Trazado_13788" data-name="Trazado 13788" d="M-1589.949,831.645s-9.312,2.567-10.713,11.193,11.632,24.663,18.676,28.99,17.195,6.128,17.195,6.128,1.676-2.234,1.244-2.522-13.664-11.079-15.83-13.5C-1583.885,856.9-1589.949,831.645-1589.949,831.645Z" transform="translate(1640.351 -831.645)" fill="#2a4e96"/>
    </g>
  </g>
</svg>
