<svg xmlns="http://www.w3.org/2000/svg" width="108.795" height="103.234" viewBox="0 0 108.795 103.234">
  <g id="Grupo_11909" data-name="Grupo 11909" transform="translate(-347.418 -2322.384)">
    <path id="Trazado_12403" data-name="Trazado 12403" d="M-1875.37,363.37h71.6l37.192,50.053-37.192,53.181h-71.6Z" transform="translate(2222.788 1959.013)" fill="#064f76"/>
    <path id="Trazado_14736" data-name="Trazado 14736" d="M11.973,39.391a8.8,8.8,0,0,1-7.588-3.652Q1.738,32.086,1.738,24.879q0-7.227,2.637-10.859a8.813,8.813,0,0,1,7.6-3.633,8.793,8.793,0,0,1,7.578,3.633q2.637,3.633,2.637,10.859,0,7.207-2.646,10.859A8.783,8.783,0,0,1,11.973,39.391Zm0-5.078A3.711,3.711,0,0,0,15.361,32q1.2-2.314,1.2-7.119T15.352,17.76a3.718,3.718,0,0,0-3.379-2.314q-4.609,0-4.609,9.434T11.973,34.313ZM26.055,10.777H45.918v4.336L33.164,39H26.8L39.59,15.777H26.055Z" transform="translate(368 2349)" fill="#fff"/>
  </g>
</svg>
