<svg xmlns="http://www.w3.org/2000/svg" width="108.795" height="103.233" viewBox="0 0 108.795 103.233">
  <g id="Grupo_11914" data-name="Grupo 11914" transform="translate(-347.418 -2322.384)">
    <path id="Trazado_12403" data-name="Trazado 12403" d="M-1875.37,363.37h71.6l37.192,50.053-37.192,53.181h-71.6Z" transform="translate(2222.788 1959.013)" fill="#30a7ce"/>
    <path id="Trazado_14741" data-name="Trazado 14741" d="M11.172,10.777h5.352V39H10.918V16.559L4.434,22.594V16.813Zm22.539,23.2H45.742V39H25.84V34.762L37.07,23.3a7.067,7.067,0,0,0,2.441-4.863,3.44,3.44,0,0,0-1.006-2.617,3.96,3.96,0,0,0-2.842-.957q-4,0-4,4.551V21.5l-5.605-.566V19.527a8.8,8.8,0,0,1,2.578-6.787,9.874,9.874,0,0,1,6.992-2.393,10.343,10.343,0,0,1,6.807,2.168,7.307,7.307,0,0,1,2.627,5.957,8.448,8.448,0,0,1-.889,3.867,16.164,16.164,0,0,1-2.822,3.77Z" transform="translate(368 2349)" fill="#fff"/>
  </g>
</svg>
