<svg xmlns="http://www.w3.org/2000/svg" width="108.795" height="103.234" viewBox="0 0 108.795 103.234">
  <g id="Grupo_11912" data-name="Grupo 11912" transform="translate(-347.418 -2322.384)">
    <path id="Trazado_12403" data-name="Trazado 12403" d="M-1875.37,363.37h71.6l37.192,50.053-37.192,53.181h-71.6Z" transform="translate(2222.788 1959.013)" fill="#7d1538"/>
    <path id="Trazado_14739" data-name="Trazado 14739" d="M11.172,10.777h5.352V39H10.918V16.559L4.434,22.594V16.813ZM35.859,39.391a8.8,8.8,0,0,1-7.588-3.652q-2.646-3.652-2.646-10.859,0-7.227,2.637-10.859a8.813,8.813,0,0,1,7.6-3.633,8.793,8.793,0,0,1,7.578,3.633q2.637,3.633,2.637,10.859,0,7.207-2.646,10.859A8.783,8.783,0,0,1,35.859,39.391Zm0-5.078A3.711,3.711,0,0,0,39.248,32q1.2-2.314,1.2-7.119T39.238,17.76a3.718,3.718,0,0,0-3.379-2.314q-4.609,0-4.609,9.434T35.859,34.313Z" transform="translate(368 2349)" fill="#fff"/>
  </g>
</svg>
