<svg xmlns="http://www.w3.org/2000/svg" width="121" height="121" viewBox="0 0 121 121">
  <g id="Grupo_12664" data-name="Grupo 12664" transform="translate(-320 -9608)">
    <g id="Grupo_12635" data-name="Grupo 12635" transform="translate(0 239)">
      <circle id="Elipse_801" data-name="Elipse 801" cx="60.5" cy="60.5" r="60.5" transform="translate(320 9369)" fill="#feb64f"/>
      <path id="Trazado_14322" data-name="Trazado 14322" d="M53.993,0A53.993,53.993,0,1,1,0,53.993,53.993,53.993,0,0,1,53.993,0Z" transform="translate(327 9376)" fill="#fff"/>
    </g>
    <g id="XMLID_1527_" transform="translate(348 9617.775)">
      <g id="XMLID_1550_" transform="translate(0 20.224)">
        <g id="XMLID_98_" transform="translate(0 0)">
          <path id="XMLID_99_" d="M2.578,124.028A20.653,20.653,0,0,1,5.235,113.8a1.289,1.289,0,1,0-2.248-1.262A23.522,23.522,0,0,0,0,124.028a32.7,32.7,0,0,0,3.284,14.079,19.564,19.564,0,0,1,1.553,13.266l-1.9,7.882a1.289,1.289,0,1,0,2.506.6l1.9-7.882A22.146,22.146,0,0,0,5.593,136.96a30.027,30.027,0,0,1-3.015-12.932Z" transform="translate(0 -100.061)" fill="#656565"/>
          <path id="XMLID_111_" d="M138.434,55.606l-30-15.614,30-15.614a1.289,1.289,0,1,0-1.19-2.287l-18.912,9.844A23.966,23.966,0,0,0,97.877,20.224a25.408,25.408,0,0,0-13.312,3.732,1.289,1.289,0,0,0,1.349,2.2A22.833,22.833,0,0,1,97.878,22.8,21.384,21.384,0,0,1,116.04,33.128l-9.487,4.938a10.005,10.005,0,0,0-19.883,1.427c0,.007,0,.015,0,.022v11.81a1.289,1.289,0,0,0,.926,1.237l10.939,3.214a1.289,1.289,0,0,0,1.652-1.237V51.361h1.694a3.84,3.84,0,0,0,3.836-3.836v-1.21h1.319a1.289,1.289,0,0,0,1.232-1.668l-.671-2.186,13.067,6.8L123.2,57.5h-5.164a1.289,1.289,0,0,0-1.289,1.289V65.4a5.461,5.461,0,0,1-5.455,5.455h-7.9a1.289,1.289,0,0,0-1.27,1.067L100.8,79.5a1.289,1.289,0,1,0,2.54.443l1.136-6.5h6.817a8.042,8.042,0,0,0,8.033-8.033V60.075h5.619a1.289,1.289,0,0,0,1.232-1.668l-2.3-7.473,13.368,6.958a1.289,1.289,0,1,0,1.19-2.287ZM104.429,43.737a1.289,1.289,0,0,0-1.289,1.289v2.5a1.259,1.259,0,0,1-1.258,1.258H98.9a1.289,1.289,0,0,0-1.289,1.289v2.744L89.249,50.36V39.527a7.428,7.428,0,0,1,14.854.14,1.29,1.29,0,0,0,.057.378l1.134,3.692h-.864Z" transform="translate(-73.129 -20.224)" fill="#656565"/>
        </g>
      </g>
      <g id="XMLID_1529_" transform="translate(6.294 27.391)">
        <g id="XMLID_1531_" transform="translate(0 0)">
          <path id="XMLID_122_" d="M50.119,78.4a1.29,1.29,0,1,1,.911-.378A1.3,1.3,0,0,1,50.119,78.4Z" transform="translate(-48.83 -75.82)" fill="#656565"/>
        </g>
      </g>
    </g>
  </g>
</svg>
