<svg xmlns="http://www.w3.org/2000/svg" width="121" height="121" viewBox="0 0 121 121">
  <g id="Grupo_12662" data-name="Grupo 12662" transform="translate(-320 -9148)">
    <circle id="Elipse_497" data-name="Elipse 497" cx="60.5" cy="60.5" r="60.5" transform="translate(320 9148)" fill="#feb64f"/>
    <path id="Trazado_1178" data-name="Trazado 1178" d="M53.993,0A53.993,53.993,0,1,1,0,53.993,53.993,53.993,0,0,1,53.993,0Z" transform="translate(327 9155)" fill="#fff"/>
    <g id="vista-lateral" transform="translate(352.001 9180)">
      <path id="Trazado_14314" data-name="Trazado 14314" d="M57.4,136.974c-5.252-6.4-16.373-13.867-28.509-13.867-12.18,0-23.3,7.519-28.509,13.867a1.7,1.7,0,0,0,0,2.156C5.762,145.684,16.908,153,28.894,153c12.412,0,23.485-7.746,28.509-13.867A1.7,1.7,0,0,0,57.4,136.974ZM40.44,138.052a11.546,11.546,0,1,1-11.546-11.546A11.559,11.559,0,0,1,40.44,138.052ZM4,138.053a41.053,41.053,0,0,1,13-9.033,14.907,14.907,0,0,0,0,18.063,40.3,40.3,0,0,1-13-9.03Zm36.8,9.033a14.907,14.907,0,0,0,0-18.063,40.311,40.311,0,0,1,13,9.03A41.051,41.051,0,0,1,40.792,147.085Z" transform="translate(0 -109.157)" fill="#656565"/>
      <path id="Trazado_14315" data-name="Trazado 14315" d="M204,209.779A5.779,5.779,0,1,0,209.779,204,5.785,5.785,0,0,0,204,209.779Zm8.159,0a2.38,2.38,0,1,1-2.38-2.38A2.382,2.382,0,0,1,212.159,209.779Z" transform="translate(-180.885 -180.884)" fill="#656565"/>
      <path id="Trazado_14316" data-name="Trazado 14316" d="M241.7,7.365a1.7,1.7,0,0,0,1.7-1.7V1.7a1.7,1.7,0,1,0-3.4,0V5.666A1.7,1.7,0,0,0,241.7,7.365Z" transform="translate(-212.805 0)" fill="#656565"/>
      <path id="Trazado_14317" data-name="Trazado 14317" d="M337.787,29.171a1.7,1.7,0,0,0,2.318-.634l2.262-3.966a1.7,1.7,0,1,0-2.953-1.684l-2.262,3.966A1.7,1.7,0,0,0,337.787,29.171Z" transform="translate(-298.751 -19.533)" fill="#656565"/>
      <path id="Trazado_14318" data-name="Trazado 14318" d="M125.59,28.537a1.7,1.7,0,1,0,2.953-1.684l-2.262-3.966a1.7,1.7,0,0,0-2.953,1.684Z" transform="translate(-109.155 -19.533)" fill="#656565"/>
      <path id="Trazado_14319" data-name="Trazado 14319" d="M241.7,445a1.7,1.7,0,0,0-1.7,1.7v3.966a1.7,1.7,0,1,0,3.4,0V446.7A1.7,1.7,0,0,0,241.7,445Z" transform="translate(-212.805 -394.576)" fill="#656565"/>
      <path id="Trazado_14320" data-name="Trazado 14320" d="M127.908,423.19a1.7,1.7,0,0,0-2.318.634l-2.262,3.966a1.7,1.7,0,0,0,2.953,1.684l2.262-3.966A1.7,1.7,0,0,0,127.908,423.19Z" transform="translate(-109.155 -375.039)" fill="#656565"/>
      <path id="Trazado_14321" data-name="Trazado 14321" d="M340.106,423.824a1.7,1.7,0,1,0-2.953,1.684l2.262,3.966a1.7,1.7,0,1,0,2.953-1.684Z" transform="translate(-298.751 -375.039)" fill="#656565"/>
    </g>
  </g>
</svg>
