<svg xmlns="http://www.w3.org/2000/svg" width="108.795" height="103.234" viewBox="0 0 108.795 103.234">
  <g id="Grupo_11910" data-name="Grupo 11910" transform="translate(-347.418 -2322.384)">
    <path id="Trazado_12403" data-name="Trazado 12403" d="M-1875.37,363.37h71.6l37.192,50.053-37.192,53.181h-71.6Z" transform="translate(2222.788 1959.013)" fill="#f0c068"/>
    <path id="Trazado_14737" data-name="Trazado 14737" d="M11.973,39.391a8.8,8.8,0,0,1-7.588-3.652Q1.738,32.086,1.738,24.879q0-7.227,2.637-10.859a8.813,8.813,0,0,1,7.6-3.633,8.793,8.793,0,0,1,7.578,3.633q2.637,3.633,2.637,10.859,0,7.207-2.646,10.859A8.783,8.783,0,0,1,11.973,39.391Zm0-5.078A3.711,3.711,0,0,0,15.361,32q1.2-2.314,1.2-7.119T15.352,17.76a3.718,3.718,0,0,0-3.379-2.314q-4.609,0-4.609,9.434T11.973,34.313Zm23.906,5.078a11.293,11.293,0,0,1-7.373-2.363,7.765,7.765,0,0,1-2.9-6.348,7.91,7.91,0,0,1,1.182-4.326,8.1,8.1,0,0,1,3.271-2.92,7.149,7.149,0,0,1-2.334-2.4,6.2,6.2,0,0,1-.85-3.2,6.62,6.62,0,0,1,2.52-5.381,9.911,9.911,0,0,1,6.484-2.061,9.749,9.749,0,0,1,6.4,2.061,6.63,6.63,0,0,1,2.51,5.381,6.322,6.322,0,0,1-.82,3.193A7.208,7.208,0,0,1,41.7,23.434a8.058,8.058,0,0,1,3.242,2.92,7.96,7.96,0,0,1,1.172,4.326,8.109,8.109,0,0,1-1.348,4.639A8.482,8.482,0,0,1,41.1,38.355,12.665,12.665,0,0,1,35.879,39.391Zm0-17.6a3.752,3.752,0,0,0,2.676-1.055,3.415,3.415,0,0,0,1.113-2.578,3.333,3.333,0,0,0-1.113-2.539,4.014,4.014,0,0,0-5.381,0,3.346,3.346,0,0,0-1.1,2.539,3.421,3.421,0,0,0,1.1,2.588A3.786,3.786,0,0,0,35.879,21.793Zm0,12.559a4.716,4.716,0,0,0,3.3-1.191,4.119,4.119,0,0,0,1.309-3.2,4,4,0,0,0-1.318-3.135,4.748,4.748,0,0,0-3.291-1.182,4.8,4.8,0,0,0-3.33,1.182,4,4,0,0,0-1.318,3.135,4.1,4.1,0,0,0,1.318,3.2A4.779,4.779,0,0,0,35.879,34.352Z" transform="translate(368 2349)" fill="#fff"/>
  </g>
</svg>
