<svg xmlns="http://www.w3.org/2000/svg" width="108.795" height="103.233" viewBox="0 0 108.795 103.233">
  <g id="Grupo_11915" data-name="Grupo 11915" transform="translate(-347.418 -2322.384)">
    <path id="Trazado_12403" data-name="Trazado 12403" d="M-1875.37,363.37h71.6l37.192,50.053-37.192,53.181h-71.6Z" transform="translate(2222.788 1959.013)" fill="#064f76"/>
    <path id="Trazado_14742" data-name="Trazado 14742" d="M11.172,10.777h5.352V39H10.918V16.559L4.434,22.594V16.813ZM35.781,39.391q-5.273,0-7.7-2.578t-2.422-7.891l5.762-.254a20.4,20.4,0,0,0,.088,2.07,7.156,7.156,0,0,0,.352,1.6,2.866,2.866,0,0,0,.742,1.2,3.372,3.372,0,0,0,1.27.693,6.274,6.274,0,0,0,1.9.254,4.576,4.576,0,0,0,3.33-1.133,3.96,3.96,0,0,0,1.162-2.969A3.992,3.992,0,0,0,39.16,27.33a4.19,4.19,0,0,0-2.988-1.045H35.078V21.91h1.016a3.054,3.054,0,0,0,2.334-1,3.552,3.552,0,0,0,.928-2.52,2.839,2.839,0,0,0-1.016-2.344,4.129,4.129,0,0,0-2.676-.82,4.01,4.01,0,0,0-1.523.264,2.841,2.841,0,0,0-1.025.674A2.98,2.98,0,0,0,32.51,17.2a5.44,5.44,0,0,0-.293,1.23,12.287,12.287,0,0,0-.068,1.367l-5.684-.273q0-4.434,2.422-6.787a9.235,9.235,0,0,1,6.719-2.354,9.6,9.6,0,0,1,6.445,2.158,6.759,6.759,0,0,1,2.539,5.361,6.1,6.1,0,0,1-1.084,3.633,6.206,6.206,0,0,1-2.471,2.148,6.955,6.955,0,0,1,1.8.8A7.366,7.366,0,0,1,44.4,25.836a6.014,6.014,0,0,1,1.162,2.051A8.252,8.252,0,0,1,46,30.621,7.976,7.976,0,0,1,43.2,37,11.017,11.017,0,0,1,35.781,39.391Z" transform="translate(368 2349)" fill="#fff"/>
  </g>
</svg>
