<svg xmlns="http://www.w3.org/2000/svg" xmlns:xlink="http://www.w3.org/1999/xlink" width="285" height="237.888" viewBox="0 0 285 237.888">
  <defs>
    <linearGradient id="linear-gradient" y1="0.5" x2="1" y2="0.5" gradientUnits="objectBoundingBox">
      <stop offset="0" stop-color="#8099e3"/>
      <stop offset="1" stop-color="#93acea"/>
    </linearGradient>
  </defs>
  <g id="Grupo_11938" data-name="Grupo 11938" transform="translate(875.21 -61.583)">
    <path id="Trazado_12404" data-name="Trazado 12404" d="M-810.628,286.551c-35.891.122-46.111-.123-55.212-8.7-21.583-20.34-6.044-80.362,48.336-95.9,13.01-3.718,22.836-3.73,33.039-18.59,8-11.655,11.225-25.733,15.082-38.879,8.273-28.2,26.133-66.065,64.359-62.685,20.308,1.795,33.846,15.312,44.417,32.381a159.418,159.418,0,0,1,20.647,52.239c4.992,24.645,26.62,41.16,38.534,62.765,11.1,20.139,20.12,55.882-4.382,71.284C-619.724,289.21-621.372,285.909-810.628,286.551Z" transform="translate(0 0)" fill="#d9e5f5"/>
    <g id="Grupo_11925" data-name="Grupo 11925" transform="translate(-850.628 214.064)">
      <path id="Trazado_12405" data-name="Trazado 12405" d="M-790.755,345.1s-9.711,2.339-15.772.608-11.372-6.763-12.706-12.169,4.54-7.394,7.956-2.48,5.732,12.754,20.195,12.075Z" transform="translate(829.607 -314.55)" fill="#f4f8fc"/>
      <path id="Trazado_12406" data-name="Trazado 12406" d="M-774.766,351.593a4.093,4.093,0,0,1,1.963-1.163c1-.133,1.827-.1,1.827.232s-1.632.4-1.9.763c1.63.3,2.958-.631,3.455-.1s-.908,2.969-5.766,2.215" transform="translate(812.935 -322.881)" fill="#d7a4ae"/>
      <path id="Trazado_12407" data-name="Trazado 12407" d="M-716.625,353.644a13.909,13.909,0,0,0-10.3,3.011.045.045,0,0,1-.073-.035V333.351h-23.5a.045.045,0,0,0-.035.074,13.885,13.885,0,0,1,3.085,9.243,14.006,14.006,0,0,1-13.028,13.42,13.939,13.939,0,0,1-14.84-13.909,13.879,13.879,0,0,1,3.093-8.754.045.045,0,0,0-.035-.074h-23.455a.047.047,0,0,0-.047.046v59.921a8.561,8.561,0,0,0,8.561,8.561h60.153a.047.047,0,0,0,.047-.046V378.378a.045.045,0,0,1,.074-.035c9.144,7.4,22.832.7,22.695-10.94A14.018,14.018,0,0,0-716.625,353.644Z" transform="translate(820.689 -316.472)" fill="#6e76ba"/>
      <path id="Trazado_12408" data-name="Trazado 12408" d="M-818.49,316.34c-1.78-1.287-3.511-6.627,0-9.333,1.55-1.195,5.88-1.066,6.912,1.292s-2.843,3-2.843,3S-818.7,312.836-818.49,316.34Z" transform="translate(830.021 -306.266)" fill="#825275"/>
      <path id="Trazado_12409" data-name="Trazado 12409" d="M-825.752,368.279s-2.273,3.1,1.7,16.161c1.536,6.818,3.6,26.668,3.6,26.668l2.2-.351s4.78-30.407,1.946-47.252Z" transform="translate(832.234 -327.835)" fill="#d7a4ae"/>
      <path id="Trazado_12410" data-name="Trazado 12410" d="M-828.146,329.751c-1.893,3.472-5.181,11.59-4.472,25.224.652,12.717,13.348,5.612,14.891-9.74s-1.525-17.14-3.771-18.351C-823.253,325.938-826.491,326.716-828.146,329.751Z" transform="translate(834.615 -313.892)" fill="#f4f8fc"/>
      <path id="Trazado_12411" data-name="Trazado 12411" d="M-812.484,311.085s2.772,8.99-2.906,8.5c-3.255-.586-2.519-3.251-2.519-3.251-1.911-.077-1.474-3.512.825-2.238l.285-2.644A7.018,7.018,0,0,0-812.484,311.085Z" transform="translate(829.488 -308.082)" fill="#e9b8bf"/>
      <path id="Trazado_12412" data-name="Trazado 12412" d="M-818.377,319.5l-1.977,5.027,4.71.668,1.146-5.409Z" transform="translate(829.956 -311.253)" fill="#e9b8bf"/>
      <path id="Trazado_12413" data-name="Trazado 12413" d="M-833.515,367.946s-2.272,4.318.093,17.762c.7,6.953.346,26.908.346,26.908l2.23-.083s7.037-21.485,6.261-38.548Z" transform="translate(835.286 -329.508)" fill="#e9b8bf"/>
      <path id="Trazado_12414" data-name="Trazado 12414" d="M-802.082,354.169s-9.892-1.385-14.9-5.22-8.1-10.463-7.357-15.981,6.936-5.214,8.312.611.655,13.967,14.357,18.641Z" transform="translate(831.498 -314.838)" fill="#f4f8fc"/>
      <path id="Trazado_12415" data-name="Trazado 12415" d="M-830.4,438.992s.094.945,2.6,1.512a1.547,1.547,0,0,1,1.182,1.182h-6s-.758-.674.141-2.3Z" transform="translate(834.692 -356.28)" fill="#e9b8bf"/>
      <path id="Trazado_12416" data-name="Trazado 12416" d="M-815.057,438.992s.095.945,2.6,1.512a1.548,1.548,0,0,1,1.182,1.182h-6s-.758-.674.141-2.3Z" transform="translate(828.91 -356.28)" fill="#d7a4ae"/>
      <path id="Trazado_12417" data-name="Trazado 12417" d="M-788.144,365.506a4.092,4.092,0,0,1,1.964-1.163c1-.133,1.826-.1,1.826.232s-1.632.4-1.894.763c1.629.3,2.957-.631,3.455-.1s-.907,2.969-5.766,2.215" transform="translate(817.976 -328.123)" fill="#e9b8bf"/>
      <path id="Trazado_12418" data-name="Trazado 12418" d="M-823.7,387.248l2.083,22.978h5.857s2.984-36.391.55-45.956h-1.022Z" transform="translate(831.216 -328.123)" fill="#495193"/>
      <path id="Trazado_12419" data-name="Trazado 12419" d="M-833.854,364.27c-2.4,6.538-1.858,24.685-1.858,45.956h5.723c4.671-23.492,8.827-39.535,9.212-45.956Z" transform="translate(835.763 -328.123)" fill="#5a67a7"/>
      <g id="Grupo_11923" data-name="Grupo 11923" transform="translate(1.771 83.475)">
        <path id="Trazado_12420" data-name="Trazado 12420" d="M-829.756,440.216l-.259.585-2.814-.133a1.428,1.428,0,0,0,.206,1.48h6C-826.9,440.678-828.346,441.16-829.756,440.216Z" transform="translate(832.921 -440.216)" fill="#5d4669"/>
      </g>
      <g id="Grupo_11924" data-name="Grupo 11924" transform="translate(11.333 83.475)">
        <path id="Trazado_12421" data-name="Trazado 12421" d="M-814.412,440.216l-.259.585-2.814-.133a1.428,1.428,0,0,0,.206,1.48h6C-811.555,440.678-813,441.16-814.412,440.216Z" transform="translate(817.578 -440.216)" fill="#5d4669"/>
      </g>
    </g>
    <path id="Trazado_12422" data-name="Trazado 12422" d="M-648.795,222.831v23.6c-9.493-7.78-23.964-.262-22.692,12.237a13.89,13.89,0,0,0,11.016,12.2A13.96,13.96,0,0,0-648.795,268v23.6h23.8c-7.623-8.893-1.422-22.452,9.91-22.982a13.945,13.945,0,0,1,11.248,22.982h23.8V231.345a8.514,8.514,0,0,0-8.514-8.514Z" transform="translate(-76.738 -60.762)" fill="#93acea"/>
    <g id="Grupo_11928" data-name="Grupo 11928" transform="translate(-725.533 207.832)">
      <path id="Trazado_12423" data-name="Trazado 12423" d="M-529.154,353.776s9.963.712,15.657-1.992,10.106-8.541,10.533-14.092-5.693-6.548-8.255-1.139-3.559,13.522-17.935,15.23Z" transform="translate(595.131 -310.098)" fill="#d7a4ae"/>
      <path id="Trazado_12424" data-name="Trazado 12424" d="M-537.158,362.12c.5-.531,1.827.4,3.455.1-.264-.365-1.9-.431-1.9-.763s.83-.365,1.827-.232a4.092,4.092,0,0,1,1.963,1.163l.416,1.949C-536.25,365.09-537.656,362.652-537.158,362.12Z" transform="translate(598.183 -320.716)" fill="#d7a4ae"/>
      <path id="Trazado_12425" data-name="Trazado 12425" d="M-566.266,319.031v.232h-23.8c7.623-8.893,1.423-22.452-9.91-22.982A13.939,13.939,0,0,0-614.584,310.2a13.871,13.871,0,0,0,3.359,9.06h-23.8v23.364a13.956,13.956,0,0,1,22.678,9.2c1.383,12.562-13.138,20.183-22.678,12.366v23.6h60.246a8.514,8.514,0,0,0,8.514-8.514Z" transform="translate(635.026 -296.266)" fill="#9ac5fc"/>
      <path id="Trazado_12426" data-name="Trazado 12426" d="M-502.915,326.147s1.335-3.753-1-6.257c-3.7-3.962-8.762,1.2-6.492,2.9S-502.915,326.147-502.915,326.147Z" transform="translate(588.281 -304.618)" fill="#5a67a7"/>
      <path id="Trazado_12427" data-name="Trazado 12427" d="M-510.069,323.631s.652,9.385,5.771,6.877c2.826-1.719,1.178-3.94,1.178-3.94,1.755-.761.11-3.807-1.576-1.791l-1.218-2.364A7.013,7.013,0,0,1-510.069,323.631Z" transform="translate(587.939 -306.119)" fill="#e9b8bf"/>
      <path id="Trazado_12428" data-name="Trazado 12428" d="M-501.043,329.081l2.93,3.149-3.428,3.149-3.018-4.632Z" transform="translate(585.863 -308.632)" fill="#e9b8bf"/>
      <path id="Trazado_12429" data-name="Trazado 12429" d="M-476.347,372.381s1.942,3.318-3.351,15.9c-2.228,6.624-6.318,26.158-6.318,26.158l-2.222-.41s-2.367-24.1,2.181-40.568Z" transform="translate(579.945 -324.948)" fill="#d7a4ae"/>
      <path id="Trazado_12430" data-name="Trazado 12430" d="M-497.28,332.968a7.249,7.249,0,0,1,5.949,1.413c3.326,2.453,9.981,8.636,15.008,21.459,4.7,11.956-10.818,10.391-18.789-3.132s-5.693-16.37-3.985-18.363A3.879,3.879,0,0,1-497.28,332.968Z" transform="translate(584.433 -310.027)" fill="#f4f8fc"/>
      <path id="Trazado_12431" data-name="Trazado 12431" d="M-466.624,369.782s2.733,2.7.868,16.226c-.441,6.975.651,26.9.651,26.9h-2.232s-7.828-21.209-7.686-38.289Z" transform="translate(574.734 -323.968)" fill="#e9b8bf"/>
      <path id="Trazado_12432" data-name="Trazado 12432" d="M-529.154,359.99s9.963.712,15.657-1.993,10.106-8.541,10.533-14.092-5.693-6.548-8.255-1.139-3.559,13.522-17.935,15.23Z" transform="translate(595.131 -312.439)" fill="#e9b8bf"/>
      <path id="Trazado_12433" data-name="Trazado 12433" d="M-490.077,438.99s-.095.946-2.6,1.513a1.547,1.547,0,0,0-1.182,1.182h6s.757-.674-.141-2.3Z" transform="translate(581.831 -350.048)" fill="#d7a4ae"/>
      <path id="Trazado_12434" data-name="Trazado 12434" d="M-464.359,438.147s.337,1.321-1.408,1.651a1.165,1.165,0,0,0-1.051,1.347h3.117l2.751-1.711s.287-.972-1.334-1.878Z" transform="translate(571.647 -349.508)" fill="#d7a4ae"/>
      <path id="Trazado_12435" data-name="Trazado 12435" d="M-537.548,368.334c.5-.532,1.827.4,3.456.1-.264-.365-1.9-.432-1.9-.764s.83-.365,1.826-.232A4.1,4.1,0,0,1-532.2,368.6l.416,1.949C-536.64,371.3-538.046,368.865-537.548,368.334Z" transform="translate(598.33 -323.057)" fill="#e9b8bf"/>
      <path id="Trazado_12436" data-name="Trazado 12436" d="M-479.129,386.647s-5.344,21.757-6.272,28.446h-4.016s-1.949-30.753,3.006-40.978C-473.1,380.6-479.129,386.647-479.129,386.647Z" transform="translate(580.3 -325.601)" fill="#c6688d"/>
      <path id="Trazado_12437" data-name="Trazado 12437" d="M-471.285,365.395c3.5,3.5,3.537,12.571,2.66,19.761s.771,24.97.771,24.97a21.611,21.611,0,0,0-3.312,1.132c-3.109-5.631-5.388-13.729-6.244-20.48-1.994-15.732-6.957-19.949-6.957-19.949Z" transform="translate(578.254 -322.315)" fill="#d87597"/>
      <path id="Trazado_12438" data-name="Trazado 12438" d="M-496.111,349.419l-8.448-4.756s1.3-10.175,5.849-11.67S-489.827,342.2-496.111,349.419Z" transform="translate(585.863 -310.053)" fill="#f4f8fc"/>
      <g id="Grupo_11926" data-name="Grupo 11926" transform="translate(87.971 89.705)">
        <path id="Trazado_12439" data-name="Trazado 12439" d="M-490.722,440.214l.259.585,2.814-.133a1.43,1.43,0,0,1-.206,1.481h-6C-493.58,440.676-492.133,441.158-490.722,440.214Z" transform="translate(493.86 -440.214)" fill="#5d4669"/>
      </g>
      <g id="Grupo_11927" data-name="Grupo 11927" transform="translate(104.815 88.444)">
        <path id="Trazado_12440" data-name="Trazado 12440" d="M-461.7,438.191l-2.38,1.723-.614-.385a1.98,1.98,0,0,1-1.077.508,1.165,1.165,0,0,0-1.05,1.347h3.117l2.751-1.711S-460.743,438.962-461.7,438.191Z" transform="translate(466.831 -438.191)" fill="#5d4669"/>
      </g>
    </g>
    <g id="Grupo_11937" data-name="Grupo 11937" transform="translate(-789.975 75.217)">
      <path id="Trazado_12441" data-name="Trazado 12441" d="M-698.221,193.713s-3.894,12.249-12.669,17.576c-2.628,1.595-2.624,8.474,3.37,6.476,4.541-1.514,10.778-16.881,10.562-24.052Z" transform="translate(728.687 -125.007)" fill="#d7a4ae"/>
      <path id="Trazado_12442" data-name="Trazado 12442" d="M-686.3,188.128c-.683-.022-.947,1.476-2.226,2.359-.068-.417.97-1.544.75-1.764s-.793.308-1.366,1.058a3.845,3.845,0,0,0-.532,2.075l1.017,1.569C-684.934,190.7-685.619,188.15-686.3,188.128Z" transform="translate(720.061 -122.902)" fill="#d7a4ae"/>
      <g id="Grupo_11934" data-name="Grupo 11934" transform="translate(0 0)">
        <g id="Grupo_11930" data-name="Grupo 11930">
          <path id="Trazado_12443" data-name="Trazado 12443" d="M-576.572,161.7s-8.061,7.378-6.447,12.649,4.471,17.5,4.471,17.5l-2.061.7s-10.431-15-9.279-23.584,8.482-19.151,8.482-19.151S-572.444,154.176-576.572,161.7Z" transform="translate(682.493 -108.464)" fill="#d7a4ae"/>
          <path id="Trazado_12444" data-name="Trazado 12444" d="M-576.462,217.658s.337,1.32-1.408,1.651a1.165,1.165,0,0,0-1.051,1.347h3.117l2.751-1.711s.287-.972-1.335-1.877Z" transform="translate(678.332 -133.808)" fill="#d7a4ae"/>
          <path id="Trazado_12445" data-name="Trazado 12445" d="M-588,117.184c-2.866-2.807-6.325.755-8.406,6.216s-8.421,8.1-14.348,4.044l-.81,1.332a13.185,13.185,0,0,0,10.105,4.329C-592.41,133.2-584.513,120.6-588,117.184Z" transform="translate(690.627 -95.799)" fill="#d7a4ae"/>
          <path id="Trazado_12446" data-name="Trazado 12446" d="M-583.281,147.742s-9.34,17.948-7.611,26.558l7.553,18.057,5.1-1.289s-4.422-13.935-4.422-19.293l6.727-12.84Z" transform="translate(682.918 -107.684)" fill="#495193"/>
          <path id="Trazado_12447" data-name="Trazado 12447" d="M-618.587,131.443c.614-.391,1.67.839,3.323.953-.164-.419-1.729-.888-1.646-1.21s.895-.148,1.827.227a4.09,4.09,0,0,1,1.614,1.613l-.08,1.991C-618.444,134.545-619.2,131.835-618.587,131.443Z" transform="translate(693.342 -101.382)" fill="#d7a4ae"/>
          <path id="Trazado_12448" data-name="Trazado 12448" d="M-737.059,144.73a13.956,13.956,0,0,0,24.434,1.387l7.618,22.333,22.332-7.618a13.956,13.956,0,0,1,1.388-24.434c11.443-5.365,23.345,5.918,19.026,17.471l22.332-7.618-19.451-57.019a8.514,8.514,0,0,0-10.807-5.309l-57.02,19.451,7.618,22.332C-731.124,121.39-742.43,133.274-737.059,144.73Z" transform="translate(738.435 -83.462)" fill="url(#linear-gradient)"/>
          <path id="Trazado_12449" data-name="Trazado 12449" d="M-594.141,102.656s-1.694.11-1.952-2.323c-.232-2.184,3.114-5.437,7.482-3.113.79-1.807,3.671-1.415,4.6,2.5a6.4,6.4,0,0,1-3.485,7.3Z" transform="translate(684.802 -88.256)" fill="#825275"/>
          <path id="Trazado_12450" data-name="Trazado 12450" d="M-593.924,103.081s.652,9.385,5.771,6.877c2.826-1.719,1.178-3.94,1.178-3.94,1.755-.761.11-3.807-1.576-1.791l-1.218-2.364A7.013,7.013,0,0,1-593.924,103.081Z" transform="translate(683.98 -90.396)" fill="#e9b8bf"/>
          <path id="Trazado_12451" data-name="Trazado 12451" d="M-584.9,108.531l2.333,3.952-2.831,2.346-3.018-4.633Z" transform="translate(681.904 -92.909)" fill="#e9b8bf"/>
          <path id="Trazado_12452" data-name="Trazado 12452" d="M-577.957,143.633s-10.181-23.132-6.1-27.417,9.447,2.227,12.058,11.783l2.309,8.448Z" transform="translate(680.624 -95.298)" fill="#f4f8fc"/>
          <path id="Trazado_12453" data-name="Trazado 12453" d="M-573.554,147.977c-1.542,12.659,5.013,34.409,8.833,42.846l2.081.4s-2.3-21.207-2.047-33.686c.207-10.224-1.636-12.812-1.636-12.812Z" transform="translate(676.391 -106.545)" fill="#e9b8bf"/>
          <path id="Trazado_12454" data-name="Trazado 12454" d="M-561.526,218.5s-.095.945-2.6,1.513a1.546,1.546,0,0,0-1.182,1.182h6.005a2.576,2.576,0,0,0-.142-2.3Z" transform="translate(673.197 -134.348)" fill="#e9b8bf"/>
          <path id="Trazado_12455" data-name="Trazado 12455" d="M-616.793,140.392c.5-.532,1.826.4,3.455.1-.263-.365-1.895-.431-1.895-.763s.83-.365,1.826-.232a4.092,4.092,0,0,1,1.964,1.163l.416,1.949C-615.886,143.361-617.291,140.923-616.793,140.392Z" transform="translate(692.633 -104.549)" fill="#e9b8bf"/>
          <path id="Trazado_12456" data-name="Trazado 12456" d="M-578.935,145.725l10.332-3.335s2.324,2.517,3.328,12.55,1.72,35,1.72,35l-4.582-.194Z" transform="translate(678.332 -105.667)" fill="#5a67a7"/>
          <g id="Grupo_11929" data-name="Grupo 11929" transform="translate(80.706 20.03)">
            <path id="Trazado_12457" data-name="Trazado 12457" d="M-580.468,116.1c-2.758-1.6-4.878.8-5.968,4.761l6.6,3.978C-578.429,120.983-578.484,117.251-580.468,116.1Z" transform="translate(600.453 -115.603)" fill="#f4f8fc"/>
            <path id="Trazado_12458" data-name="Trazado 12458" d="M-594.911,124.045a22.206,22.206,0,0,0-.635,3.343c-.663,5.807-6.151,9.93-12.9,7.475l-.484,1.588c3.81,2.891,15.824,4.678,20.614-8.428Z" transform="translate(608.928 -118.784)" fill="#e9b8bf"/>
          </g>
        </g>
        <g id="Grupo_11932" data-name="Grupo 11932" transform="translate(99.397 83.56)">
          <g id="Grupo_11931" data-name="Grupo 11931">
            <path id="Trazado_12459" data-name="Trazado 12459" d="M-578.006,219.528l.106.353h1.916l1.78-1.12a.882.882,0,0,1,.282-1.213c1.093.808.869,1.578.869,1.578l-2.751,1.711h-3.117A1.148,1.148,0,0,1-578.006,219.528Z" transform="translate(578.934 -217.549)" fill="#5d4669"/>
          </g>
        </g>
        <g id="Grupo_11933" data-name="Grupo 11933" transform="translate(107.888 84.932)">
          <path id="Trazado_12460" data-name="Trazado 12460" d="M-563.771,220.4l.122.345h3.484a1.561,1.561,0,0,1,.9-.991,1.972,1.972,0,0,1-.039,1.917h-6.005C-565.117,220.659-564.264,220.528-563.771,220.4Z" transform="translate(565.309 -219.751)" fill="#5d4669"/>
        </g>
      </g>
      <path id="Trazado_12461" data-name="Trazado 12461" d="M-707.067,252.951h-6.495s-4.926,3.565-.553,18.574c3.868,13.277-2.857,28.555-2.857,28.555l1.935,1.046S-701.211,281.4-707.067,252.951Z" transform="translate(730.347 -147.329)" fill="#d7a4ae"/>
      <path id="Trazado_12462" data-name="Trazado 12462" d="M-705.9,207.571s3.155,8.863-2.539,8.612c-3.277-.446-2.655-3.14-2.655-3.14-1.913,0-1.624-3.446.728-2.272l.171-2.653A7.016,7.016,0,0,0-705.9,207.571Z" transform="translate(728.608 -130.229)" fill="#e9b8bf"/>
      <path id="Trazado_12463" data-name="Trazado 12463" d="M-711.131,216.922l-1.311,6.21,3.892-.71.858-5.394Z" transform="translate(728.64 -133.753)" fill="#e9b8bf"/>
      <path id="Trazado_12464" data-name="Trazado 12464" d="M-711.95,247.055s-4.966-20.112-.006-23.344,8.683,4.337,9.03,14.237l.307,8.752Z" transform="translate(729.287 -136.025)" fill="#f4f8fc"/>
      <path id="Trazado_12465" data-name="Trazado 12465" d="M-692.045,195.22s-4.094,12.877-13.346,17.967a5.305,5.305,0,0,0-2.282,2.581c-1.21,2.874,1.648,5.551,3.918,4.343,4.226-2.249,13.239-17.72,13.022-24.89Z" transform="translate(726.951 -125.575)" fill="#e9b8bf"/>
      <path id="Trazado_12466" data-name="Trazado 12466" d="M-701.46,252.951h-8.232s-2.748,4.522,1.243,19.81c4.8,18.382,4.182,28.366,4.182,28.366h1.948S-697.543,270.149-701.46,252.951Z" transform="translate(727.951 -147.329)" fill="#e9b8bf"/>
      <path id="Trazado_12467" data-name="Trazado 12467" d="M-698.677,329.038s.095.946,2.6,1.513a1.547,1.547,0,0,1,1.182,1.182h-6s-.679-.843.219-2.468Z" transform="translate(724.383 -176)" fill="#e9b8bf"/>
      <path id="Trazado_12468" data-name="Trazado 12468" d="M-715,328.194s-.337,1.32,1.409,1.651a1.166,1.166,0,0,1,1.05,1.348h-3.117l-2.751-1.711s-.287-.972,1.335-1.878Z" transform="translate(730.894 -175.46)" fill="#d7a4ae"/>
      <path id="Trazado_12469" data-name="Trazado 12469" d="M-679.054,189.464c-.683-.022-.947,1.476-2.227,2.359-.068-.417.971-1.544.75-1.764s-.793.308-1.366,1.058a3.84,3.84,0,0,0-.531,2.074l1.017,1.57C-677.686,192.036-678.371,189.486-679.054,189.464Z" transform="translate(717.33 -123.406)" fill="#e9b8bf"/>
      <path id="Trazado_12470" data-name="Trazado 12470" d="M-713.74,252.951s-3.32,4.489-1.706,14.018a106.511,106.511,0,0,0,2.845,13.3h10.7s1.453-18.336-1.543-27.318Z" transform="translate(729.939 -147.329)" fill="#d87597"/>
      <path id="Trazado_12471" data-name="Trazado 12471" d="M-713.139,205.749c1.686-.358,3.729.26,4.372,1.982.838,2.242-5,1.854-5,1.854s1.346,3.661-.84,6.1,1.2,5.242-.661,8.645-7.628,2.746-7.729-2.339,2.644-7.53,4.78-10.373c1.506-2.005,2.025-4.944,4.712-5.774C-713.388,205.808-713.264,205.776-713.139,205.749Z" transform="translate(732.619 -129.506)" fill="#5a67a7"/>
      <g id="Grupo_11935" data-name="Grupo 11935" transform="translate(12.471 152.444)">
        <path id="Trazado_12472" data-name="Trazado 12472" d="M-713.451,330.064l-.106.353h-1.916l-1.779-1.12a.882.882,0,0,0-.283-1.212c-1.093.808-.869,1.578-.869,1.578l2.751,1.711h3.117A1.147,1.147,0,0,0-713.451,330.064Z" transform="translate(718.423 -328.085)" fill="#5d4669"/>
      </g>
      <g id="Grupo_11936" data-name="Grupo 11936" transform="translate(23.239 153.815)">
        <path id="Trazado_12473" data-name="Trazado 12473" d="M-696.075,331.021c-.126-.029-.242-.059-.356-.089l-.122.346h-3.484a1.564,1.564,0,0,0-.9-.992,1.974,1.974,0,0,0,.039,1.918h6A1.547,1.547,0,0,0-696.075,331.021Z" transform="translate(701.143 -330.286)" fill="#5d4669"/>
      </g>
    </g>
  </g>
</svg>
