<svg xmlns="http://www.w3.org/2000/svg" width="607.335" height="464.94" viewBox="0 0 607.335 464.94">
  <g id="Grupo_12401" data-name="Grupo 12401" transform="translate(-74.251 -57.499)">
    <g id="Grupo_12392" data-name="Grupo 12392">
      <g id="Grupo_12388" data-name="Grupo 12388">
        <path id="Trazado_13963" data-name="Trazado 13963" d="M231.362,430.992s36.605-83.7-10.182-131.561c-105.819,45.444-60.844,149.394-60.844,149.394Z" fill="#ffc630"/>
        <path id="Trazado_13964" data-name="Trazado 13964" d="M221.18,299.431c-.369.158-.728.319-1.093.479L202.96,406.179l-42.947-51.6q-.468,1.02-.908,2.043L202.537,408.8,197.6,439.47l2.116-.531,9.852-61.131h0l35.385-16.191c-.016-.724-.035-1.449-.064-2.176l-34.938,15.985,12.1-75.075c-.29-.307-.569-.618-.866-.921Z" fill="#fff"/>
      </g>
      <g id="Grupo_12389" data-name="Grupo 12389">
        <path id="Trazado_13965" data-name="Trazado 13965" d="M209.741,408.736S186.076,320.763,123.7,305.968c-52.152,56.771,2.324,124.56,2.324,124.56L195.954,468.7Z" fill="#7cbcea"/>
        <path id="Trazado_13966" data-name="Trazado 13966" d="M180.795,348.349l-21.9,33.943-33.719-75.946c-.49-.126-.974-.261-1.469-.378-.205.223-.394.448-.6.672l18.06,40.676L105.358,336.08c-.116.337-.22.674-.331,1.011l-.281.9,37.5,11.768,30.1,67.786-63.475-17.716c.315.794.633,1.579.956,2.349L173.4,419.92l21.372,48.134,1.181.645.444-1.929-36.534-82.286,22.177-34.365Q181.426,349.231,180.795,348.349Z" fill="#005da8"/>
      </g>
      <g id="Grupo_12391" data-name="Grupo 12391">
        <path id="Trazado_13967" data-name="Trazado 13967" d="M150.67,521.974H204.4l-20.173-77.892s-58.62-48.431-103.191-23.5C78.527,476.746,115.79,506.485,150.67,521.974Z" fill="#005da8"/>
        <g id="Grupo_12390" data-name="Grupo 12390">
          <path id="Trazado_13968" data-name="Trazado 13968" d="M81.04,420.582c-.018.4-.028.8-.042,1.2l84.2,59.285-53.822,15.664q.858.8,1.732,1.585l54.19-15.77L200.189,505.7l-.778-3L135.38,457.612l-7.511-41.951q-1.058-.245-2.121-.464l7.3,40.773L82.034,420.052c-.331.176-.663.343-.992.527Z" fill="#7cbcea"/>
        </g>
      </g>
    </g>
    <path id="Trazado_13969" data-name="Trazado 13969" d="M381.786,172.716l-21.146-5.157c-18.466,5.441-49.807,53.578-49.807,53.578l2.729,3.5s33.19-27.494,36.365-26.278l21.322,12.186Z" fill="#f7a57a"/>
    <g id="Grupo_12394" data-name="Grupo 12394">
      <g id="Grupo_12393" data-name="Grupo 12393">
        <rect id="Rectángulo_3020" data-name="Rectángulo 3020" width="1.509" height="79.039" transform="translate(628.633 88.579)" fill="#e23a19"/>
      </g>
      <path id="Trazado_13970" data-name="Trazado 13970" d="M628.331,57.5l53.255,26.77-53.255,33.625Z" fill="#ffc630"/>
      <path id="Trazado_13971" data-name="Trazado 13971" d="M628.331,110.943v6.951L680.742,84.8Z" fill="#fa0"/>
    </g>
    <path id="Trazado_13972" data-name="Trazado 13972" d="M274.521,325.36l-2.094,4.827h0a5.051,5.051,0,0,1-5.236-1.591l-.231-.272,1.692-4.964Z" fill="#f7a57a"/>
    <path id="Trazado_13973" data-name="Trazado 13973" d="M274.466,332.578s-.5,6.389,12.224,10.192c2.611.78,1.762,1.552,2.252,2.65H274.3l-5.733-6.446-1.783,1.532-4.134-4.062s1.931-5.877,5.079-5.929C270.324,331.4,274.466,332.578,274.466,332.578Z" fill="#122043"/>
    <path id="Trazado_13974" data-name="Trazado 13974" d="M335.531,213.608,267.038,327.465h9.089c12.5,0,100.377-111.209,100.377-111.209Z" fill="#122043"/>
    <path id="Trazado_13975" data-name="Trazado 13975" d="M341.285,522.439H275.558L271.119,345.42h71.128Z" fill="#005da8"/>
    <path id="Trazado_13976" data-name="Trazado 13976" d="M436.93,522.439H361.974l-.536-212.771h79.244Z" fill="#348fd0"/>
    <path id="Trazado_13977" data-name="Trazado 13977" d="M248.177,522.439H173.221l-.536-121.544h79.244Z" fill="#002f4c"/>
    <path id="Trazado_13978" data-name="Trazado 13978" d="M149.743,522.439H74.787l-.536-72.46h79.244Z" fill="#ffc630"/>
    <path id="Trazado_13979" data-name="Trazado 13979" d="M546.252,522.439h-86.38V219.727h94.01Z" fill="#005da8"/>
    <path id="Trazado_13980" data-name="Trazado 13980" d="M670.706,522.439h-86.38V160.556h94.01Z" fill="#002f4c"/>
    <g id="Grupo_12396" data-name="Grupo 12396">
      <path id="Trazado_13981" data-name="Trazado 13981" d="M397.685,152.284,393,162.612l-10.691-5.664,10.886-13.9Z" fill="#f18c72"/>
      <g id="Grupo_12395" data-name="Grupo 12395">
        <path id="Trazado_13982" data-name="Trazado 13982" d="M403.336,153.939a6.071,6.071,0,0,0,3.474-.224c4.983-5.127,3.1-21.557,3.1-21.557l-5.925-3.774-8.971,3.677-2.248,10.412a8.636,8.636,0,0,0,2.389,7.853h0A16.849,16.849,0,0,0,403.336,153.939Z" fill="#f7a57a"/>
      </g>
      <path id="Trazado_13983" data-name="Trazado 13983" d="M395.28,138.224c.745-1.687,1.2-5.792,2.95-5.192,1.272.436,5.726,1.385,7.236,1.642,3.6.613,10.249.3,11.181-5.176.466-2.737-1.787-5.549-3.348-6.537a7.4,7.4,0,0,0-5.191-.951c-4.2.709-9.97,2.87-11.994,2.092-3.4-1.309-7.272.16-7.732,3.163-.492,3.207.358,8.3,1.41,11.628a17.065,17.065,0,0,0,2.792,5.312h0Z" fill="#122043"/>
      <path id="Trazado_13984" data-name="Trazado 13984" d="M391.565,138a2.748,2.748,0,0,1,3.3.87c.9,1.052.883,2.368-.04,2.939a2.745,2.745,0,0,1-3.3-.87C390.625,139.886,390.643,138.57,391.565,138Z" fill="#f7a57a"/>
    </g>
    <path id="Trazado_13985" data-name="Trazado 13985" d="M389.344,151.939c-3.011-2.2-38.329-2.855-54.867,60.362,12.461,1.793,34.88,5.182,34.88,5.182l11.307,1.507S411.181,167.858,389.344,151.939Z" fill="#348fd0"/>
    <g id="Grupo_12398" data-name="Grupo 12398">
      <g id="Grupo_12397" data-name="Grupo 12397">
        <path id="Trazado_13986" data-name="Trazado 13986" d="M403,298.7s4.408,4.38,14.7,7.382c2.265.662,4.756-.032,4.626,3.739l-12.6-.435-10.415-2.173-.062,1.812-5.659-.2s-1.257-9.31,2.09-10.383Z" fill="#122043"/>
        <path id="Trazado_13987" data-name="Trazado 13987" d="M402.118,292.015,403,298.7h0a6.406,6.406,0,0,1-6.941-.007l-.38-.246.793-6.628Z" fill="#f7a57a"/>
      </g>
      <path id="Trazado_13988" data-name="Trazado 13988" d="M334.394,212.471s-1.136,26.475,20.024,34.116c13.517,4.882,49.624.4,49.624.4s-10.742,15.985-8.292,46.722c7.409,3.24,9.005.118,9.005.118s30.864-55.723,21.512-66.719S373.7,215.3,373.7,215.3Z" fill="#002f4c"/>
    </g>
    <g id="Grupo_12399" data-name="Grupo 12399">
      <path id="Trazado_13989" data-name="Trazado 13989" d="M434.942,188.358c.591.178,2.675.589,6.771-.839,3.675-1.282,10.58-6.353,10.627-1.931-2.62,3.505-5.3,7.96-5.3,7.96-1.78,1.953-6.019,2.669-8.741,2.576l-8.34-1.363s-2.15-3.747-2.281-3.9l1.29-.293C431.026,190.523,433.017,189.06,434.942,188.358Z" fill="#f7a57a"/>
      <path id="Trazado_13990" data-name="Trazado 13990" d="M436.82,189.49a3.087,3.087,0,0,0,.575.279c-.391.417-.755.851-1.1,1.295-1.838.892-3.649,1.844-5.478,2.757-.34-1.2-.822-2.894-.876-3.007l10.858-8.535s1.518.928-.109,3.395A13.666,13.666,0,0,1,436.82,189.49Z" fill="#f7a57a"/>
    </g>
    <path id="Trazado_13991" data-name="Trazado 13991" d="M370.45,176.072s5.722,36.092,18.39,36.345,50.235-18.047,50.235-18.047l-4.123-5.678-39.61,8.256-6.486-27.823Z" fill="#f7a57a"/>
    <g id="Grupo_12400" data-name="Grupo 12400">
      <path id="Trazado_13992" data-name="Trazado 13992" d="M309.9,228.936c-.608.114-2.647.707-5.628,3.858-2.675,2.828-6.477,10.5-8.551,6.6.716-4.318,1.053-9.508,1.053-9.508.683-2.553,4.119-5.137,6.578-6.306l8.034-2.623s3.632,1.908,3.821,1.987l-1.011,1.286C312.379,225.214,311.283,227.428,309.9,228.936Z" fill="#f7a57a"/>
      <path id="Trazado_13993" data-name="Trazado 13993" d="M307.708,228.795a3.055,3.055,0,0,0-.639.015c.156-.549.279-1.1.385-1.657,1.222-1.637,2.394-3.315,3.6-4.967.856.914,2.06,2.193,2.16,2.269l-5.72,12.57s-1.774-.126-1.463-3.065A13.644,13.644,0,0,1,307.708,228.795Z" fill="#f7a57a"/>
    </g>
  </g>
</svg>
