<svg xmlns="http://www.w3.org/2000/svg" xmlns:xlink="http://www.w3.org/1999/xlink" width="780.262" height="483.009" viewBox="0 0 780.262 483.009">
  <defs>
    <linearGradient id="linear-gradient" x1="-0.55" y1="0.5" x2="0.45" y2="0.5" gradientUnits="objectBoundingBox">
      <stop offset="0" stop-color="#daece5"/>
      <stop offset="1" stop-color="#b2deeb"/>
    </linearGradient>
    <linearGradient id="linear-gradient-2" x1="-0.184" y1="0.5" x2="0.816" y2="0.5" xlink:href="#linear-gradient"/>
    <linearGradient id="linear-gradient-3" x1="4.955" y1="-1.011" x2="11.744" y2="-1.011" xlink:href="#linear-gradient"/>
    <linearGradient id="linear-gradient-4" x1="0" y1="0.5" x2="1" y2="0.5" xlink:href="#linear-gradient"/>
  </defs>
  <g id="Grupo_12496" data-name="Grupo 12496" transform="translate(-39.677 -58.911)">
    <path id="Trazado_13994" data-name="Trazado 13994" d="M140.557,135.244h237.15s12.861-16.269,0-27.217c-7.1-6.041-15.478-5.417-21.566-3.64a7.1,7.1,0,0,1-8.793-5.559c-1.442-6.689-5.885-15.442-18.65-20.615-12.56-5.087-20.5,2.684-25.1,10.665a3.566,3.566,0,0,1-6.45-.657c-3.982-12.6-17.856-29.309-63.441-29.309-57.979,0-51.537,30.823-46.356,43.633A2.953,2.953,0,0,1,184,106.573c-8.943-1.912-25.543-4.391-32.987,1.454C140.557,116.235,140.557,135.244,140.557,135.244Z" transform="translate(50.19)" fill="url(#linear-gradient)"/>
    <g id="Grupo_12406" data-name="Grupo 12406" transform="translate(84.515 143.112)">
      <g id="Grupo_12403" data-name="Grupo 12403" transform="translate(26.927)">
        <path id="Trazado_13995" data-name="Trazado 13995" d="M223.75,246.824S195.823,135.206,117.387,115.138c-67.119,70.53.165,157.343.165,157.343l87.455,49.757Z" transform="translate(-87.599 -115.138)" fill="#348fd0"/>
        <path id="Trazado_13996" data-name="Trazado 13996" d="M186.834,169.925,158.418,212.3l-40.891-96.651c-.615-.171-1.223-.352-1.846-.511-.264.277-.508.557-.767.836l21.9,51.766L91.846,152.754c-.154.424-.294.846-.44,1.27l-.376,1.128,47.1,15.694,36.5,86.268L94.865,233.331c.379,1.009.764,2.008,1.153,2.988L175.9,260.138,201.822,321.4l1.478.842.6-2.426L159.6,215.09l28.769-42.9Q187.61,171.053,186.834,169.925Z" transform="translate(-85.893 -115.138)" fill="#7cbcea"/>
      </g>
      <g id="Grupo_12405" data-name="Grupo 12405" transform="translate(0 135.396)">
        <path id="Trazado_13997" data-name="Trazado 13997" d="M199.7,245.909s-72.949-62.462-129.785-31.972C61.709,345.388,228.337,365.1,228.337,365.1Z" transform="translate(-69.618 -205.551)" fill="#ffc630"/>
        <g id="Grupo_12404" data-name="Grupo 12404" transform="translate(0.214 2.581)">
          <path id="Trazado_13998" data-name="Trazado 13998" d="M69.84,213.081c-.031.506-.052,1.006-.079,1.509l105.012,76.737L106.459,309.91q1.067,1.033,2.152,2.04l68.78-18.71,41.016,29.973-.915-3.808-79.855-58.355-8.551-53.141q-1.332-.332-2.669-.633l8.311,51.649-63.621-46.49c-.422.216-.845.419-1.265.644Z" transform="translate(-69.761 -207.275)" fill="#fff"/>
        </g>
      </g>
    </g>
    <path id="Trazado_13999" data-name="Trazado 13999" d="M533.484,169.007c6.179,26.852-57.145,30.3-83.238,30.6a102.431,102.431,0,0,1-21.522-2.044c-22.066-4.478-70.365-16.227-63.591-32.206,8.74-20.613,34.994-6.242,34.994-6.242s-3.3-15.562,41.378-25.841S486,157.244,486,157.244,525.723,135.274,533.484,169.007Z" transform="translate(161.6 36.038)" fill="url(#linear-gradient-2)"/>
    <g id="Grupo_12412" data-name="Grupo 12412" transform="translate(553.966 102.58)">
      <g id="Grupo_12408" data-name="Grupo 12408" transform="translate(0 45.231)">
        <path id="Trazado_14000" data-name="Trazado 14000" d="M409.311,139.065l4.153-14.442a4.958,4.958,0,0,0,1.562.2,4.574,4.574,0,0,0,4.123-4.171,4.2,4.2,0,0,0,1.565-2.374l9.3,4.374s-4.284,16.016-10.355,21.428-25.721,20.374-25.721,20.374l-3.681-1.459Z" transform="translate(-379.547 -118.276)" fill="#f18c72"/>
        <g id="Grupo_12407" data-name="Grupo 12407" transform="translate(0 43.449)">
          <path id="Trazado_14001" data-name="Trazado 14001" d="M392.722,149.187c-.214.316-1.05,1.33-3.531,2.338-2.227.9-7.408,1.43-5.773,3.4,2.558.5,5.5,1.39,5.5,1.39,1.577.148,3.859-1.231,5.118-2.36l3.452-3.935s-.383-2.513-.379-2.634l-1.1-.093A12.347,12.347,0,0,1,392.722,149.187Z" transform="translate(-383.104 -147.29)" fill="#f18c72"/>
          <path id="Trazado_14002" data-name="Trazado 14002" d="M390.75,150.112a1.839,1.839,0,0,1-.168.353c.341.027.677.073,1.009.129,1.207-.341,2.424-.645,3.636-.973-.289-.668-.693-1.605-.71-1.677l-8.358.578s-.373,1.017,1.324,1.454A8.35,8.35,0,0,0,390.75,150.112Z" transform="translate(-381.601 -146.965)" fill="#f18c72"/>
        </g>
      </g>
      <g id="Grupo_12409" data-name="Grupo 12409" transform="translate(29.083)">
        <path id="Trazado_14003" data-name="Trazado 14003" d="M413.126,106.905l2.8,6.209,8.211-3.836-7.088-10.2Z" transform="translate(-397.251 -82.597)" fill="#f18c72"/>
        <path id="Trazado_14004" data-name="Trazado 14004" d="M406.488,94.229s1.807,16.08,5.469,17.635,7.98-3.888,7.98-3.888l4.111-9.526L411,92.83Z" transform="translate(-400.553 -85.705)" fill="#f7a57a"/>
        <path id="Trazado_14005" data-name="Trazado 14005" d="M402.525,93.406s2.79,5.578,10.847,3.08c2.273.048,3.5,2.335,4.138,4.364.741,2.354.991.551,2.866,2.155l3.28,4.7s7.531-14.155-2.625-18.424S402.525,93.406,402.525,93.406Z" transform="translate(-402.525 -88.072)" fill="#122043"/>
        <path id="Trazado_14006" data-name="Trazado 14006" d="M414.825,96.423a2.022,2.022,0,0,0-2.141,1.319c-.409.934-.115,1.858.657,2.064a2.023,2.023,0,0,0,2.14-1.319C415.891,97.552,415.6,96.628,414.825,96.423Z" transform="translate(-397.563 -83.938)" fill="#f7a57a"/>
      </g>
      <path id="Trazado_14007" data-name="Trazado 14007" d="M429.139,105.827c20.26,12.007,12.54,61.6,12.54,61.6H410.87s-.355-12.97-.762-26.671c-.308-10.375-1.286-21.17,1.493-27.069C415.481,105.558,424.109,102.847,429.139,105.827Z" transform="translate(-369.879 -79.823)" fill="#005da8"/>
      <path id="Trazado_14008" data-name="Trazado 14008" d="M422.242,136.463,405.3,129.572l8.483-18.885,11.177,5.819Z" transform="translate(-372.061 -76.821)" fill="#005da8"/>
      <g id="Grupo_12410" data-name="Grupo 12410" transform="translate(63.849 190.559)">
        <path id="Trazado_14009" data-name="Trazado 14009" d="M440.472,218.644s-3.407,3.161-11.176,5.139c-1.712.436-3.555-.145-3.555,2.676h9.428l7.842-1.355v1.355h4.235s1.18-6.926-1.294-7.816Z" transform="translate(-425.741 -213.669)" fill="#122043"/>
        <path id="Trazado_14010" data-name="Trazado 14010" d="M436.412,215.322l-.834,4.975h0a4.792,4.792,0,0,0,5.189.175l.292-.175-.422-4.975Z" transform="translate(-420.847 -215.322)" fill="#f7a57a"/>
      </g>
      <path id="Trazado_14011" data-name="Trazado 14011" d="M437.145,146.572s3.025,10.367,3.636,35.693a35.96,35.96,0,0,0,3.744,14.725c8.855,18.331,4.849,53.783,4.849,53.783h-6.114l-24.456-87.1,8.608-17.1Z" transform="translate(-365.344 -58.967)" fill="#122043"/>
      <g id="Grupo_12411" data-name="Grupo 12411" transform="translate(30.58 193.554)">
        <path id="Trazado_14012" data-name="Trazado 14012" d="M418.258,220.645s-3.408,3.16-11.178,5.139c-1.71.436-3.555-.147-3.555,2.675h9.428L420.8,227.1v1.355h4.235s1.18-6.926-1.294-7.814Z" transform="translate(-403.525 -215.669)" fill="#122043"/>
        <path id="Trazado_14013" data-name="Trazado 14013" d="M414.2,217.322l-.833,4.976h0a4.794,4.794,0,0,0,5.189.174l.29-.174-.422-4.976Z" transform="translate(-398.63 -217.322)" fill="#f7a57a"/>
      </g>
      <path id="Trazado_14014" data-name="Trazado 14014" d="M410.477,146.572,413.5,254.019h6.445s9.073-29.882,7.091-50.5a33.355,33.355,0,0,1,2.445-16.438c9.571-22.181,8.057-40.511,8.057-40.511Z" transform="translate(-369.486 -58.967)" fill="#002f4c"/>
    </g>
    <g id="Grupo_12419" data-name="Grupo 12419" transform="translate(39.677 334)">
      <path id="Trazado_14015" data-name="Trazado 14015" d="M97.019,269.022l16.439,41.8-5.7-4.064L90.735,287.1l.919-10.248Z" transform="translate(-14.274 -229.466)" fill="#f7a57a"/>
      <g id="Grupo_12418" data-name="Grupo 12418" transform="translate(0 0)">
        <path id="Trazado_14016" data-name="Trazado 14016" d="M104,259.378c9.628,6.934,2.135,66.313,2.135,66.313l-38.534-7.486S70.612,257.954,104,259.378Z" transform="translate(-25.782 -234.276)" fill="#005da8"/>
        <g id="Grupo_12415" data-name="Grupo 12415" transform="translate(70.678)">
          <g id="Grupo_12413" data-name="Grupo 12413" transform="translate(2.501 19.789)">
            <path id="Trazado_14017" data-name="Trazado 14017" d="M88.544,261.324l3.757-5.5,6.65,3.464-2.261,7.389a1.391,1.391,0,0,1-.2.088A21.22,21.22,0,0,0,88.544,261.324Z" transform="translate(-88.544 -255.822)" fill="#f18c72"/>
          </g>
          <g id="Grupo_12414" data-name="Grupo 12414">
            <path id="Trazado_14018" data-name="Trazado 14018" d="M92.175,246.947l-1.854,10.221a1.6,1.6,0,0,1,.937,2.312,1.924,1.924,0,0,1,0,.785,11.9,11.9,0,0,0,8.509,4.205c6.679.276,5.718-12.985,5.718-12.985Z" transform="translate(-85.159 -240.448)" fill="#f7a57a"/>
            <path id="Trazado_14019" data-name="Trazado 14019" d="M88.9,255.939a6.349,6.349,0,0,0-.963-3.178c-2.886-3.979.888-5.5,2.209-5.972,1.462-.518,1.752-2.88,3.7-3.781,2.971-1.376,4.913,1.227,6.592,1.306s3.178-1.825,5.25-.144,1.384,3.456,1.953,4.407,2.445-.869,4.153,2.112c2.6,4.533-4.579,4.53-4.579,4.53a12.681,12.681,0,0,1-8.56-2.422,1.662,1.662,0,0,0-2.017.019c-1.554,1.334-3.545,9.758-3.545,9.758l-1.324-1.754S88.321,259.384,88.9,255.939Z" transform="translate(-86.874 -242.607)" fill="#122043"/>
            <path id="Trazado_14020" data-name="Trazado 14020" d="M90.664,253.276a1.593,1.593,0,1,0,1.321-1.825A1.591,1.591,0,0,0,90.664,253.276Z" transform="translate(-84.998 -238.218)" fill="#f7a57a"/>
          </g>
        </g>
        <g id="Grupo_12416" data-name="Grupo 12416" transform="translate(0 146.6)">
          <path id="Trazado_14021" data-name="Trazado 14021" d="M47.251,347.34s-3.064,3.3-4.981,10.832c-.422,1.658.141,3.446-2.594,3.446v-9.138l1.315-7.6H39.677v-4.1s6.713-1.143,7.574,1.255Z" transform="translate(-39.677 -340.502)" fill="#122043"/>
          <path id="Trazado_14022" data-name="Trazado 14022" d="M49.831,346.421l-4.821.807h0a4.64,4.64,0,0,1-.169-5.029l.169-.282,4.821-1.192Z" transform="translate(-37.436 -340.391)" fill="#f7a57a"/>
        </g>
        <g id="Grupo_12417" data-name="Grupo 12417" transform="translate(61.257 182.845)">
          <path id="Trazado_14023" data-name="Trazado 14023" d="M89.718,369.466s.022,5.126,10.316,8.2c2.113.632,1.426,1.256,1.822,2.144H90.008L85.369,374.6l-1.442,1.238-3.344-3.286s1.562-4.756,4.108-4.8Z" transform="translate(-80.583 -363.19)" fill="#122043"/>
          <path id="Trazado_14024" data-name="Trazado 14024" d="M90.277,366.545l-1.924,4.437h0a4.642,4.642,0,0,1-4.815-1.462l-.213-.252,1.556-4.563Z" transform="translate(-79.218 -364.706)" fill="#f7a57a"/>
        </g>
        <path id="Trazado_14025" data-name="Trazado 14025" d="M78.633,307.531s.448,15.192,6.273,28.447a6.98,6.98,0,0,1-4.942,9.683c-21,4.4-32.859,11.463-32.859,11.463v7.225l49-6.706a17.218,17.218,0,0,0,14.793-15.29l1.566-15.158Z" transform="translate(-35.981 -210.307)" fill="#122043"/>
        <path id="Trazado_14026" data-name="Trazado 14026" d="M110.341,300.577s10.367,39.973,10.367,49.825-22.794,48.279-22.794,48.279h-6.52s1.156-24.35,5.568-44.536a11.527,11.527,0,0,0-3.318-10.879c-13.855-13-26.145-42.688-26.145-42.688Z" transform="translate(-25.836 -213.766)" fill="#002f4c"/>
      </g>
    </g>
    <g id="Grupo_12422" data-name="Grupo 12422" transform="translate(161.65 239.318)">
      <path id="Trazado_14027" data-name="Trazado 14027" d="M421.957,322.8c-1.742-2.847-13.861-6.9-28.014-8.7a124.051,124.051,0,0,0-10.619-34.647c10.023-7.428,19.818-16.309,19.478-22.476-.69-12.515-25.053-36.357-30.215-37.6-3.305-.8-15.1,5.133-26.578,14.14A124.049,124.049,0,0,0,314.6,216.139c1.846-12.368,2.507-25.635-2.105-29.765-9.337-8.362-43.424-7.992-47.954-5.22-2.838,1.736-6.88,13.783-8.684,27.878a123.924,123.924,0,0,0-35.47,9.675c-7.257-9.635-15.725-18.726-21.671-18.4-12.515.69-36.355,25.055-37.6,30.217-.74,3.073,4.332,13.493,12.292,24.167a124.025,124.025,0,0,0-19.24,33.3c-11.207-1.412-22.332-1.535-26.051,2.618-8.362,9.337-7.992,43.424-5.222,47.952,1.562,2.552,11.456,6.077,23.68,8.075a123.951,123.951,0,0,0,10.7,38.537c-8.361,6.65-15.517,13.928-15.225,19.213.69,12.515,25.053,36.357,30.215,37.6,2.842.684,11.965-3.6,21.762-10.546a124.013,124.013,0,0,0,35.5,19.287c-1.2,10.58-1.1,20.739,2.832,24.26,9.336,8.361,43.422,7.992,47.952,5.22,2.558-1.565,6.092-11.5,8.087-23.769a124.086,124.086,0,0,0,37.616-11.76c6.887,8.844,14.6,16.679,20.122,16.375,12.515-.69,36.355-25.055,37.6-30.217.743-3.088-4.385-13.6-12.411-24.326A123.9,123.9,0,0,0,388.7,373.109c11.851,1.647,24.1,2.041,28.035-2.357C425.1,361.415,424.728,327.328,421.957,322.8ZM264.549,388.385a55.793,55.793,0,1,1,61.5-49.427A55.793,55.793,0,0,1,264.549,388.385Z" transform="translate(-121.127 -179.382)" fill="#005da8"/>
      <g id="Grupo_12420" data-name="Grupo 12420" transform="translate(70.629 72.957)">
        <path id="Trazado_14028" data-name="Trazado 14028" d="M239.1,386.437A79.4,79.4,0,1,1,326.629,316.1,79.49,79.49,0,0,1,239.1,386.437Zm17.066-156.745a78.272,78.272,0,1,0,69.341,86.284A78.36,78.36,0,0,0,256.168,229.692Z" transform="translate(-168.292 -228.1)" fill="#fff"/>
      </g>
      <g id="Grupo_12421" data-name="Grupo 12421" transform="translate(45.268 38.51)">
        <path id="Trazado_14029" data-name="Trazado 14029" d="M370.629,274.146c-.514-.115-1.026-.24-1.534-.38a113.806,113.806,0,0,1-216.162,60.825h-.014c-.52.057-1.041.093-1.563.114a115.284,115.284,0,0,0,219.273-60.56Z" transform="translate(-151.356 -170.933)" fill="#fff"/>
        <path id="Trazado_14030" data-name="Trazado 14030" d="M181.68,223.426a113.233,113.233,0,0,1,71.773-16.176c.511.055,1.009.142,1.517.2-.129-.508-.228-1.021-.331-1.536-.344-.04-.681-.1-1.026-.138a114.71,114.71,0,0,0-72.448,16.227Q181.439,222.71,181.68,223.426Z" transform="translate(-136.525 -205.097)" fill="#fff"/>
      </g>
    </g>
    <g id="Grupo_12425" data-name="Grupo 12425" transform="translate(378.917 97.928)">
      <path id="Trazado_14031" data-name="Trazado 14031" d="M424.4,267.571c1-2.022-1.036-10.415-5.1-19.159a83.886,83.886,0,0,0,16-18.539c7.856,3.062,16.461,5.47,19.868,3.058,6.913-4.9,11.789-27.414,10.643-30.816-.734-2.176-8.37-6.794-17.653-10.119a83.767,83.767,0,0,0-1.355-24.221c7.741-3.392,15.568-7.787,16.272-11.913,1.426-8.35-11.049-27.721-14.264-29.315-2.014-1-10.361,1.023-19.075,5.06a83.764,83.764,0,0,0-18.3-16.813c2.9-7.618,5.057-15.734,2.732-19.018-4.9-6.913-27.414-11.788-30.814-10.643-2.025.683-6.162,7.333-9.406,15.727a83.8,83.8,0,0,0-25.977.973c-3.224-6.922-7.157-13.331-10.871-13.964-8.35-1.426-27.719,11.049-29.314,14.264-.9,1.812.644,8.741,3.9,16.453a83.769,83.769,0,0,0-18.2,19.986c-6.812-2.39-13.553-3.867-16.471-1.8-6.911,4.9-11.788,27.414-10.643,30.814.63,1.872,6.367,5.55,13.864,8.657a83.824,83.824,0,0,0,1.734,27.249c-6.484,3.121-12.262,6.832-12.862,10.348-1.424,8.35,11.05,27.719,14.264,29.315,1.816.9,8.775-.654,16.51-3.925a83.852,83.852,0,0,0,20.261,17.292c-2.583,7.122-4.293,14.352-2.131,17.4,4.9,6.913,27.414,11.788,30.816,10.643,2.034-.686,6.2-7.4,9.452-15.853a83.8,83.8,0,0,0,25.366-2.076c3.322,7.374,7.5,14.521,11.434,15.192C403.437,283.26,422.808,270.786,424.4,267.571ZM330.248,201.1a37.709,37.709,0,1,1,50.406,17.409A37.709,37.709,0,0,1,330.248,201.1Z" transform="translate(-266.211 -84.965)" fill="#7cbcea"/>
      <g id="Grupo_12423" data-name="Grupo 12423" transform="translate(45.165 45.884)">
        <path id="Trazado_14032" data-name="Trazado 14032" d="M301.777,192.744a53.663,53.663,0,1,1,71.733,24.775A53.723,53.723,0,0,1,301.777,192.744ZM397.6,146.118a52.9,52.9,0,1,0-24.423,70.716A52.961,52.961,0,0,0,397.6,146.118Z" transform="translate(-296.371 -115.605)" fill="#fff"/>
      </g>
      <g id="Grupo_12424" data-name="Grupo 12424" transform="translate(19.996 30.266)">
        <path id="Trazado_14033" data-name="Trazado 14033" d="M405.673,227.075c-.118-.337-.232-.674-.334-1.015a76.918,76.918,0,0,1-112.567-101.8l-.006-.006c-.219-.277-.427-.563-.627-.854A77.916,77.916,0,0,0,405.673,227.075Z" transform="translate(-279.564 -96.108)" fill="#fff"/>
        <path id="Trazado_14034" data-name="Trazado 14034" d="M354.379,105.98a76.537,76.537,0,0,1,35.076,35.247c.151.311.282.627.428.94.244-.255.5-.5.761-.741-.1-.211-.187-.425-.29-.636a77.519,77.519,0,0,0-35.347-35.614Q354.7,105.585,354.379,105.98Z" transform="translate(-242.342 -105.176)" fill="#fff"/>
      </g>
    </g>
    <g id="Grupo_12428" data-name="Grupo 12428" transform="translate(454.771 269.607)">
      <path id="Trazado_14035" data-name="Trazado 14035" d="M503.02,219.473c-2.69-.154-10.953,6.013-18.653,14.568a100.081,100.081,0,0,0-27.849-8.9c-.313-10.06-1.7-20.637-5.939-23.249-8.614-5.3-35.623-.114-38.82,2.736-2.049,1.824-3.545,12.372-2.851,24.121a100.021,100.021,0,0,0-25.962,12.826c-7.348-6.913-15.839-13.452-20.7-12.295-9.837,2.344-25.269,25.107-25.515,29.384-.156,2.681,5.972,10.9,14.484,18.578a99.97,99.97,0,0,0-9.9,27.962c-9.725.379-19.646,1.811-22.163,5.9-5.3,8.614-.114,35.623,2.736,38.82,1.7,1.9,10.936,3.335,21.672,2.968a100.1,100.1,0,0,0,13.228,28.073c-6.092,6.779-11.29,14.1-10.247,18.472,2.344,9.836,25.107,25.269,29.384,25.515,2.409.139,9.3-4.8,16.244-11.983a100.038,100.038,0,0,0,30.466,10.634c.563,8.6,2.1,16.69,5.733,18.927,8.614,5.3,35.623.115,38.82-2.734,1.761-1.569,3.115-9.59,3.019-19.276a100,100,0,0,0,29.11-14.659c6.463,5.662,13.241,10.268,17.383,9.282,9.836-2.342,25.269-25.107,25.515-29.384.139-2.414-4.824-9.33-12.036-16.293a100.092,100.092,0,0,0,9.506-30.341c9.03-.5,17.768-2,20.109-5.807,5.3-8.612.114-35.622-2.736-38.82-1.706-1.912-11.029-3.347-21.832-2.961a99.988,99.988,0,0,0-14.151-26.883c6.543-7.1,12.435-15.034,11.332-19.667C530.061,235.152,507.3,219.72,503.02,219.473ZM474.1,353.977a45.013,45.013,0,1,1-4.476-63.5A45.012,45.012,0,0,1,474.1,353.977Z" transform="translate(-316.865 -199.608)" fill="#348fd0"/>
      <g id="Grupo_12426" data-name="Grupo 12426" transform="translate(58.698 59.904)">
        <path id="Trazado_14036" data-name="Trazado 14036" d="M468.46,345.641a64.059,64.059,0,1,1-6.369-90.369A64.133,64.133,0,0,1,468.46,345.641Zm-96.051-83.4a63.15,63.15,0,1,0,89.086-6.278A63.221,63.221,0,0,0,372.409,262.236Z" transform="translate(-356.061 -239.61)" fill="#fff"/>
      </g>
      <g id="Grupo_12427" data-name="Grupo 12427" transform="translate(30.815 43.141)">
        <path id="Trazado_14037" data-name="Trazado 14037" d="M449.447,228.416c-.313.288-.63.569-.957.842a91.818,91.818,0,0,1-59.1,171.259l0,.009c-.2.37-.418.732-.644,1.089a93.009,93.009,0,0,0,60.708-173.2Z" transform="translate(-311.921 -228.416)" fill="#fff"/>
        <path id="Trazado_14038" data-name="Trazado 14038" d="M338.621,298.16a91.359,91.359,0,0,1,22.289-55.016c.271-.313.557-.6.831-.912-.394-.148-.782-.319-1.17-.487-.184.208-.379.4-.563.615a92.55,92.55,0,0,0-22.566,55.486Q338.035,297.988,338.621,298.16Z" transform="translate(-337.442 -221.785)" fill="#fff"/>
      </g>
    </g>
    <g id="Grupo_12431" data-name="Grupo 12431" transform="translate(227.416 116.323)">
      <path id="Trazado_14039" data-name="Trazado 14039" d="M221.044,99.142c-1.161.909-2.323,6.43-2.39,12.729A54.737,54.737,0,0,0,204,118.292c-3.768-4.018-8.162-7.862-10.848-7.4-5.454.94-14.668,12.838-14.951,15.165-.181,1.49,3.019,6.361,7.553,10.936a54.777,54.777,0,0,0-6.021,14.658c-5.518-.181-11.369.205-12.946,2.438-3.191,4.521-1.294,19.45.151,21.3.906,1.156,6.394,2.315,12.668,2.39a54.716,54.716,0,0,0,6.05,15.062c-3.856,3.673-7.413,7.85-6.966,10.441.939,5.452,12.838,14.668,15.165,14.951,1.385.168,5.7-2.588,9.973-6.621a54.768,54.768,0,0,0,15.585,6.742c-.049,4.987.463,9.873,2.474,11.291,4.521,3.193,19.45,1.3,21.3-.151,1.039-.813,2.082-5.333,2.335-10.8a54.686,54.686,0,0,0,16.356-6.653c3.342,3.327,6.9,6.1,9.2,5.7,5.454-.94,14.67-12.838,14.951-15.165.156-1.282-2.189-5.065-5.732-9.008a54.707,54.707,0,0,0,6.652-16.549c4.7-.013,9.151-.574,10.495-2.477,3.191-4.52,1.3-19.45-.151-21.295-.816-1.042-5.355-2.086-10.836-2.338a54.766,54.766,0,0,0-7.071-15.9c3.528-3.47,6.571-7.249,6.156-9.658C284.6,119.9,272.7,110.688,270.37,110.4c-1.391-.169-5.739,2.615-10.036,6.682a54.671,54.671,0,0,0-15.535-5.921c.12-5.282-.331-10.671-2.46-12.175C237.819,95.8,222.889,97.7,221.044,99.142Zm36.775,65.695a24.632,24.632,0,1,1-24.806-24.457A24.632,24.632,0,0,1,257.818,164.837Z" transform="translate(-165.044 -97.249)" fill="#7cbcea"/>
      <g id="Grupo_12429" data-name="Grupo 12429" transform="translate(32.543 32.515)">
        <path id="Trazado_14040" data-name="Trazado 14040" d="M256.884,153.768a35.055,35.055,0,1,1-35.3-34.805A35.1,35.1,0,0,1,256.884,153.768Zm-69.611.494a34.557,34.557,0,1,0,34.311-34.8A34.6,34.6,0,0,0,187.273,154.262Z" transform="translate(-186.775 -118.961)" fill="#fff"/>
      </g>
      <g id="Grupo_12430" data-name="Grupo 12430" transform="translate(17.34 16.654)">
        <path id="Trazado_14041" data-name="Trazado 14041" d="M203.205,109.61c-.025.232-.052.463-.088.692a50.246,50.246,0,0,1,37.678,91.7l0,0c.051.226.094.452.13.68a50.9,50.9,0,0,0-37.721-93.08Z" transform="translate(-163.442 -108.37)" fill="#fff"/>
        <path id="Trazado_14042" data-name="Trazado 14042" d="M188.024,173.484a50,50,0,0,1-10.748-30.654c0-.226.01-.449.012-.675-.216.082-.436.153-.656.223,0,.153-.01.3-.009.458a50.637,50.637,0,0,0,10.8,30.946C187.624,173.677,187.823,173.578,188.024,173.484Z" transform="translate(-176.623 -91.562)" fill="#fff"/>
      </g>
    </g>
    <g id="Grupo_12434" data-name="Grupo 12434" transform="translate(57.674 390.026)">
      <path id="Trazado_14043" data-name="Trazado 14043" d="M103.1,280.326c-.991.509-2.646,4.44-3.6,9.106A41.338,41.338,0,0,0,87.7,292.1c-2.219-3.524-4.93-7.005-6.992-7.047-4.183-.085-12.729,7.425-13.272,9.112-.347,1.08,1.33,5.156,4.039,9.2A41.364,41.364,0,0,0,64.9,313.379c-4.07-.925-8.47-1.478-9.96-.046-3.018,2.9-3.75,14.252-2.941,15.829.506.988,4.415,2.636,9.06,3.591a41.293,41.293,0,0,0,2.33,12.048c-3.389,2.173-6.628,4.764-6.668,6.751-.085,4.183,7.426,12.729,9.112,13.272,1,.323,4.6-1.1,8.353-3.483a41.357,41.357,0,0,0,10.6,7.239c-.752,3.7-1.072,7.395.217,8.737,2.9,3.018,14.252,3.751,15.829,2.943.888-.457,2.311-3.66,3.281-7.679a41.349,41.349,0,0,0,13.1-2.594c2,2.95,4.247,5.514,6.013,5.55,4.183.085,12.73-7.425,13.273-9.112.3-.928-.9-4.073-2.964-7.507a41.406,41.406,0,0,0,7.311-11.33c3.492.663,6.875.887,8.145-.334,3.018-2.9,3.751-14.252,2.943-15.829-.457-.891-3.676-2.317-7.708-3.289a41.43,41.43,0,0,0-2.97-12.814c3.116-2.071,5.917-4.44,5.954-6.287.085-4.183-7.425-12.729-9.112-13.273-1.009-.325-4.635,1.117-8.407,3.519a41.361,41.361,0,0,0-10.683-6.622c.846-3.9,1.285-7.968-.081-9.389C116.027,280.251,104.674,279.517,103.1,280.326Zm17.877,54.038a18.622,18.622,0,1,1-14.906-21.713A18.623,18.623,0,0,1,120.973,334.364Z" transform="translate(-51.695 -280.02)" fill="#7cbcea"/>
      <g id="Grupo_12432" data-name="Grupo 12432" transform="translate(24.087 24.215)">
        <path id="Trazado_14044" data-name="Trazado 14044" d="M120.34,327.537a26.5,26.5,0,1,1-21.214-30.9A26.531,26.531,0,0,1,120.34,327.537ZM68.6,317.922a26.126,26.126,0,1,0,30.46-20.913A26.155,26.155,0,0,0,68.6,317.922Z" transform="translate(-67.779 -296.19)" fill="#fff"/>
      </g>
      <g id="Grupo_12433" data-name="Grupo 12433" transform="translate(12.585 12.324)">
        <path id="Trazado_14045" data-name="Trazado 14045" d="M85.089,288.267c-.051.169-.1.335-.165.5A37.986,37.986,0,0,1,99.74,362.241v0c.006.174,0,.349,0,.523a38.479,38.479,0,0,0-14.65-74.5Z" transform="translate(-47.748 -288.25)" fill="#fff"/>
        <path id="Trazado_14046" data-name="Trazado 14046" d="M64.816,333.774a37.8,37.8,0,0,1-3.582-24.3c.031-.168.072-.331.106-.5-.172.03-.346.049-.52.07-.022.114-.051.225-.072.338a38.288,38.288,0,0,0,3.582,24.52C64.491,333.86,64.653,333.816,64.816,333.774Z" transform="translate(-60.099 -277.936)" fill="#fff"/>
      </g>
    </g>
    <g id="Grupo_12435" data-name="Grupo 12435" transform="translate(88.907 372.801)">
      <path id="Trazado_14047" data-name="Trazado 14047" d="M81.906,268.518l13.081,8.09-9.425,10.8-1.345,30.72-5.084-.987s-7.959-23.722-6.372-31.894S81.906,268.518,81.906,268.518Z" transform="translate(-72.551 -268.518)" fill="#f7a57a"/>
      <path id="Trazado_14048" data-name="Trazado 14048" d="M83.951,301.977l-.046,6.1a5.034,5.034,0,0,1-.836,2.751c-1.023,1.539-2.839,3.8-4.517,3.473-2.514-.488-5.466-6.279-5.466-6.279l5.78-7.031Z" transform="translate(-72.285 -252.363)" fill="#f7a57a"/>
    </g>
    <g id="Grupo_12444" data-name="Grupo 12444" transform="translate(704.134 297.727)">
      <g id="Grupo_12436" data-name="Grupo 12436" transform="translate(17.404 224.405)">
        <path id="Trazado_14049" data-name="Trazado 14049" d="M507.9,371.146s-2.985,2.769-9.788,4.5c-1.5.38-3.112-.129-3.112,2.342h8.256l6.866-1.188v1.188h3.709s1.033-6.065-1.134-6.844Z" transform="translate(-495.004 -366.79)" fill="#122043"/>
        <path id="Trazado_14050" data-name="Trazado 14050" d="M504.036,368.237l-.418,4.356h0a4.192,4.192,0,0,0,4.543.153l.255-.153.77-4.356Z" transform="translate(-490.718 -368.237)" fill="#f7a57a"/>
      </g>
      <g id="Grupo_12437" data-name="Grupo 12437" transform="translate(60.192 224.405)">
        <path id="Trazado_14051" data-name="Trazado 14051" d="M529.755,371.146s2.984,2.769,9.788,4.5c1.5.38,3.112-.129,3.112,2.342H534.4l-6.866-1.188v1.188h-3.709s-1.033-6.065,1.133-6.844Z" transform="translate(-523.577 -366.79)" fill="#122043"/>
        <path id="Trazado_14052" data-name="Trazado 14052" d="M529.134,368.237l.418,4.356h0a4.192,4.192,0,0,1-4.543.153l-.255-.153-.77-4.356Z" transform="translate(-523.374 -368.237)" fill="#f7a57a"/>
      </g>
      <path id="Trazado_14053" data-name="Trazado 14053" d="M507.178,289.552c-4.446,21.572-5.129,44.789-5.231,64.275a515.882,515.882,0,0,0,2.414,54.329h6.418l13.4-89.727s1.462,13.343,3.438,35.97c1.553,17.756,2.285,32.764,6.454,53.756h6.439s3.831-62.485,3.831-116.3C529.265,291.857,514.935,289.552,507.178,289.552Z" transform="translate(-474.149 -182.979)" fill="#002f4c"/>
      <g id="Grupo_12438" data-name="Grupo 12438" transform="translate(0 2.97)">
        <path id="Trazado_14054" data-name="Trazado 14054" d="M487.708,230.693l-3.931-4a1.416,1.416,0,0,1-.349-1.339l.3-1.129a1.409,1.409,0,0,1,.648-.858l4.764-2.8a1.415,1.415,0,0,1,1.737.24l.476.5a1.4,1.4,0,0,1,.392.979l-.013,6.962Z" transform="translate(-483.382 -220.369)" fill="#f7a57a"/>
      </g>
      <path id="Trazado_14055" data-name="Trazado 14055" d="M485.673,228.088s7.365,28.1,11.968,38.489,20.392,28.066,20.392,28.066l10.224-21.121s-14.852-9.138-21.755-18-15.338-29.89-15.338-29.89Z" transform="translate(-482.243 -214.782)" fill="#7cbcea"/>
      <g id="Grupo_12439" data-name="Grupo 12439" transform="translate(89.902 0)">
        <path id="Trazado_14056" data-name="Trazado 14056" d="M549.2,228.042l2.982-4.749a1.415,1.415,0,0,0,.052-1.384l-.532-1.039a1.414,1.414,0,0,0-.819-.7l-5.253-1.718a1.413,1.413,0,0,0-1.644.608l-.359.589a1.408,1.408,0,0,0-.172,1.041l1.506,6.8Z" transform="translate(-543.416 -218.386)" fill="#f7a57a"/>
      </g>
      <path id="Trazado_14057" data-name="Trazado 14057" d="M516.8,270.279c-11.955,6.326-11.32,52.513-11.32,52.513l37.773,3.059-2.348-37.83s16.32-17.584,20.657-31.189,7.4-32.493,7.4-32.493l-5.738-.043s-9.864,24.419-15.034,31.223-21.033,15.589-21.033,15.589Z" transform="translate(-472.391 -215.445)" fill="#7cbcea"/>
      <g id="Grupo_12440" data-name="Grupo 12440" transform="translate(32.707 58.041)">
        <path id="Trazado_14058" data-name="Trazado 14058" d="M505.975,305.753c-.012-4.981.214-36.086,7.47-47.754-.115-.283-.222-.569-.327-.855-8.036,12.046-7.923,45.556-7.889,49.071C505.474,306.057,505.726,305.908,505.975,305.753Z" transform="translate(-505.223 -257.144)" fill="url(#linear-gradient-3)"/>
      </g>
      <g id="Grupo_12443" data-name="Grupo 12443" transform="translate(38.342 26.564)">
        <g id="Grupo_12441" data-name="Grupo 12441" transform="translate(4.066 21.784)">
          <path id="Trazado_14059" data-name="Trazado 14059" d="M521.284,257.206l-.87-6.535-7.419.1-1.294,7.537a1.65,1.65,0,0,0,.138.168A20.973,20.973,0,0,1,521.284,257.206Z" transform="translate(-511.701 -250.671)" fill="#f18c72"/>
        </g>
        <g id="Grupo_12442" data-name="Grupo 12442">
          <path id="Trazado_14060" data-name="Trazado 14060" d="M526.675,243.238l-2.914,9.858a1.587,1.587,0,0,0-1.857,1.626,1.929,1.929,0,0,0-.344.695,11.775,11.775,0,0,1-9.392-.072c-6.026-2.731.728-14.023.728-14.023Z" transform="translate(-508.648 -233.538)" fill="#f7a57a"/>
          <path id="Trazado_14061" data-name="Trazado 14061" d="M528.382,254.087a6.3,6.3,0,0,1,2.267-2.378c4.322-2.233,1.665-5.259.707-6.263-1.06-1.108-.265-3.326-1.584-4.99-2.013-2.54-4.889-1.1-6.408-1.781s-1.995-3.028-4.575-2.465-2.763,2.438-3.688,3.025-1.776-1.857-4.611.016c-4.314,2.85,2.029,6.042,2.029,6.042a12.551,12.551,0,0,0,8.644,1.673,1.644,1.644,0,0,1,1.775.916c.779,1.869-1.213,10.2-1.213,10.2l1.95-.96S527.359,257.387,528.382,254.087Z" transform="translate(-508.986 -236.124)" fill="#122043"/>
          <path id="Trazado_14062" data-name="Trazado 14062" d="M520.224,248.885a1.576,1.576,0,1,1-.355-2.2A1.575,1.575,0,0,1,520.224,248.885Z" transform="translate(-504.815 -231.019)" fill="#f7a57a"/>
        </g>
      </g>
      <path id="Trazado_14063" data-name="Trazado 14063" d="M512.139,254.532,511.646,258l11.575-1.149-2.007-4.024Z" transform="translate(-469.321 -201.253)" fill="url(#linear-gradient-4)"/>
    </g>
    <g id="Grupo_12457" data-name="Grupo 12457" transform="translate(310.644 291.185)">
      <g id="Grupo_12456" data-name="Grupo 12456">
        <g id="Grupo_12445" data-name="Grupo 12445" transform="translate(40.07)">
          <path id="Trazado_14064" data-name="Trazado 14064" d="M324.874,454.932l-77.5-240.916h4.413l77.5,240.916Z" transform="translate(-247.379 -214.017)" fill="#7cbcea"/>
        </g>
        <g id="Grupo_12446" data-name="Grupo 12446">
          <path id="Trazado_14065" data-name="Trazado 14065" d="M298.117,454.932l-77.5-240.916h4.413l77.5,240.916Z" transform="translate(-220.621 -214.017)" fill="#7cbcea"/>
        </g>
        <g id="Grupo_12447" data-name="Grupo 12447" transform="translate(22.33 62.54)">
          <path id="Trazado_14066" data-name="Trazado 14066" d="M277.763,255.8v3.592l-41.521-.023-.709-3.592Z" transform="translate(-235.533 -255.779)" fill="#7cbcea"/>
        </g>
        <g id="Grupo_12448" data-name="Grupo 12448" transform="translate(13.746 39.196)">
          <path id="Trazado_14067" data-name="Trazado 14067" d="M272.031,240.214v3.592l-41.521-.023-.71-3.592Z" transform="translate(-229.8 -240.191)" fill="#7cbcea"/>
        </g>
        <g id="Grupo_12449" data-name="Grupo 12449" transform="translate(6.648 15.853)">
          <path id="Trazado_14068" data-name="Trazado 14068" d="M267.291,224.626v3.592L225.77,228.2l-.71-3.592Z" transform="translate(-225.061 -224.603)" fill="#7cbcea"/>
        </g>
        <g id="Grupo_12450" data-name="Grupo 12450" transform="translate(29.893 86.183)">
          <path id="Trazado_14069" data-name="Trazado 14069" d="M282.813,271.591v3.592l-41.521-.023-.71-3.592Z" transform="translate(-240.583 -271.568)" fill="#7cbcea"/>
        </g>
        <g id="Grupo_12451" data-name="Grupo 12451" transform="translate(36.99 109.826)">
          <path id="Trazado_14070" data-name="Trazado 14070" d="M287.553,287.379v3.592l-41.521-.023-.71-3.592Z" transform="translate(-245.322 -287.355)" fill="#7cbcea"/>
        </g>
        <g id="Grupo_12452" data-name="Grupo 12452" transform="translate(46.01 134.39)">
          <path id="Trazado_14071" data-name="Trazado 14071" d="M291.9,303.781l1.678,3.593-41.521-.023-.709-3.592Z" transform="translate(-251.346 -303.759)" fill="#7cbcea"/>
        </g>
        <g id="Grupo_12453" data-name="Grupo 12453" transform="translate(53.795 158.955)">
          <path id="Trazado_14072" data-name="Trazado 14072" d="M297.1,320.184l1.678,3.593-41.521-.023-.71-3.592Z" transform="translate(-256.544 -320.162)" fill="#7cbcea"/>
        </g>
        <g id="Grupo_12454" data-name="Grupo 12454" transform="translate(61.085 182.971)">
          <path id="Trazado_14073" data-name="Trazado 14073" d="M301.965,336.222l1.678,3.593-41.521-.023-.709-3.592Z" transform="translate(-261.412 -336.2)" fill="#7cbcea"/>
        </g>
        <g id="Grupo_12455" data-name="Grupo 12455" transform="translate(67.126 207.512)">
          <path id="Trazado_14074" data-name="Trazado 14074" d="M306,352.61l1.678,3.593-41.521-.023-.71-3.592Z" transform="translate(-265.446 -352.587)" fill="#7cbcea"/>
        </g>
      </g>
    </g>
    <g id="Grupo_12466" data-name="Grupo 12466" transform="translate(316.299 152.806)">
      <g id="Grupo_12460" data-name="Grupo 12460" transform="translate(83.273 164.982)">
        <path id="Trazado_14075" data-name="Trazado 14075" d="M284.931,233.4,281.3,243.02c-.3,1.346-.355,2.958,1.035,3.754a12.2,12.2,0,0,0,1.906.876c.662-.141,4.859-13.138,4.859-13.138l-.04-.078A3.454,3.454,0,0,0,284.931,233.4Z" transform="translate(-279.449 -231.126)" fill="#0f787a"/>
        <path id="Trazado_14076" data-name="Trazado 14076" d="M283.2,247.181l4.86-13.137.638.37-4.9,13.015Z" transform="translate(-278.413 -230.657)" fill="#122043"/>
        <g id="Grupo_12458" data-name="Grupo 12458" transform="translate(3.716 6.077)">
          <path id="Trazado_14077" data-name="Trazado 14077" d="M282.8,235.84l-.318.87,1.677.323.316-.841Z" transform="translate(-282.485 -235.84)" fill="#fff"/>
        </g>
        <g id="Grupo_12459" data-name="Grupo 12459" transform="translate(3.016 7.937)">
          <path id="Trazado_14078" data-name="Trazado 14078" d="M282.337,237.082l-.318.87,1.677.323.316-.841Z" transform="translate(-282.018 -237.082)" fill="#fff"/>
        </g>
        <path id="Trazado_14079" data-name="Trazado 14079" d="M281.454,231.782l4.033,2.272h0a2.584,2.584,0,0,1-.889,2.612l-.141.114L280,235.634Z" transform="translate(-280.004 -231.782)" fill="#f7a57a"/>
      </g>
      <path id="Trazado_14080" data-name="Trazado 14080" d="M264.865,191.229a23.16,23.16,0,0,1,5.032,11.89c.686,5.047-1.2,13.043-1.411,19.316-.189,5.739,2.4,10.3,6.948,13.8l21.636,15.721-1.45,3.852s-29.612-4.44-37.387-17.7-9.619-43.287-9.619-43.287Z" transform="translate(-212.348 -86.976)" fill="#122043"/>
      <path id="Trazado_14081" data-name="Trazado 14081" d="M273.457,180.316l11.13,24.848s4.573.533,6.555,2.287c1.036.916.988,2.749.708,4.289a1.534,1.534,0,0,1-2.513.885c-1.223-1.062-2.8-2.257-3.837-2.429a4.617,4.617,0,0,1-3.566-2.4l-15.965-25.039Z" transform="translate(-203.714 -92.405)" fill="#f7a57a"/>
      <path id="Trazado_14082" data-name="Trazado 14082" d="M238.026,159.549l-5.7-4.876,4.421-24.086,6.86-3.506a1.982,1.982,0,0,0-2.439-.762,6.285,6.285,0,0,1-3.124.229s-1.285-1.59,1.149-2.663c1.366-.921,2.281-.006,6.245-.159,0-.609-5.223-2.058-5.223-2.058-1.628-.523-5.785,2.7-5.785,2.7a2.9,2.9,0,0,0-.53,1.294l-.657,4.472s-8.841,24.242-8.841,26.83,4.954,6.135,4.954,6.135Z" transform="translate(-224.397 -121.612)" fill="#f7a57a"/>
      <path id="Trazado_14083" data-name="Trazado 14083" d="M262.548,194.032s3.431,4.133,1.372,13.737c-1.313,6.131-7.082,13.845-10.957,19.158-2.778,3.81-2.836,8.6-2,13.243,3.173,17.638-1.9,39.172-1.9,39.172H244.94s-6.173-31.556-8-53.737a63.99,63.99,0,0,1,7.088-34.987Z" transform="translate(-218.263 -87.28)" fill="#002f4c"/>
      <g id="Grupo_12462" data-name="Grupo 12462" transform="translate(6.028 1.187)">
        <g id="Grupo_12461" data-name="Grupo 12461" transform="translate(0 0)">
          <rect id="Rectángulo_3021" data-name="Rectángulo 3021" width="13.065" height="3.452" transform="translate(2.014 1.896) rotate(-8.346)" fill="#f99200"/>
          <rect id="Rectángulo_3022" data-name="Rectángulo 3022" width="3.452" height="1.193" transform="translate(1.769 5.422) rotate(-98.348)" fill="#fff"/>
          <path id="Trazado_14084" data-name="Trazado 14084" d="M230.44,127.148c-.946.133-1.745.069-1.971-1.477-.249-1.686.518-1.834,1.463-1.98Z" transform="translate(-228.422 -121.764)" fill="#122043"/>
          <path id="Trazado_14085" data-name="Trazado 14085" d="M238.9,125.82l2.509-1.508-.182-1.243L238.4,122.4Z" transform="translate(-223.459 -122.404)" fill="#fff"/>
          <path id="Trazado_14086" data-name="Trazado 14086" d="M240.47,124.091l1.091-.786-1.273-.457Z" transform="translate(-222.519 -122.184)" fill="#002f4c"/>
        </g>
        <rect id="Rectángulo_3023" data-name="Rectángulo 3023" width="12.626" height="0.785" transform="matrix(0.989, -0.145, 0.145, 0.989, 2.759, 3.944)" fill="#ef7100"/>
        <rect id="Rectángulo_3024" data-name="Rectángulo 3024" width="12.626" height="0.785" transform="matrix(0.989, -0.145, 0.145, 0.989, 2.517, 2.297)" fill="#ef7100"/>
      </g>
      <path id="Trazado_14087" data-name="Trazado 14087" d="M277.747,167c7.354,5.4,16.012,31.375,16.012,31.375L287.3,202l-10.508-14.42s-1.024,16.694,1.49,29.5c-1.143,4.8-6.6,4.262-15.439,2.585a43.872,43.872,0,0,1-14.634-5.488s-.382-23.162-1.526-35.443,1.116-13.593-1.981-13.187c-6.907-3.922-18.226-16.557-18.226-16.557l10.514-2.044,22.638,13.265S270.7,163.127,277.747,167Z" transform="translate(-223.362 -109.008)" fill="#ffc630"/>
      <path id="Trazado_14088" data-name="Trazado 14088" d="M254.9,139.826l-5.461,5.394a9.469,9.469,0,0,0-2.591,8.793l.639,2.878Z" transform="translate(-213.34 -112.55)" fill="#f7a57a"/>
      <path id="Trazado_14089" data-name="Trazado 14089" d="M267.4,138.463c13.262,0,7.622,25.459,7.622,25.459s-2.363,16.515-7.622,23.147c-4.552,5.738-13.559,4.012-17.826,1.258a16.272,16.272,0,0,0-6.886-2.541c-3.614-.436-7.911-2.032-7.911-8.551,0-6.135,7.326-10.881,12.146-14.27a15.9,15.9,0,0,0,6.249-9.243C254.718,147.441,258.484,138.463,267.4,138.463Z" transform="translate(-219.231 -113.228)" fill="#122043"/>
      <g id="Grupo_12465" data-name="Grupo 12465" transform="translate(16.481 192.062)">
        <path id="Trazado_14090" data-name="Trazado 14090" d="M249,252.925l-10.289-.016c-1.366.192-2.893.71-3.149,2.291a12.216,12.216,0,0,0-.148,2.092c.364.571,14.008-.076,14.008-.076l.058-.064A3.458,3.458,0,0,0,249,252.925Z" transform="translate(-235.397 -248.351)" fill="#0f787a"/>
        <path id="Trazado_14091" data-name="Trazado 14091" d="M235.423,255.862l14.007-.076-.121.728H235.4Z" transform="translate(-235.403 -246.919)" fill="#002f4c"/>
        <g id="Grupo_12463" data-name="Grupo 12463" transform="translate(8.607 4.559)">
          <path id="Trazado_14092" data-name="Trazado 14092" d="M242.077,252.909l-.927.008.288,1.684h.9Z" transform="translate(-241.15 -252.909)" fill="#fff"/>
        </g>
        <g id="Grupo_12464" data-name="Grupo 12464" transform="translate(6.62 4.559)">
          <path id="Trazado_14093" data-name="Trazado 14093" d="M240.75,252.909l-.927.008.289,1.684h.9Z" transform="translate(-239.824 -252.909)" fill="#fff"/>
        </g>
        <path id="Trazado_14094" data-name="Trazado 14094" d="M246.328,249.865l-.705,4.575h0a2.586,2.586,0,0,1-2.758.087l-.157-.091-.5-4.57Z" transform="translate(-232.016 -249.865)" fill="#f7a57a"/>
      </g>
      <path id="Trazado_14095" data-name="Trazado 14095" d="M237.366,124.8a1.982,1.982,0,0,1,2.439.762l-4.564,2.333c-.063-.027-.124-.058-.189-.084a21.385,21.385,0,0,0-3.02-1.1C232.465,126.278,236.522,125.083,237.366,124.8Z" transform="translate(-220.598 -120.094)" fill="#f7a57a"/>
    </g>
    <path id="Trazado_14096" data-name="Trazado 14096" d="M429.078,129.189s-4.593,15.932-10.767,21.224-23.929,19.567-23.929,19.567l-5.831-1.222L408.065,145.2l7.067-22.9Z" transform="translate(173.571 31.536)" fill="#f7a57a"/>
    <path id="Trazado_14097" data-name="Trazado 14097" d="M397.711,154.661l-4.629,6.833c-2.088,2.627-7.458,1.553-10.815-.142a.754.754,0,0,1-.088-1.286c2.411-1.724,8.656-6.126,10.676-6.978Z" transform="translate(170.242 46.854)" fill="#f7a57a"/>
    <g id="Grupo_12476" data-name="Grupo 12476" transform="translate(542.31 338.489)">
      <g id="Grupo_12475" data-name="Grupo 12475" transform="translate(0 0.886)">
        <g id="Grupo_12469" data-name="Grupo 12469" transform="translate(52.901 5.092)">
          <g id="Grupo_12468" data-name="Grupo 12468">
            <path id="Trazado_14098" data-name="Trazado 14098" d="M415.1,264.5l3.391,7.575,5.519-4.973-3.894-11.036Z" transform="translate(-408.429 -246.38)" fill="#f18c72"/>
            <g id="Grupo_12467" data-name="Grupo 12467">
              <path id="Trazado_14099" data-name="Trazado 14099" d="M415.36,268.195a3.761,3.761,0,0,1-2.318-.214c-3.356-3.8-2.2-15-2.2-15l3.928-3.387,6.008,2.8,1.565,6.153c.418,2.029-.154,5.59-1.544,7.13h0A10.456,10.456,0,0,1,415.36,268.195Z" transform="translate(-410.647 -249.597)" fill="#f7a57a"/>
            </g>
          </g>
        </g>
        <path id="Trazado_14100" data-name="Trazado 14100" d="M427.619,295.448a8.683,8.683,0,0,1-4.072,2.9c-2.713.931-22.924-3.31-22.924-3.31l-4.06.427a10.325,10.325,0,0,1-6.429-.332l-5.944-2.3,34.87-.728,13.346-16.576Z" transform="translate(-370.908 -231.601)" fill="#f7a57a"/>
        <path id="Trazado_14101" data-name="Trazado 14101" d="M425.7,263.433s8.057,10.318,9.939,17.1,2.561,25.489,2.561,25.489H421.244S416.376,297.2,412.6,289.2a9.151,9.151,0,0,1-.1-7.606c2.767-6.27,6.923-14.893,6.923-14.893Z" transform="translate(-357.213 -237.621)" fill="#ffc630"/>
        <g id="Grupo_12471" data-name="Grupo 12471" transform="translate(48.405 181.293)">
          <g id="Grupo_12470" data-name="Grupo 12470" transform="translate(3.669)">
            <path id="Trazado_14102" data-name="Trazado 14102" d="M417.9,367.259l-1.345,3.5a4.49,4.49,0,0,1-1.831,2.324,17.555,17.555,0,0,1-4.63,2.1c2.7,2.3,6.983-.1,9.437-1.8a6.01,6.01,0,0,0,2.4-3.473l.562-2.652Z" transform="translate(-410.094 -367.259)" fill="#f7a57a"/>
          </g>
          <path id="Trazado_14103" data-name="Trazado 14103" d="M423.417,368.475s1.822,1.433,1.488,3.259-.807,6.1-.807,6.1h-1.875l.058-3.988c-.006-.261-4.019,3.988-4.7,3.988h-9.917s-.659-2.69,5.165-3.555S423.417,368.475,423.417,368.475Z" transform="translate(-407.644 -366.654)" fill="#002f4c"/>
        </g>
        <g id="Grupo_12473" data-name="Grupo 12473" transform="translate(67.682 181.293)">
          <g id="Grupo_12472" data-name="Grupo 12472" transform="translate(3.669)">
            <path id="Trazado_14104" data-name="Trazado 14104" d="M430.772,367.259l-1.343,3.5a4.5,4.5,0,0,1-1.831,2.324,17.58,17.58,0,0,1-4.63,2.1c2.7,2.3,6.983-.1,9.437-1.8a6.01,6.01,0,0,0,2.4-3.473l.562-2.652Z" transform="translate(-422.967 -367.259)" fill="#f7a57a"/>
          </g>
          <path id="Trazado_14105" data-name="Trazado 14105" d="M436.29,368.475s1.822,1.433,1.489,3.259-.807,6.1-.807,6.1H435.1l.058-3.988c-.006-.261-4.019,3.988-4.7,3.988h-9.917s-.659-2.69,5.163-3.555S436.29,368.475,436.29,368.475Z" transform="translate(-420.517 -366.654)" fill="#002f4c"/>
        </g>
        <path id="Trazado_14106" data-name="Trazado 14106" d="M419.559,292.172s-8.413,12.611-1.213,62.879c-1.131,19-3.242,50.27-3.242,50.27h4.776s13.238-33.306,8.795-49.9c-1.054-16.432,3.016-63.549,3.016-63.549Z" transform="translate(-355.528 -223.471)" fill="#122043"/>
        <path id="Trazado_14107" data-name="Trazado 14107" d="M435.034,291.875s8.805,7.082,8.805,17.6c0,8.251-3.977,25.341-6.257,36.527-.828,4.063.007,8.257,1.152,12.241,4.657,16.226-1,47.078-1,47.078h-4.75s-.261-15.868-6.758-51.441c-7.462-40.858-8.145-62-8.145-62Z" transform="translate(-354.048 -223.471)" fill="#002f4c"/>
        <g id="Grupo_12474" data-name="Grupo 12474" transform="translate(0 36.844)">
          <path id="Trazado_14108" data-name="Trazado 14108" d="M387.651,295.193h27.7v-2.036H388.881L377.122,270.8l-1.8.948Z" transform="translate(-375.321 -270.8)" fill="#a4d1bb"/>
        </g>
        <path id="Trazado_14109" data-name="Trazado 14109" d="M439.763,278.185s-8.844,20.592-13.1,20.592-27.789-10.066-27.789-10.066l.624-3.515,24.032,4.072a105.317,105.317,0,0,0,3.609-12.187,6.7,6.7,0,0,1,5.184-5.177C438.01,270.831,439.763,278.185,439.763,278.185Z" transform="translate(-363.6 -233.46)" fill="#f7a57a"/>
        <path id="Trazado_14110" data-name="Trazado 14110" d="M421.988,258.237s-2.624,1.587-10.653-3.561c-1.229.32.734-11.254,11.124-7.853,7.272,2.38,6.923,9.419,6.588,13.314-.362,4.208,1.829,6.984,4.722,10.062,2.426,2.582,2.389,7.327,4,9.882,1.99,3.143,4.1,2.959,5.676,6.147,1.652,3.337,1.878,7.417-.334,10.412-1.256,1.7-4.186,5.809-8.82,4.346-2.6-.821-3.3-5.363-3.417-9.19a11.588,11.588,0,0,0-4.418-8.693c-2.5-1.99-5.229-4.717-5.96-7.562C419.064,269.958,421.988,258.237,421.988,258.237Z" transform="translate(-357.564 -246.197)" fill="#122043"/>
        <path id="Trazado_14111" data-name="Trazado 14111" d="M419.843,254.455a1.706,1.706,0,0,0-2.2.586,1.469,1.469,0,0,0,.045,2.138,1.706,1.706,0,0,0,2.2-.586A1.47,1.47,0,0,0,419.843,254.455Z" transform="translate(-354.478 -242.19)" fill="#f7a57a"/>
        <path id="Trazado_14112" data-name="Trazado 14112" d="M390.617,283.134a1.152,1.152,0,0,1,.687-1.191l4.52-1.965a4.953,4.953,0,0,1,3.534-.157l4.481,1.488.606.022.482,4.171c-.9-.329-1.421-.533-1.421-.533l-2.835-1.03s-6.185,5.243-8.4.482c-.663,4.716-2.007,4.192-2.007,4.192Z" transform="translate(-367.883 -229.593)" fill="#f7a57a"/>
      </g>
      <path id="Trazado_14113" data-name="Trazado 14113" d="M426.737,254.479c-.89,3.221-5.467,4.767-10.227,3.453s-7.341-4.888-7-8.212c.44-4.368,5.467-4.768,10.227-3.453S427.627,251.258,426.737,254.479Z" transform="translate(-358.327 -245.605)" fill="#122043"/>
    </g>
    <g id="Grupo_12486" data-name="Grupo 12486" transform="translate(190.636 328.665)">
      <g id="Grupo_12479" data-name="Grupo 12479" transform="translate(36.268 193.264)">
        <path id="Trazado_14114" data-name="Trazado 14114" d="M166.237,371.559l15.519-.018c2.061.216,4.364.8,4.749,2.588a10.329,10.329,0,0,1,.225,2.365c-.55.645-21.125-.087-21.125-.087l-.09-.073C163.333,373.709,166.237,371.559,166.237,371.559Z" transform="translate(-164.702 -366.39)" fill="#002b49"/>
        <path id="Trazado_14115" data-name="Trazado 14115" d="M186.43,374.876,165.3,374.79l.183.822H186.46Z" transform="translate(-164.403 -364.773)" fill="#122043"/>
        <g id="Grupo_12477" data-name="Grupo 12477" transform="translate(7.285 5.151)">
          <path id="Trazado_14116" data-name="Trazado 14116" d="M169.96,371.541l1.4.009-.435,1.9h-1.355Z" transform="translate(-169.567 -371.541)" fill="#fff"/>
        </g>
        <g id="Grupo_12478" data-name="Grupo 12478" transform="translate(10.282 5.151)">
          <path id="Trazado_14117" data-name="Trazado 14117" d="M171.961,371.541l1.4.009-.435,1.9h-1.355Z" transform="translate(-171.568 -371.541)" fill="#fff"/>
        </g>
        <path id="Trazado_14118" data-name="Trazado 14118" d="M165.016,368.1l1.065,5.169h0a5.037,5.037,0,0,0,4.162.1l.235-.1.747-5.165Z" transform="translate(-164.546 -368.101)" fill="#f7a57a"/>
      </g>
      <g id="Grupo_12482" data-name="Grupo 12482" transform="translate(0 193.264)">
        <path id="Trazado_14119" data-name="Trazado 14119" d="M142.018,371.559l15.519-.018c2.059.216,4.362.8,4.749,2.588a10.427,10.427,0,0,1,.225,2.365c-.55.645-21.127-.087-21.127-.087l-.088-.073C139.114,373.709,142.018,371.559,142.018,371.559Z" transform="translate(-140.483 -366.39)" fill="#122043"/>
        <path id="Trazado_14120" data-name="Trazado 14120" d="M162.21,374.876l-21.126-.086.183.822H162.24Z" transform="translate(-140.184 -364.773)" fill="#122043"/>
        <g id="Grupo_12480" data-name="Grupo 12480" transform="translate(7.285 5.151)">
          <path id="Trazado_14121" data-name="Trazado 14121" d="M145.741,371.541l1.4.009-.435,1.9h-1.355Z" transform="translate(-145.348 -371.541)" fill="#fff"/>
        </g>
        <g id="Grupo_12481" data-name="Grupo 12481" transform="translate(10.281 5.151)">
          <path id="Trazado_14122" data-name="Trazado 14122" d="M147.741,371.541l1.4.009-.435,1.9h-1.355Z" transform="translate(-147.348 -371.541)" fill="#fff"/>
        </g>
        <path id="Trazado_14123" data-name="Trazado 14123" d="M142.182,368.1l-.674,5.169h0a5.034,5.034,0,0,0,4.16.1l.235-.1,2.486-5.165Z" transform="translate(-139.973 -368.101)" fill="#f7a57a"/>
      </g>
      <g id="Grupo_12483" data-name="Grupo 12483" transform="translate(12.587 19.437)">
        <path id="Trazado_14124" data-name="Trazado 14124" d="M161.668,252.024l-12.78,8.334,3.944,10.1c.057.142.13.274.195.413.28-.018.56-.034.845-.034.046,0,.091.006.138.006s.088-.006.133-.006a9.859,9.859,0,0,1,8.146,4.937,17,17,0,0,0,6.032-1.565,6.252,6.252,0,0,0,2.842-2.152C172.532,264.894,161.668,252.024,161.668,252.024Z" transform="translate(-148.888 -252.024)" fill="#f7a57a"/>
      </g>
      <path id="Trazado_14125" data-name="Trazado 14125" d="M168.8,254.637s1.565,14.833-1.586,24.278c1.463,1.271,6.833,7.028,8.522-.434s-1.9-26.457-1.9-26.457Z" transform="translate(-127.182 -232.587)" fill="#f7a57a"/>
      <g id="Grupo_12485" data-name="Grupo 12485" transform="translate(30.948 0.194)">
        <g id="Grupo_12484" data-name="Grupo 12484" transform="translate(0 20.806)">
          <path id="Trazado_14126" data-name="Trazado 14126" d="M164.156,253.068,161.149,255l1.073,2.245,3.226-1.422Z" transform="translate(-161.149 -253.068)" fill="#122043"/>
          <path id="Trazado_14127" data-name="Trazado 14127" d="M162.384,255.217c.3.686.323,1.34.048,1.462s-.741-.338-1.042-1.024-.323-1.34-.048-1.462S162.083,254.531,162.384,255.217Z" transform="translate(-161.149 -252.518)" fill="#122043"/>
        </g>
        <path id="Trazado_14128" data-name="Trazado 14128" d="M199.589,249.04c0-.028.009-.055.012-.084a30.129,30.129,0,0,0-2.908-5.219,26.2,26.2,0,0,1-2.793-4.563L162.85,259.5l2.011,3.795,34.73-12.835A9.706,9.706,0,0,1,199.589,249.04Z" transform="translate(-160.303 -239.174)" fill="#002f4c"/>
      </g>
      <path id="Trazado_14129" data-name="Trazado 14129" d="M155.91,268.41l-1.117,6.973h9.88l.711-8.545Z" transform="translate(-133.363 -225.217)" fill="#f18c72"/>
      <path id="Trazado_14130" data-name="Trazado 14130" d="M173.82,296.493s11.67-3.717,15.327-8.714-2.531-32.345-2.531-32.345l.8-4.921a4.583,4.583,0,0,0-4.482-5.316l-3.118-.027a1.783,1.783,0,0,0-1.646,2.508l4.1,9.225s3.077,20.715-1.232,22.286a48.513,48.513,0,0,1-10.959,2.273Z" transform="translate(-125.759 -235.997)" fill="#f7a57a"/>
      <path id="Trazado_14131" data-name="Trazado 14131" d="M162.854,277.119l-3-6.656,1.95-1.225a3.667,3.667,0,0,0,1.521-4.29l-2.137-6.275s6.081-.744,5.9-6.409c0-2.917-4.015-2.934-4.015-2.934a5.836,5.836,0,0,1-4.924,2.917c-1.6-.2-5.987.388-8.949,5.556-1.992,3.476-1.119,8.921.615,13.007,1.554,3.661,5.521,5.707,9.451,6.309Z" transform="translate(-136.717 -233.928)" fill="#002b49"/>
      <path id="Trazado_14132" data-name="Trazado 14132" d="M154.65,305.234a219.676,219.676,0,0,0,3.691,29.58,26.464,26.464,0,0,1-.911,13.6c-6.969,20.7-16.738,51.831-16.738,51.831h8.69s19.689-36.79,24.763-55.038,5.942-24.044,5.942-24.044l-6.037-15.932Z" transform="translate(-140.379 -206.114)" fill="#122043"/>
      <path id="Trazado_14133" data-name="Trazado 14133" d="M154.884,261.719a2.83,2.83,0,0,0,1.616,3.1c1.249.663,2.552.35,2.91-.7a2.827,2.827,0,0,0-1.614-3.1C156.545,260.357,155.242,260.67,154.884,261.719Z" transform="translate(-133.363 -228.285)" fill="#f7a57a"/>
      <path id="Trazado_14134" data-name="Trazado 14134" d="M178.349,323.206H150.013V286.854A15.426,15.426,0,0,1,164,271.5l19.7-2.384s2.317,3.546,8.772,11.787a66.55,66.55,0,0,1-16.739,7Z" transform="translate(-135.742 -224.086)" fill="#dff1fd"/>
      <path id="Trazado_14135" data-name="Trazado 14135" d="M150.013,305.234s4,14.484,18.768,30.717a18.991,18.991,0,0,1,5.512,14.763l-3.046,49.535h8.814s10.743-41.135,8.425-61.412-10.138-33.6-10.138-33.6Z" transform="translate(-135.742 -206.114)" fill="#002f4c"/>
      <path id="Trazado_14136" data-name="Trazado 14136" d="M184.695,245.736c1.524,3.161,3.593,5.322,4.62,4.828s.623-3.459-.9-6.621-3.591-5.324-4.618-4.828S183.172,242.575,184.695,245.736Z" transform="translate(-119.217 -239.045)" fill="#fff"/>
      <path id="Trazado_14137" data-name="Trazado 14137" d="M167.459,251.2l.262.126a3.954,3.954,0,0,0,2.958.186l.174-.058a5.282,5.282,0,0,0,3.36-3.407h0a.979.979,0,0,0-1.134-1.255l-1.963.412a2.954,2.954,0,0,0-1.863,1.27Z" transform="translate(-127.062 -235.201)" fill="#f7a57a"/>
    </g>
    <g id="Grupo_12492" data-name="Grupo 12492" transform="translate(420.193 312.865)">
      <g id="Grupo_12488" data-name="Grupo 12488" transform="translate(23.905 1.554)">
        <path id="Trazado_14138" data-name="Trazado 14138" d="M334.555,238.616l-12.311,32.171-7.761-5.775,17.34-29.233Z" transform="translate(-307.378 -226.424)" fill="#f18c72"/>
        <g id="Grupo_12487" data-name="Grupo 12487" transform="translate(23.995)">
          <path id="Trazado_14139" data-name="Trazado 14139" d="M327.417,232a5.008,5.008,0,0,0-1.113,3.4l-.544,4.644.633.719,2.179,1.933c-.076-.961-.186,0-.186,0l3.5-6.1s4.235-2.715-1.107-6.722a1.535,1.535,0,0,0-1.755-.112A3.933,3.933,0,0,0,327.417,232Z" transform="translate(-325.761 -229.532)" fill="#f18c72"/>
        </g>
        <path id="Trazado_14140" data-name="Trazado 14140" d="M309.738,284.918A202.161,202.161,0,0,0,324.6,261.682l-6.677-7.6-8.188,9.544Z" transform="translate(-309.738 -217.319)" fill="#005558"/>
      </g>
      <path id="Trazado_14141" data-name="Trazado 14141" d="M296.981,391.44l3.92.68c.81-4.862,13-27.915,13.994-39.889a270.344,270.344,0,0,1,4.19-28.09l-13.114-3.9s-3.321,0,.325,27.092C298.1,358.095,295.9,382.519,296.981,391.44Z" transform="translate(-292.307 -182.85)" fill="#f18c72"/>
      <path id="Trazado_14142" data-name="Trazado 14142" d="M303.345,313.659s3.08,18.532,7.365,38.353c-4.476,11.968,2.344,45.367,2.471,45.249.514-.484,2.869,2.419,2.869,2.419s4.973-29.476,6.072-42.768,1.375-29.5,1.375-29.5Z" transform="translate(-289.014 -186.123)" fill="#f7a57a"/>
      <path id="Trazado_14143" data-name="Trazado 14143" d="M310.061,368.239s-1.867,1.583-1.524,3.6.827,6.743.827,6.743h1.918l-.058-4.407c.006-.289,4.117,4.407,4.813,4.407h10.156s.674-2.973-5.289-3.928S310.061,368.239,310.061,368.239Z" transform="translate(-286.452 -158.969)" fill="#002f4c"/>
      <g id="Grupo_12489" data-name="Grupo 12489" transform="translate(0 204.316)">
        <path id="Trazado_14144" data-name="Trazado 14144" d="M301.267,366.526,301,370.731a3.926,3.926,0,0,0,.692,2.489,15.836,15.836,0,0,0,3.053,3.175c-2.944.946-5.622-2.356-7.026-4.549a5.244,5.244,0,0,1-.762-3.6l.5-3.309Z" transform="translate(-292.223 -364.931)" fill="#f18c72"/>
        <path id="Trazado_14145" data-name="Trazado 14145" d="M298.449,367.54s-2.589.234-3.019,2.2-1.655,5.957-1.655,5.957l1.414,1.126,1.992-3.953s4.283,5.774,4.964,6.059h11.086s0-3.669-6.938-3.835C299.9,374.942,298.449,367.54,298.449,367.54Z" transform="translate(-293.775 -363.633)" fill="#122043"/>
      </g>
      <path id="Trazado_14146" data-name="Trazado 14146" d="M343.192,237.578,330.88,269.749l-7.76-5.775,17.34-29.233Z" transform="translate(-279.176 -225.386)" fill="#f7a57a"/>
      <g id="Grupo_12490" data-name="Grupo 12490" transform="translate(60.834 0)">
        <path id="Trazado_14147" data-name="Trazado 14147" d="M336.054,230.959a5.007,5.007,0,0,0-1.113,3.4L334.4,239l.633.719,2.179,1.933c-.076-.961-.186,0-.186,0l3.5-6.1s4.235-2.715-1.107-6.722a1.535,1.535,0,0,0-1.755-.112A3.929,3.929,0,0,0,336.054,230.959Z" transform="translate(-334.398 -228.494)" fill="#f7a57a"/>
      </g>
      <path id="Trazado_14148" data-name="Trazado 14148" d="M314.293,266.483h-7.935l3.167-9.325,6.2,3.812Z" transform="translate(-287.515 -214.234)" fill="#f18c72"/>
      <path id="Trazado_14149" data-name="Trazado 14149" d="M327.209,278.559c-.04-.237-.094-.433-.141-.648,7.857-10.132,14.527-17.266,14.527-17.266l-6.677-7.6-15.18,14.412-4.452.019s-6.016-3.97-11.27,1.448c-1.92,1.98-3.2,7.348-1.915,13.024,3.536,15.646.768,23.923.768,23.923l20.471,7.633s.464-13.606.785-23.149v-.033a10.621,10.621,0,0,1,1.662-5.222A9.338,9.338,0,0,0,327.209,278.559Z" transform="translate(-289.891 -216.281)" fill="#7cbcea"/>
      <g id="Grupo_12491" data-name="Grupo 12491" transform="translate(16.555 26.163)">
        <path id="Trazado_14150" data-name="Trazado 14150" d="M317.842,245.965,304.83,250.52l1.283,9.711c.018.138.054.27.081.406.249.045.5.091.747.151.042.01.081.024.121.036s.078.013.118.024a8.9,8.9,0,0,1,6.081,6.089,15.357,15.357,0,0,0,5.632-.072,5.661,5.661,0,0,0,2.958-1.276C324.6,259.6,317.842,245.965,317.842,245.965Z" transform="translate(-304.83 -245.965)" fill="#f7a57a"/>
      </g>
      <path id="Trazado_14151" data-name="Trazado 14151" d="M322.592,255.3c-3.5,1.712-2.678,19.764-3.283,32.057a13.973,13.973,0,0,1-11.83,13.067c-4.638.74-9.728.876-12.8-.873,2.031-1.661,12.976-17.765,9.47-39.091-.461-2.806-.518-10.62,4.208-14.863,5.25-4.71,16.085,1.436,16.085,1.436S327.4,252.946,322.592,255.3Z" transform="translate(-293.325 -220.87)" fill="#122043"/>
      <path id="Trazado_14152" data-name="Trazado 14152" d="M325.654,288s2.722,13.872,2.722,22.123c0,4.533-1.111,33.094-1.111,33.094s-19.448,1.408-23.225,1.408c-.936-23.4-6.272-24.124-6.272-35.039,0-4.744,2.432-10.105,4.3-13.523a19.78,19.78,0,0,0,2.7-7.588l.127-.443Z" transform="translate(-291.788 -198.888)" fill="#002f4c"/>
      <path id="Trazado_14153" data-name="Trazado 14153" d="M301.332,322.88" transform="translate(-290.015 -181.536)" fill="#ffc630"/>
    </g>
    <g id="Grupo_12495" data-name="Grupo 12495" transform="translate(683.971 189.608)">
      <path id="Trazado_14154" data-name="Trazado 14154" d="M512.194,151.646c-.952,1.168-.869,6.936.481,13.235a56.021,56.021,0,0,0-13.174,9.7c-4.663-3.16-9.911-6.005-12.488-4.939-5.228,2.164-11.744,16.107-11.5,18.493.156,1.526,4.445,5.667,10,9.21a55.965,55.965,0,0,0-2.709,15.977c-5.545,1.06-11.3,2.763-12.366,5.345-2.167,5.228,3.085,19.694,4.943,21.211,1.164.949,6.9.87,13.175-.467a55.955,55.955,0,0,0,9.422,13.665c-3.021,4.531-5.628,9.5-4.6,11.982,2.164,5.229,16.107,11.745,18.493,11.5,1.42-.144,5.1-3.862,8.458-8.847a56.005,56.005,0,0,0,17.064,3.22c1.074,4.985,2.684,9.743,5.009,10.707,5.228,2.167,19.694-3.086,21.209-4.943.854-1.047.878-5.788-.1-11.294a55.993,55.993,0,0,0,14.819-10.319c4.082,2.568,8.253,4.53,10.46,3.615,5.229-2.164,11.745-16.107,11.5-18.493-.133-1.312-3.323-4.558-7.745-7.694a55.967,55.967,0,0,0,2.911-18.006c4.687-1.071,9-2.631,9.914-4.831,2.165-5.228-3.086-19.694-4.943-21.211-1.048-.855-5.812-.875-11.336.108A56.008,56.008,0,0,0,578.461,174.3c2.737-4.256,4.924-8.711,3.968-11.019-2.164-5.229-16.107-11.745-18.493-11.5-1.427.144-5.136,3.9-8.509,8.922a55.967,55.967,0,0,0-16.829-2.411c-1.069-5.3-2.732-10.569-5.193-11.591C528.178,144.535,513.71,149.787,512.194,151.646ZM563.663,208.9a25.19,25.19,0,1,1-30.25-18.816A25.188,25.188,0,0,1,563.663,208.9Z" transform="translate(-469.918 -146.187)" fill="#ffc630"/>
      <g id="Grupo_12493" data-name="Grupo 12493" transform="translate(32.773 32.513)">
        <path id="Trazado_14155" data-name="Trazado 14155" d="M562.567,195.615a35.848,35.848,0,1,1-43.048-26.777A35.887,35.887,0,0,1,562.567,195.615Zm-69.329,16.155a35.34,35.34,0,1,0,26.4-42.437A35.38,35.38,0,0,0,493.238,211.771Z" transform="translate(-491.802 -167.898)" fill="#fff"/>
      </g>
      <g id="Grupo_12494" data-name="Grupo 12494" transform="translate(18.475 16.144)">
        <path id="Trazado_14156" data-name="Trazado 14156" d="M501.289,162c.027.237.051.473.067.71a51.382,51.382,0,0,1,58.221,83l0,.006c.1.213.195.43.281.648A52.049,52.049,0,0,0,501.289,162Z" transform="translate(-472.785 -156.968)" fill="#fff"/>
        <path id="Trazado_14157" data-name="Trazado 14157" d="M500.619,227.912A51.127,51.127,0,0,1,483,199.753c-.052-.226-.091-.452-.141-.677-.2.13-.4.25-.6.37.034.153.06.305.1.458a51.777,51.777,0,0,0,17.74,28.439C500.264,228.2,500.439,228.053,500.619,227.912Z" transform="translate(-482.255 -136.018)" fill="#fff"/>
      </g>
    </g>
  </g>
</svg>
