<svg xmlns="http://www.w3.org/2000/svg" xmlns:xlink="http://www.w3.org/1999/xlink" width="703" height="409.569" viewBox="0 0 703 409.569">
  <defs>
    <linearGradient id="linear-gradient" x1="-0.315" y1="0.5" x2="0.685" y2="0.5" gradientUnits="objectBoundingBox">
      <stop offset="0" stop-color="#daece5"/>
      <stop offset="1" stop-color="#b2deeb"/>
    </linearGradient>
    <linearGradient id="linear-gradient-2" x1="91.122" y1="7.351" x2="92.107" y2="7.351" xlink:href="#linear-gradient"/>
    <linearGradient id="linear-gradient-3" x1="-88.248" y1="0.5" x2="-87.248" y2="0.5" xlink:href="#linear-gradient"/>
    <linearGradient id="linear-gradient-4" x1="-86.535" y1="0.5" x2="-85.535" y2="0.5" xlink:href="#linear-gradient"/>
    <linearGradient id="linear-gradient-5" x1="-96.019" y1="0.5" x2="-95.019" y2="0.5" gradientUnits="objectBoundingBox">
      <stop offset="0" stop-color="#b2deeb"/>
      <stop offset="1" stop-color="#daece5"/>
    </linearGradient>
    <linearGradient id="linear-gradient-6" x1="19.742" y1="0.5" x2="20.742" y2="0.5" xlink:href="#linear-gradient"/>
  </defs>
  <g id="Grupo_12387" data-name="Grupo 12387" transform="translate(26.564 -86.136)">
    <g id="Grupo_12306" data-name="Grupo 12306" transform="translate(30.297 134.515)">
      <g id="Grupo_12302" data-name="Grupo 12302" transform="translate(79.337 24.004)">
        <path id="Trazado_13789" data-name="Trazado 13789" d="M149.972,276.894s64.243-74.949,30.993-139.176C57.266,151.29,70.942,272.91,70.942,272.91Z" transform="translate(-70.493 -137.718)" fill="#348fd0"/>
        <path id="Trazado_13790" data-name="Trazado 13790" d="M172.84,137.718c-.431.048-.853.1-1.28.15L120.325,242.289l-28.1-66.876q-.806.907-1.583,1.826l28.419,67.629L104.274,275l2.355.118L136.1,215.053h0l41.679-5.565c.212-.755.421-1.51.62-2.27l-41.151,5.5,36.2-73.769c-.2-.408-.393-.818-.6-1.225Z" transform="translate(-62.369 -137.718)" fill="#005da8"/>
      </g>
      <g id="Grupo_12303" data-name="Grupo 12303" transform="translate(41.62 0)">
        <path id="Trazado_13791" data-name="Trazado 13791" d="M145.49,253.97s3.3-98.385-56.486-133.358C17.19,162.825,52.1,250.073,52.1,250.073l60.222,61.515Z" transform="translate(-43.615 -120.612)" fill="#7cbcea"/>
        <path id="Trazado_13792" data-name="Trazado 13792" d="M134.5,182.428l-33.349,28.167L90.275,121.467c-.466-.285-.925-.577-1.4-.855-.283.167-.549.34-.829.507l5.828,47.735-33.46-22.911c-.227.312-.441.627-.661.94l-.575.839,35.047,24,9.711,79.552L43.93,212.931c.074.919.154,1.831.246,2.729l60.1,38.4,6.9,56.489,1.017,1.04,1.066-1.854L101.47,213.166l33.764-28.517Q134.878,183.54,134.5,182.428Z" transform="translate(-43.488 -120.612)" fill="#005da8"/>
      </g>
      <g id="Grupo_12305" data-name="Grupo 12305" transform="translate(0 103.64)">
        <path id="Trazado_13793" data-name="Trazado 13793" d="M53.743,285.89c-7.283.018-14.312,2.489-20.632,6.257C16,267.055,6.841,234.871,20.706,195.811c53.928-11.7,99.227,56.852,99.227,56.852L118.385,288.7C97.233,284.631,75.161,285.834,53.743,285.89Z" transform="translate(-13.956 -194.468)" fill="#ffc630"/>
        <g id="Grupo_12304" data-name="Grupo 12304" transform="translate(6.329 1.112)">
          <path id="Trazado_13794" data-name="Trazado 13794" d="M90.339,285.6c-12.818-.494-25.73-.067-38.415-.034a34.067,34.067,0,0,0-6.2.615l-18.22-.24q-.655-1.084-1.29-2.185l60.565.8L18.466,196.717c.14-.408.275-.814.421-1.224h0c.4-.086.794-.154,1.193-.232l41.385,53.218,5.323-44.44q1.031.562,2.046,1.148L63.36,250.91Z" transform="translate(-18.466 -195.26)" fill="#fff"/>
        </g>
      </g>
    </g>
    <path id="Trazado_13795" data-name="Trazado 13795" d="M41.285,295.861c42.432,6.242,141.3,16.771,238.283-1.908a23.787,23.787,0,0,0,15.916-10.687c4.238-6.931,2.759-12.909-7.625-21.748-7.921-6.744-17.259-6.139-24.118-4.19a8.157,8.157,0,0,1-10.2-6.205c-1.629-7.561-6.652-17.457-21.084-23.3-14.2-5.751-23.175,3.031-28.371,12.054a4.031,4.031,0,0,1-7.291-.742c-4.5-14.246-20.182-33.13-71.71-33.13C59.517,206,66.84,240.875,72.7,255.342a3.34,3.34,0,0,1-3.789,4.531c-10.108-2.161-28.879-4.965-37.3,1.643q-.554.434-1.074.9C18.468,273.313,25.2,293.493,41.285,295.861Z" transform="translate(20.54 48.338)" fill="url(#linear-gradient)"/>
    <g id="Grupo_12308" data-name="Grupo 12308" transform="translate(193.827 177.629)">
      <g id="Grupo_12307" data-name="Grupo 12307" transform="translate(0 0)">
        <path id="Trazado_13796" data-name="Trazado 13796" d="M556.134,190.863,337.525,151.335,237.092,164.26,169.525,198.7Z" transform="translate(-114.749 -151.335)" fill="#dff1fd"/>
        <path id="Trazado_13797" data-name="Trazado 13797" d="M556.134,179.5,181.11,207.238l-11.585-19.893" transform="translate(-114.749 -139.976)" fill="#7cbcea"/>
        <path id="Trazado_13798" data-name="Trazado 13798" d="M185,269.676l.685.572,22.108,33.059L549.026,179.729Z" transform="translate(-108.509 -139.885)" fill="#348fd0"/>
        <path id="Trazado_13799" data-name="Trazado 13799" d="M130.491,260.554l35.753-56.574,403.2-24.348L248.3,277.467Z" transform="translate(-130.491 -139.924)" fill="#dff1fd"/>
      </g>
    </g>
    <g id="Grupo_12311" data-name="Grupo 12311" transform="translate(357.193 86.136)">
      <g id="Grupo_12309" data-name="Grupo 12309" transform="translate(0 138.433)">
        <path id="Trazado_13800" data-name="Trazado 13800" d="M253.24,188.183s.114,3.585,7.376,5.539c1.489.4,1.02.852,1.315,1.465l-8.288.229-3.345-3.559-.985.9-2.4-2.234s1-3.358,2.781-3.435Z" transform="translate(-246.908 -183.86)" fill="#122043"/>
        <path id="Trazado_13801" data-name="Trazado 13801" d="M253.7,185.968l-1.26,3.142h0a3.249,3.249,0,0,1-3.4-.93l-.154-.17,1-3.223Z" transform="translate(-246.109 -184.786)" fill="#f7a57a"/>
      </g>
      <g id="Grupo_12310" data-name="Grupo 12310" transform="translate(37.603 139.417)">
        <path id="Trazado_13802" data-name="Trazado 13802" d="M278.969,188.164s2.651,2.325,8.585,3.664c1.306.295,2.693-.185,2.752,1.955l-7.151.2-5.977-.864.028,1.029-3.212.088s-1.04-5.229.818-5.956Z" transform="translate(-273.704 -184.407)" fill="#122043"/>
        <path id="Trazado_13803" data-name="Trazado 13803" d="M277.914,185.487l.737,3.757h0a3.635,3.635,0,0,1-3.932.24l-.224-.126.215-3.782Z" transform="translate(-273.386 -185.487)" fill="#f7a57a"/>
      </g>
      <path id="Trazado_13804" data-name="Trazado 13804" d="M273.088,130.562a113.966,113.966,0,0,0-8.432,32.327,25.555,25.555,0,0,1-4.009,11.287c-6.326,9.573-11.521,33.251-11.521,33.251l4.57,1.16,30.8-52.572-.907-24.933Z" transform="translate(-246.014 -68.22)" fill="#122043"/>
      <path id="Trazado_13805" data-name="Trazado 13805" d="M268.905,130.7s-2.308,17,2.626,33.513a21.866,21.866,0,0,1,.661,9.249c-1.6,11.642,4.45,35.349,4.45,35.349l4.291-.118,5.341-77.079Z" transform="translate(-238.255 -68.166)" fill="#002f4c"/>
      <path id="Trazado_13806" data-name="Trazado 13806" d="M270.374,116.588s-6.924-1.182-5.922-5.572S277.887,90.43,277.887,90.43l10.046-1.4s-.577,2.454-6.9,3.738S270.374,116.588,270.374,116.588Z" transform="translate(-239.873 -84.968)" fill="#f7a57a"/>
      <path id="Trazado_13807" data-name="Trazado 13807" d="M275.862,93.341c-.634-.957-1.247-1.93-1.869-2.9L274,90.43l10.046-1.4s-.577,2.454-6.9,3.738A3.659,3.659,0,0,0,275.862,93.341Z" transform="translate(-235.985 -84.968)" fill="#f18c72"/>
      <path id="Trazado_13808" data-name="Trazado 13808" d="M277.786,97.982l-.433,7.326-7.129-2.044,1.659-5.875Z" transform="translate(-237.505 -81.598)" fill="#f18c72"/>
      <path id="Trazado_13809" data-name="Trazado 13809" d="M276.761,88.791s5.636,8,4.274,12.8c-1.612,2.436-8.608-.7-8.608-.7l-.306-11.044Z" transform="translate(-236.74 -85.065)" fill="#f7a57a"/>
      <path id="Trazado_13810" data-name="Trazado 13810" d="M279.925,89.707a6.629,6.629,0,0,0-3.044,1.524c-1.273,1.211-.024,5.9-.024,5.9l.1,1.664a3.655,3.655,0,0,1-3.546,3.879l-.139,0s-9.2-8.667-5.584-12.875C274.059,83.653,279.925,89.707,279.925,89.707Z" transform="translate(-238.866 -85.769)" fill="#122043"/>
      <path id="Trazado_13811" data-name="Trazado 13811" d="M275.786,94.536a1.5,1.5,0,0,0-1.079-1.517c-.71-.258-1.379,0-1.493.585a1.5,1.5,0,0,0,1.079,1.517C275,95.379,275.671,95.116,275.786,94.536Z" transform="translate(-236.306 -83.4)" fill="#f7a57a"/>
      <path id="Trazado_13812" data-name="Trazado 13812" d="M280.436,88.291c.034,1.238-1.306,2.278-2.993,2.324s-7.562-.794-7.6-2.031,5.784-2.4,7.472-2.447S280.4,87.055,280.436,88.291Z" transform="translate(-237.657 -86.136)" fill="#122043"/>
      <path id="Trazado_13813" data-name="Trazado 13813" d="M266.756,142.525s-8.4-44.619,9.872-41.467c17.843,3.076,11.072,42.568,11.072,42.568Z" transform="translate(-239.682 -80.183)" fill="#005da8"/>
      <path id="Trazado_13814" data-name="Trazado 13814" d="M274.865,103.739S263.623,118.4,265.5,122.365s17.4,19.726,18.276,20.61c1.368,1.847-.671,9.154,3.733,6.357s.636-7.77-.42-8.905l-11.754-18.143,6.442-9.2Z" transform="translate(-239.495 -79.037)" fill="#f7a57a"/>
      <path id="Trazado_13815" data-name="Trazado 13815" d="M269.586,108.91l7.92,8.484,3.023-3.25a7.71,7.71,0,0,0,1.74-7.818,6.376,6.376,0,0,0-1.636-2.526l-.094-.088a5.2,5.2,0,0,0-7.6.793Z" transform="translate(-237.763 -79.572)" fill="#7cbcea"/>
    </g>
    <g id="Grupo_12323" data-name="Grupo 12323" transform="translate(146.969 334.168)">
      <g id="Grupo_12312" data-name="Grupo 12312">
        <path id="Trazado_13816" data-name="Trazado 13816" d="M100.015,422.068l51.2-159.18H148.3L97.1,422.068Z" transform="translate(-97.099 -262.888)" fill="#0f787a"/>
      </g>
      <g id="Grupo_12313" data-name="Grupo 12313" transform="translate(26.475)">
        <path id="Trazado_13817" data-name="Trazado 13817" d="M118.882,422.068l51.2-159.18h-2.916l-51.2,159.18Z" transform="translate(-115.966 -262.888)" fill="#0f787a"/>
      </g>
      <g id="Grupo_12314" data-name="Grupo 12314" transform="translate(37.938 41.322)">
        <path id="Trazado_13818" data-name="Trazado 13818" d="M124.134,292.35v2.373l27.434-.015.469-2.373Z" transform="translate(-124.134 -292.335)" fill="#0f787a"/>
      </g>
      <g id="Grupo_12315" data-name="Grupo 12315" transform="translate(43.61 25.898)">
        <path id="Trazado_13819" data-name="Trazado 13819" d="M128.176,281.359v2.373l27.434-.015.469-2.373Z" transform="translate(-128.176 -281.343)" fill="#0f787a"/>
      </g>
      <g id="Grupo_12316" data-name="Grupo 12316" transform="translate(48.3 10.475)">
        <path id="Trazado_13820" data-name="Trazado 13820" d="M131.518,270.368v2.373l27.434-.015.469-2.373Z" transform="translate(-131.518 -270.352)" fill="#0f787a"/>
      </g>
      <g id="Grupo_12317" data-name="Grupo 12317" transform="translate(32.941 56.944)">
        <path id="Trazado_13821" data-name="Trazado 13821" d="M120.573,303.482v2.373l27.434-.015.469-2.373Z" transform="translate(-120.573 -303.467)" fill="#0f787a"/>
      </g>
      <g id="Grupo_12318" data-name="Grupo 12318" transform="translate(28.251 72.565)">
        <path id="Trazado_13822" data-name="Trazado 13822" d="M117.231,314.615v2.373l27.434-.015.469-2.373Z" transform="translate(-117.231 -314.599)" fill="#0f787a"/>
      </g>
      <g id="Grupo_12319" data-name="Grupo 12319" transform="translate(22.292 88.795)">
        <path id="Trazado_13823" data-name="Trazado 13823" d="M114.093,326.18l-1.109,2.374,27.434-.015.469-2.373Z" transform="translate(-112.984 -326.165)" fill="#0f787a"/>
      </g>
      <g id="Grupo_12320" data-name="Grupo 12320" transform="translate(17.148 105.026)">
        <path id="Trazado_13824" data-name="Trazado 13824" d="M110.427,337.746l-1.109,2.374,27.434-.015.469-2.373Z" transform="translate(-109.319 -337.731)" fill="#0f787a"/>
      </g>
      <g id="Grupo_12321" data-name="Grupo 12321" transform="translate(12.331 120.894)">
        <path id="Trazado_13825" data-name="Trazado 13825" d="M106.995,349.054l-1.109,2.374,27.434-.015.469-2.373Z" transform="translate(-105.886 -349.039)" fill="#0f787a"/>
      </g>
      <g id="Grupo_12322" data-name="Grupo 12322" transform="translate(8.34 137.109)">
        <path id="Trazado_13826" data-name="Trazado 13826" d="M104.151,360.609l-1.109,2.374,27.434-.015.469-2.373Z" transform="translate(-103.042 -360.594)" fill="#0f787a"/>
      </g>
    </g>
    <g id="Grupo_12327" data-name="Grupo 12327" transform="translate(104.967 330.174)">
      <path id="Trazado_13827" data-name="Trazado 13827" d="M79.864,345.531c-3.084,22.058.29,44.91.29,44.711a10.222,10.222,0,0,1,2.459,0s3.409-26.811,4.208-35.761,0-9.548,0-9.548S82.947,323.473,79.864,345.531Z" transform="translate(-62.571 -229.583)" fill="#f18c72"/>
      <path id="Trazado_13828" data-name="Trazado 13828" d="M82,305.84l-7.543,4.809-3.182-6.63,9.746-11.169Z" transform="translate(-65.513 -246.811)" fill="#348fd0"/>
      <g id="Grupo_12325" data-name="Grupo 12325" transform="translate(41.16)">
        <path id="Trazado_13829" data-name="Trazado 13829" d="M111.63,271.34,102.4,295.47l-5.9-4.388,13.176-22.213Z" transform="translate(-96.499 -256.482)" fill="#f7a57a"/>
        <g id="Grupo_12324" data-name="Grupo 12324" transform="translate(13.176)">
          <path id="Trazado_13830" data-name="Trazado 13830" d="M108.379,266.709a3.8,3.8,0,0,0-1.358,2.352l-1.132,3.368.359.634,1.6,1.837a2.432,2.432,0,0,1,.63-1.26l2.513-2.812s4.121-4.806.275-6.437c2.256-4.464.641-4.349.641-4.349l-2.022,3.825Z" transform="translate(-105.888 -260.042)" fill="#f7a57a"/>
          <path id="Trazado_13831" data-name="Trazado 13831" d="M108.868,266.679s-.831-.783-.091-2.647-.379-1.732-.379-1.732-3.084,7.261-2.094,8.087S108.868,266.679,108.868,266.679Z" transform="translate(-105.799 -259.132)" fill="#f7a57a"/>
        </g>
      </g>
      <path id="Trazado_13832" data-name="Trazado 13832" d="M92.907,294.445l2.764.216,9.395-10.953,5.074,5.776a153.5,153.5,0,0,1-11.466,17.889c-.387,1.85-2.407,20.467-2.407,20.467H79.979s2.595-13.661-1.988-21.262S92.907,294.445,92.907,294.445Z" transform="translate(-63.084 -250.497)" fill="#348fd0"/>
      <path id="Trazado_13833" data-name="Trazado 13833" d="M84.988,345.531c-3.084,22.058.29,44.91.29,44.711a10.234,10.234,0,0,1,2.46,0s3.407-26.811,4.207-35.761,0-9.548,0-9.548S88.073,323.473,84.988,345.531Z" transform="translate(-60.505 -229.583)" fill="#f7a57a"/>
      <g id="Grupo_12326" data-name="Grupo 12326" transform="translate(21.032 26.912)">
        <path id="Trazado_13834" data-name="Trazado 13834" d="M91.539,279.22l-9.384,3.285.925,7c.014.1.041.2.059.293.18.032.361.066.539.109.029.007.059.017.087.025s.058.01.086.017a6.424,6.424,0,0,1,4.387,4.391,11.044,11.044,0,0,0,4.061-.052,4.059,4.059,0,0,0,2.133-.919C96.411,289.053,91.539,279.22,91.539,279.22Z" transform="translate(-82.155 -279.22)" fill="#f7a57a"/>
      </g>
      <path id="Trazado_13835" data-name="Trazado 13835" d="M94.025,285.978a6.173,6.173,0,0,0-.192,5.393,9.062,9.062,0,0,1,.313,7.394,9.849,9.849,0,0,1-3.437,3.1,5.306,5.306,0,0,0-2.491,4.016c-.209,2.279-.427,5.076-2.377,5.748-5.664,1.951-7.74,1.761-8.5-2.958a9.59,9.59,0,0,1,.488-4.624,8.275,8.275,0,0,0-.174-6.2,10.8,10.8,0,0,1-1.069-3.7c0-1.069.979-2.574,2.008-3.858a7.93,7.93,0,0,0,1.667-5.685,7.3,7.3,0,0,1,2.176-6.423c3.87-3.3,12.46,1.894,12.46,1.894A8.289,8.289,0,0,1,94.025,285.978Z" transform="translate(-63.367 -253.168)" fill="#122043"/>
      <path id="Trazado_13836" data-name="Trazado 13836" d="M72.924,300.809l-3.623,3.75c-2.407,2.492-3.15,5.96-.258,7.867l11.837,9.4-1.088,2.038a4.966,4.966,0,0,0,.434,5.355l1.252,1.639,2.769-9.506-8.582-10.717a2.057,2.057,0,0,1,.443-3.2h0Z" transform="translate(-67.167 -243.601)" fill="#f7a57a"/>
      <path id="Trazado_13837" data-name="Trazado 13837" d="M96.813,315.158a39.737,39.737,0,0,1,2.387,12.46c0,3.445-2.983,29.425-2.983,29.425H80.708c1.051-19.187-4.766-21.539-4.766-29.834,0-5.85,4.582-12.051,4.582-12.051Z" transform="translate(-63.629 -237.815)" fill="#002f4c"/>
      <path id="Trazado_13838" data-name="Trazado 13838" d="M80.025,372.474a2.873,2.873,0,0,0-1.109,2.425c.25,1.358.6,4.541.6,4.541h1.395l-.044-2.968c0-.2,2.99,2.968,3.5,2.968h7.378s.49-2-3.844-2.647S80.025,372.474,80.025,372.474Z" transform="translate(-62.442 -214.701)" fill="#122043"/>
      <path id="Trazado_13839" data-name="Trazado 13839" d="M85.64,372.474a2.869,2.869,0,0,0-1.107,2.425c.248,1.358.6,4.541.6,4.541h1.393l-.042-2.968c0-.2,2.989,2.968,3.5,2.968h7.378s.49-2-3.842-2.647S85.64,372.474,85.64,372.474Z" transform="translate(-60.177 -214.701)" fill="#002b49"/>
      <path id="Trazado_13840" data-name="Trazado 13840" d="M78.913,342.668" transform="translate(-62.431 -226.721)" fill="#ffc630"/>
    </g>
    <g id="Grupo_12338" data-name="Grupo 12338" transform="translate(26.176 345.695)">
      <g id="Grupo_12328" data-name="Grupo 12328" transform="translate(28.016 139.743)">
        <path id="Trazado_13841" data-name="Trazado 13841" d="M36.119,373.266s2.481,2.3,8.136,3.741c1.245.317,2.588-.107,2.588,1.948H39.979l-5.707-.987v.987H31.189s-.859-5.042.942-5.689Z" transform="translate(-30.984 -369.646)" fill="#122043"/>
        <path id="Trazado_13842" data-name="Trazado 13842" d="M35.183,370.686l.606,3.62h0a3.487,3.487,0,0,1-3.776.128l-.212-.128.307-3.62Z" transform="translate(-30.655 -370.686)" fill="#f7a57a"/>
      </g>
      <g id="Grupo_12329" data-name="Grupo 12329" transform="translate(5.259 139.743)">
        <path id="Trazado_13843" data-name="Trazado 13843" d="M19.9,373.266s2.48,2.3,8.135,3.741c1.245.317,2.588-.107,2.588,1.948H23.762l-5.707-.987v.987H14.972s-.859-5.042.942-5.689Z" transform="translate(-14.767 -369.646)" fill="#122043"/>
        <path id="Trazado_13844" data-name="Trazado 13844" d="M18.967,370.686l.606,3.62h0a3.49,3.49,0,0,1-3.778.128l-.212-.128.307-3.62Z" transform="translate(-14.438 -370.686)" fill="#f7a57a"/>
      </g>
      <g id="Grupo_12330" data-name="Grupo 12330" transform="translate(5.91 62.897)">
        <path id="Trazado_13845" data-name="Trazado 13845" d="M45.334,317.3s3.087,28.823,3.633,33.14-7.715,44.178-7.715,44.178l-5.286.154s-1.395-23.261-1.149-36.508c.086-4.674-2-9.906-4.686-13.864-11.284-16.611-10.292-27.87-10.292-27.87Z" transform="translate(-13.381 -315.682)" fill="#122043"/>
        <path id="Trazado_13846" data-name="Trazado 13846" d="M43.2,318s-1.523,19.854-4.338,30.516c-1.184,4.482-18.873,46-18.873,46l-4.754-.088s.713-20.353,5.845-34.115c1.81-4.855,1.253-7.343.949-11.413a264.582,264.582,0,0,1-.335-32.97Z" transform="translate(-15.231 -315.924)" fill="#002f4c"/>
      </g>
      <g id="Grupo_12337" data-name="Grupo 12337">
        <g id="Grupo_12331" data-name="Grupo 12331" transform="translate(40.001 2.105)">
          <path id="Trazado_13847" data-name="Trazado 13847" d="M47.145,277.434,45.853,273.5a1.044,1.044,0,0,0-.761-.683l-.842-.188a1.045,1.045,0,0,0-.783.135l-3.455,2.175a1.042,1.042,0,0,0-.431,1.221l.166.483a1.044,1.044,0,0,0,.509.589l4.572,2.35Z" transform="translate(-39.525 -272.603)" fill="#f7a57a"/>
          <path id="Trazado_13848" data-name="Trazado 13848" d="M44.555,278.774l-3.573-.8a1,1,0,0,1-.682-1.409l.69-1.433c.184-.382,2.471-.53,2.471-.53s.559,1.589-1.549,1.507a1.58,1.58,0,0,1-.153.786,4.487,4.487,0,0,1,4.468.326Z" transform="translate(-39.252 -271.796)" fill="#f18c72"/>
        </g>
        <path id="Trazado_13849" data-name="Trazado 13849" d="M50.028,275.63s10.017,11.675,6.048,19.072S39.5,314.238,39.5,314.238l-6.355-16.124s9.069.539,14.646-5.608S46.552,278.4,46.552,278.4Z" transform="translate(-2.097 -269.277)" fill="#005da8"/>
        <g id="Grupo_12332" data-name="Grupo 12332" transform="translate(16.422)">
          <path id="Trazado_13850" data-name="Trazado 13850" d="M22.722,275.554l1.73-3.762a1.042,1.042,0,0,1,.834-.592l.857-.091a1.038,1.038,0,0,1,.762.223l3.185,2.553a1.045,1.045,0,0,1,.29,1.263l-.219.459a1.043,1.043,0,0,1-.574.528l-4.809,1.817Z" transform="translate(-22.722 -271.103)" fill="#f7a57a"/>
          <path id="Trazado_13851" data-name="Trazado 13851" d="M24.615,277.138l3.64-.387a1,1,0,0,0,.838-1.32l-.523-1.5c-.139-.4-2.4-.807-2.4-.807s-.734,1.516,1.37,1.673a1.573,1.573,0,0,0,.062.8,4.485,4.485,0,0,0-4.475-.184Z" transform="translate(-22.557 -270.289)" fill="#f7a57a"/>
        </g>
        <path id="Trazado_13852" data-name="Trazado 13852" d="M43.465,296.155c8.452,5.323,5.417,39.3,5.417,39.3L23.387,333l2.188-25.138s-11.891-13.839-14.33-24.1,15.718-10.188,15.718-10.188l2.937,3.651s-12.162,1.015-8.734,6.312S35.789,296.19,35.789,296.19Z" transform="translate(-11.02 -270.105)" fill="#005da8"/>
        <g id="Grupo_12333" data-name="Grupo 12333" transform="translate(34.784 28.623)">
          <path id="Trazado_13853" data-name="Trazado 13853" d="M38.653,327.7c.286-3.668,1.848-26.588-2.846-35.586q.149-.3.288-.612c5.248,9.319,3.3,33.992,3.082,36.579C39.005,327.949,38.827,327.825,38.653,327.7Z" transform="translate(-35.807 -291.5)" fill="#7cbcea"/>
        </g>
        <g id="Grupo_12336" data-name="Grupo 12336" transform="translate(22.325 5.916)">
          <g id="Grupo_12334" data-name="Grupo 12334" transform="translate(4.534 14.983)">
            <path id="Trazado_13854" data-name="Trazado 13854" d="M30.16,290.762l1-4.766,5.459.486.533,5.623a1.079,1.079,0,0,1-.109.116A15.485,15.485,0,0,0,30.16,290.762Z" transform="translate(-30.16 -285.996)" fill="#f18c72"/>
          </g>
          <g id="Grupo_12335" data-name="Grupo 12335">
            <path id="Trazado_13855" data-name="Trazado 13855" d="M28.6,279.633l1.6,7.422c.74-.15,1.306.578,1.278,1.3a1.42,1.42,0,0,1,.215.53,8.7,8.7,0,0,0,6.921.47c4.59-1.677.243-10.369.243-10.369Z" transform="translate(-26.256 -273.84)" fill="#f7a57a"/>
            <path id="Trazado_13856" data-name="Trazado 13856" d="M27.955,285.242a4.994,4.994,0,0,1,.428-6.551c1.625-1.758,3.846-3.309,5.8-3.361,3.435-.088,4.8.323,6.785,1.859,3.02,2.339-.988,4.338-.988,4.338a9.266,9.266,0,0,1-6.458.751,1.217,1.217,0,0,0-1.358.577c-.678,1.333.327,7.579.327,7.579A21.449,21.449,0,0,1,27.955,285.242Z" transform="translate(-26.929 -275.319)" fill="#122043"/>
            <path id="Trazado_13857" data-name="Trazado 13857" d="M29.7,284.345a1.164,1.164,0,1,0,.386-1.6A1.164,1.164,0,0,0,29.7,284.345Z" transform="translate(-25.881 -272.393)" fill="#f7a57a"/>
          </g>
        </g>
        <path id="Trazado_13858" data-name="Trazado 13858" d="M37.42,289.42,37.59,292l-8.461-1.49,1.7-2.852Z" transform="translate(-3.716 -264.427)" fill="url(#linear-gradient-2)"/>
      </g>
    </g>
    <g id="Grupo_12345" data-name="Grupo 12345" transform="translate(231.002 347.031)">
      <g id="Grupo_12339" data-name="Grupo 12339" transform="translate(30.204 141.075)">
        <path id="Trazado_13859" data-name="Trazado 13859" d="M182.7,374.693s2.025,1.879,6.642,3.055c1.016.258,2.112-.087,2.112,1.589h-5.6l-4.659-.805v.805h-2.517s-.7-4.114.769-4.643Z" transform="translate(-178.506 -371.738)" fill="#122043"/>
        <path id="Trazado_13860" data-name="Trazado 13860" d="M182.3,372.587l.282,2.955h0a2.843,2.843,0,0,1-3.082.1l-.174-.1-.522-2.955Z" transform="translate(-178.387 -372.587)" fill="#f7a57a"/>
      </g>
      <g id="Grupo_12340" data-name="Grupo 12340" transform="translate(9.916 141.075)">
        <path id="Trazado_13861" data-name="Trazado 13861" d="M168.24,374.693s2.025,1.879,6.642,3.055c1.016.258,2.112-.087,2.112,1.589h-5.6l-4.659-.805v.805h-2.516s-.7-4.114.769-4.643Z" transform="translate(-164.048 -371.738)" fill="#122043"/>
        <path id="Trazado_13862" data-name="Trazado 13862" d="M167.837,372.587l.283,2.955h0a2.845,2.845,0,0,1-3.083.1l-.173-.1-.522-2.955Z" transform="translate(-163.929 -372.587)" fill="#f7a57a"/>
      </g>
      <g id="Grupo_12341" data-name="Grupo 12341" transform="translate(60.698 28.654)">
        <path id="Trazado_13863" data-name="Trazado 13863" d="M203.954,295.365a6.035,6.035,0,0,0,3.5-.45c1.878-.662,5.341-3.258,5.477-1.017-1.274,1.788-2.557,4.057-2.557,4.057-.876,1-3.062,1.375-4.479,1.337l-4.373-.661s-1.212-1.893-1.285-1.973l.619-.688A9.7,9.7,0,0,0,203.954,295.365Z" transform="translate(-200.237 -292.261)" fill="#f7a57a"/>
        <path id="Trazado_13864" data-name="Trazado 13864" d="M204.621,296.145a1.689,1.689,0,0,0,.306.14c-.192.212-.37.434-.54.66-.933.459-1.851.949-2.78,1.419-.206-.61-.5-1.465-.532-1.523l5.429-4.367s.814.464.029,1.722A6.591,6.591,0,0,1,204.621,296.145Z" transform="translate(-199.899 -292.474)" fill="#f7a57a"/>
      </g>
      <g id="Grupo_12343" data-name="Grupo 12343" transform="translate(14.3)">
        <path id="Trazado_13865" data-name="Trazado 13865" d="M174.454,284.108l.588,5.786-6.2.245,1.242-8.97Z" transform="translate(-166.5 -268.378)" fill="#f18c72"/>
        <g id="Grupo_12342" data-name="Grupo 12342" transform="translate(3.523 3.811)">
          <path id="Trazado_13866" data-name="Trazado 13866" d="M176.019,287.746a3.11,3.11,0,0,0,1.737-.413c2.078-3.021-.289-11.166-.289-11.166l-3.32-1.4-4.22,2.631-.24,5.459a4.425,4.425,0,0,0,1.885,3.764h0A8.632,8.632,0,0,0,176.019,287.746Z" transform="translate(-169.683 -274.77)" fill="#f7a57a"/>
        </g>
        <path id="Trazado_13867" data-name="Trazado 13867" d="M171.6,281.591c.232-.918.111-3.033,1.044-2.881.681.112,3.016.208,3.8.208,1.872,0,5.208-.731,5.208-3.58a3.673,3.673,0,0,0-4.962-3.051c-2.061.72-4.794,2.31-5.884,2.091-1.833-.369-3.663.707-3.637,2.265a15.6,15.6,0,0,0,1.715,5.758,8.733,8.733,0,0,0,1.869,2.446h0Z" transform="translate(-167.173 -272.054)" fill="#122043"/>
        <path id="Trazado_13868" data-name="Trazado 13868" d="M169.052,279.064a1.408,1.408,0,0,1,1.743.156c.546.455.651,1.121.234,1.49a1.412,1.412,0,0,1-1.744-.156C168.74,280.1,168.636,279.433,169.052,279.064Z" transform="translate(-166.518 -269.323)" fill="#f7a57a"/>
      </g>
      <path id="Trazado_13869" data-name="Trazado 13869" d="M178.563,290.006c11.685,9.085,34.344,6.681,34.344,6.681l1.048,5.94s-28.75,8.5-32.336,1.7S166.879,280.922,178.563,290.006Z" transform="translate(-150.376 -265.885)" fill="#7cbcea"/>
      <path id="Trazado_13870" data-name="Trazado 13870" d="M174.954,286.19q.32,0,.627.013c6.838.25,12.179,9.685,12.179,16.528v24.745H161.369V299.155A12.83,12.83,0,0,1,172.1,286.4,18.624,18.624,0,0,1,174.954,286.19Z" transform="translate(-155.213 -266.354)" fill="#7cbcea"/>
      <path id="Trazado_13871" data-name="Trazado 13871" d="M177.05,313.892l5.84.672c2.388.091,4.3-3.309,4.944-5.909a.538.538,0,0,0-.654-.646,74.759,74.759,0,0,0-8.727,2.529Z" transform="translate(-148.889 -257.561)" fill="#f7a57a"/>
      <path id="Trazado_13872" data-name="Trazado 13872" d="M164.69,291.025s-13.31,17.778-4.949,26.4,27.176,4.965,27.176,4.965V316.9s-17.768.044-18.814-5.988,4.225-12.565,4.225-12.565" transform="translate(-156.982 -264.404)" fill="#7cbcea"/>
      <g id="Grupo_12344" data-name="Grupo 12344" transform="translate(6.156 33.783)">
        <path id="Trazado_13873" data-name="Trazado 13873" d="M161.369,317.651c8.422,4.851,21.685,2.78,23.518,2.463V315.1c-2.307-.018-17.8-.362-18.81-6.2-1.054-6.079,4.06-12.5,4.279-12.773l.407.327c-.052.065-5.185,6.508-4.172,12.356.992,5.717,18.2,5.772,18.553,5.772h.265v5.965l-.212.041a53.5,53.5,0,0,1-9.038.754c-4.69,0-10.345-.647-14.789-3.1Z" transform="translate(-161.369 -296.129)" fill="#122043"/>
      </g>
      <path id="Trazado_13874" data-name="Trazado 13874" d="M187.76,315.611c3.017,14.636,3.48,30.389,3.549,43.612a350.166,350.166,0,0,1-1.638,36.863h-4.356L176.223,335.2s-.991,9.055-2.334,24.409c-1.052,12.047-1.549,22.231-4.378,36.474h-4.37s-3.772-43.96-3.772-80.475Z" transform="translate(-155.213 -254.489)" fill="#122043"/>
      <path id="Trazado_13875" data-name="Trazado 13875" d="M174.9,285.077h-5.513l-.877,2.03h7.1Z" transform="translate(-152.334 -266.803)" fill="#fff"/>
    </g>
    <g id="Grupo_12350" data-name="Grupo 12350" transform="translate(510.247 250.3)">
      <g id="Grupo_12346" data-name="Grupo 12346" transform="translate(0 8.479)">
        <path id="Trazado_13876" data-name="Trazado 13876" d="M403.772,327.932c-9.743-8.062-20.92-11-33.019-11.49-11.448-24.961-26.217-71.209-.7-107.278,106.28,26.84,79.6,131.293,79.6,131.293l-37.324-3.284A50.628,50.628,0,0,0,403.772,327.932Z" transform="translate(-355.978 -209.164)" fill="#348fd0"/>
        <path id="Trazado_13877" data-name="Trazado 13877" d="M413,337.254l-.9-.08c-.634-.876-1.3-1.72-1.972-2.546L392.5,281.09h0l-35.688-9.911c-.094-.683-.184-1.367-.267-2.054l35.238,9.784-22.635-68.751c.226-.331.442-.665.675-.995h0c.369.093.731.191,1.1.286l32.04,97.317,32.629-54.94c.4.592.78,1.187,1.159,1.784l-33,55.56Z" transform="translate(-355.747 -209.164)" fill="#005da8"/>
      </g>
      <g id="Grupo_12347" data-name="Grupo 12347" transform="translate(41.229)">
        <path id="Trazado_13878" data-name="Trazado 13878" d="M392.866,331.193l-7.508-18.57s9.047-86.238,65.453-109.5c57.537,45.539,16.5,117.428,16.5,117.428l-57.056,44.091C409.42,352.4,401.981,339.192,392.866,331.193Z" transform="translate(-385.358 -203.122)" fill="#ffc630"/>
        <path id="Trazado_13879" data-name="Trazado 13879" d="M403.9,356.69l19.744-74.343-26-28.975q.444-.926.905-1.85l25.68,28.618,20.3-76.442c.442-.192.877-.392,1.323-.577.227.18.438.363.662.543l-10.874,40.942,31.972-15.933c.16.3.309.6.463.9l.4.8-33.488,16.688-18.119,68.229,57-26.174c-.175.793-.356,1.579-.544,2.352l-57.1,26.215-11.413,42.973C404.588,359.336,404.269,358.011,403.9,356.69Z" transform="translate(-380.403 -203.122)" fill="#fff"/>
      </g>
      <g id="Grupo_12349" data-name="Grupo 12349" transform="translate(61.731 98.123)">
        <path id="Trazado_13880" data-name="Trazado 13880" d="M408.745,313.821s47.835-54.315,93.468-37.569c20.008,97.222-102.245,129.536-102.245,129.536Z" transform="translate(-399.968 -273.046)" fill="#7cbcea"/>
        <g id="Grupo_12348" data-name="Grupo 12348" transform="translate(3.021 2.858)">
          <path id="Trazado_13881" data-name="Trazado 13881" d="M501.345,275.432c.077.375.146.745.219,1.117l-70.252,68.356,52.939,6.649q-.686.884-1.391,1.75l-53.3-6.7-27.44,26.7.281-2.938,53.423-51.98.766-40.557q.958-.389,1.924-.755l-.745,39.419,42.563-41.413c.337.116.674.223,1.01.347Z" transform="translate(-402.121 -275.083)" fill="#005da8"/>
        </g>
      </g>
    </g>
    <g id="Grupo_12358" data-name="Grupo 12358" transform="translate(386.135 348.436)">
      <g id="Grupo_12351" data-name="Grupo 12351" transform="translate(12.788 136.526)">
        <path id="Trazado_13882" data-name="Trazado 13882" d="M284.568,372.512s-1.008,1.392-5.752,2.6c-1.044.265-2.169.448-2.169,2.171h4.683l4.788-.828v.828H288.7s.72-4.231-.79-4.773Z" transform="translate(-276.646 -369.474)" fill="#122043"/>
        <path id="Trazado_13883" data-name="Trazado 13883" d="M282.115,370.347l.247,3.038h0a2.924,2.924,0,0,0,3.167.107l.178-.107v-3.038Z" transform="translate(-274.44 -370.347)" fill="#f7a57a"/>
      </g>
      <g id="Grupo_12352" data-name="Grupo 12352" transform="translate(36.809 137.131)">
        <path id="Trazado_13884" data-name="Trazado 13884" d="M301.686,372.943s-1.008,1.393-5.752,2.6c-1.044.267-2.169.448-2.169,2.171h4.683l4.788-.828v.828h2.586s.72-4.229-.79-4.773Z" transform="translate(-293.764 -369.905)" fill="#122043"/>
        <path id="Trazado_13885" data-name="Trazado 13885" d="M299.233,370.778l.247,3.038h0a2.924,2.924,0,0,0,3.167.107l.178-.107v-3.038Z" transform="translate(-291.559 -370.778)" fill="#f7a57a"/>
      </g>
      <path id="Trazado_13886" data-name="Trazado 13886" d="M280.755,319.019l1.166,76.312h5.56s8.463-61.611,6.656-76.312S280.755,319.019,280.755,319.019Z" transform="translate(-262.201 -257.155)" fill="#122043"/>
      <path id="Trazado_13887" data-name="Trazado 13887" d="M284.943,317.129s1.935,23.442,6.381,36.419S303.8,393.457,303.8,393.457h5.755s-9.61-56.281-7.412-76.328h-17.2Z" transform="translate(-260.512 -255.282)" fill="#002b49"/>
      <path id="Trazado_13888" data-name="Trazado 13888" d="M286.4,289.449s-6.852,15.979-8.591,15.979c-1.392,0,.521-13.048.521-13.048h-5.738s-7.217,22.363-1.478,26.45,18.345-11.564,18.345-11.564Z" transform="translate(-266.982 -266.445)" fill="url(#linear-gradient-3)"/>
      <path id="Trazado_13889" data-name="Trazado 13889" d="M298.682,318.675l-2.077,5.133c-1,2.018-4.676,2.068-7.116,1.429a.507.507,0,0,1-.239-.832,70.294,70.294,0,0,1,6.023-6.079Z" transform="translate(-258.829 -254.8)" fill="#f7a57a"/>
      <path id="Trazado_13890" data-name="Trazado 13890" d="M284.581,287.118S281,289.544,281,292.327v36.931h20.969V294.729s-.429-7.677-7.936-7.677S284.581,287.118,284.581,287.118Z" transform="translate(-262.101 -267.412)" fill="url(#linear-gradient-4)"/>
      <g id="Grupo_12353" data-name="Grupo 12353" transform="translate(18.554 28.693)">
        <path id="Trazado_13891" data-name="Trazado 13891" d="M281.451,326.672V293.5l-.7.023v33.146Z" transform="translate(-280.755 -293.503)" fill="#85c6ba"/>
      </g>
      <path id="Trazado_13892" data-name="Trazado 13892" d="M290.889,281.221v8.71a5.32,5.32,0,0,1-4.064,1.988c-2.616,0-2.616-1.886-2.616-1.886v-5.582l3.872-1.009Z" transform="translate(-260.808 -269.763)" fill="#f18c72"/>
      <path id="Trazado_13893" data-name="Trazado 13893" d="M284.8,288.779a3.234,3.234,0,0,1-1.942-.505c-2.322-3.7.323-13.682.323-13.682l8.431,1.511.268,6.688a5.609,5.609,0,0,1-2.106,4.613h0A9.006,9.006,0,0,1,284.8,288.779Z" transform="translate(-261.736 -272.436)" fill="#f7a57a"/>
      <path id="Trazado_13894" data-name="Trazado 13894" d="M288.125,276.9a18.027,18.027,0,0,1-5.742,0c-2.944-.523-1.061-3.768-1.061-3.768a11.575,11.575,0,0,0,6.051.422c2.613-.386,3.316-.892,4.991,0,2.275,1.214,1.726,5.33,1.726,5.33l-1.256,8.7h-.47s-.116-5.177-.116-6.938c-.491-.8-1.026-.8-1.436-.6a1.315,1.315,0,0,0-.7,1.2v9.038s-5.756,2.481-7.221,2.032-.486-7.148-.486-7.148a2.689,2.689,0,0,1,3,.733c1.3,1.452,2.87-.058,2.87-.058Z" transform="translate(-262.212 -273.056)" fill="#122043"/>
      <path id="Trazado_13895" data-name="Trazado 13895" d="M272.318,293.657l.2-1.1c.448-2.44,2.78-5.476,5.129-6.271h2.436l-.755,5.2-3.438,2.168Z" transform="translate(-265.603 -267.721)" fill="#f7a57a"/>
      <path id="Trazado_13896" data-name="Trazado 13896" d="M288.84,277.877a1.469,1.469,0,0,0-1.388,1.382,1.266,1.266,0,0,0,.954,1.577,1.471,1.471,0,0,0,1.388-1.382A1.267,1.267,0,0,0,288.84,277.877Z" transform="translate(-259.508 -271.113)" fill="#f7a57a"/>
      <path id="Trazado_13897" data-name="Trazado 13897" d="M277.964,290.1l-4.746,2.746s2.978-.029,3.027,0l5.022-4.2s-.365-.734-1.5-.115A5.776,5.776,0,0,0,277.964,290.1Z" transform="translate(-265.24 -266.915)" fill="#f7a57a"/>
      <path id="Trazado_13898" data-name="Trazado 13898" d="M296.379,288.7s11.855,13.168,11.855,21.062-9.622,21.805-9.622,21.805l-4.754-1.391s4.29-17.217,4.29-21.8-8.811-11.294-8.811-11.294" transform="translate(-258.74 -266.747)" fill="url(#linear-gradient-5)"/>
      <g id="Grupo_12354" data-name="Grupo 12354" transform="translate(30.385 30.063)">
        <path id="Trazado_13899" data-name="Trazado 13899" d="M297.86,306.049c0,3.943-3.49,18.358-4.309,21.717.241.063.34.081.7.177,1.009-4.149,4.3-18.019,4.3-21.894,0-4.7-8.582-11.292-8.947-11.57l-.422.553C289.273,295.1,297.86,301.692,297.86,306.049Z" transform="translate(-289.186 -294.479)" fill="#85c6ba"/>
      </g>
      <g id="Grupo_12357" data-name="Grupo 12357" transform="translate(0 4.43)">
        <path id="Trazado_13900" data-name="Trazado 13900" d="M280.518,283.459a12.58,12.58,0,0,1-2.172,9.2,1.375,1.375,0,0,1-.887.493,3.478,3.478,0,0,1-1.639-.272,1.519,1.519,0,0,1-.992-.71.657.657,0,0,1,.069-.688c.639-.953,2.613-4.224,1.713-7.119A5.152,5.152,0,0,1,280.518,283.459Z" transform="translate(-264.619 -273.321)" fill="#f4872e"/>
        <path id="Trazado_13901" data-name="Trazado 13901" d="M275.383,292.667a1.006,1.006,0,0,1-.556-.533.657.657,0,0,1,.069-.688c.639-.953,2.613-4.224,1.713-7.119a4.347,4.347,0,0,1,1.864-.857C278.574,286.65,277.892,288.776,275.383,292.667Z" transform="translate(-264.619 -273.286)" fill="#fda630"/>
        <g id="Grupo_12356" data-name="Grupo 12356" transform="translate(11.734 12.862)">
          <g id="Grupo_12355" data-name="Grupo 12355" transform="translate(0.245 0.004)">
            <path id="Trazado_13902" data-name="Trazado 13902" d="M277.176,286.848c-.15.73-.505,1.274-.791,1.215s-.4-.7-.248-1.429.5-1.276.791-1.217S277.326,286.117,277.176,286.848Z" transform="translate(-276.069 -285.369)" fill="#f4872e"/>
            <path id="Trazado_13903" data-name="Trazado 13903" d="M276.808,285.453l-.3-.072.022.152.2.079Z" transform="translate(-275.893 -285.382)" fill="#f4872e"/>
            <path id="Trazado_13904" data-name="Trazado 13904" d="M276.448,287.341l-.366-.071.416-.061Z" transform="translate(-276.064 -284.645)" fill="#de1d4c"/>
          </g>
          <path id="Trazado_13905" data-name="Trazado 13905" d="M277,286.812c-.15.73-.5,1.274-.792,1.215s-.4-.7-.248-1.429.505-1.274.792-1.215S277.151,286.082,277,286.812Z" transform="translate(-275.895 -285.379)" fill="#ffc630"/>
        </g>
        <path id="Trazado_13906" data-name="Trazado 13906" d="M279.775,280.374h.561a1.914,1.914,0,0,1,1.953,1.861v1.478a1.914,1.914,0,0,1-1.953,1.861h-.561Z" transform="translate(-262.596 -274.535)" fill="#ffc630"/>
        <path id="Trazado_13907" data-name="Trazado 13907" d="M267.533,283.516c0,4.033.926,7.3,2.07,7.3s2.071-3.27,2.071-7.3-.926-7.3-2.071-7.3S267.533,279.483,267.533,283.516Z" transform="translate(-267.533 -276.213)" fill="#122043"/>
        <path id="Trazado_13908" data-name="Trazado 13908" d="M271.019,279.5l-1.637,1.065v2.363l1.687,1.531.583-3.072Z" transform="translate(-266.787 -274.888)" fill="#fff"/>
        <path id="Trazado_13909" data-name="Trazado 13909" d="M270.928,283.446c0-3.389-.655-6.232-1.544-7.056l0,0a33.381,33.381,0,0,0,14.9,5.648v5.156s-10.877-.612-14.9,3.316l-.006,0C270.271,289.682,270.928,286.838,270.928,283.446Z" transform="translate(-266.787 -276.143)" fill="#f99200"/>
        <path id="Trazado_13910" data-name="Trazado 13910" d="M269.224,281.437c0,.655.1,1.187.223,1.187s.223-.532.223-1.187-.1-1.186-.223-1.186S269.224,280.781,269.224,281.437Z" transform="translate(-266.851 -274.585)" fill="#ffc630"/>
      </g>
      <path id="Trazado_13911" data-name="Trazado 13911" d="M274.2,289.847a5.6,5.6,0,0,0,2.651.432c1.381,0,2-1.7,2.237-2.619.084-.326.157-.786-.25-.993l-2.217-.307Z" transform="translate(-264.846 -267.691)" fill="#f7a57a"/>
    </g>
    <g id="Grupo_12362" data-name="Grupo 12362" transform="translate(448.721 318.232)">
      <g id="Grupo_12359" data-name="Grupo 12359">
        <path id="Trazado_13912" data-name="Trazado 13912" d="M329.013,285.641c1.768-.81,8.947,1.173,16.372,4.911a72.233,72.233,0,0,1,16.409-13.289c-2.428-6.852-4.272-14.333-2.1-17.2,4.406-5.824,23.941-9.417,26.84-8.338,1.857.69,5.629,7.4,8.243,15.484a72.237,72.237,0,0,1,20.834,1.823c3.134-6.579,7.131-13.2,10.706-13.7,7.234-1,23.588,10.269,24.876,13.083.807,1.763-1.162,8.9-4.876,16.3a72.219,72.219,0,0,1,13.995,16.219c6.643-2.294,13.695-3.932,16.462-1.84,5.824,4.406,9.417,23.941,8.338,26.842-.643,1.726-6.486,5.111-13.805,7.68a72.318,72.318,0,0,1-1.539,22.358c5.875,2.965,11.292,6.527,11.738,9.743,1,7.235-10.271,23.589-13.083,24.876-1.586.725-7.515-.791-14.073-3.8a72.22,72.22,0,0,1-17.714,15.144c1.876,5.934,2.967,11.782,1.106,14.24-4.406,5.825-23.941,9.419-26.841,8.34-1.6-.595-4.61-5.637-7.086-12.18a72.251,72.251,0,0,1-23.433-2.231c-2.864,5.505-6.218,10.383-9.263,10.805-7.234,1-23.589-10.271-24.876-13.084-.727-1.589.8-7.543,3.827-14.12a72.314,72.314,0,0,1-14.353-17.925c-6.207,2.032-12.482,3.31-15.054,1.365-5.824-4.406-9.417-23.941-8.338-26.842.646-1.734,6.543-5.144,13.915-7.717a72.193,72.193,0,0,1,2.474-21.8c-6.264-3.061-12.311-6.855-12.782-10.262C314.928,303.283,326.2,286.928,329.013,285.641Zm54.733,82.928a32.51,32.51,0,1,0-13.64-43.906A32.51,32.51,0,0,0,383.746,368.569Z" transform="translate(-312.133 -251.532)" fill="#53b6b9"/>
      </g>
      <g id="Grupo_12360" data-name="Grupo 12360" transform="translate(40.218 40.875)">
        <path id="Trazado_13913" data-name="Trazado 13913" d="M354.043,359.855a46.634,46.634,0,1,0-7.868-54.258h0a46.681,46.681,0,0,0,7.868,54.258Zm65.8-64.18a45.276,45.276,0,1,1-72.476,10.55h0a45.324,45.324,0,0,1,72.476-10.55Z" transform="translate(-340.793 -280.66)" fill="#fff"/>
      </g>
      <g id="Grupo_12361" data-name="Grupo 12361" transform="translate(19.267 28.534)">
        <path id="Trazado_13914" data-name="Trazado 13914" d="M341.567,283.671c.286.112.574.219.864.316a66.313,66.313,0,0,0,84.681,99.749l.006.006c.232.2.473.383.718.564a67.175,67.175,0,0,1-86.269-100.635Z" transform="translate(-325.863 -267.105)" fill="#fff"/>
        <path id="Trazado_13915" data-name="Trazado 13915" d="M425.4,304.074A65.981,65.981,0,0,0,395.972,272.9c-.264-.139-.533-.26-.8-.394.227-.2.443-.42.66-.636.18.093.362.174.542.268a66.837,66.837,0,0,1,29.734,31.421Q425.747,303.807,425.4,304.074Z" transform="translate(-297.913 -271.866)" fill="#fff"/>
      </g>
    </g>
    <g id="Grupo_12372" data-name="Grupo 12372" transform="translate(555.244 340.423)">
      <g id="Grupo_12365" data-name="Grupo 12365" transform="translate(9.281 145.362)">
        <path id="Trazado_13916" data-name="Trazado 13916" d="M410.086,373.708l-11.672-.014c-1.549.163-3.281.6-3.571,1.946a7.783,7.783,0,0,0-.168,1.779c.413.484,15.889-.065,15.889-.065l.067-.056C412.271,375.326,410.086,373.708,410.086,373.708Z" transform="translate(-394.651 -369.82)" fill="#002b49"/>
        <path id="Trazado_13917" data-name="Trazado 13917" d="M394.679,376.367l15.89-.065-.138.618H394.657Z" transform="translate(-394.657 -368.768)" fill="#122043"/>
        <g id="Grupo_12363" data-name="Grupo 12363" transform="translate(9.764 3.875)">
          <path id="Trazado_13918" data-name="Trazado 13918" d="M402.666,373.694l-1.051.007.327,1.431h1.019Z" transform="translate(-401.615 -373.694)" fill="#fff"/>
        </g>
        <g id="Grupo_12364" data-name="Grupo 12364" transform="translate(7.51 3.875)">
          <path id="Trazado_13919" data-name="Trazado 13919" d="M401.06,373.694l-1.051.007.327,1.431h1.02Z" transform="translate(-400.009 -373.694)" fill="#fff"/>
        </g>
        <path id="Trazado_13920" data-name="Trazado 13920" d="M407.569,370.933l-.8,3.888h0a3.787,3.787,0,0,1-3.129.074l-.177-.079-.563-3.884Z" transform="translate(-391.333 -370.933)" fill="#f7a57a"/>
      </g>
      <g id="Grupo_12368" data-name="Grupo 12368" transform="translate(36.561 145.362)">
        <path id="Trazado_13921" data-name="Trazado 13921" d="M429.526,373.708l-11.672-.014c-1.549.163-3.281.6-3.571,1.946a7.779,7.779,0,0,0-.168,1.779c.413.484,15.889-.065,15.889-.065l.067-.056C431.711,375.326,429.526,373.708,429.526,373.708Z" transform="translate(-414.091 -369.82)" fill="#122043"/>
        <path id="Trazado_13922" data-name="Trazado 13922" d="M414.119,376.367l15.89-.065-.137.618H414.1Z" transform="translate(-414.097 -368.768)" fill="#122043"/>
        <g id="Grupo_12366" data-name="Grupo 12366" transform="translate(9.764 3.875)">
          <path id="Trazado_13923" data-name="Trazado 13923" d="M422.105,373.694l-1.051.007.327,1.431H422.4Z" transform="translate(-421.055 -373.694)" fill="#fff"/>
        </g>
        <g id="Grupo_12367" data-name="Grupo 12367" transform="translate(7.51 3.875)">
          <path id="Trazado_13924" data-name="Trazado 13924" d="M420.5,373.694l-1.051.007.327,1.431H420.8Z" transform="translate(-419.449 -373.694)" fill="#fff"/>
        </g>
        <path id="Trazado_13925" data-name="Trazado 13925" d="M426.077,370.933l.507,3.888h0a3.787,3.787,0,0,1-3.129.074l-.177-.079-1.87-3.884Z" transform="translate(-411.149 -370.933)" fill="#f7a57a"/>
      </g>
      <g id="Grupo_12369" data-name="Grupo 12369" transform="translate(26.84 14.619)">
        <path id="Trazado_13926" data-name="Trazado 13926" d="M414.4,277.763l9.612,6.268-2.967,7.6c-.042.107-.1.206-.146.312-.211-.014-.422-.027-.636-.027-.035,0-.069,0-.1,0s-.066,0-.1,0a7.413,7.413,0,0,0-6.127,3.714,12.793,12.793,0,0,1-4.538-1.179,4.69,4.69,0,0,1-2.137-1.618C406.23,287.443,414.4,277.763,414.4,277.763Z" transform="translate(-407.169 -277.763)" fill="#f7a57a"/>
      </g>
      <path id="Trazado_13927" data-name="Trazado 13927" d="M405.207,279.729s-1.177,11.156,1.193,18.261c-1.1.956-5.14,5.285-6.41-.327s1.426-19.9,1.426-19.9Z" transform="translate(-383.362 -263.144)" fill="#f7a57a"/>
      <g id="Grupo_12371" data-name="Grupo 12371" transform="translate(0.316 0.146)">
        <g id="Grupo_12370" data-name="Grupo 12370" transform="translate(26.324 15.649)">
          <path id="Trazado_13928" data-name="Trazado 13928" d="M408,278.6l2.261,1.455-.807,1.689-2.426-1.07Z" transform="translate(-407.027 -278.601)" fill="#122043"/>
          <path id="Trazado_13929" data-name="Trazado 13929" d="M408.721,280.274c-.227.515-.243,1.008-.036,1.1s.557-.254.784-.77.243-1.009.036-1.1S408.947,279.757,408.721,280.274Z" transform="translate(-406.417 -278.243)" fill="#122043"/>
        </g>
        <path id="Trazado_13930" data-name="Trazado 13930" d="M388.276,274.87c0-.021-.007-.042-.008-.063a22.655,22.655,0,0,1,2.186-3.925,19.716,19.716,0,0,0,2.1-3.432l23.353,15.284-1.511,2.854-26.123-9.653A7.1,7.1,0,0,0,388.276,274.87Z" transform="translate(-388.268 -267.449)" fill="#002f4c"/>
      </g>
      <path id="Trazado_13931" data-name="Trazado 13931" d="M415.881,290.836l.84,5.245H409.29l-.535-6.427Z" transform="translate(-379.69 -258.349)" fill="#f18c72"/>
      <path id="Trazado_13932" data-name="Trazado 13932" d="M403.721,310.864s-8.777-2.8-11.528-6.553,1.9-24.329,1.9-24.329l-.6-3.7a3.447,3.447,0,0,1,3.372-4l2.345-.021a1.343,1.343,0,0,1,1.238,1.887l-3.084,6.939s-2.315,15.579.926,16.762a36.517,36.517,0,0,0,8.243,1.709Z" transform="translate(-386.72 -265.363)" fill="#f7a57a"/>
      <path id="Trazado_13933" data-name="Trazado 13933" d="M412.825,296.5l2.258-5.007-1.468-.922a2.76,2.76,0,0,1-1.144-3.228l1.607-4.719s-4.573-.56-4.436-4.82c0-2.195,3.02-2.206,3.02-2.206a4.39,4.39,0,0,0,3.7,2.193c1.2-.152,4.5.292,6.732,4.179,1.5,2.614.842,6.71-.463,9.784-1.168,2.753-4.152,4.293-7.108,4.746Z" transform="translate(-379.334 -264.016)" fill="#002b49"/>
      <path id="Trazado_13934" data-name="Trazado 13934" d="M423.768,320.472a164.986,164.986,0,0,1-2.776,22.249,19.892,19.892,0,0,0,.685,10.233c5.241,15.571,12.589,38.983,12.589,38.983h-6.536s-14.809-27.67-18.626-41.4-4.469-18.084-4.469-18.084l4.541-11.984Z" transform="translate(-381.352 -245.921)" fill="#122043"/>
      <path id="Trazado_13935" data-name="Trazado 13935" d="M415.381,285.491a2.126,2.126,0,0,1-1.214,2.334c-.94.5-1.92.264-2.189-.525a2.124,2.124,0,0,1,1.215-2.332C414.132,284.468,415.113,284.7,415.381,285.491Z" transform="translate(-378.418 -260.345)" fill="#f7a57a"/>
      <path id="Trazado_13936" data-name="Trazado 13936" d="M406.137,332.165h21.312V304.823a11.6,11.6,0,0,0-10.523-11.552l-14.82-1.793s-1.743,2.668-6.6,8.866a50.016,50.016,0,0,0,12.59,5.267Z" transform="translate(-385.033 -257.613)" fill="url(#linear-gradient-6)"/>
      <path id="Trazado_13937" data-name="Trazado 13937" d="M426.656,320.472s-3.01,10.9-14.117,23.1a14.285,14.285,0,0,0-4.145,11.1l2.292,37.257h-6.63s-8.08-30.938-6.337-46.19a69.989,69.989,0,0,1,7.627-25.274Z" transform="translate(-384.24 -245.921)" fill="#002f4c"/>
      <path id="Trazado_13938" data-name="Trazado 13938" d="M391.944,272.378c-1.146,2.377-2.7,4-3.475,3.63s-.469-2.6.678-4.979,2.7-4,3.473-3.632S393.091,270,391.944,272.378Z" transform="translate(-388.043 -267.345)" fill="#fff"/>
      <path id="Trazado_13939" data-name="Trazado 13939" d="M405.736,276.878l-.2.1a2.974,2.974,0,0,1-2.224.139l-.132-.044a3.973,3.973,0,0,1-2.527-2.562h0a.737.737,0,0,1,.853-.944l1.476.31a2.227,2.227,0,0,1,1.4.954Z" transform="translate(-382.97 -264.845)" fill="#f7a57a"/>
    </g>
    <g id="Grupo_12379" data-name="Grupo 12379" transform="translate(479.76 337.364)">
      <g id="Grupo_12374" data-name="Grupo 12374" transform="translate(25.26)">
        <path id="Trazado_13940" data-name="Trazado 13940" d="M353.1,271.337l-.337,24.045,6.526-1.737L355.6,270.2Z" transform="translate(-352.048 -263.133)" fill="#f18c72"/>
        <g id="Grupo_12373" data-name="Grupo 12373">
          <path id="Trazado_13941" data-name="Trazado 13941" d="M356.8,267.455a3.5,3.5,0,0,1-.156,2.492L355.8,273.1l-.6.3-1.913.69c.3-.6.121.048.121.048l-.695-4.86s-2.043-2.856,2.457-4.072a1.072,1.072,0,0,1,1.168.38A2.739,2.739,0,0,1,356.8,267.455Z" transform="translate(-352.252 -265.165)" fill="#f18c72"/>
        </g>
        <path id="Trazado_13942" data-name="Trazado 13942" d="M356.388,307.978a141.134,141.134,0,0,1-3.63-18.911l6.3-3.2,2.84,8.306Z" transform="translate(-352.048 -256.818)" fill="#005558"/>
      </g>
      <path id="Trazado_13943" data-name="Trazado 13943" d="M368.944,385.217l-2.738.474c-.566-3.393-9.078-19.487-9.768-27.847a188.808,188.808,0,0,0-2.926-19.611l9.155-2.722s2.318,0-.227,18.912C368.165,361.939,369.7,378.99,368.944,385.217Z" transform="translate(-326.484 -236.796)" fill="#f18c72"/>
      <path id="Trazado_13944" data-name="Trazado 13944" d="M363.748,330.609s-2.151,12.938-5.142,26.776c3.124,8.355-1.638,31.671-1.725,31.588-.359-.337-2,1.69-2,1.69s-3.472-20.578-4.239-29.857-.96-20.593-.96-20.593Z" transform="translate(-328.03 -238.774)" fill="#f7a57a"/>
      <path id="Trazado_13945" data-name="Trazado 13945" d="M358.33,371.271a3.057,3.057,0,0,1,1.064,2.515c-.239,1.409-.577,4.708-.577,4.708h-1.34l.041-3.077c0-.2-2.872,3.077-3.359,3.077h-7.091s-.47-2.076,3.693-2.743S358.33,371.271,358.33,371.271Z" transform="translate(-329.089 -222.376)" fill="#002f4c"/>
      <g id="Grupo_12375" data-name="Grupo 12375" transform="translate(32.14 145.438)">
        <path id="Trazado_13946" data-name="Trazado 13946" d="M363.032,369.92l.189,2.936a2.733,2.733,0,0,1-.483,1.737,11.031,11.031,0,0,1-2.133,2.217c2.056.661,3.925-1.645,4.906-3.177a3.654,3.654,0,0,0,.532-2.516l-.345-2.31Z" transform="translate(-355.763 -368.807)" fill="#f18c72"/>
        <path id="Trazado_13947" data-name="Trazado 13947" d="M367.475,370.751s1.807.163,2.108,1.538,1.155,4.158,1.155,4.158l-.987.786-1.391-2.759a41.14,41.14,0,0,1-3.466,4.229h-7.739s0-2.562,4.843-2.677C366.462,375.918,367.475,370.751,367.475,370.751Z" transform="translate(-357.155 -368.023)" fill="#122043"/>
      </g>
      <g id="Grupo_12377" data-name="Grupo 12377" transform="translate(0 2.8)">
        <path id="Trazado_13948" data-name="Trazado 13948" d="M336.51,273.8l8.595,22.459,5.418-4.031-12.106-20.408Z" transform="translate(-333.341 -265.284)" fill="#f7a57a"/>
        <g id="Grupo_12376" data-name="Grupo 12376">
          <path id="Trazado_13949" data-name="Trazado 13949" d="M338.486,268.881a3.5,3.5,0,0,1,.777,2.372l.379,3.242-.442.5-1.521,1.35c.053-.671.129,0,.129,0l-2.445-4.256s-2.957-1.9.772-4.694a1.074,1.074,0,0,1,1.226-.079A2.747,2.747,0,0,1,338.486,268.881Z" transform="translate(-334.251 -267.161)" fill="#f7a57a"/>
        </g>
      </g>
      <path id="Trazado_13950" data-name="Trazado 13950" d="M353.8,295.025h5.539l-2.211-6.51-4.331,2.662Z" transform="translate(-326.772 -255.749)" fill="#f18c72"/>
      <path id="Trazado_13951" data-name="Trazado 13951" d="M350.541,303.263c.028-.164.065-.3.1-.452a83.681,83.681,0,0,1-8-12.056l4.662-5.306,8.459,10.061,3.11.013a6.228,6.228,0,0,1,7.868,1.012c1.339,1.382,2.233,5.13,1.336,9.092-2.467,10.923-.536,16.7-.536,16.7l-14.291,5.328s-.324-9.5-.549-16.16v-.024a7.429,7.429,0,0,0-1.161-3.646A6.515,6.515,0,0,1,350.541,303.263Z" transform="translate(-330.871 -256.985)" fill="#7cbcea"/>
      <g id="Grupo_12378" data-name="Grupo 12378" transform="translate(21.824 21.065)">
        <path id="Trazado_13952" data-name="Trazado 13952" d="M353.061,280.177l9.083,3.18-.9,6.781c-.013.1-.038.188-.056.282-.175.032-.349.063-.523.107-.028.007-.055.017-.084.024s-.055.01-.081.017a6.217,6.217,0,0,0-4.246,4.251,10.681,10.681,0,0,1-3.932-.051,3.928,3.928,0,0,1-2.064-.89C348.345,289.7,353.061,280.177,353.061,280.177Z" transform="translate(-349.803 -280.177)" fill="#f7a57a"/>
      </g>
      <path id="Trazado_13953" data-name="Trazado 13953" d="M352.826,286.592c2.446,1.2,1.869,13.8,2.292,22.381a9.753,9.753,0,0,0,8.258,9.121c3.237.518,6.792.612,8.936-.609-1.417-1.159-9.058-12.4-6.611-27.29.321-1.96.362-7.415-2.938-10.376-3.665-3.289-11.229,1-11.229,1S349.467,284.95,352.826,286.592Z" transform="translate(-327.536 -259.756)" fill="#122043"/>
      <path id="Trazado_13954" data-name="Trazado 13954" d="M350.532,311.5s-1.9,9.684-1.9,15.444c0,3.164.776,23.1.776,23.1s13.577.984,16.215.984c.654-16.34,4.378-16.842,4.378-24.462,0-3.312-1.7-7.054-3-9.44a13.813,13.813,0,0,1-1.883-5.3l-.088-.31Z" transform="translate(-328.453 -246.482)" fill="#002f4c"/>
      <path id="Trazado_13955" data-name="Trazado 13955" d="M361.2,337.478" transform="translate(-323.382 -236.003)" fill="#ffc630"/>
    </g>
    <g id="Grupo_12386" data-name="Grupo 12386" transform="translate(-26.564 223.488)">
      <g id="Grupo_12380" data-name="Grupo 12380" transform="translate(5.547)">
        <path id="Trazado_13956" data-name="Trazado 13956" d="M-17.5,192.14-22.611,202.2l10.741-2.451L24.874,188.17Z" transform="translate(22.611 -182.34)" fill="#7cbcea"/>
        <path id="Trazado_13957" data-name="Trazado 13957" d="M-22.611,199.146l18.247-1.134-4.471-2.273Z" transform="translate(22.611 -179.288)" fill="#005da8"/>
        <path id="Trazado_13958" data-name="Trazado 13958" d="M-18.048,193.815l-3.193-9.8,45.564,5.829Z" transform="translate(23.163 -184.015)" fill="#dff1fd"/>
        <path id="Trazado_13959" data-name="Trazado 13959" d="M21.787,188.17l-36.744,11.578,5.477,14.126Z" transform="translate(25.697 -182.34)" fill="#dff1fd"/>
      </g>
      <g id="Grupo_12385" data-name="Grupo 12385" transform="translate(0 25.846)">
        <g id="Grupo_12381" data-name="Grupo 12381" transform="translate(9.106)">
          <path id="Trazado_13960" data-name="Trazado 13960" d="M-19.605,206.568a.84.84,0,0,1-.258-.2.858.858,0,0,1,.084-1.211,24.19,24.19,0,0,1,3.611-2.6.853.853,0,0,1,1.175.306.858.858,0,0,1-.3,1.175,22.346,22.346,0,0,0-3.355,2.418A.856.856,0,0,1-19.605,206.568Z" transform="translate(20.074 -202.434)" fill="#348fd0"/>
        </g>
        <g id="Grupo_12383" data-name="Grupo 12383" transform="translate(0 6.316)">
          <g id="Grupo_12382" data-name="Grupo 12382">
            <path id="Trazado_13961" data-name="Trazado 13961" d="M-4.761,298.886a.512.512,0,0,1-.048-.025,25.849,25.849,0,0,1-6.747-5.842.86.86,0,0,1,.115-1.208.863.863,0,0,1,1.21.114,24.109,24.109,0,0,0,6.3,5.457.86.86,0,0,1,.3,1.176A.86.86,0,0,1-4.761,298.886Zm-9.467-9.934a.842.842,0,0,1-.356-.341,32.432,32.432,0,0,1-3.289-8.249.86.86,0,0,1,.629-1.04.86.86,0,0,1,1.038.627,30.667,30.667,0,0,0,3.114,7.813.858.858,0,0,1-.323,1.17A.857.857,0,0,1-14.228,288.952Zm-4.008-13.163a.86.86,0,0,1-.469-.7l-.025-.415a41.387,41.387,0,0,1,.439-8.417.857.857,0,0,1,.978-.72.855.855,0,0,1,.718.977,39.689,39.689,0,0,0-.421,8.067l.024.386a.859.859,0,0,1-.8.918A.854.854,0,0,1-18.236,275.79Zm1.471-13.73a.858.858,0,0,1-.439-.985,63.766,63.766,0,0,1,2.863-8.3.856.856,0,0,1,1.123-.459.864.864,0,0,1,.459,1.123,62.29,62.29,0,0,0-2.786,8.081.857.857,0,0,1-1.05.609A.988.988,0,0,1-16.765,262.06Zm4.984-12.926a.857.857,0,0,1-.38-1.144q.139-.282.279-.564a27.878,27.878,0,0,1-3.747-2.1.858.858,0,0,1-.237-1.19.855.855,0,0,1,1.191-.237A25.913,25.913,0,0,0-11.1,245.9c.921-1.771,1.935-3.606,3.086-5.586A.861.861,0,0,1-6.841,240a.858.858,0,0,1,.312,1.172c-1.11,1.91-2.092,3.685-2.983,5.391q1.2.463,2.449.808a.856.856,0,0,1,.6,1.057.86.86,0,0,1-1.058.6A28.823,28.823,0,0,1-10.3,248.1c-.108.216-.216.432-.321.648a.859.859,0,0,1-1.149.392Zm-7.757-7.067a.884.884,0,0,1-.226-.166,23.673,23.673,0,0,1-3.376-4.392,23.438,23.438,0,0,1-1.535-3.082.857.857,0,0,1,.467-1.12.857.857,0,0,1,1.12.467,22.029,22.029,0,0,0,1.423,2.857,21.872,21.872,0,0,0,3.131,4.071.858.858,0,0,1-.015,1.214A.859.859,0,0,1-19.538,242.068Zm16.968,7.819a.861.861,0,0,1-.467-.838.86.86,0,0,1,.929-.783,25.126,25.126,0,0,0,8.321-.647.858.858,0,1,1,.421,1.663,26.764,26.764,0,0,1-8.888.695A.847.847,0,0,1-2.57,249.887ZM-25.7,229.877a.856.856,0,0,1-.457-.616,27.794,27.794,0,0,1-.084-8.909.858.858,0,0,1,.975-.721.858.858,0,0,1,.723.975,26.023,26.023,0,0,0,.077,8.358.858.858,0,0,1-.7.994A.851.851,0,0,1-25.7,229.877Zm36.6,17.513a.859.859,0,0,1,0-1.528,20.99,20.99,0,0,0,1.864-1.079,16.613,16.613,0,0,0,4.392-4.2.858.858,0,1,1,1.393,1,18.317,18.317,0,0,1-4.851,4.635,22.424,22.424,0,0,1-2.015,1.166A.858.858,0,0,1,10.892,247.39ZM-4.965,237.058c-.027-.014-.052-.028-.077-.044a.861.861,0,0,1-.257-1.187,33.466,33.466,0,0,1,5.6-6.886.858.858,0,1,1,1.149,1.274,31.858,31.858,0,0,0-5.3,6.541A.859.859,0,0,1-4.965,237.058ZM-24.555,216.2a.858.858,0,0,1-.422-1.043,29.2,29.2,0,0,1,1.586-3.747,27.845,27.845,0,0,1,2.572-4.128.852.852,0,0,1,1.2-.17.858.858,0,0,1,.17,1.2,26.286,26.286,0,0,0-2.414,3.874,27.7,27.7,0,0,0-1.492,3.526.859.859,0,0,1-1.09.533A.874.874,0,0,1-24.555,216.2Zm44.245,20.99a.858.858,0,0,1-.443-.972,7.743,7.743,0,0,0-.557-5.63,7.008,7.008,0,0,0-1.176-1.619.858.858,0,0,1,1.231-1.2,8.723,8.723,0,0,1,1.465,2.017,9.54,9.54,0,0,1,.7,6.844.858.858,0,0,1-1.041.626A.877.877,0,0,1,19.691,237.187ZM4.775,227.438a.859.859,0,0,1,.029-1.545,13.859,13.859,0,0,1,9.044-.85.858.858,0,1,1-.421,1.664,12.279,12.279,0,0,0-7.9.745A.855.855,0,0,1,4.775,227.438Z" transform="translate(26.564 -206.935)" fill="#348fd0"/>
          </g>
        </g>
        <g id="Grupo_12384" data-name="Grupo 12384" transform="translate(26.176 98.742)">
          <path id="Trazado_13962" data-name="Trazado 13962" d="M-7.441,274.423a.86.86,0,0,1-.436-1,.861.861,0,0,1,1.061-.591,18.379,18.379,0,0,0,4.036.681.858.858,0,0,1,.81.9.859.859,0,0,1-.9.81,20.144,20.144,0,0,1-4.412-.741A.885.885,0,0,1-7.441,274.423Z" transform="translate(7.91 -272.799)" fill="#348fd0"/>
        </g>
      </g>
    </g>
  </g>
</svg>
