<svg xmlns="http://www.w3.org/2000/svg" width="390.164" height="439.6" viewBox="0 0 390.164 439.6">
  <g id="Grupo_11865" data-name="Grupo 11865" transform="translate(-416.528 -85.758)">
    <path id="Trazado_11838" data-name="Trazado 11838" d="M611.611,231.617c107.74,0,195.081,87.341,195.081,195.082S719.351,621.782,611.611,621.782,416.528,534.44,416.528,426.7s87.341-195.082,195.083-195.082Z" transform="translate(0 -96.423)" fill="#a8d9f9" fill-rule="evenodd"/>
    <path id="Trazado_11839" data-name="Trazado 11839" d="M1397.071,271.111a49,49,0,0,1,11.47,16.1c4.416,10.483-.212,21.424-.212,21.424l-16.059-6.937s-4.331-8.95-.387-26.731l.066-.294c1.376-.978,3.5-2.473,5.122-3.559Z" transform="translate(-643.682 -122.531)" fill="#6e2c00" fill-rule="evenodd"/>
    <path id="Trazado_11840" data-name="Trazado 11840" d="M1393.5,250.851l2.678,7.27-5.66,3.641s-2.606-4.77-2.261-4.691.022-4.948,5.243-6.22Z" transform="translate(-642.362 -109.138)" fill="#b7ddf7" fill-rule="evenodd"/>
    <path id="Trazado_11841" data-name="Trazado 11841" d="M1280.551,233.643s-2.927.043-3.833-4.009,1.273-8.689,2.007-8.622,1.826,12.631,1.826,12.631Z" transform="translate(-568.502 -89.412)" fill="#d18c84" fill-rule="evenodd"/>
    <path id="Trazado_11842" data-name="Trazado 11842" d="M1276.42,166.451s-5.145,5.948-3.444,13.133,3.225,9.227,3.225,9.227.539-13.854,2.538-18.942-2.319-3.417-2.319-3.417Z" transform="translate(-565.944 -53.17)" fill="#572504" fill-rule="evenodd"/>
    <path id="Trazado_11843" data-name="Trazado 11843" d="M1291.169,130.053c-1.481.063-8.947-4.452-13.661,1.033s-4.84,10.547,1.746,14.2,19.369,1.722,21.824,2.738,6.048,2.387,7.011,8.213,1.135,7.343,1.135,7.343l4.288,11.068s4.5-1.24,7.634-11.183.212-21.424-5.572-27.48-19.327-7.492-24.406-5.928Z" transform="translate(-566.93 -28.166)" fill="#6e2c00" fill-rule="evenodd"/>
    <path id="Trazado_11844" data-name="Trazado 11844" d="M1251.636,811.585l7.984,106.663,3.544,27.613h29.493l-3.939-133.909-37.083-.367Z" transform="translate(-552.065 -479.822)" fill="#8da9e6" fill-rule="evenodd"/>
    <path id="Trazado_11845" data-name="Trazado 11845" d="M1251.636,811.585l.761,10.171,36.62.361-.3-10.165-37.083-.367Z" transform="translate(-552.065 -479.822)" fill="#7b99d9" fill-rule="evenodd"/>
    <path id="Trazado_11846" data-name="Trazado 11846" d="M1317.05,291.878s-1.24,15.072,2.6,20.408,11.929,7.053,10.6,7.04-29.992,23.233-29.992,23.233l-13.513-21.642s9.149-1.853,10.151-8.7a111.571,111.571,0,0,0,1-14.092s11.479,5.229,19.15-6.247Z" transform="translate(-575.279 -136.26)" fill="#f9bfb3" fill-rule="evenodd"/>
    <path id="Trazado_11847" data-name="Trazado 11847" d="M1338.45,291.878s-.273,3.329-.164,7.409c-3.75,4.15-10,7.162-16.078,5.563a15.109,15.109,0,0,1-3.083-1.19c.177-3.233.176-5.535.176-5.535s11.479,5.229,19.15-6.247Z" transform="translate(-596.68 -136.26)" fill="#d18c84" fill-rule="evenodd"/>
    <path id="Trazado_11848" data-name="Trazado 11848" d="M1387.294,812.925c-4.383,5.37-5.759,86.915-6.878,109.9a196.352,196.352,0,0,1-14.734,18.466l-.047.051q-1.133,1.256-2.288,2.491l-.072.077q-1.139,1.218-2.3,2.416l-.1.1h-12.818c-1.141-17.971-2.105-32.5-2.105-32.5l-7.9-101.485,49.236.486Z" transform="translate(-609.196 -480.387)" fill="#a1bcf5" fill-rule="evenodd"/>
    <path id="Trazado_11849" data-name="Trazado 11849" d="M1387.294,812.925c-.82,1.006-1.534,4.687-2.161,10.142l-46.283-.457-.793-10.172,49.236.486Z" transform="translate(-609.196 -480.387)" fill="#8da9e6" fill-rule="evenodd"/>
    <path id="Trazado_11850" data-name="Trazado 11850" d="M1286.083,174.394c-.395.542-3.033,7.294-2.943,21.866s6.69,24.763,15.316,27.03,17.578-4.734,19.276-11.106,2.033-8.629,2.033-8.629c5.33,1.092,5.507-14.485-.847-13.284-2.053.388-3.958,2.3-3.734,3.733,0,0-.848-8.735-2.46-11.243s-3.383-6.656-12.118-5.729a24.658,24.658,0,0,1-14.523-2.638Z" transform="translate(-572.89 -58.594)" fill="#f9bfb3" fill-rule="evenodd"/>
    <path id="Trazado_11851" data-name="Trazado 11851" d="M1300.809,223.478c1.118.011,2.011,1.293,2,2.864s-.935,2.834-2.054,2.823-2.012-1.293-2-2.863.936-2.834,2.054-2.824Z" transform="translate(-583.213 -91.042)" fill="#1f0d2e" fill-rule="evenodd"/>
    <path id="Trazado_11852" data-name="Trazado 11852" d="M1344.136,223.908c1.119.011,2.014,1.293,2,2.863s-.935,2.834-2.053,2.824-2.013-1.294-2-2.863.935-2.835,2.053-2.824Z" transform="translate(-611.857 -91.326)" fill="#1f0d2e" fill-rule="evenodd"/>
    <path id="Trazado_11853" data-name="Trazado 11853" d="M1314.2,282.32a.764.764,0,0,1-.135-.8c.113-.278.357-.367.543-.2l.041.037h0c.424.379,3.131,2.8,8.352.231.209-.1.434.066.5.373a.683.683,0,0,1-.251.744c-5.569,2.743-8.547.075-9.013-.342h0l-.04-.035Z" transform="translate(-593.294 -129.221)" fill="#bd796b"/>
    <path id="Trazado_11854" data-name="Trazado 11854" d="M1301.215,211.467a.62.62,0,0,1-1.06.644c0-.007-1.821-2.894-5.548-.1a.62.62,0,0,1-.742-.993c4.807-3.609,7.343.432,7.35.444Z" transform="translate(-579.817 -81.818)" fill="#6e2c00" fill-rule="evenodd"/>
    <path id="Trazado_11855" data-name="Trazado 11855" d="M1347.622,211.926a.62.62,0,0,1-1.06.645c-.005-.008-1.82-2.894-5.549-.1a.62.62,0,0,1-.742-.993c4.807-3.609,7.343.432,7.351.444Z" transform="translate(-610.495 -82.121)" fill="#6e2c00" fill-rule="evenodd"/>
    <path id="Trazado_11856" data-name="Trazado 11856" d="M1236.779,363.861c-22.146,8.415-19.923,16.156-30.669,38.008l11.96,48.112-7.383,67.554,98,.969q-3.081-19.167-6.164-38.335t-6.167-38.336l.038-.84,4.974,2.544c1.265-37.934,10.582-49.4-14.754-76.11l-16.246-7.377-23.357,21.732-10.234-17.922Z" transform="translate(-521.969 -181.327)" fill="#a1bcf5" fill-rule="evenodd"/>
    <path id="Trazado_11857" data-name="Trazado 11857" d="M1191.437,382.451l2.518-.82,6.146,18.4-3.114-.543-5.55-17.041Z" transform="translate(-512.269 -195.592)" fill="#7fb3d5" fill-rule="evenodd"/>
    <path id="Trazado_11858" data-name="Trazado 11858" d="M1189.472,376.424l2.518-.82,2.714,8.332-2.518.82-2.714-8.331Z" transform="translate(-510.97 -191.608)" fill="#21618c" fill-rule="evenodd"/>
    <path id="Trazado_11859" data-name="Trazado 11859" d="M1176.809,413.356c-1.963-.343,1.626-3.133,3.185-5.217,1.736-2.32,2.97-.828,5.557-2.439s8.241,1.639,8.985,5.309-.063,5.428-.063,5.428c-2.186-.047-15.3-2.669-17.664-3.081Z" transform="translate(-502.22 -211.224)" fill="#f9bfb3" fill-rule="evenodd"/>
    <path id="Trazado_11860" data-name="Trazado 11860" d="M1351.5,360.049a21.869,21.869,0,0,1,4.2,1.831c-2.946,2.558-23.543,22.685-24.409,23.153-.876-1.244-2.461-3.893-2.461-3.893l22.667-21.091Z" transform="translate(-603.095 -181.325)" fill="#ddedfd" fill-rule="evenodd"/>
    <path id="Trazado_11861" data-name="Trazado 11861" d="M1332.027,424.256a7.267,7.267,0,0,1-.737.623c-.876-1.243-2.461-3.893-2.461-3.893l.711-.663,2.486,3.933Z" transform="translate(-603.096 -221.171)" fill="#c6dffe" fill-rule="evenodd"/>
    <path id="Trazado_11862" data-name="Trazado 11862" d="M1262.867,681.9c.106,0,36.971-1.916,63.454-23.9l1.127,1.357c-26.934,22.361-64.38,24.3-64.487,24.306l-.094-1.761Z" transform="translate(-559.489 -378.292)" fill="#848fc9"/>
    <path id="Trazado_11863" data-name="Trazado 11863" d="M1305.7,722.25l.5-.023a75.836,75.836,0,0,0,48.246-20.443l1.209,1.282a77.622,77.622,0,0,1-49.383,20.92c-.179.008-.311.014-.447.024l-.127-1.761Z" transform="translate(-587.807 -407.237)" fill="#848fc9"/>
    <path id="Trazado_11864" data-name="Trazado 11864" d="M1379.683,343.334c6.445,2.036,16.577,7.146,13.013,18.668a47.776,47.776,0,0,1-5.448,11.661l-2.042-1.156a45.525,45.525,0,0,0,5.242-11.2c2.609-8.434-3.869-12.835-9.35-14.99l-.012-.016a10.7,10.7,0,0,1-1.4-2.968Z" transform="translate(-636.713 -170.276)" fill="#2c3b4a"/>
    <path id="Trazado_11865" data-name="Trazado 11865" d="M1287.958,371.294l13.385,21.172-3.208,2.592-14.606-21.947,4.429-1.817Z" transform="translate(-573.149 -188.759)" fill="#ddedfd" fill-rule="evenodd"/>
    <path id="Trazado_11866" data-name="Trazado 11866" d="M1292.87,350.249c-5.645,3.478-14.479,13.491-6.04,40.754l-2.242.7c-9.7-31.33,2.677-41.405,8.721-44.351-.064.513-.133,1.028-.208,1.539-.067.468-.145.922-.23,1.363Z" transform="translate(-571.476 -172.928)" fill="#2c3b4a"/>
    <path id="Trazado_11867" data-name="Trazado 11867" d="M1284.773,461.79a5.215,5.215,0,1,1-5.266,5.164,5.216,5.216,0,0,1,5.266-5.164Z" transform="translate(-570.489 -248.583)" fill="#b2babb" fill-rule="evenodd"/>
    <path id="Trazado_11868" data-name="Trazado 11868" d="M1285.666,463.149a4.755,4.755,0,1,1-4.8,4.708,4.755,4.755,0,0,1,4.8-4.708Z" transform="translate(-571.387 -249.481)" fill="#f2f3f4" fill-rule="evenodd"/>
    <path id="Trazado_11869" data-name="Trazado 11869" d="M1290.582,470.623a2.222,2.222,0,1,1-2.243,2.2,2.222,2.222,0,0,1,2.243-2.2Z" transform="translate(-576.328 -254.422)" fill="#f2f3f4" fill-rule="evenodd"/>
    <path id="Trazado_11870" data-name="Trazado 11870" d="M1289.609,469.147a2.722,2.722,0,1,1-2.75,2.7,2.722,2.722,0,0,1,2.75-2.7Z" transform="translate(-575.35 -253.447)" fill="#b2babb" fill-rule="evenodd"/>
    <path id="Trazado_11871" data-name="Trazado 11871" d="M1342.917,456.084c-.03.062-10.518,21.793-6.748,29.445,3.653,7.415,10.559,4.586,10.579,4.579l.44,1.09c-.021.009-7.936,3.249-12.074-5.15-4.021-8.164,6.715-30.413,6.746-30.476l1.057.513Z" transform="translate(-606.654 -244.473)" fill="#f2f3f4"/>
    <path id="Trazado_11872" data-name="Trazado 11872" d="M1367.413,554.191c-.051.223.75,3.093.75,3.093,5.2-.055,4.607-5.414-.75-3.093Z" transform="translate(-628.6 -309.282)" fill="#fff" fill-rule="evenodd"/>
    <path id="Trazado_11873" data-name="Trazado 11873" d="M1355.365,476.827c-.029.064-10.072,22.63-18.9,24.835-9.082,2.268-11.721-5.863-11.729-5.886l1.112-.375c.006.019,2.312,7.124,10.333,5.121,8.273-2.065,18.088-24.113,18.116-24.176l1.072.48Z" transform="translate(-600.386 -258.207)" fill="#e5e7e9"/>
    <path id="Trazado_11874" data-name="Trazado 11874" d="M1323.765,529.1c-.1.2-2.495,1.919-2.495,1.919-3.975-3.264-.2-7.03,2.495-1.919Z" transform="translate(-596.957 -291.42)" fill="#fff" fill-rule="evenodd"/>
    <path id="Trazado_11875" data-name="Trazado 11875" d="M1359.336,430.251a54.847,54.847,0,0,0-2.279,5.525l-1.587-.509a44.668,44.668,0,0,1,2.259-5.743c4.683-10.33,22.346-4.846,19.983,6.446a49.1,49.1,0,0,1-1.9,6.641l-1.586-.512a53.241,53.241,0,0,0,1.762-6.491c1.793-8.565-13.074-13.244-16.649-5.356Z" transform="translate(-620.706 -223.631)" fill="#1b2631"/>
    <path id="Trazado_11876" data-name="Trazado 11876" d="M1169.665,424.045l38.823,6.772L1219.3,499.8c-.056.1-.576,1.1-.626,1.192-13.088-3.157-26.146-6.372-39.234-9.529q-5.187-33.14-10.4-66.224c.036-.06.592-1.128.627-1.192Z" transform="translate(-497.462 -223.631)" fill="#f2f3f4" fill-rule="evenodd"/>
    <path id="Trazado_11877" data-name="Trazado 11877" d="M1169.027,427.563l38.823,6.772,10.81,68.981-39.259-9.472-10.374-66.281Z" transform="translate(-497.455 -225.957)" fill="#2874a6" fill-rule="evenodd"/>
    <path id="Trazado_11878" data-name="Trazado 11878" d="M1255.2,515.951l-3.392,7.689s-50.151-14.441-52.166-15.552-1.851-9.061-8.008-13.209-7.25-3.849-7.412-3.149,2.594,5.479,1.963,6.33-5.239-2.272-6.242-3.256-3.24-3.572-3.24-3.572-3.637,5.183,2.645,15.859,18.45,9.55,18.45,9.55,54.3,28.273,62.076,25.545,11.242-16.694,11.242-16.694l-15.916-9.542Z" transform="translate(-501.839 -268.047)" fill="#f9bfb3" fill-rule="evenodd"/>
    <path id="Trazado_11879" data-name="Trazado 11879" d="M1406.74,564.162l-1.853,4.2,16.18,10.108a41.057,41.057,0,0,0,1.589-4.767l-15.916-9.542Z" transform="translate(-653.374 -316.258)" fill="#d18c84" fill-rule="evenodd"/>
    <path id="Trazado_11880" data-name="Trazado 11880" d="M1403.417,442.267l-16.151,36.216,28.163,16.884-.6,1.006-28.608-17.152-.446-.267.211-.474,16.363-36.69,1.072.476Z" transform="translate(-640.738 -235.363)" fill="#c6dffe"/>
    <path id="Trazado_11881" data-name="Trazado 11881" d="M1316.5,238.95a.481.481,0,1,0-.955,0,9.443,9.443,0,0,1-1.382,3.5,2.89,2.89,0,0,1-1.89,1.408,1.586,1.586,0,0,0-.979.427v0a1.177,1.177,0,0,0-.216,1.242,3.416,3.416,0,0,0,.623,1.058,11.671,11.671,0,0,0,3.4,2.693.46.46,0,0,0,.62-.3.568.568,0,0,0-.265-.7,10.5,10.5,0,0,1-3.051-2.422,2.421,2.421,0,0,1-.43-.7l-.029-.085a.794.794,0,0,1,.436-.142h0a3.782,3.782,0,0,0,2.535-1.823,11.007,11.007,0,0,0,1.582-4.161Z" transform="translate(-591.309 -100.912)" fill="#bd796b"/>
    <path id="Trazado_11882" data-name="Trazado 11882" d="M1387.364,229.087s-1.215-2-3.7-.6.528,7.614,1.59,8.488.915-2.349,2.107-2.349,1.886-.687,1.192-1.511a1.631,1.631,0,0,0-2.785.233c-.514,1.278-.711,1.233-1.191-.266s1.181-3.73,2.716-2.865.068-1.132.068-1.132Z" transform="translate(-638.714 -94.025)" fill="#e8a39c" fill-rule="evenodd"/>
    <path id="Trazado_11883" data-name="Trazado 11883" d="M1348.916,226.657a.533.533,0,1,0,.533.532.533.533,0,0,0-.533-.532Z" transform="translate(-616.021 -93.144)" fill="#fff" fill-rule="evenodd"/>
    <path id="Trazado_11884" data-name="Trazado 11884" d="M1305.825,226.657a.533.533,0,1,0,.533.532.533.533,0,0,0-.533-.532Z" transform="translate(-587.535 -93.144)" fill="#fff" fill-rule="evenodd"/>
    <path id="Trazado_11885" data-name="Trazado 11885" d="M1328.817,927.685c0,.089.561,13.451-.326,30.6q.534-.642,1.063-1.289c.8-16.562.269-29.264.266-29.351l-1,.039Zm-54.657-70.5c.009.109,3.415,37.85,13.682,57.389l.889-.469c-10.175-19.364-13.562-56.9-13.572-57.011l-1,.091Zm31-10.145c.01.135,3.681,46.96,13.357,60.4l.814-.586c-9.507-13.2-13.157-59.757-13.168-59.891l-1,.079ZM1295.33,938.6a115.914,115.914,0,0,1,2.535,30.654h1a116.888,116.888,0,0,0-2.556-30.885l-.976.232Z" transform="translate(-566.955 -503.211)" fill="#848fc9"/>
    <path id="Trazado_11886" data-name="Trazado 11886" d="M1362.92,229.164c2.377-1.706,5.37-5.585,7-5.861-1.138.942-2.14,2.241-2.007,2.874l-2.836,3.683c-.764-.479-1.392-.217-2.155-.7Z" transform="translate(-625.631 -90.927)" fill="#f2f3f4"/>
    <path id="Trazado_11887" data-name="Trazado 11887" d="M1378.5,268.338l4.305-9.238a2.639,2.639,0,0,0,2.225-.683l-5.662,11.236-.868-1.314Z" transform="translate(-635.933 -114.139)" fill="#f2f3f4"/>
    <path id="Trazado_11888" data-name="Trazado 11888" d="M1282.995,238.378s10.538,4.006,12.608,3.874,17.77-4.145,17.77-4.145,1.318,12.837,2.5,15.535,1.188,2.7,1.188,2.7-4.828,9.123-11.51,10.593-10,.216-14.7-4.853c-7.322-7.9-8.256-15.212-7.858-23.7Z" transform="translate(-572.744 -100.713)" fill="#d7e8f2" fill-rule="evenodd"/>
    <path id="Trazado_11889" data-name="Trazado 11889" d="M1282.995,238.908s10.5,3.992,12.6,3.874a38.819,38.819,0,0,0,4.988,25.246c-3.7-.115-6.356-1.788-9.725-5.421-7.322-7.9-8.256-15.212-7.858-23.7Z" transform="translate(-572.744 -101.243)" fill="#e4f0f7" fill-rule="evenodd"/>
    <path id="Trazado_11890" data-name="Trazado 11890" d="M1288.268,250.024c.03,0,9.652,2.859,10.458,2.9.789.043,17.6-3.784,17.646-3.793l.175,1.326c-.047.009-16.951,3.859-17.868,3.808-.9-.049-10.494-2.9-10.523-2.908l.112-1.335Z" transform="translate(-576.207 -108.002)" fill="#bbd6e6"/>
    <path id="Trazado_11891" data-name="Trazado 11891" d="M1292.342,266.684c.026.005,7.864,2.231,9.078,1.95,1.415-.327,16.778-4.678,16.819-4.687l.2,1.32c-.041.009-15.572,4.4-16.807,4.687-1.438.332-9.461-1.944-9.487-1.95l.2-1.32Z" transform="translate(-578.842 -117.795)" fill="#bbd6e6"/>
    <path id="Trazado_11892" data-name="Trazado 11892" d="M1297.292,282.828c.014.006,7.424,2.321,8.376,2,1.125-.375,14.8-5.115,14.846-5.128l.28,1.3c-.041.013-13.705,4.749-14.83,5.123-1.3.432-9.037-2.03-9.052-2.036l.38-1.262Z" transform="translate(-581.995 -128.212)" fill="#bbd6e6"/>
    <path id="Trazado_11893" data-name="Trazado 11893" d="M563.686,819.314l2.635,120.619h35.16l3.126-92.275,3.015.2,3.77,92.075h32.49l4.566-124.521-84.764,3.9Z" transform="translate(-97.282 -482.352)" fill="#a1bcf5" fill-rule="evenodd"/>
    <path id="Trazado_11894" data-name="Trazado 11894" d="M563.686,819.314l.308,14.1,83.8-.044.658-17.957-84.764,3.9Z" transform="translate(-97.282 -482.352)" fill="#8da9e6" fill-rule="evenodd"/>
    <path id="Trazado_11895" data-name="Trazado 11895" d="M731.07,206.849s2.463-3.009,4.607,1.482-.49,8.648-3.11,9.272-2.594-.748-2.594-.748l1.1-10.006Z" transform="translate(-207.209 -79.397)" fill="#b8886c" fill-rule="evenodd"/>
    <path id="Trazado_11896" data-name="Trazado 11896" d="M609.118,210.86s-3.337-2.663-5.114,1.188,3.25,10.894,5.143,7.721-.03-8.909-.03-8.909Z" transform="translate(-123.688 -82.108)" fill="#b8886c" fill-rule="evenodd"/>
    <path id="Trazado_11897" data-name="Trazado 11897" d="M634.882,287.242s.4,11.279-2,14.372-4.991,3.393-4.991,3.393,17.84,26.167,18.24,25.667,16.356-25.368,16.356-25.368a66.514,66.514,0,0,1-6.15-2.994c-1.4-3.893-1.3-15.071-1.3-15.071s-12.975,5.988-20.162,0Z" transform="translate(-139.728 -133.195)" fill="#d7ad95" fill-rule="evenodd"/>
    <path id="Trazado_11898" data-name="Trazado 11898" d="M648.185,287.242a68.362,68.362,0,0,1-.166,6.961c6.446,3.723,14.782,2.556,20.427-1.486-.121-3.015-.1-5.475-.1-5.475s-12.975,5.988-20.162,0Z" transform="translate(-153.032 -133.195)" fill="#b8886c" fill-rule="evenodd"/>
    <path id="Trazado_11899" data-name="Trazado 11899" d="M613.355,153.161s-.8,23.655,4.991,35.233,19.263,11.577,27.248,5.789,10.08-20.161,8.782-38.525-42.419-10.48-41.022-2.5Z" transform="translate(-130.092 -38.784)" fill="#d7ad95" fill-rule="evenodd"/>
    <path id="Trazado_11900" data-name="Trazado 11900" d="M644.784,211.569c.979,0,1.772,1.324,1.772,2.956s-.793,2.958-1.772,2.958-1.771-1.324-1.771-2.958.793-2.956,1.771-2.956Z" transform="translate(-149.723 -83.17)" fill="#1b2631" fill-rule="evenodd"/>
    <path id="Trazado_11901" data-name="Trazado 11901" d="M696.172,211.569c.978,0,1.772,1.324,1.772,2.956s-.793,2.958-1.772,2.958-1.771-1.324-1.771-2.958.793-2.956,1.771-2.956Z" transform="translate(-183.693 -83.17)" fill="#1b2631" fill-rule="evenodd"/>
    <path id="Trazado_11902" data-name="Trazado 11902" d="M664.566,213.982a.6.6,0,0,1,1.188.189c-.005.032-1.843,11.661-1.582,12.146.215.4,4.257.834,4.267.835a.6.6,0,0,1-.113,1.2c-.013,0-4.731-.565-5.214-1.461-.437-.812,1.45-12.873,1.455-12.907Z" transform="translate(-162.965 -84.43)" fill="#b8886c"/>
    <path id="Trazado_11903" data-name="Trazado 11903" d="M652.118,266.736a.6.6,0,1,1,.349-1.15c.021.006,7.314,2.372,13.433-.664a.6.6,0,0,1,.533,1.081c-6.556,3.252-14.293.74-14.315.733Z" transform="translate(-155.46 -118.399)" fill="#b8886c"/>
    <path id="Trazado_11904" data-name="Trazado 11904" d="M635.194,199.225a.6.6,0,0,1-.853-.854c.013-.013,4.9-5.018,9.173.09a.6.6,0,1,1-.924.774c-3.416-4.085-7.384-.02-7.4-.01Z" transform="translate(-143.873 -72.986)" fill="#4d352f"/>
    <path id="Trazado_11905" data-name="Trazado 11905" d="M686.656,199.225a.6.6,0,0,1-.854-.854c.014-.013,4.9-5.018,9.174.09a.6.6,0,0,1-.925.774c-3.416-4.085-7.384-.02-7.395-.01Z" transform="translate(-177.892 -72.986)" fill="#4d352f"/>
    <path id="Trazado_11906" data-name="Trazado 11906" d="M614.546,141.452c22.189,2.9,30.271,3.724,35.307,13.492.126-.754,2.252-.552,2.247-.454,1.419-25.585-27.706-34.32-38.719-20.032-8.224.539-8.224,16.469-6.586,21.512a2.117,2.117,0,0,1,2.058.028s6.322-8.309,5.693-14.546Z" transform="translate(-125.215 -27.667)" fill="#f8c471" fill-rule="evenodd"/>
    <path id="Trazado_11907" data-name="Trazado 11907" d="M542.762,339.958l30.278,16.269,23.954,55.891-30.566,9.831,7.283,89.127-93.995.05,7.786-81.243-40.722-16.169,27.944-55.493,33.441-18.561,18.239,25.667,16.356-25.368Z" transform="translate(-20 -167.846)" fill="#a1bcf5" fill-rule="evenodd"/>
    <path id="Trazado_11908" data-name="Trazado 11908" d="M652.564,563.432l1.867,22.839q-.174.117-.36.227c-8.617,5.018-18.517-7.5-33.318-4.132s-19.862,11.725-34.525,3.363-10.637-28.843,0-34.126c0,0,14.164-4.413,23.579-2.163s20.708-.64,20.708-.64,8.708-.048,13.125,1.766,8.479,12.025,8.479,12.025.17.3.447.841Z" transform="translate(-105.871 -306.103)" fill="#8da9e6" fill-rule="evenodd"/>
    <path id="Trazado_11909" data-name="Trazado 11909" d="M695.359,342.726l-20.6,32.4-3.293-4.242,19.829-30.339,4.066,2.184Z" transform="translate(-168.531 -168.43)" fill="#cadafc" fill-rule="evenodd"/>
    <path id="Trazado_11910" data-name="Trazado 11910" d="M612.053,342.638,632.189,370.3l3.665-5.246-18.432-25.392-5.37,2.98Z" transform="translate(-129.256 -167.846)" fill="#bfd2fc" fill-rule="evenodd"/>
    <path id="Trazado_11911" data-name="Trazado 11911" d="M613.844,321.915a18.622,18.622,0,0,0-5.724,3.669c-3.534,3.359-5.332,7.936-5.972,12.883a44.716,44.716,0,0,0,1.063,15.518c1.665,7.145,4.527,13.192,6.821,15.606l-2.181,2.075c-2.6-2.739-5.792-9.347-7.576-17a47.677,47.677,0,0,1-1.109-16.579c.723-5.593,2.792-10.8,6.88-14.686a22.421,22.421,0,0,1,9.028-5.13,10.391,10.391,0,0,1-1.23,3.641Z" transform="translate(-120.535 -153.709)" fill="#384b5e"/>
    <path id="Trazado_11912" data-name="Trazado 11912" d="M709.288,318.121c7.123,1.785,18.8,9.083,16.157,38.074l-2.994-.272c1.525-16.706-1.9-25.534-6.161-30.192l.006-.011-.013,0a15.772,15.772,0,0,0-6.5-4.311,31.008,31.008,0,0,1-.5-3.29Z" transform="translate(-193.535 -153.608)" fill="#384b5e"/>
    <path id="Trazado_11913" data-name="Trazado 11913" d="M619.726,463.8a7.673,7.673,0,1,1-7.673,7.673,7.674,7.674,0,0,1,7.673-7.673Z" transform="translate(-129.256 -249.915)" fill="#b2babb" fill-rule="evenodd"/>
    <path id="Trazado_11914" data-name="Trazado 11914" d="M621.612,466.663a6.7,6.7,0,1,1-6.705,6.7,6.7,6.7,0,0,1,6.705-6.7Z" transform="translate(-131.142 -251.805)" fill="#f2f3f4" fill-rule="evenodd"/>
    <path id="Trazado_11915" data-name="Trazado 11915" d="M626.619,474.233a4.138,4.138,0,1,1-4.139,4.139,4.139,4.139,0,0,1,4.139-4.139Z" transform="translate(-136.149 -256.809)" fill="#b2babb" fill-rule="evenodd"/>
    <path id="Trazado_11916" data-name="Trazado 11916" d="M717.152,467.444c-.014.069-4.71,24.336-3.59,29.324.978,4.347,3.151,3.164,3.157,3.161l.514,1.092c-.01,0-3.527,1.877-4.847-3.99-1.174-5.226,3.572-29.747,3.586-29.818l1.178.231Z" transform="translate(-195.46 -252.168)" fill="#e5e7e9"/>
    <path id="Trazado_11917" data-name="Trazado 11917" d="M714.2,479.378c-.974,2.686-5.51,13.417-10.608,20.582a22.553,22.553,0,0,1-5.427,5.744c-1.951,1.28-3.867,1.56-5.614.319a7.913,7.913,0,0,1-2.312-2.889l1.069-.557a6.744,6.744,0,0,0,1.936,2.463c1.275.905,2.735.659,4.261-.342a21.427,21.427,0,0,0,5.1-5.432c5.018-7.055,9.494-17.647,10.456-20.3l1.134.415Z" transform="translate(-180.945 -259.936)" fill="#e5e7e9"/>
    <path id="Trazado_11918" data-name="Trazado 11918" d="M724.013,560.535a1.726,1.726,0,0,1,2.6.658c.309.873.709,1.673-.092,2.326-1.447,1.181-6.125-1-2.5-2.984Z" transform="translate(-202.38 -313.658)" fill="#fff" fill-rule="evenodd"/>
    <path id="Trazado_11919" data-name="Trazado 11919" d="M687.57,545.716a3.8,3.8,0,0,0-.2-3.082,1.8,1.8,0,1,0-3.166,1.721c.738,1.257,2.8,2.216,3.361,1.362Z" transform="translate(-176.788 -301.401)" fill="#f8f9f9" fill-rule="evenodd"/>
    <path id="Trazado_11920" data-name="Trazado 11920" d="M801.741,567.583s-3.131,45.173-4.342,67.019l.055-.005c-.037.9-.083,1.776-.141,2.633-1.036,15.385,1.92,24.212-.065,28.02s-5.208,8.325-10.048,10-6.449,1.939-6.6,1.017,6.42-4.874,7.569-6.881,2.548-4.2,2.275-5.395-1.721-4-2.426-4.294-1.628-1.466-3.219,2.2-2.409,6.878-4.163,6.836-1.861-2.777-.559-5.5,1.234-5.9,4.265-10.255a36.178,36.178,0,0,0,4.232-7.669c.421-.9-.37-4.117.059-9.858l.107-.011c.521-9.193.543-20.184.543-20.184l-3.48-42.582,15.939-5.089Z" transform="translate(-239.748 -318.52)" fill="#d7ad95" fill-rule="evenodd"/>
    <path id="Trazado_11921" data-name="Trazado 11921" d="M814.628,567.583l-.321,4.683c-4.311,1.447-10.452,3.489-15.234,5.077l-.382-4.671,15.938-5.089Z" transform="translate(-252.636 -318.52)" fill="#b8886c" fill-rule="evenodd"/>
    <path id="Trazado_11922" data-name="Trazado 11922" d="M508.332,541.685l30.684,14.59-2.246,56.451L508.332,594.1V541.685Z" transform="translate(-60.689 -301.4)" fill="#2874a6" fill-rule="evenodd"/>
    <path id="Trazado_11923" data-name="Trazado 11923" d="M537.549,643.406,536.77,663,519.7,651.823c-2.748-2.912-6.9-7.218-11.371-11.866V617.735c5.886,7.527,20.618,25.822,20.618,25.822a21.6,21.6,0,0,1,5.938-1.547c1.41-.057,1.976.748,2.661,1.4Z" transform="translate(-60.689 -351.674)" fill="#19557d" fill-rule="evenodd"/>
    <path id="Trazado_11924" data-name="Trazado 11924" d="M535.838,549.151l11.5,5.468-.323,5.57-11.178-5.314v-5.723Z" transform="translate(-78.872 -306.335)" fill="#f8f9f9" fill-rule="evenodd"/>
    <path id="Trazado_11925" data-name="Trazado 11925" d="M545.071,534.3c2.08,0,4.056,2.122,4.413,4.741s-1.043,4.741-3.123,4.741-4.057-2.122-4.413-4.741,1.043-4.741,3.123-4.741Zm.385,2.83a2.07,2.07,0,0,1,1.78,1.911c.143,1.056-.421,1.912-1.259,1.912a2.073,2.073,0,0,1-1.78-1.912c-.143-1.056.421-1.911,1.26-1.911Z" transform="translate(-82.875 -296.516)" fill="#f8f9f9" fill-rule="evenodd"/>
    <path id="Trazado_11926" data-name="Trazado 11926" d="M781.886,484.943l-7.651-42.473,1.183-.213,7.65,42.474-1.183.212Z" transform="translate(-236.47 -235.671)" fill="#848fc9"/>
    <path id="Trazado_11927" data-name="Trazado 11927" d="M723.847,704.578H750.2v3.095H723.847v-3.095Z" transform="translate(-203.159 -409.083)" fill="#8da9e6" fill-rule="evenodd"/>
    <path id="Trazado_11928" data-name="Trazado 11928" d="M578.723,704.578h26.349v3.095H578.723v-3.095Z" transform="translate(-107.222 -409.083)" fill="#8da9e6" fill-rule="evenodd"/>
    <path id="Trazado_11929" data-name="Trazado 11929" d="M747.478,680.61h2.9v8.124h-2.9V680.61Z" transform="translate(-218.781 -393.239)" fill="#21618c" fill-rule="evenodd"/>
    <path id="Trazado_11930" data-name="Trazado 11930" d="M756.048,683.437h.8v14.241h-.8V686h-1.193v-2.559Z" transform="translate(-223.658 -395.108)" fill="#ddedfd" fill-rule="evenodd"/>
    <path id="Trazado_11931" data-name="Trazado 11931" d="M450.534,563.682s-7.119,9.434-4.717,13.626,37.133,39.125,37.333,40.123,1.047,4.093,6.188,7.337,9.582,3.593,11.477.8,4.493-8.684,3.894-12.577-2.3-7.335-4.842-6.987-2.4-2.244-4.891-2.145a21.6,21.6,0,0,0-5.938,1.547s-23.108-28.7-23.007-29c.033-.1.3-.788.646-1.649v-4.668l-16.144-6.409Z" transform="translate(-19.035 -315.941)" fill="#d7ad95" fill-rule="evenodd"/>
    <path id="Trazado_11932" data-name="Trazado 11932" d="M455.774,563.682a40.578,40.578,0,0,0-2.525,3.891l18.66,7.21.009-.023v-4.668l-16.144-6.409Z" transform="translate(-24.275 -315.941)" fill="#b8886c" fill-rule="evenodd"/>
    <path id="Trazado_11933" data-name="Trazado 11933" d="M589.213,768.026c.585-.13,2.021-.263,4.135-.456,11.477-1.054,43.279-3.977,62.643-17.728l.7.981c-19.626,13.936-51.669,16.882-63.231,17.944-2.065.189-3.468.319-3.984.433l-.259-1.175Z" transform="translate(-114.157 -439.006)" fill="#848fc9"/>
    <path id="Trazado_11934" data-name="Trazado 11934" d="M720.646,439.067c0-.019-.081-6.514,2.7-11.128,1.654-2.747,3.731-4.2,5.772-4.586h.007a5.973,5.973,0,0,1,3.611.427,6.9,6.9,0,0,1,2.82,2.407c1.469,2.128,2.139,5.327,1.272,9.156a81.859,81.859,0,0,1-2.618,8.611l-2.251-.867a78.511,78.511,0,0,0,2.525-8.278c.7-3.1.209-5.627-.911-7.25a4.528,4.528,0,0,0-1.832-1.591,3.589,3.589,0,0,0-2.171-.25c-1.41.272-2.9,1.363-4.167,3.468-2.418,4.017-2.35,9.9-2.35,9.912l-2.4-.031Z" transform="translate(-201.043 -223.101)" fill="#2c3b4a"/>
    <path id="Trazado_11935" data-name="Trazado 11935" d="M569.561,565.284l-.107,1.853,1.359.646-1.252-2.5Z" transform="translate(-101.095 -317)" fill="#b2babb" fill-rule="evenodd"/>
    <path id="Trazado_11936" data-name="Trazado 11936" d="M643.014,152.789a46.81,46.81,0,0,1,20.68,5.4l.558-1.025a48.068,48.068,0,0,0-21.238-5.544v1.171Z" transform="translate(-149.723 -43.538)" fill="#fcd79c"/>
    <path id="Trazado_11937" data-name="Trazado 11937" d="M646.837,139.5c.028-.02,9.877-7.368,23.183,5.7l.818-.832c-14.018-13.77-24.656-5.838-24.687-5.816l.686.947Z" transform="translate(-151.797 -33.388)" fill="#fcd79c"/>
    <path id="Trazado_11938" data-name="Trazado 11938" d="M594.283,878.325a32.606,32.606,0,0,1,25.437,7.581l-.646.747a31.551,31.551,0,0,0-24.621-7.352l-.171-.975Zm43.246,64.38c.017.08,3.743,16.346,6.815,36.611h-1c-3.06-20.155-6.761-36.314-6.779-36.394l.963-.217Zm-22.655-21.9c-.02.132-4.435,28.719-6.347,58.507h-.988c1.911-29.872,6.337-58.523,6.358-58.654l.978.147Zm15.639-37.724a73.5,73.5,0,0,1,24.55-8.1l.127.979A72.389,72.389,0,0,0,631,883.939l-.491-.855Z" transform="translate(-117.508 -521.735)" fill="#848fc9"/>
    <path id="Trazado_11939" data-name="Trazado 11939" d="M541.552,398.727c.021.023,7.214,7.491,9.577,24.844,2.356,17.292-.111,26.239-.119,26.266l-.956-.252c.007-.026,2.425-8.788.1-25.882-2.32-17.034-9.3-24.278-9.318-24.3l.719-.678Z" transform="translate(-82.174 -206.894)" fill="#8da9e6" fill-rule="evenodd"/>
    <path id="Trazado_11940" data-name="Trazado 11940" d="M614.319,232.395s18.249-2.939,21.337-2.785,19.336,2.005,19.336,2.005-.767,11.648-4.023,15.152-9.383,8.75-17.747,7.809-15.614-5.686-18.9-22.18Z" transform="translate(-130.754 -95.092)" fill="#e4f0f7" fill-rule="evenodd"/>
    <path id="Trazado_11941" data-name="Trazado 11941" d="M674.27,229.615c.3-.013.549-.016.741-.006,3.088.154,19.336,2.005,19.336,2.005s-.741,11.251-3.857,14.964l-.017.02q-.074.087-.148.168l-.146.156-.009.009-.141.149-.018.019-.135.141-.029.029-.129.133,0,0c-.1.1-.2.205-.306.31l-.026.026-.11.109-.081.08-.1.1-.066.064-.107.1-.09.085-.1.1-.052.049-.133.124-.025.023-.122.113-.029.024-.089.082-.134.121-.008.007-.187.166-.006.006c-.64.562-1.336,1.127-2.088,1.669l-.056.039-.19.136-.035.024-.2.139-.043.029-.216.146-.005,0-.227.149-.032.021-.223.143-.008.006a18.6,18.6,0,0,1-10.643,3.078c.491-3.459-.721-16.889.294-25.061Z" transform="translate(-170.109 -95.092)" fill="#d7e8f2" fill-rule="evenodd"/>
    <path id="Trazado_11942" data-name="Trazado 11942" d="M661.351,249.058l-13.694-1.529L635.121,248.8l.085,1.216,12.416-1.26,13.559,1.5.17-1.2Zm-1.212,5.523-12.633-1.288-10.4,1.332.109,1.21,10.218-1.309,12.468,1.242.233-1.188Zm3.219-10.325-15.689-1.69-13.612,1.326.084,1.216,13.49-1.313,15.557,1.663.169-1.2Z" transform="translate(-143.802 -103.661)" fill="#bbd6e6"/>
    <path id="Trazado_11943" data-name="Trazado 11943" d="M729.872,205.193l-1.588,9.242-1.3-.145,2.043-10.469.845,1.372Z" transform="translate(-205.233 -78.048)" fill="#f5f7ff"/>
    <path id="Trazado_11944" data-name="Trazado 11944" d="M614.533,210.117l1.513,8.72,1.33-.208L615,209.477l-.463.641Z" transform="translate(-130.895 -81.787)" fill="#f5f7ff"/>
    <path id="Trazado_11945" data-name="Trazado 11945" d="M991.1,291.232h24.555v7.092l-11.5,6.609-11.644-4.33-1.416-9.371Z" transform="translate(-379.831 -135.833)" fill="#534d8c" fill-rule="evenodd"/>
    <path id="Trazado_11946" data-name="Trazado 11946" d="M950.536,204.114s-.339,23.207.805,25.825c14.075,3.7,46.583,3.456,51.3,0l-1.157-23.556-50.943-2.269Z" transform="translate(-352.985 -78.241)" fill="#1b2631" fill-rule="evenodd"/>
    <path id="Trazado_11947" data-name="Trazado 11947" d="M945.787,1175.982l1.789,69.593c.526.037,1.051.079,1.578.111l.685.042q1.716.1,3.439.174l.4.017q1.859.073,3.726.113l.139,0q1.966.039,3.943.04h.033c.155,0,.309,0,.464-.005h.225c3.3-22.751,8.871-70.084,8.871-70.084Z" transform="translate(-349.877 -720.714)" fill="#f9bfb3" fill-rule="evenodd"/>
    <path id="Trazado_11948" data-name="Trazado 11948" d="M945.787,1175.982l.3,11.754,23.272,2.64c1.034-8.556,1.721-14.394,1.721-14.394Z" transform="translate(-349.877 -720.714)" fill="#e8a39c" fill-rule="evenodd"/>
    <path id="Trazado_11949" data-name="Trazado 11949" d="M1084.593,1175.982l-1.659,64.53q-1.269.311-2.543.606l-.5.113q-1.415.321-2.838.621l-.918.191q-1.2.248-2.4.479c-.482.093-.967.184-1.45.274q-.939.174-1.882.339t-1.859.316c-.244.041-.489.078-.732.117-3.326-23.537-8.515-67.586-8.515-67.586Z" transform="translate(-424.915 -720.714)" fill="#f9bfb3" fill-rule="evenodd"/>
    <path id="Trazado_11950" data-name="Trazado 11950" d="M1084.593,1175.982l-.263,10.28-23.291,4.28c-1.046-8.645-1.742-14.56-1.742-14.56Z" transform="translate(-424.915 -720.714)" fill="#e8a39c" fill-rule="evenodd"/>
    <path id="Trazado_11951" data-name="Trazado 11951" d="M1004.621,253.354s-4.33,16.661,3.592,22.107-14.316,8.57-20.64,6.648-10.454-3.924-8.258-6.648,3.942-1.352,5.046-7.445.783-16.695,0-16.025,13.969,7.007,20.259,1.363Z" transform="translate(-371.648 -109.872)" fill="#f9bfb3" fill-rule="evenodd"/>
    <path id="Trazado_11952" data-name="Trazado 11952" d="M975.591,302.153s12.66,9.346,24.667,3.072,10.471,8.5,10.471,8.5L982.443,341l-11.28-25.141,4.428-13.708Z" transform="translate(-366.653 -143.052)" fill="#fff" fill-rule="evenodd"/>
    <path id="Trazado_11953" data-name="Trazado 11953" d="M1015.567,253.354a43.2,43.2,0,0,0-1.18,9.776c-6.2,4.068-12.24,3.717-18.461-1.05.265-5.279-.058-10.567-.619-10.089-.783.67,13.969,7.007,20.259,1.362Z" transform="translate(-382.594 -109.872)" fill="#e8a39c" fill-rule="evenodd"/>
    <path id="Trazado_11954" data-name="Trazado 11954" d="M954.058,177.623c-.747-.084-5.841-3.858-7.334,1.048s4.687,14.638,7.454,12.248-.12-13.3-.12-13.3Z" transform="translate(-350.345 -59.761)" fill="#e8a39c" fill-rule="evenodd"/>
    <path id="Trazado_11955" data-name="Trazado 11955" d="M1083.593,177.623c.747-.084,5.841-3.858,7.335,1.048s-5.366,14.748-8.133,12.357.8-13.406.8-13.406Z" transform="translate(-439.754 -59.761)" fill="#e8a39c" fill-rule="evenodd"/>
    <path id="Trazado_11956" data-name="Trazado 11956" d="M968.988,168.806c-9.311-11.407-4.919-42.273-3.866-42.273h39.088c1.053,0,5.445,30.865-3.865,42.273-10.718,13.129-20.64,13.129-31.357,0Z" transform="translate(-361.366 -26.955)" fill="#f9bfb3" fill-rule="evenodd"/>
    <path id="Trazado_11957" data-name="Trazado 11957" d="M986.567,99.578c-8.748,3.1-31.229,7.883-31.73,9.381l-2.71,8.113a4.731,4.731,0,0,0-2.376-.63,3.141,3.141,0,0,0-2.619,1.446c-.286.5-4.248-16.049,11.124-26.449,8.3-5.618,28.311-10.212,30.214,2.265,10.462-.71,11.145,15.789,9.883,22.7a8.6,8.6,0,0,0-3.226,1.066c-.259-.413-7.623-11.184-8.56-17.891Z" transform="translate(-350.327)" fill="#1b2631" fill-rule="evenodd"/>
    <path id="Trazado_11958" data-name="Trazado 11958" d="M993.358,176.16a2.284,2.284,0,1,1-2.261,2.284,2.273,2.273,0,0,1,2.261-2.284Z" transform="translate(-379.83 -59.762)" fill="#1b2631" fill-rule="evenodd"/>
    <path id="Trazado_11959" data-name="Trazado 11959" d="M1046.458,176.16a2.284,2.284,0,1,1-2.26,2.284,2.273,2.273,0,0,1,2.26-2.284Z" transform="translate(-414.934 -59.762)" fill="#1b2631" fill-rule="evenodd"/>
    <path id="Trazado_11960" data-name="Trazado 11960" d="M1011.531,161.628c-.009-.01-3.641-3.759-9.43.123l.763,1.035c4.841-3.246,7.69-.3,7.7-.3l.969-.862Zm-27.3,0c.008-.01,3.641-3.759,9.428.123l-.763,1.035c-4.84-3.246-7.689-.3-7.7-.3l-.968-.862Z" transform="translate(-375.29 -49.073)" fill="#1b2631"/>
    <path id="Trazado_11961" data-name="Trazado 11961" d="M1018.021,178.863a.663.663,0,0,1,1.324.025c0,.027-.1,9.941-1.315,11.665l0,0-.14.2a4.315,4.315,0,0,0-.749,1.312c-.134.626.563,1.264,3.721,1.876a.635.635,0,0,1,.519.744.661.661,0,0,1-.778.494c-4.2-.813-5.041-2.036-4.76-3.361a5.059,5.059,0,0,1,.951-1.779l.138-.194h0c.976-1.38,1.091-10.955,1.091-10.981Z" transform="translate(-396.156 -61.139)" fill="#bd796b"/>
    <path id="Trazado_11962" data-name="Trazado 11962" d="M1006.046,239.407a.613.613,0,0,1,.019-.894.686.686,0,0,1,.936.017c.013.014,4.936,4.98,11.435-.133a.684.684,0,0,1,.931.086.614.614,0,0,1-.091.89c-7.452,5.862-13.213.049-13.23.033Z" transform="translate(-389.591 -100.81)" fill="#bd796b"/>
    <path id="Trazado_11963" data-name="Trazado 11963" d="M866.421,318.94s-20.464,10.493-20.026,10.092-28.224,50.542-28.224,50.542l30.419,11.087,2.812-6.92,2.285,45.656L825.228,609.785l70.618,8.01L889.936,343.74s-14.163-26.215-23.515-24.8Z" transform="translate(-265.514 -154.113)" fill="#afc4f2" fill-rule="evenodd"/>
    <path id="Trazado_11964" data-name="Trazado 11964" d="M919.795,612.652l.547,10.946L919,632.1c10.61,8.434,20.827,16.132,23.441,17.659a29.018,29.018,0,0,1,3.363,2.284c-2.576,4.15,4.087,6.577,6.07,7.482a10.525,10.525,0,0,0,7.341.165L958.727,637c-3.5,1.232-6.17,2.835-6.17,4.034a1.457,1.457,0,0,0,.033.318,56.482,56.482,0,0,1-15.91-11.617c-4.086-4.376-11.01-11.288-16.885-17.079Z" transform="translate(-332.17 -348.314)" fill="#98afe0" fill-rule="evenodd"/>
    <path id="Trazado_11965" data-name="Trazado 11965" d="M1103.816,598.288l-68.864,12.656L1028.6,334.917l20.557-26.4,23.219,11.254,29.976,42.935-29.156,21.1-4.735-7.857,1.984,47.874,33.374,174.461Z" transform="translate(-404.621 -147.262)" fill="#bfd2fc" fill-rule="evenodd"/>
    <path id="Trazado_11966" data-name="Trazado 11966" d="M1035.99,653.546l-.522-22.666a34.738,34.738,0,0,1,7.109-1.747c3.731-.486,19.665-14.318,31.769-25.868l.638,15.409.386,2.012c-12.966,9.5-25.072,17.785-25.24,18.7-.351,1.923-.374,4.9-7.165,10.354a19.937,19.937,0,0,1-6.975,3.807Z" transform="translate(-409.163 -342.108)" fill="#afc4f2" fill-rule="evenodd"/>
    <path id="Trazado_11967" data-name="Trazado 11967" d="M1184.133,461.324l1.675,2.4-29.156,21.1-1.807-3,29.288-20.5Z" transform="translate(-488.079 -248.275)" fill="#c6dffe" fill-rule="evenodd"/>
    <path id="Trazado_11968" data-name="Trazado 11968" d="M860.087,513.885c-.461.478-1.109,2.44-1.576,4.867l-15.585-6.336c.526-2.666.933-4.445.933-4.445l16.228,5.914Z" transform="translate(-281.879 -279.112)" fill="#edccb0" fill-rule="evenodd"/>
    <path id="Trazado_11969" data-name="Trazado 11969" d="M1009.165,438.485a2.782,2.782,0,1,1-3.037,2.771,2.914,2.914,0,0,1,3.037-2.771Z" transform="translate(-389.767 -233.177)" fill="#fff" fill-rule="evenodd"/>
    <path id="Trazado_11970" data-name="Trazado 11970" d="M1009.165,522.484a2.783,2.783,0,1,1-3.037,2.77,2.913,2.913,0,0,1,3.037-2.77Z" transform="translate(-389.767 -288.706)" fill="#fff" fill-rule="evenodd"/>
    <path id="Trazado_11971" data-name="Trazado 11971" d="M1009.165,629.787a2.782,2.782,0,1,1-3.037,2.77,2.914,2.914,0,0,1,3.037-2.77Z" transform="translate(-389.767 -359.641)" fill="#fff" fill-rule="evenodd"/>
    <path id="Trazado_11972" data-name="Trazado 11972" d="M1051.722,442.874l22.61-.07v19.6l-11.305,5.977-11.3-5.977V442.874Z" transform="translate(-419.908 -236.032)" fill="#afc4f2" fill-rule="evenodd"/>
    <path id="Trazado_11973" data-name="Trazado 11973" d="M1009.165,788.485a2.783,2.783,0,1,1-3.037,2.771,2.914,2.914,0,0,1,3.037-2.771Z" transform="translate(-389.767 -464.552)" fill="#fff" fill-rule="evenodd"/>
    <path id="Trazado_11974" data-name="Trazado 11974" d="M1009.165,902.883a2.782,2.782,0,1,1-3.037,2.77,2.914,2.914,0,0,1,3.037-2.77Z" transform="translate(-389.767 -540.177)" fill="#fff" fill-rule="evenodd"/>
    <path id="Trazado_11975" data-name="Trazado 11975" d="M1009.165,1039.431a2.783,2.783,0,1,1-3.037,2.771,2.914,2.914,0,0,1,3.037-2.771Z" transform="translate(-389.767 -630.444)" fill="#fff" fill-rule="evenodd"/>
    <path id="Trazado_11976" data-name="Trazado 11976" d="M1036.828,291.232l13.957,9.39-9.741,3.924,4.764,5.608-20.792,14.728-1.887-4.934,13.7-28.716Z" transform="translate(-401.006 -135.833)" fill="#a1bcf5" fill-rule="evenodd"/>
    <path id="Trazado_11977" data-name="Trazado 11977" d="M961.561,291.232l12.81,33.6-20.49-14.2,3.485-5.448L946.418,301.5l15.143-10.27Z" transform="translate(-350.294 -135.833)" fill="#a1bcf5" fill-rule="evenodd"/>
    <path id="Trazado_11978" data-name="Trazado 11978" d="M1051.759,285.578a18.894,18.894,0,0,1,11.666,15.868,40.112,40.112,0,0,1-1.142,15.223c-1.792,7.008-4.87,12.942-7.338,15.309l2.345,2.036c2.8-2.687,6.231-9.169,8.149-16.674a42.729,42.729,0,0,0,1.192-16.264,22.687,22.687,0,0,0-7.4-14.408,23.8,23.8,0,0,0-7.567-4.345,30.747,30.747,0,0,0,.093,3.255Z" transform="translate(-419.865 -129.943)" fill="#384b5e"/>
    <path id="Trazado_11979" data-name="Trazado 11979" d="M1042.171,423.061c-4.557,0-8.253,3.371-8.253,7.527s3.7,7.528,8.253,7.528,8.255-3.37,8.255-7.528-3.7-7.527-8.255-7.527Z" transform="translate(-408.138 -222.981)" fill="#b2babb" fill-rule="evenodd"/>
    <path id="Trazado_11980" data-name="Trazado 11980" d="M1044.2,425.863c-3.984,0-7.213,2.945-7.213,6.578s3.229,6.577,7.213,6.577,7.213-2.945,7.213-6.577-3.23-6.578-7.213-6.578Z" transform="translate(-410.168 -224.833)" fill="#f2f3f4" fill-rule="evenodd"/>
    <path id="Trazado_11981" data-name="Trazado 11981" d="M1049.585,433.293a4.077,4.077,0,1,0,4.451,4.059,4.269,4.269,0,0,0-4.451-4.059Z" transform="translate(-415.551 -229.745)" fill="#b2babb" fill-rule="evenodd"/>
    <path id="Trazado_11982" data-name="Trazado 11982" d="M965.439,281.482c-7.682,2.338-18.543,10.305-15.874,36.948l3.219-.267c-1.641-16.387,2.04-25.048,6.627-29.617l-.006-.01h.015a17.144,17.144,0,0,1,5.778-3.8c.108-1.053.188-2.158.241-3.26Z" transform="translate(-352.103 -129.387)" fill="#384b5e"/>
    <path id="Trazado_11983" data-name="Trazado 11983" d="M982.627,426.782c.015.068,5.067,23.873,3.861,28.767-1.052,4.264-3.391,3.1-3.4,3.1l-.554,1.071c.012,0,3.795,1.84,5.214-3.915,1.262-5.127-3.842-29.182-3.857-29.251l-1.269.227Z" transform="translate(-374.172 -225.291)" fill="#e5e7e9"/>
    <path id="Trazado_11984" data-name="Trazado 11984" d="M946.09,438.489c1.048,2.635,5.927,13.161,11.41,20.191a23.188,23.188,0,0,0,5.837,5.635c2.1,1.254,4.159,1.53,6.04.311a7.93,7.93,0,0,0,2.486-2.833l-1.15-.546a6.768,6.768,0,0,1-2.084,2.416c-1.37.888-2.941.646-4.583-.336a22,22,0,0,1-5.49-5.328c-5.4-6.922-10.214-17.312-11.249-19.917l-1.218.407Z" transform="translate(-350.078 -232.911)" fill="#e5e7e9"/>
    <path id="Trazado_11985" data-name="Trazado 11985" d="M976.746,518.1c-1.254-.626-2.462-.211-2.794.646s-.763,1.641.1,2.281c1.557,1.158,6.59-.978,2.7-2.927Z" transform="translate(-368.228 -285.611)" fill="#fff" fill-rule="evenodd"/>
    <path id="Trazado_11986" data-name="Trazado 11986" d="M1016.9,503.566a3.431,3.431,0,0,1,.211-3.024c1.56-2.131,4.6-.175,3.4,1.688-.794,1.233-3.013,2.173-3.615,1.336Z" transform="translate(-396.714 -273.587)" fill="#f8f9f9" fill-rule="evenodd"/>
    <path id="Trazado_11987" data-name="Trazado 11987" d="M954.68,398.945c0-.018.086-6.389-2.9-10.916a9.576,9.576,0,0,0-6.208-4.5h-.007a6.985,6.985,0,0,0-3.883.42,7.277,7.277,0,0,0-3.034,2.361c-1.581,2.088-2.3,5.225-1.369,8.983a75.016,75.016,0,0,0,2.816,8.446l2.42-.849a73.047,73.047,0,0,1-2.714-8.122c-.755-3.045-.226-5.519.98-7.111a4.786,4.786,0,0,1,1.97-1.561,4.21,4.21,0,0,1,2.336-.246,7.107,7.107,0,0,1,4.481,3.4c2.6,3.939,2.527,9.707,2.527,9.723l2.586-.031Z" transform="translate(-343.978 -196.776)" fill="#2c3b4a"/>
    <path id="Trazado_11988" data-name="Trazado 11988" d="M962.527,592.158h47.927V653.57H962.527V592.158Z" transform="translate(-360.943 -334.766)" fill="#fff" fill-rule="evenodd"/>
    <path id="Trazado_11989" data-name="Trazado 11989" d="M1010.452,645.541v15.225c-5.071,3.656-8.455,6.171-8.543,6.651-.351,1.922-.375,4.9-7.165,10.353s-11.989,4.538-14.1,3.578c-1.983-.9-8.646-3.332-6.07-7.482a28.9,28.9,0,0,0-3.363-2.284c-1.3-.761-4.5-3.06-8.691-6.216V648.484c1.079,1.114,2.067,2.151,2.928,3.073a56.487,56.487,0,0,0,15.91,11.617,1.449,1.449,0,0,1-.033-.319c0-1.922,6.879-4.889,13.027-5.69,2.205-.288,8.675-5.239,16.1-11.624Z" transform="translate(-360.941 -370.056)" fill="#a1cfed" fill-rule="evenodd"/>
    <path id="Trazado_11990" data-name="Trazado 11990" d="M819.861,489.069l-1.691,3.009,30.419,11.087,1.183-2.911-29.911-11.185Z" transform="translate(-265.514 -266.617)" fill="#c6dffe" fill-rule="evenodd"/>
    <path id="Trazado_11991" data-name="Trazado 11991" d="M855.51,513.885c-1.231,1.282-3.819,13.2-.657,16.241s19.627,19.063,26.96,26.914,17.728,13.016,19.912,12.976-6.291,14.1-6.291,14.1-2.1-3.685-7.859-7.049-48.439-36.7-50.9-41.83,2.606-27.264,2.606-27.264l16.228,5.914Z" transform="translate(-277.302 -279.112)" fill="#f9bfb3" fill-rule="evenodd"/>
    <path id="Trazado_11992" data-name="Trazado 11992" d="M860.1,513.885a11.057,11.057,0,0,0-1.363,3.848l-15.793-5.344c.525-2.651.928-4.418.928-4.418l16.228,5.914Z" transform="translate(-281.889 -279.112)" fill="#e8a39c" fill-rule="evenodd"/>
    <path id="Trazado_11993" data-name="Trazado 11993" d="M997.522,686.19a13.75,13.75,0,0,0,4.584,1.641c2.184-.039-6.291,14.1-6.291,14.1s-2.1-3.685-7.859-7.049l-.106-.064a6.212,6.212,0,0,1,.594-.8c3.457-3.976,7.922-6.563,9.077-7.829Z" transform="translate(-377.684 -396.927)" fill="#e8a39c" fill-rule="evenodd"/>
    <path id="Trazado_11994" data-name="Trazado 11994" d="M1075.809,479.571s7.845,18.323,4.859,28.255-56.039,44.377-56.39,46.3-.374,4.9-7.167,10.353-11.988,4.539-14.1,3.578-9.508-3.645-5.468-8.291,9.458-7.4,9.361-8.358-3.211.077-3.211-1.846,6.879-4.889,13.027-5.689,45.41-37.823,46.112-41.186-5.238-9.937-5.238-9.937l18.21-13.178Z" transform="translate(-383.31 -260.338)" fill="#f9bfb3" fill-rule="evenodd"/>
    <path id="Trazado_11995" data-name="Trazado 11995" d="M1195.253,479.571s.789,1.842,1.77,4.673l-17.051,12.281a37.752,37.752,0,0,0-2.929-3.776l18.21-13.178Z" transform="translate(-502.754 -260.338)" fill="#e8a39c" fill-rule="evenodd"/>
    <path id="Trazado_11996" data-name="Trazado 11996" d="M962.525,125.975l2.247,7.247-1.354.38-2.247-7.248,1.354-.379Z" transform="translate(-360.048 -26.586)" fill="#ddedfd"/>
    <path id="Trazado_11997" data-name="Trazado 11997" d="M910.931,358.9c.026.067,8.99,23.276,3.508,47.439l-1.052-.237c5.41-23.841-3.439-46.756-3.464-46.823l1.008-.379Z" transform="translate(-326.169 -180.569)" fill="#848fc9"/>
    <path id="Trazado_11998" data-name="Trazado 11998" d="M1140.978,351.658c-.026.068-8.989,23.278-3.507,47.439l1.051-.236c-5.411-23.842,3.439-46.756,3.465-46.823l-1.009-.38Z" transform="translate(-475.42 -175.778)" fill="#848fc9"/>
    <path id="Trazado_11999" data-name="Trazado 11999" d="M984.179,876.142c.013.194,4.85,67.342-25.667,91.959l-.676-.841C987.911,943,983.116,876.406,983.1,876.214l1.078-.072ZM883.148,963.2c.093.01,32.51,3.541,48.812-15.966l.827.692c-16.671,19.952-49.655,16.356-49.748,16.347l.109-1.072Zm12.677-86.921c-.019.1-7.083,35.745,28.709,45.133l-.271,1.043c-36.775-9.645-29.516-46.265-29.5-46.37l1.059.194Z" transform="translate(-308.396 -522.459)" fill="#848fc9"/>
    <path id="Trazado_12000" data-name="Trazado 12000" d="M994.264,178.894a.684.684,0,1,1-.6.679.643.643,0,0,1,.6-.679Z" transform="translate(-381.529 -61.569)" fill="#fff" fill-rule="evenodd"/>
    <path id="Trazado_12001" data-name="Trazado 12001" d="M1046.732,178.894a.685.685,0,1,1-.6.679.642.642,0,0,1,.6-.679Z" transform="translate(-416.214 -61.569)" fill="#fff" fill-rule="evenodd"/>
    <path id="Trazado_12002" data-name="Trazado 12002" d="M962.653,194.555s18.333-3.59,21.676-3.407,21.5,2.67,21.5,2.67-.83,13.85-4.354,18.015-10.156,10.4-19.208,9.285-17.529-8.722-19.613-26.563Z" transform="translate(-361.027 -69.665)" fill="#e4f0f7" fill-rule="evenodd"/>
    <path id="Trazado_12003" data-name="Trazado 12003" d="M1022.876,191.188q.409-.03.729-.038h.033c.125,0,.237,0,.34.006.268.013.639.04,1.094.075,4.967.463,20.518,2.592,20.518,2.592s-.83,13.85-4.354,18.015c-3.061,3.619-8.468,8.8-15.769,9.365l-.2-.013c-2.489-6.479-2.62-20.683-2.4-30Z" transform="translate(-400.788 -69.671)" fill="#d7e8f2" fill-rule="evenodd"/>
    <path id="Trazado_12004" data-name="Trazado 12004" d="M975.744,208.8l15.277-2.777,15.288,2.29-.124,1.542-15.112-2.274-15.082,2.742-.247-1.524Zm1.852,7.789,13.645-3.254,14.306,2.6-.158,1.536-14.048-2.574-13.4,3.2-.341-1.506Zm-4.268-13.63L991,199.725l16.858,2.356-.123,1.542-16.679-2.341-17.484,3.2-.247-1.524Z" transform="translate(-368.084 -75.34)" fill="#bbd6e6"/>
    <path id="Trazado_12005" data-name="Trazado 12005" d="M1085.958,177.173l-3.123,7.275-1.484-.168,2.945-6.407a9.321,9.321,0,0,1,1.663-.7Z" transform="translate(-439.494 -60.432)" fill="#f5f7ff"/>
    <path id="Trazado_12006" data-name="Trazado 12006" d="M959.036,176.556l3.28,7.962,1.451-.274-3.227-7.456a3.756,3.756,0,0,0-1.5-.233Z" transform="translate(-358.636 -60.024)" fill="#f5f7ff"/>
    <path id="Trazado_12007" data-name="Trazado 12007" d="M597.954,687.6s1.225,10.021-1.8,16.551a9.565,9.565,0,0,1-3.817,4.463c-7.648,4.363,27.577,24.114,27.577,24.114L631.672,710.9l-.286-1.076s-7.66-.056-9.812-6.832l-.032-.108a27.511,27.511,0,0,1,.706-10.15,10.743,10.743,0,0,1-1.265.362,34.907,34.907,0,0,1,1.109-5.49H603.818a25.359,25.359,0,0,1-2.265-2.791,19.69,19.69,0,0,0-2.512.575c.027.7.05,1.443.065,2.216Z" transform="translate(-115.505 -396.015)" fill="#f9bfb3" fill-rule="evenodd"/>
    <path id="Trazado_12008" data-name="Trazado 12008" d="M610.253,687.6a43.83,43.83,0,0,1-.4,12.053,49.816,49.816,0,0,0,26,6.8,9.116,9.116,0,0,1-1.988-3.467l-.032-.108a27.511,27.511,0,0,1,.706-10.15,10.743,10.743,0,0,1-1.265.362,34.907,34.907,0,0,1,1.109-5.49H616.117a25.359,25.359,0,0,1-2.265-2.791,19.69,19.69,0,0,0-2.512.575c.027.7.05,1.443.065,2.216Z" transform="translate(-127.804 -396.015)" fill="#e8a597" fill-rule="evenodd"/>
    <path id="Trazado_12009" data-name="Trazado 12009" d="M668.4,1276.1l1.146-30.87h-50.8q4.852,4.14,9.974,7.964l.009.007.733.545q1.069.791,2.15,1.567l.9.643q1.018.722,2.044,1.432.53.366,1.062.729.962.655,1.931,1.3.655.434,1.314.864.865.565,1.737,1.12.785.5,1.575.993.751.469,1.507.931.906.555,1.82,1.1.643.383,1.288.761,1,.586,2.007,1.161.572.326,1.147.65,1.1.615,2.2,1.218l1.047.567q1.155.618,2.315,1.221l1,.514q1.212.62,2.435,1.225l.865.425q1.3.632,2.6,1.248l.736.343q1.369.636,2.748,1.253l.67.3c.61.267,1.223.529,1.835.792Z" transform="translate(-133.683 -766.493)" fill="#29235c" fill-rule="evenodd"/>
    <path id="Trazado_12010" data-name="Trazado 12010" d="M668.4,1276.1l1.146-30.87h-50.8q4.852,4.14,9.974,7.964l.009.007.733.545q1.069.791,2.15,1.567l.9.643q1.018.722,2.044,1.432.53.366,1.062.729.962.655,1.931,1.3.655.434,1.314.864.865.565,1.737,1.12.785.5,1.575.993.751.469,1.507.931.906.555,1.82,1.1.643.383,1.288.761,1,.586,2.007,1.161.572.326,1.147.65,1.1.615,2.2,1.218l1.047.567q1.155.618,2.315,1.221l1,.514q1.212.62,2.435,1.225l.865.425q1.3.632,2.6,1.248l.736.343q1.369.636,2.748,1.253l.67.3c.61.267,1.223.529,1.835.792Z" transform="translate(-133.683 -766.493)" fill="#171052" fill-rule="evenodd"/>
    <path id="Trazado_12011" data-name="Trazado 12011" d="M531.42,750.041c14.361,5.313,25.859,9.471,41.388,2.3l13.986,28.028,8.321,138.073-52.083-.314A196.152,196.152,0,0,1,503.766,872.7l5.4-104.438,22.249-18.217Z" transform="translate(-57.67 -439.137)" fill="#b7ddf7" fill-rule="evenodd"/>
    <path id="Trazado_12012" data-name="Trazado 12012" d="M578.55,750.043c14.361,5.313,25.859,9.47,41.388,2.3l1.511,3.029c-17.184,7.65-36.73,1.569-46.389-2.469l3.491-2.858Z" transform="translate(-104.8 -439.139)" fill="#85c3ed" fill-rule="evenodd"/>
    <path id="Trazado_12013" data-name="Trazado 12013" d="M684.908,774.188l12.227,173,.166.089q.778.416,1.561.824.891.466,1.788.922.8.407,1.605.808.848.423,1.7.837.889.432,1.784.854.757.359,1.52.711.983.454,1.968.9.728.326,1.458.646,1,.44,2.009.87.7.3,1.394.587,1.1.46,2.218.908c.407.163.813.325,1.222.486q1.172.461,2.352.91l1.126.423c.265.1.531.193.8.29l-5.079-103.767s40.995,7.005,24.689-28.706c-13.792-37.494-15.423-51.253-48.112-67.177,0,0-8.388,15.621-8.391,15.586Z" transform="translate(-177.418 -444.797)" fill="#e5e7e9" fill-rule="evenodd"/>
    <path id="Trazado_12014" data-name="Trazado 12014" d="M698.12,990.938l.544,7.7c1.78,1.151,4.5,3.258,4.822,3.96.455.987,3.969,1.747,8.811,4.35,3.115,1.673,9.325,3.756,13.361,5.031l-.2-4.1s.408.069,1.116.158l-18.081-8.509,1.138-5.166-9.971-3.725-1.538.306Z" transform="translate(-186.152 -598.185)" fill="#d7dbdd" fill-rule="evenodd"/>
    <path id="Trazado_12015" data-name="Trazado 12015" d="M508.836,748.059s-24.758,8.143-31.959,13.446c-17.7,13.035-2.3,38.356-2.381,40.164L472,856.62q2.1,4.123,4.389,8.133l.532.925q.638,1.1,1.289,2.193.337.563.676,1.124.617,1.019,1.245,2.029c.248.4.5.8.748,1.192q.632,1,1.274,1.99.386.593.776,1.184.661,1,1.333,2l.657.964q.734,1.068,1.48,2.125.355.5.712,1,.671.938,1.353,1.867.465.634.935,1.263.658.884,1.326,1.758.468.613.941,1.221.678.876,1.367,1.743.475.6.956,1.194.676.837,1.361,1.668.468.567.939,1.13.689.822,1.387,1.635.558.65,1.12,1.3.653.748,1.313,1.49.615.689,1.235,1.374.641.708,1.291,1.41t1.294,1.386q.646.685,1.3,1.363t1.283,1.322q.558.57,1.122,1.135.712.716,1.432,1.426.6.59,1.206,1.174.773.749,1.555,1.489.612.579,1.228,1.152.8.743,1.6,1.476.578.525,1.159,1.046.82.734,1.651,1.461.512.447,1.028.892.9.776,1.808,1.542.518.437,1.041.869.821.682,1.649,1.356.653.53,1.311,1.054.841.67,1.687,1.332.658.515,1.321,1.022.856.656,1.72,1.3.615.461,1.233.917.91.671,1.828,1.331.557.4,1.118.8l.5.357,2.949-95.255,26.119-5.389-9.767-21.133-16.007,2.379-28.17-60.269Z" transform="translate(-34.267 -437.827)" fill="#f2f3f4" fill-rule="evenodd"/>
    <path id="Trazado_12016" data-name="Trazado 12016" d="M563.874,865.886l7.569,17.217s9.728-1.664,12.839-.527l3.11,1.138s-13.883-15.325-23.518-17.828Z" transform="translate(-97.406 -515.719)" fill="#e5e7e9" fill-rule="evenodd"/>
    <path id="Trazado_12017" data-name="Trazado 12017" d="M484.318,903.542a3.057,3.057,0,0,1,.27.912l-.957,21.08c3.494,9.066,7.473,18.73,9.858,22.394,4.974,7.639,44.381-3.666,46.43-4.6a46.285,46.285,0,0,1,6.633-1.569l.2-6.507,1.478-.3c-14.788,2.871-41.772,7.971-45.45,7.681-5.1-.4-11.037-18.018-11.948-21.432s-6.516-17.659-6.516-17.659Z" transform="translate(-44.36 -540.612)" fill="#e5e7e9" fill-rule="evenodd"/>
    <path id="Trazado_12018" data-name="Trazado 12018" d="M568.325,1163.541c0-.039,1.339-13.9-7.211-19.006a9.093,9.093,0,0,0-5.682-1.3,10.848,10.848,0,0,0-5.779,2.575,17.233,17.233,0,0,0-4.361,5.713q-.152.312-.3.633.45.555.9,1.107l.036.043q.691.837,1.39,1.665a18.121,18.121,0,0,1,.758-1.791,13.765,13.765,0,0,1,3.467-4.575,7.868,7.868,0,0,1,4.168-1.891,6.245,6.245,0,0,1,3.9.9c6.672,3.981,5.564,15.563,5.562,15.595l3.15.329Z" transform="translate(-84.926 -699.032)" fill="#384b5e"/>
    <path id="Trazado_12019" data-name="Trazado 12019" d="M516.881,1100.463c-.008-.075-2.792-26.229-10.682-31.149-7.647-4.766-12.418,1.826-12.43,1.844l-1.036-.756c.016-.021,5.482-7.574,14.144-2.174,8.417,5.247,11.271,32.025,11.277,32.1l-1.274.133Z" transform="translate(-50.377 -648.196)" fill="#b2babb"/>
    <path id="Trazado_12020" data-name="Trazado 12020" d="M491.236,1075.732c-.08-.235-2.472-2.432-2.472-2.432a4.3,4.3,0,0,0-2.286,3.08q.441.809.891,1.61c.909.37,2.388-.124,3.867-2.258Z" transform="translate(-46.241 -652.834)" fill="#e5e7e9" fill-rule="evenodd"/>
    <path id="Trazado_12021" data-name="Trazado 12021" d="M500.086,1081.586c.611-3.751,1.7-6.99,3.519-8.867,7.107-7.322,14.226-1.312,14.246-1.3l-.814.988c-.017-.015-6.238-5.269-12.514,1.2-1.883,1.938-2.912,5.515-3.429,9.615q-.509-.818-1.009-1.64Z" transform="translate(-55.238 -650.049)" fill="#b2babb"/>
    <path id="Trazado_12022" data-name="Trazado 12022" d="M545.6,1073.607c-.026-.245,1.207-3.213,1.207-3.213,5.558.738,4.224,6.4-1.207,3.213Z" transform="translate(-85.323 -650.913)" fill="#e5e7e9" fill-rule="evenodd"/>
    <path id="Trazado_12023" data-name="Trazado 12023" d="M563.907,1171.389a60.107,60.107,0,0,0-1.067-6.429l1.762-.44a48.52,48.52,0,0,1,1.212,6.616,9.935,9.935,0,0,1-.543,4.893l-.321-.348-.025-.027-.025-.026-.024-.027-.025-.026-.024-.027-.025-.027-.024-.027-.025-.027-.024-.027-.025-.027-.025-.026-.025-.027-.024-.026-.025-.027-.025-.027-.023-.026-.025-.027-.024-.027-.025-.027-.024-.027-.025-.026-.024-.027-.025-.026-.024-.028-.025-.027-.024-.027-.612-.673a7.163,7.163,0,0,0,.207-2.922Z" transform="translate(-96.722 -713.138)" fill="#2c3b4a"/>
    <path id="Trazado_12024" data-name="Trazado 12024" d="M557.164,747.547l16.458-5.668,22.249,62.341-8.1,1.051L569.8,776.881l2.977-11.253-8.428,7.763-7.189-25.844Z" transform="translate(-92.97 -433.741)" fill="#fff" fill-rule="evenodd"/>
    <path id="Trazado_12025" data-name="Trazado 12025" d="M702.49,758.423c-.4-.115-13.3-3.909-13.3-3.909L683.85,771.4l3.187,40.111,5.694-.863,6.647-28.9L692.6,771.285l10.264,4.134-.373-17Z" transform="translate(-176.719 -442.094)" fill="#fff" fill-rule="evenodd"/>
    <path id="Trazado_12026" data-name="Trazado 12026" d="M723.382,909.594c-1.52,1.072-3.644,3.429-6.654,3.846l9.017,14.984c5.5-1.312,14.59-.891,15.894-7.691,1.378-7.18-8.452-15.042-12.746-14.468s-5.511,3.328-5.511,3.328Z" transform="translate(-198.453 -542.394)" fill="#f9bfb3" fill-rule="evenodd"/>
    <path id="Trazado_12027" data-name="Trazado 12027" d="M700.3,986.05l10.584,4.217,1.918-6.818-12.5,2.6Z" transform="translate(-187.595 -593.437)" fill="#f9bfb3" fill-rule="evenodd"/>
    <path id="Trazado_12028" data-name="Trazado 12028" d="M613.167,917.251s-7.9-5.09-17.34-4.746-9.621,1.4-9.621,1.4l2.893,6.71,24.067-3.368Z" transform="translate(-112.169 -546.526)" fill="#f9bfb3" fill-rule="evenodd"/>
    <path id="Trazado_12029" data-name="Trazado 12029" d="M580.771,1186.953l-21.25-.115q3.682,4.194,7.6,8.172l.326.331.089.089q1.035,1.047,2.087,2.078.431.422.865.843.822.795,1.652,1.581.611.578,1.227,1.151.669.622,1.344,1.238.781.712,1.568,1.416.55.491,1.1.978.888.78,1.784,1.55.483.414.971.828c.212.179.425.356.638.534v-20.673Z" transform="translate(-94.528 -727.891)" fill="#fff" fill-rule="evenodd"/>
    <path id="Trazado_12030" data-name="Trazado 12030" d="M742.088,1002.072l-14.778-6.647,2.711-9.886-1.335-.364-2.868,10.458-.156.57.539.243,15.319,6.89.569-1.265Z" transform="translate(-204.359 -594.577)" fill="#e5e7e9"/>
    <path id="Trazado_12031" data-name="Trazado 12031" d="M751.624,826.192v23.645h1.388V826.192Z" transform="translate(-221.522 -489.478)" fill="#d7dbdd"/>
    <path id="Trazado_12032" data-name="Trazado 12032" d="M625.99,555.868s2.058,18.99-2.056,30.7-9.653,15.192-16.3,15.034-15.429-6.488-17.724-11.71-2.137-7.122-2.137-7.122-3.481,1.5-5.222-5.142-4.747-21.364,0-29.751,18.516-11.551,32.125-8.07,11.313,16.061,11.313,16.061Z" transform="translate(-108.066 -299.236)" fill="#f9bfb3" fill-rule="evenodd"/>
    <path id="Trazado_12033" data-name="Trazado 12033" d="M580.3,557.087a22.088,22.088,0,0,1,2.449-9.211c4.749-8.387,18.516-11.551,32.125-8.07,11.04,2.824,11.613,11.635,11.437,14.861-1.576.459-7.8,1.962-16.766.195-10.442-2.057-12.549-3.673-14.923.839a46.839,46.839,0,0,0-3.579,9.546,50.418,50.418,0,0,1-10.743-8.159Z" transform="translate(-108.267 -299.236)" fill="#e8a597" fill-rule="evenodd"/>
    <path id="Trazado_12034" data-name="Trazado 12034" d="M627.349,537.718c-1.982,4.261-5.731,6.4-5.763,5.772s-1.108-6.723-2.664-7.91.4,1.346-8.7-.475-14-3.877-18.277-1.82c-6.78,3.264-5.627,27.06-5.855,27.06-.468,0-.838-.823-1.2-1.926-.4-1.219-.8-2.783-1.3-3.958a5.037,5.037,0,0,0-.661-1.158c-1.424-1.74-3.477-.94-4.747,1.108s-.521,5.214-.521,5.214a50.055,50.055,0,0,1-3.673-14.076c-.721-7.628-5.521-22.957,10.93-25.443,12.557-16.492,51.264-6.815,42.44,17.611Z" transform="translate(-103.291 -281.717)" fill="#1b2631" fill-rule="evenodd"/>
    <path id="Trazado_12035" data-name="Trazado 12035" d="M664.324,615.339c.007.047,2.886,16,2.29,17-.492.82-6.248-.277-6.265-.281l-.215,1.174c.018,0,6.571,1.272,7.5-.281.4-.668-.086-4.848-.7-8.991-.651-4.421-1.442-8.8-1.446-8.826l-1.172.21Z" transform="translate(-161.041 -349.951)" fill="#d18b7d"/>
    <path id="Trazado_12036" data-name="Trazado 12036" d="M692.41,624.661c-1.016,0-1.84,1.307-1.84,2.921s.824,2.921,1.84,2.921,1.838-1.308,1.838-2.921-.823-2.921-1.838-2.921Z" transform="translate(-181.161 -356.252)" fill="#301d4a" fill-rule="evenodd"/>
    <path id="Trazado_12037" data-name="Trazado 12037" d="M640.7,624.661c-1.016,0-1.839,1.307-1.839,2.921s.823,2.921,1.839,2.921,1.839-1.308,1.839-2.921-.823-2.921-1.839-2.921Z" transform="translate(-146.979 -356.252)" fill="#301d4a" fill-rule="evenodd"/>
    <path id="Trazado_12038" data-name="Trazado 12038" d="M694.7,607.973c-.014-.014-5.04-5.174-9.727-1.26l1.341,1.6c3.2-2.674,6.88,1.1,6.889,1.113l1.5-1.456Z" transform="translate(-177.46 -343.418)" fill="#1b2631" fill-rule="evenodd"/>
    <path id="Trazado_12039" data-name="Trazado 12039" d="M629.94,607.973c.015-.014,5.04-5.174,9.727-1.26l-1.341,1.6c-3.2-2.674-6.879,1.1-6.889,1.113l-1.5-1.456Z" transform="translate(-141.08 -343.418)" fill="#1b2631" fill-rule="evenodd"/>
    <path id="Trazado_12040" data-name="Trazado 12040" d="M660.151,680.09a15.179,15.179,0,0,1-11.84-1.838l-.622,1.018a16.424,16.424,0,0,0,12.812,1.959l-.349-1.14Z" transform="translate(-152.814 -391.68)" fill="#6e2c00"/>
    <path id="Trazado_12041" data-name="Trazado 12041" d="M639.493,671.353c-.01,0-3.144-.607-3.712,3.172l1.182.173c.383-2.55,2.337-2.169,2.342-2.167l.188-1.178Z" transform="translate(-144.942 -387.095)" fill="#6e2c00"/>
    <path id="Trazado_12042" data-name="Trazado 12042" d="M591.162,638.4s.842-1.738,1.7-.912l.09.094a6.3,6.3,0,0,1,1.073,2.308c-2.768-1.536-2.836,3.859-2.836,3.875l.893.014c0-.012.061-4.459,2.217-2.578l0,.018c.212,1.493.089,3.023-.706,3.846l-.115.112.589.673c.061-.055.119-.11.173-.166,1.013-1.052,1.191-2.862.945-4.591a8.791,8.791,0,0,0-1.563-4.1l-.141-.149c-1.752-1.688-3.113,1.149-3.117,1.157l.8.4Z" transform="translate(-114.917 -363.954)" fill="#d18b7d"/>
    <path id="Trazado_12043" data-name="Trazado 12043" d="M612.416,643.833l-6.591-3.3c.2.676.452,1.441.623,2l5.292,2.627.676-1.323Z" transform="translate(-125.139 -366.744)" fill="#f2f3f4"/>
    <path id="Trazado_12044" data-name="Trazado 12044" d="M605.7,674.306l-7.513-5.659a2.867,2.867,0,0,1-2.437-.329l9.023,7.155.927-1.167Z" transform="translate(-118.476 -385.112)" fill="#f2f3f4"/>
    <path id="Trazado_12045" data-name="Trazado 12045" d="M648.906,644.848s-10.98.158-13.191.04-20.954-2.207-20.954-2.207.5,13.182-.77,15.575-1.269,2.39-1.269,2.39,5.159,8.095,12.3,9.4,10.687.192,15.709-4.305,6.911-9.5,6.911-10.849,1.267-10.041,1.267-10.041Z" transform="translate(-129.698 -368.165)" fill="#d7e8f2" fill-rule="evenodd"/>
    <path id="Trazado_12046" data-name="Trazado 12046" d="M682.544,649.076s-8.521.122-12.062.07c-.828,6.393-2.332,16.647-3.856,20.232a34.393,34.393,0,0,1-3.02,5.548c3.766.152,5.4-.287,10.76-4.961s6.911-9.5,6.911-10.849,1.267-10.041,1.267-10.041Z" transform="translate(-163.337 -372.392)" fill="#e4f0f7" fill-rule="evenodd"/>
    <path id="Trazado_12047" data-name="Trazado 12047" d="M655.087,650.109c-.031,0-10.8,1.173-11.657,1.211-.843.039-18.2-2.773-18.246-2.782L625,649.714c.05.008,17.5,2.841,18.483,2.8.963-.044,11.7-1.213,11.728-1.216l-.121-1.185Z" transform="translate(-137.813 -372.037)" fill="#bbd6e6"/>
    <path id="Trazado_12048" data-name="Trazado 12048" d="M655.156,680.2c-.027.005-9.539,1.8-10.836,1.547-1.513-.291-16.787-3.044-16.832-3.052l-.211,1.171c.044.008,15.5,2.8,16.819,3.051,1.536.294,11.246-1.542,11.274-1.547l-.214-1.171Z" transform="translate(-139.32 -391.974)" fill="#bbd6e6"/>
    <path id="Trazado_12049" data-name="Trazado 12049" d="M648.23,699.606c-.014.005-5.256,1.926-6.273,1.644-1.2-.332-16.783-4.335-16.827-4.346l-.3,1.153c.044.011,15.607,4.008,16.808,4.341,1.39.384,6.982-1.668,7-1.673l-.406-1.119Z" transform="translate(-137.703 -404.01)" fill="#bbd6e6"/>
    <path id="Trazado_12050" data-name="Trazado 12050" d="M697.351,627.084a.511.511,0,1,0,.512.511.511.511,0,0,0-.512-.511Z" transform="translate(-185.307 -357.854)" fill="#fff" fill-rule="evenodd"/>
    <path id="Trazado_12051" data-name="Trazado 12051" d="M645.483,627.084a.511.511,0,1,0,.511.511.511.511,0,0,0-.511-.511Z" transform="translate(-151.018 -357.854)" fill="#fff" fill-rule="evenodd"/>
    <path id="Trazado_12052" data-name="Trazado 12052" d="M1333.356,1123.458,1266.587,1122c-1.286,22.066-2.74,43.765-3.877,65.512.347-.184.694-.366,1.04-.553l.85-.465q1.134-.622,2.26-1.256l.766-.437q1.093-.623,2.176-1.262l.736-.434q1.18-.7,2.348-1.42l.7-.431q1.144-.71,2.28-1.434l.727-.467q1.059-.683,2.108-1.378l.693-.461q1.13-.756,2.247-1.529l.647-.448q1.154-.8,2.3-1.623l.608-.439q1.07-.775,2.131-1.563l.588-.44q1.108-.83,2.2-1.676l.462-.356q1.2-.936,2.394-1.89l.438-.354q1.1-.889,2.191-1.793l.442-.369q1.115-.933,2.216-1.882l.338-.29q1.2-1.041,2.386-2.1l.3-.266q1.111-1,2.207-2.013l.345-.321q1.12-1.042,2.225-2.1l.209-.2q1.189-1.144,2.358-2.307l.137-.137q1.128-1.126,2.237-2.269l.231-.239q1.1-1.14,2.185-2.3l.149-.158q2.324-2.488,4.563-5.057l.078-.09q1.1-1.266,2.182-2.55l.06-.072q3.338-3.977,6.469-8.131l0-.006q3.347-4.449,6.442-9.091Z" transform="translate(-559.385 -685.028)" fill="#1557ad" fill-rule="evenodd"/>
    <path id="Trazado_12053" data-name="Trazado 12053" d="M1333.357,1123.457,1266.588,1122c-1.287,22.066-2.74,43.765-3.876,65.513.36-.192.719-.38,1.076-.573l.785-.428q1.156-.634,2.307-1.283l.728-.414q1.114-.636,2.218-1.287l.7-.411q1.206-.717,2.4-1.453l.643-.4q1.163-.722,2.318-1.457l.686-.441q1.077-.7,2.146-1.4l.675-.449q1.148-.768,2.284-1.553l.573-.4q1.183-.823,2.354-1.662l.563-.407q1.1-.794,2.18-1.6l.546-.407q1.135-.851,2.256-1.718l.381-.294q1.237-.961,2.458-1.941l.393-.316q1.113-.9,2.214-1.813l.451-.377q1.1-.92,2.187-1.856l.382-.328q1.2-1.04,2.385-2.1l.247-.222q1.133-1.018,2.252-2.055l.323-.3q1.128-1.051,2.242-2.118l.188-.179q1.195-1.151,2.37-2.32l.136-.137q1.137-1.134,2.253-2.284l.2-.211q1.109-1.146,2.2-2.311l.146-.154q2.315-2.48,4.546-5.039l.118-.135q1.092-1.256,2.163-2.529l.053-.063q3.337-3.975,6.463-8.125l.02-.026q3.345-4.443,6.436-9.082Z" transform="translate(-559.387 -685.028)" fill="#0c4896" fill-rule="evenodd"/>
    <path id="Trazado_12054" data-name="Trazado 12054" d="M1284.177,522.585c-11.033,12.264-5.572,19.428-7.672,24.157s-6.237,16.081-1.792,24.281-4.836,14.511-2.744,23.281,6.2,20.018,32.766,18.318,33.841-10.588,35.554-22.225-6.778-21.468-4.565-26.283,1.685-15.163-1.895-22.556-2.474-7.47-3.246-12.155c-3.036-18.416-34.866-19.644-46.406-6.819Z" transform="translate(-565.301 -283.153)" fill="#6e2c00" fill-rule="evenodd"/>
    <path id="Trazado_12055" data-name="Trazado 12055" d="M1299.058,745.746c9.618,2.386,20.663,2.749,34.053.509a128.154,128.154,0,0,1,12.3,4.986c3.93,2.056,2.553,123.449,2.553,123.449l-60.547-1.322,2.638-120.869s7.515-2.914,9-6.753Z" transform="translate(-575.719 -436.298)" fill="#a1bcf5" fill-rule="evenodd"/>
    <path id="Trazado_12056" data-name="Trazado 12056" d="M1373.948,1061.076l-.008,1.4c-17.064,11.329-47.3,13.54-47.39,13.547l-.086-1.155c.094-.007,30.849-2.257,47.483-13.791Z" transform="translate(-601.532 -644.753)" fill="#848fc9" fill-rule="evenodd"/>
    <path id="Trazado_12057" data-name="Trazado 12057" d="M1349.734,893.363c.1,8.119.146,16.628.164,24.915a27.406,27.406,0,0,1-13.75,13.709c-13.767,6.052-12.9,9.3-23.9,10.194-5.363.437-15.919-4.228-22.25-12.749l.711-32.54a56.416,56.416,0,0,1,4.2-5.611s16.417,4.309,26.849,4.309c8.832,0,22.182-7.363,27.969-2.227Z" transform="translate(-577.427 -532.507)" fill="#a1bcf5" fill-rule="evenodd"/>
    <path id="Trazado_12058" data-name="Trazado 12058" d="M1349.734,893.363c.1,8.119.146,16.628.164,24.915a27.406,27.406,0,0,1-13.75,13.709c-13.767,6.052-12.9,9.3-23.9,10.194-5.363.437-15.919-4.228-22.25-12.749l.711-32.54a56.416,56.416,0,0,1,4.2-5.611s16.417,4.309,26.849,4.309c8.832,0,22.182-7.363,27.969-2.227Z" transform="translate(-577.427 -532.507)" fill="#8eaced" fill-rule="evenodd"/>
    <path id="Trazado_12059" data-name="Trazado 12059" d="M1316.643,739.089c9.619,2.385,19.706,3.845,33.095,1.605,0,0,5.768,2.43,9.831,4.382-2.09.529-4.5,1.068-7.264,1.618-22.986,4.557-34.024,1.1-39-1.99,1.279-.98,2.856-4.378,3.335-5.615Z" transform="translate(-592.834 -431.897)" fill="#b2babb" fill-rule="evenodd"/>
    <path id="Trazado_12060" data-name="Trazado 12060" d="M1267.5,832.542l.34,67.8a195.388,195.388,0,0,0,36.968-55.828l3.687,1.1a6.908,6.908,0,0,0,4.752-2.524c1.432-1.685,2.641-4.5,2.743-9.176.226-10.378-10.767-58.877-13.617-71.259-1.376-5.982-14.186-9.658-19.7-12.419l-10.021-4.692-5.253,65.768c-1.77-.063-3.589-.125-5.36-.185-4.694-.157-9.068-.3-11.409-.42l0-.052-16.777-62.294s-17.324,5.456-20.427,11.039-18.588,69.271-18.792,76.673c-.393,14.433,11.269,18.767,18.531,18.3l-9.072,84.606,12.467.272q1.211-.636,2.413-1.287l.347-.189q1.374-.75,2.735-1.521l.288-.165q1.4-.794,2.776-1.61l.2-.12q1.443-.857,2.869-1.736l.053-.033a195.552,195.552,0,0,0,17.934-12.507l3.29-80.924c6.186-2.441,12.09-4.5,18.023-6.627Z" transform="translate(-514.378 -436.168)" fill="#f2f3f4" fill-rule="evenodd"/>
    <path id="Trazado_12061" data-name="Trazado 12061" d="M1364.667,990.662l.04,8.156.347.128-.388-8.284Zm-11.017,3.964c3.708-1.365,7.357-2.65,11.017-3.964l-22.971-5.926s-.439,3.185.757,4.8c.577.779,5.876,3,11.2,5.094Z" transform="translate(-611.549 -594.287)" fill="#d3d5d6"/>
    <path id="Trazado_12062" data-name="Trazado 12062" d="M1301.642,1004.967l.036,7.184a167.461,167.461,0,0,0,26.28,9.893c2.9.842,5.307,1.46,7.3,1.9q1.928-3.919,3.692-7.931l3.686,1.1.12-.009-41.111-12.137Zm-54.332,20.908-1.037,9.668,37.024-17.059.318-7.822c4.6-1.814,9.042-3.417,13.457-4.994-13.28,4.209-49.761,20.206-49.761,20.206Z" transform="translate(-548.52 -607.661)" fill="#d3d5d6"/>
    <path id="Trazado_12063" data-name="Trazado 12063" d="M1320.644,696.875s.291,16.019-5.137,19.876-5.424,3.636-5.424,3.636,18.2,9.344,31.308,4.549,10.872-7.273,10.872-7.273-7.556,1.6-10.074-3.974-1.6-17.273-1.6-17.273-12.559,7.356-19.946.459Z" transform="translate(-590.702 -403.688)" fill="#f9bfb3" fill-rule="evenodd"/>
    <path id="Trazado_12064" data-name="Trazado 12064" d="M1340.7,705.649a52.75,52.75,0,0,1-.279,5.749,14.034,14.034,0,0,0,1.317.822c6.045,3.321,13.035,3.3,18.757-1.262-.066-3.2.151-5.731.151-5.731s-12.559,6.761-19.946.422Z" transform="translate(-610.757 -409.512)" fill="#e8a39c" fill-rule="evenodd"/>
    <path id="Trazado_12065" data-name="Trazado 12065" d="M1302.876,622.743c-5.627-5.266-9.269,3.07-6.462,6.991,1.978,2.76,6.213,3.531,6.227,2.9l.235-9.891Z" transform="translate(-581.026 -353.865)" fill="#e8a39c" fill-rule="evenodd"/>
    <path id="Trazado_12066" data-name="Trazado 12066" d="M1426.21,625.205c5.872-5.036,9.115,3.438,6.124,7.243-2.106,2.68-6.373,3.279-6.358,2.648l.235-9.89Z" transform="translate(-667.316 -355.584)" fill="#e8a39c" fill-rule="evenodd"/>
    <path id="Trazado_12067" data-name="Trazado 12067" d="M1313.049,585.743a27.926,27.926,0,0,0-.191,3.261c.045,7.411.3,24.467,10.659,30.157s23.485,1.587,28.267-18.414c1.937-8.1,2.542-14.3,2.275-19.052,0,0-2.313-.336-12.219-1.671s-21.6-8.889-21.6-8.889c-1.719.8-5.439,10.042-7.19,14.608Z" transform="translate(-592.537 -320.868)" fill="#f9bfb3" fill-rule="evenodd"/>
    <path id="Trazado_12068" data-name="Trazado 12068" d="M1340.843,611.626c1.157.023,2.063,1.439,2.023,3.163s-1.013,3.1-2.171,3.077-2.065-1.438-2.024-3.161,1.013-3.1,2.172-3.078Z" transform="translate(-609.6 -347.635)" fill="#1b2631" fill-rule="evenodd"/>
    <path id="Trazado_12069" data-name="Trazado 12069" d="M1393.765,612.689c1.158.023,2.064,1.439,2.023,3.161s-1.014,3.1-2.172,3.077-2.064-1.439-2.023-3.161,1.013-3.1,2.172-3.078Z" transform="translate(-644.586 -348.338)" fill="#1b2631" fill-rule="evenodd"/>
    <path id="Trazado_12070" data-name="Trazado 12070" d="M1332.453,599.292c.013-.015,4.726-5.46,8.7.369l-1.132.647c-2.966-4.356-6.521-.251-6.531-.239l-1.032-.777Z" transform="translate(-605.49 -337.945)" fill="#572504"/>
    <path id="Trazado_12071" data-name="Trazado 12071" d="M1385.539,600.358c.013-.014,4.725-5.46,8.695.37l-1.132.647c-2.966-4.358-6.52-.251-6.531-.24l-1.032-.777Z" transform="translate(-640.584 -338.651)" fill="#572504"/>
    <path id="Trazado_12072" data-name="Trazado 12072" d="M1360.813,624.862a.659.659,0,0,1,.741-.537.627.627,0,0,1,.584.68l-1.547,11.878,3.78.611a.619.619,0,0,1,.541.709.663.663,0,0,1-.771.5l-4.4-.711-.624-.1.076-.576,1.62-12.451Z" transform="translate(-623.117 -356.027)" fill="#d18c84"/>
    <path id="Trazado_12073" data-name="Trazado 12073" d="M1344.076,676.964a.579.579,0,0,1-.1-.86.707.707,0,0,1,.936-.094c.016.012,5.677,4.376,14.336-.012a.7.7,0,0,1,.905.242.588.588,0,0,1-.265.831c-9.449,4.789-15.793-.095-15.811-.107Z" transform="translate(-613.01 -390.109)" fill="#d18c84"/>
    <path id="Trazado_12074" data-name="Trazado 12074" d="M1412.453,743.825s4.911.621,7.569.984c3.945,5.446,7.9,17.263,7.495,17.285-.684.037-6.6,1.823-10.607,3.181,1.6,2.751,5.275,8.3,5.275,8.3l-8.929,36.905-5.078-.315,4.276-66.338Z" transform="translate(-655.549 -435.028)" fill="#fff" fill-rule="evenodd"/>
    <path id="Trazado_12075" data-name="Trazado 12075" d="M1298.912,739.089s13.107,67.365,12.444,67.352-3.641-.131-3.641-.131l-16.559-30.677,4.333-11.28s-9.244,3.552-9,2.453,5.114-21.864,5.114-21.864l7.307-5.854Z" transform="translate(-575.103 -431.897)" fill="#fff" fill-rule="evenodd"/>
    <path id="Trazado_12076" data-name="Trazado 12076" d="M1423.161,923.571s11.142-7.013,18.239-8.4,9.818,3.052,11.439,4.651,2.078,3.464-.1,4.363-9.435.682-9.522,1.13-14.588-2.108-20.061-1.739Z" transform="translate(-665.455 -548.122)" fill="#f9bfb3" fill-rule="evenodd"/>
    <path id="Trazado_12077" data-name="Trazado 12077" d="M1248.626,1184.406l29.031.634-.08,3.643-29.031-.633.08-3.644Z" transform="translate(-550.022 -726.283)" fill="#b2babb" fill-rule="evenodd"/>
    <path id="Trazado_12078" data-name="Trazado 12078" d="M1308.22,937.393l-1.952,16.046s-6.157-3.723-11.465-3.453-6.845,2.5-6.775,1.84-.536-13.488,20.192-14.433Z" transform="translate(-576.121 -562.99)" fill="#f9bfb3" fill-rule="evenodd"/>
    <path id="Trazado_12079" data-name="Trazado 12079" d="M1277.777,891.588l-6.736,28.074-1.3-.308,6.738-28.074,1.293.308Z" transform="translate(-564.036 -532.507)" fill="#d3d5d6"/>
    <path id="Trazado_12080" data-name="Trazado 12080" d="M1465.038,877.139l3.839,12.875-1.277.381-3.84-12.875,1.278-.381Z" transform="translate(-692.294 -523.158)" fill="#d3d5d6"/>
    <path id="Trazado_12081" data-name="Trazado 12081" d="M1307.892,730.255a20.44,20.44,0,0,0-4.084,3,20.672,20.672,0,0,0-4.592,6.553c-.265.15-.263.121-.263.121l.171.086a28.825,28.825,0,0,0-2.128,7.933,51.016,51.016,0,0,0,1.211,17.7c1.9,8.149,5.164,15.047,7.781,17.8l-2.488,2.366c-2.97-3.125-6.607-10.661-8.641-19.387a54.368,54.368,0,0,1-1.265-18.911c.825-6.379,3.184-12.32,7.847-16.75a24.559,24.559,0,0,1,7.382-4.79,34.63,34.63,0,0,1-.932,4.279Z" transform="translate(-579.573 -423.229)" fill="#384b5e"/>
    <path id="Trazado_12082" data-name="Trazado 12082" d="M1317.042,888.838a8.752,8.752,0,1,1-8.753,8.752,8.753,8.753,0,0,1,8.753-8.752Z" transform="translate(-589.516 -530.892)" fill="#b2babb" fill-rule="evenodd"/>
    <path id="Trazado_12083" data-name="Trazado 12083" d="M1319.2,892.1a7.648,7.648,0,1,1-7.648,7.647,7.647,7.647,0,0,1,7.648-7.647Z" transform="translate(-591.671 -533.047)" fill="#f2f3f4" fill-rule="evenodd"/>
    <path id="Trazado_12084" data-name="Trazado 12084" d="M1324.9,900.734a4.72,4.72,0,1,1-4.721,4.72,4.721,4.721,0,0,1,4.721-4.72Z" transform="translate(-597.38 -538.756)" fill="#b2babb" fill-rule="evenodd"/>
    <path id="Trazado_12085" data-name="Trazado 12085" d="M1399.734,717.989c7.9,3.524,17.511,13.614,14.9,42.21l-3.413-.31c1.74-19.054-2.164-29.124-7.028-34.437l.007-.012-.016,0a18.387,18.387,0,0,0-4.152-3.4c-.16-1.353-.252-2.738-.3-4.054Z" transform="translate(-649.968 -417.949)" fill="#384b5e"/>
    <path id="Trazado_12086" data-name="Trazado 12086" d="M1400.634,884.716c-.01.047-1.817,9.386-3.082,18.329l-1.365-.055c1.271-9.071,3.093-18.491,3.1-18.538l1.345.263Z" transform="translate(-647.623 -527.993)" fill="#b2babb"/>
    <path id="Trazado_12087" data-name="Trazado 12087" d="M1432.819,898.33a133.07,133.07,0,0,1-6.382,13.98l-1.519-.063a132.029,132.029,0,0,0,6.611-14.39l1.291.474Z" transform="translate(-666.616 -536.853)" fill="#b2babb"/>
    <path id="Trazado_12088" data-name="Trazado 12088" d="M1402.276,852.349c0-.021-.091-7.429,3.076-12.693,1.886-3.133,4.255-4.786,6.584-5.231h.007a6.812,6.812,0,0,1,4.119.487,7.875,7.875,0,0,1,3.217,2.746c1.676,2.427,2.439,6.076,1.451,10.444a93.775,93.775,0,0,1-2.986,9.821l-2.568-.988a90.277,90.277,0,0,0,2.879-9.442c.8-3.542.24-6.418-1.038-8.27a5.174,5.174,0,0,0-2.089-1.814,4.1,4.1,0,0,0-2.478-.286c-1.608.312-3.307,1.556-4.751,3.956-2.757,4.582-2.68,11.287-2.68,11.305l-2.742-.036Z" transform="translate(-651.649 -494.838)" fill="#2c3b4a"/>
    <path id="Trazado_12089" data-name="Trazado 12089" d="M1341.438,804.635c.008.045,2.809,16.1,16.013,21.247l-.416,1.078c-13.816-5.386-16.726-22.069-16.734-22.117l1.137-.208Z" transform="translate(-610.679 -475.228)" fill="#848fc9"/>
    <path id="Trazado_12090" data-name="Trazado 12090" d="M1247.879,979.586c.043-.019,15.11-6.71,21.7-6.714v1.154c-6.333,0-21.187,6.6-21.229,6.62l-.467-1.061Z" transform="translate(-549.581 -586.444)" fill="#d3d5d6"/>
    <path id="Trazado_12091" data-name="Trazado 12091" d="M1476.713,789.074c-.014.008-4.608,2.846-8.275,21.844l-1.137-.218c3.761-19.49,8.772-22.591,8.786-22.6l.625.973Z" transform="translate(-694.635 -464.298)" fill="#d3d5d6"/>
    <path id="Trazado_12092" data-name="Trazado 12092" d="M1257.654,787.024a55.475,55.475,0,0,1,10.716,29l-1.155.086a54.191,54.191,0,0,0-10.458-28.353l.9-.73Z" transform="translate(-555.45 -463.586)" fill="#d3d5d6"/>
    <path id="Trazado_12093" data-name="Trazado 12093" d="M1342.19,615.36a.642.642,0,1,1-.643.642.643.643,0,0,1,.643-.642Z" transform="translate(-611.502 -350.104)" fill="#fff" fill-rule="evenodd"/>
    <path id="Trazado_12094" data-name="Trazado 12094" d="M1394.953,615.36a.642.642,0,1,1-.641.642.642.642,0,0,1,.641-.642Z" transform="translate(-646.384 -350.104)" fill="#fff" fill-rule="evenodd"/>
    <path id="Trazado_12095" data-name="Trazado 12095" d="M1316.522,1144.879c-1.727,1.234-3.541,2.457-5.45,3.653l-.612-.979c3.01-1.887,5.791-3.843,8.341-5.8q-1.125,1.573-2.28,3.124Zm-69.191,20.865c0,.06.618,18.131,17.744,27.048-.375.24-.755.475-1.132.712-17.139-9.326-17.764-27.654-17.767-27.714l1.156-.046Z" transform="translate(-548.455 -698.088)" fill="#b2babb"/>
    <path id="Trazado_12096" data-name="Trazado 12096" d="M1428.485,620.294l-2.94,9.665-1.434-.161,3.435-11.226.938,1.722Z" transform="translate(-666.083 -352.227)" fill="#f5f7ff"/>
    <path id="Trazado_12097" data-name="Trazado 12097" d="M1310.737,619.487l1.995,9.255,1.467-.229-2.678-10.171-.783,1.145Z" transform="translate(-591.135 -352.075)" fill="#f5f7ff"/>
    <path id="Trazado_12098" data-name="Trazado 12098" d="M1312.48,640.709s17.155-3,20.295-2.83,19.662,2.211,19.662,2.211-.778,12.845-4.089,16.709-9.541,9.647-18.047,8.61c-5.794-.706-11.063-3.36-14.889-10.73-1.791-3.449-1.865-8.172-2.931-13.97Z" transform="translate(-592.287 -364.986)" fill="#e4f0f7" fill-rule="evenodd"/>
    <path id="Trazado_12099" data-name="Trazado 12099" d="M1369.307,637.887c.306-.014.559-.017.753-.006,3.141.17,19.662,2.211,19.662,2.211s-.752,12.408-3.921,16.5l-.019.022c-.049.064-.1.125-.149.185l-.149.172-.009.011-.144.164-.018.021-.137.156-.028.032-.132.146,0,0c-.1.113-.205.227-.311.341l-.027.029-.112.12-.082.088-.1.106-.067.07-.11.116-.091.093-.105.108-.054.054-.135.136-.025.026-.124.125-.028.027-.091.091-.137.133-.008.007-.19.183-.007.007c-.65.62-1.359,1.242-2.123,1.84l-.056.044-.193.149-.035.027-.2.153-.045.032-.219.16-.005,0-.231.165-.031.023-.228.159-.008,0a17.858,17.858,0,0,1-10.823,3.4c.5-3.815-.733-18.624.3-27.635Z" transform="translate(-629.572 -364.987)" fill="#d7e8f2" fill-rule="evenodd"/>
    <path id="Trazado_12100" data-name="Trazado 12100" d="M1356.171,659.327l-13.924-1.686-12.748,1.4.086,1.34L1342.21,659,1356,660.652l.173-1.325Zm-1.232,6.091L1342.093,664l-10.571,1.469.111,1.335,10.391-1.443,12.678,1.37.237-1.31Zm3.273-11.387-15.953-1.862-13.841,1.462.086,1.341,13.716-1.449,15.819,1.834.173-1.326Z" transform="translate(-602.823 -374.437)" fill="#bbd6e6"/>
    <path id="Trazado_12101" data-name="Trazado 12101" d="M975.125,697.32l-31.148,66.439L931.328,700.67l7.237-4.425,12.077,8.768,17.866-12.573,6.618,4.88Z" transform="translate(-340.319 -401.059)" fill="#7fb3d5" fill-rule="evenodd"/>
    <path id="Trazado_12102" data-name="Trazado 12102" d="M964.439,766.215l-7.322,25.393,4.324,20.037,11.246-23.989-3.919-21.441Z" transform="translate(-357.367 -449.83)" fill="#21618c" fill-rule="evenodd"/>
    <path id="Trazado_12103" data-name="Trazado 12103" d="M943.685,640.7c-.413.827,1.986,17.7-2.15,21.34s-6.852,3.474-5.246,4.466c12.981,8.019,27.977,12.572,40.384-3.8,0,0-6.5,1.323-7.842-7.776s.082-14.226.082-14.226-13.072,8.024-25.228,0Z" transform="translate(-343.289 -366.857)" fill="#f9bfb3" fill-rule="evenodd"/>
    <path id="Trazado_12104" data-name="Trazado 12104" d="M958.925,640.7c-.184.369.189,3.931.3,8.087,6.96,4.828,17.422,5.011,24.281-.41a29.232,29.232,0,0,1,.651-7.677s-13.072,8.024-25.228,0Z" transform="translate(-358.529 -366.857)" fill="#d18c84" fill-rule="evenodd"/>
    <path id="Trazado_12105" data-name="Trazado 12105" d="M919.28,561.036s-4.466-3.307-7.2,2.151,2.881,11.961,7.061,11.463.348-13.513.137-13.614Z" transform="translate(-327.12 -313.536)" fill="#e8a39c" fill-rule="evenodd"/>
    <path id="Trazado_12106" data-name="Trazado 12106" d="M1053.251,560.243s4.466-3.309,7.2,2.15c2.971,5.941-6.247,16.039-8.531,9.983-.759-2.011.167-5.809,1.335-12.133Z" transform="translate(-419.853 -313.011)" fill="#e8a39c" fill-rule="evenodd"/>
    <path id="Trazado_12107" data-name="Trazado 12107" d="M931.213,532.175c-5.292-14.783-3.517-18.2-5.194-31.927-2.648-21.693,49.2-21.691,46.553,0-1.677,13.73-.519,19.19-5.359,31.927-6.207,16.334-30.761,14.639-36,0Z" transform="translate(-336.745 -263.252)" fill="#f9bfb3" fill-rule="evenodd"/>
    <path id="Trazado_12108" data-name="Trazado 12108" d="M982.143,555.279a.935.935,0,0,1,1.8.52c-.01.031-3.318,11.5-2.177,12.526,1.252,1.119,3.952.762,3.959.762a.936.936,0,1,1,.264,1.853c-.009,0-3.58.467-5.469-1.223-2-1.79,1.617-14.4,1.627-14.437Z" transform="translate(-372.437 -309.94)" fill="#bd796b"/>
    <path id="Trazado_12109" data-name="Trazado 12109" d="M961.806,610.412a.934.934,0,0,1,1.246-1.392c.022.02,7.913,7.305,19.983-.1a.936.936,0,1,1,.974,1.6c-13.265,8.141-22.177-.081-22.2-.1Z" transform="translate(-360.262 -345.754)" fill="#bd796b"/>
    <path id="Trazado_12110" data-name="Trazado 12110" d="M957.9,544.427c1.073,0,1.942,1.407,1.942,3.143s-.87,3.142-1.942,3.142-1.942-1.407-1.942-3.142.868-3.143,1.942-3.143Z" transform="translate(-356.6 -303.212)" fill="#1b2631" fill-rule="evenodd"/>
    <path id="Trazado_12111" data-name="Trazado 12111" d="M1022.69,544.427c1.073,0,1.943,1.407,1.943,3.143s-.87,3.142-1.943,3.142-1.944-1.407-1.944-3.142.87-3.143,1.944-3.143Z" transform="translate(-399.43 -303.212)" fill="#1b2631" fill-rule="evenodd"/>
    <path id="Trazado_12112" data-name="Trazado 12112" d="M945.989,522.633a1.393,1.393,0,0,1-1.739-2.176c.02-.015,7.033-5.7,10.994.322a1.393,1.393,0,1,1-2.328,1.531c-2.267-3.45-6.914.313-6.927.323Z" transform="translate(-348.516 -285.749)" fill="#4d352f" fill-rule="evenodd"/>
    <path id="Trazado_12113" data-name="Trazado 12113" d="M1019.2,520.458a1.392,1.392,0,1,1-1.738,2.176c-.013-.01-4.659-3.773-6.927-.323a1.393,1.393,0,1,1-2.329-1.531c3.962-6.026,10.974-.337,10.994-.322Z" transform="translate(-390.989 -285.75)" fill="#4d352f" fill-rule="evenodd"/>
    <path id="Trazado_12114" data-name="Trazado 12114" d="M920.541,445.223s-2.2,7.03,4.667,6.287,28.259-7.446,35.717,2.15,1.549,30.384,1.5,31.084-2.586-10.518-4.185-15.139S955.481,465,955.481,465s-9.207-4.971-15.388-3.069-12.29,3.97-15.8,4.219-3.755-.249-3.755-.249,1.362,7.653-.335,12.945-2.561,5.4-2.561,5.4-5.01-8.01-4.762-13.626.91-5.617.91-5.617-7.031-14.235,6.748-19.777Z" transform="translate(-327.541 -237.631)" fill="#4d352f" fill-rule="evenodd"/>
    <path id="Trazado_12115" data-name="Trazado 12115" d="M1006.178,692.44c-1.453.732-17.866,12.573-17.866,12.573s10.918,17.7,10.918,16.625S1012.8,697.32,1012.8,697.32l-6.618-4.88Z" transform="translate(-377.989 -401.059)" fill="#e5e7e9" fill-rule="evenodd"/>
    <path id="Trazado_12116" data-name="Trazado 12116" d="M936.15,699.03l12.324,10.34-10.339,16.672L928.05,705.621l8.1-6.591Z" transform="translate(-338.152 -405.415)" fill="#e5e7e9" fill-rule="evenodd"/>
    <path id="Trazado_12117" data-name="Trazado 12117" d="M967.3,741.021l5.963,4.733,7.863-5.556-6.7-10.662L967.3,741.021Z" transform="translate(-364.099 -425.582)" fill="#2874a6" fill-rule="evenodd"/>
    <path id="Trazado_12118" data-name="Trazado 12118" d="M799.524,716.72l-39.289,21.017-28.286,88.248s25.654,46.315,27.8,49.271c.7-.719,4.848-3.647,4.848-3.647l-2.352,62.124.765.235q1.194.365,2.4.716.637.186,1.277.368,1.208.343,2.423.671.641.174,1.284.342,1.228.322,2.459.63.6.149,1.2.3,1.28.309,2.563.6.559.128,1.117.252,1.348.3,2.7.578l1.106.226q1.372.276,2.75.531l1.038.19q1.409.254,2.825.487l.964.157q1.428.227,2.862.435l.964.138q1.475.205,2.959.389l.932.113q1.49.177,2.985.332l.91.092q1.541.152,3.087.281l.769.062q1.575.125,3.158.223l.82.05q1.6.093,3.2.161l.718.029c.416.016.835.024,1.252.038l-1.561-162.546s-13.76-62.494-12.649-63.089Zm-36.14,112.174.579-18.018-4.215,11.956,3.636,6.062Z" transform="translate(-208.515 -417.11)" fill="#f2f3f4" fill-rule="evenodd"/>
    <path id="Trazado_12119" data-name="Trazado 12119" d="M999.8,706.838l-31.148,66.439,1.509,162.545c.736.024,1.472.05,2.209.067l.1,0,.283.006q1.922.04,3.851.039,1.856,0,3.7-.035l.079,0q1.8-.033,3.593-.1l.17-.007q1.781-.067,3.555-.167l.134-.008q1.748-.1,3.485-.229l.31-.024q1.642-.125,3.278-.278l.416-.039q1.6-.152,3.193-.331l.526-.059q1.558-.178,3.109-.381l.561-.075q1.466-.2,2.926-.415l.751-.114q1.369-.209,2.731-.439l.988-.168q1.263-.219,2.517-.454l1.026-.194q1.256-.242,2.5-.5.574-.117,1.148-.24,1.157-.247,2.311-.506c.415-.093.83-.189,1.245-.285q1.074-.249,2.143-.51.715-.174,1.426-.354,1.013-.255,2.021-.521.712-.188,1.421-.38,1-.27,1.989-.552l.256-60.876,38.214-71.648-33.083-69.479L999.8,706.838Z" transform="translate(-364.991 -410.577)" fill="#e5e7e9" fill-rule="evenodd"/>
    <path id="Trazado_12120" data-name="Trazado 12120" d="M827.1,792.06c.025.052,9.066,18.159,8.739,37.174l-1.245-.02c.321-18.7-8.593-36.555-8.617-36.606l1.123-.548Z" transform="translate(-270.674 -466.915)" fill="#b2babb"/>
    <path id="Trazado_12121" data-name="Trazado 12121" d="M1124.349,771.354c-.029.015-10.107,5.01-16.149,25.182l-1.2-.356c6.2-20.688,16.741-25.921,16.77-25.935l.576,1.109Z" transform="translate(-456.452 -452.494)" fill="#b2babb"/>
    <path id="Trazado_12122" data-name="Trazado 12122" d="M898.37,716.675l-1.429,31.473h9.822l-5.218,9.346s19.873,37.472,19.863,36.311-.163-17.476-.163-17.476L908.6,711.456l-10.226,5.219Z" transform="translate(-317.587 -413.63)" fill="#f8f9f9" fill-rule="evenodd"/>
    <path id="Trazado_12123" data-name="Trazado 12123" d="M999.8,699.03l-31.148,69.085.163,17.476L996.73,746.58,991.6,735.732l10.454,2.026,6.845-32.732-9.1-6Z" transform="translate(-364.991 -405.415)" fill="#f2f3f4" fill-rule="evenodd"/>
    <path id="Trazado_12124" data-name="Trazado 12124" d="M1017.5,901.71h28.95v20.183H1017.5V901.71Z" transform="translate(-397.283 -539.401)" fill="#f2f3f4" fill-rule="evenodd"/>
    <path id="Trazado_12125" data-name="Trazado 12125" d="M1053.252,886.491h4.714v9.046h-4.714v-9.046Z" transform="translate(-420.919 -529.341)" fill="#2874a6" fill-rule="evenodd"/>
    <path id="Trazado_12126" data-name="Trazado 12126" d="M1022.136,923.432H1046.6v1.655h-24.468v-1.655Z" transform="translate(-400.349 -553.761)" fill="#7fb3d5" fill-rule="evenodd"/>
    <path id="Trazado_12127" data-name="Trazado 12127" d="M1022.136,938.562h10.546v1.654h-10.546v-1.654Z" transform="translate(-400.349 -563.763)" fill="#7fb3d5" fill-rule="evenodd"/>
    <path id="Trazado_12128" data-name="Trazado 12128" d="M1058.8,938.562h3.922v1.654H1058.8v-1.654Z" transform="translate(-424.587 -563.763)" fill="#7fb3d5" fill-rule="evenodd"/>
    <path id="Trazado_12129" data-name="Trazado 12129" d="M1076.394,938.562h3.922v1.654h-3.922v-1.654Z" transform="translate(-436.218 -563.763)" fill="#7fb3d5" fill-rule="evenodd"/>
    <path id="Trazado_12130" data-name="Trazado 12130" d="M1036.481,1186.8l-.445,30.981h31.387l.59-28.478,1.868.128-.609,29.305-.02.92h-35.113l.015-.949.458-31.929,1.868.022Z" transform="translate(-408.284 -727.85)" fill="#b2babb"/>
    <path id="Trazado_12131" data-name="Trazado 12131" d="M861.034,1186.189l.348,26.583.019.96-.961-.008-27.881-.263-.907-.008-.02-.907-.617-28.141,1.869-.036.6,27.233,26.014.245-.329-25.622,1.869-.036Z" transform="translate(-274.004 -726.259)" fill="#b2babb"/>
    <path id="Trazado_12132" data-name="Trazado 12132" d="M843.256,1140.555c4.5,3.363,11.917,7.177,17.375,11.94,6.236,5.44,1.458,10.191-.819,8.1-2.328-2.142-2.854-3.211-4.328-2.719l-28.185-1.838-1.867-3.6,17.824-11.88Z" transform="translate(-270.314 -697.294)" fill="#f9bfb3" fill-rule="evenodd"/>
    <path id="Trazado_12133" data-name="Trazado 12133" d="M815.469,967.126l18.7-12.466-21.9-37.134-.135-.229.09-.249,13.309-36.6,1.058.384-13.22,36.35,22.033,37.364.27.46-.444.3-19.147,12.762-.622-.938Zm96.323-107.048,17.866,43.342.1.248-.128.236-25.3,46.366,17.824,22.962,3.534-5.214.929.63-3.969,5.855-.433.64-.475-.611L903.22,950.667l-.224-.29.176-.322L928.515,903.6,910.75,860.506l1.041-.428Z" transform="translate(-261.527 -511.88)" fill="#b2babb"/>
    <path id="Trazado_12134" data-name="Trazado 12134" d="M1036.642,1136.339c-5.027,2.5-16.195,8.419-22.455,12.064-4.713,2.742-5.278,8.809-.318,7.159a54.007,54.007,0,0,1,6.652-1.931l30.324,1-14.2-18.3Z" transform="translate(-392.586 -694.507)" fill="#f9bfb3" fill-rule="evenodd"/>
    <path id="Trazado_12135" data-name="Trazado 12135" d="M958.277,548.326a.475.475,0,1,1-.476.476.475.475,0,0,1,.476-.476Z" transform="translate(-357.819 -305.79)" fill="#f8f9f9" fill-rule="evenodd"/>
    <path id="Trazado_12136" data-name="Trazado 12136" d="M1024.378,548.326a.475.475,0,1,1-.475.476.475.475,0,0,1,.475-.476Z" transform="translate(-401.518 -305.79)" fill="#f8f9f9" fill-rule="evenodd"/>
    <path id="Trazado_12137" data-name="Trazado 12137" d="M1056.924,555.971l-2.729,10-1.41-.159,3.279-11.525.86,1.682Z" transform="translate(-420.611 -309.732)" fill="#f5f7ff"/>
    <path id="Trazado_12138" data-name="Trazado 12138" d="M923.709,556.034l2.952,9.39,2.115-.626-2.983-8.125-1.608-2.566-.476,1.927Z" transform="translate(-335.282 -309.611)" fill="#f5f7ff"/>
    <path id="Trazado_12139" data-name="Trazado 12139" d="M928.711,580.647s19.417-3.223,22.815-3.049,21.276,2.273,21.276,2.273-.843,13.208-4.426,17.181-10.323,9.92-19.527,8.854-16.518-6.555-20.138-25.259Z" transform="translate(-338.589 -325.136)" fill="#e4f0f7" fill-rule="evenodd"/>
    <path id="Trazado_12140" data-name="Trazado 12140" d="M992.722,577.606c.33-.015.6-.018.816-.007,3.4.175,21.275,2.273,21.275,2.273s-.812,12.758-4.244,16.967l-.018.023c-.055.066-.108.129-.164.19l-.16.176-.01.011-.156.169-.02.022-.148.159-.031.033-.143.15,0,.005c-.11.116-.222.233-.336.351l-.029.03-.122.124-.089.09-.108.108-.073.073-.119.118-.1.1-.115.111-.056.056-.148.14-.026.026-.135.128-.03.028-.1.093-.149.137-.008.006-.206.188-.007.008c-.7.637-1.469,1.277-2.3,1.893l-.061.044-.209.154-.039.026-.219.158-.048.033-.237.165-.006,0-.25.17-.033.023-.246.163-.011.006a20.028,20.028,0,0,1-11.711,3.491c.541-3.922-.793-19.15.323-28.416Z" transform="translate(-380.6 -325.137)" fill="#d7e8f2" fill-rule="evenodd"/>
    <path id="Trazado_12141" data-name="Trazado 12141" d="M979.293,599.652l-15.527-1.734-14.214,1.443.095,1.378,14.078-1.429,15.376,1.7.192-1.362Zm-1.373,6.263-14.326-1.461-11.787,1.51.124,1.372,11.587-1.483,14.137,1.408.265-1.346Zm3.648-11.709-17.788-1.915-15.434,1.5.094,1.378,15.3-1.49,17.64,1.885.192-1.363Z" transform="translate(-351.569 -334.854)" fill="#bbd6e6"/>
    <path id="Trazado_12142" data-name="Trazado 12142" d="M1033.911,684.653a21.949,21.949,0,0,1,4.441,2.939c4.311,3.736,6.5,8.826,7.283,14.329a45.443,45.443,0,0,1-1.294,17.259c-2.032,7.946-5.522,14.672-8.319,17.357l2.66,2.308c3.175-3.046,7.064-10.4,9.238-18.9a48.476,48.476,0,0,0,1.354-18.439c-.882-6.221-3.406-12.013-8.39-16.335a26.746,26.746,0,0,0-8.007-4.713,15.224,15.224,0,0,0,1.035,4.2Z" transform="translate(-407.449 -393.135)" fill="#384b5e"/>
    <path id="Trazado_12143" data-name="Trazado 12143" d="M1020.4,839.386c-5.169,0-9.359,3.822-9.359,8.535s4.19,8.534,9.359,8.534,9.358-3.822,9.358-8.534-4.19-8.535-9.358-8.535Z" transform="translate(-393.017 -498.201)" fill="#b2babb" fill-rule="evenodd"/>
    <path id="Trazado_12144" data-name="Trazado 12144" d="M1022.705,842.566c-4.517,0-8.178,3.338-8.178,7.457s3.661,7.456,8.178,7.456,8.177-3.339,8.177-7.456-3.662-7.457-8.177-7.457Z" transform="translate(-395.319 -500.303)" fill="#f2f3f4" fill-rule="evenodd"/>
    <path id="Trazado_12145" data-name="Trazado 12145" d="M1028.81,850.985a4.623,4.623,0,1,0,5.047,4.6,4.84,4.84,0,0,0-5.047-4.6Z" transform="translate(-401.424 -505.868)" fill="#b2babb" fill-rule="evenodd"/>
    <path id="Trazado_12146" data-name="Trazado 12146" d="M923.412,685.913c-8.711,2.652-21.023,11.685-18,41.893l3.65-.3c-1.861-18.579,2.313-28.4,7.513-33.579l-.009-.012.019,0a17.034,17.034,0,0,1,5.913-4.2,17.656,17.656,0,0,0,.911-3.8Z" transform="translate(-322.879 -396.744)" fill="#384b5e"/>
    <path id="Trazado_12147" data-name="Trazado 12147" d="M942.9,850.652c.017.078,5.745,27.067,4.378,32.616-1.192,4.835-3.844,3.519-3.85,3.515L942.8,888c.012,0,4.3,2.086,5.911-4.439,1.431-5.812-4.355-33.086-4.373-33.164l-1.438.257Z" transform="translate(-347.901 -505.478)" fill="#b2babb"/>
    <path id="Trazado_12148" data-name="Trazado 12148" d="M901.475,863.927c1.189,2.988,6.719,14.922,12.937,22.892a26.268,26.268,0,0,0,6.617,6.388c2.38,1.423,4.716,1.735,6.847.353a8.976,8.976,0,0,0,2.819-3.212l-1.3-.618a7.7,7.7,0,0,1-2.363,2.74c-1.554,1.006-3.335.732-5.2-.381a24.945,24.945,0,0,1-6.224-6.041c-6.12-7.848-11.579-19.628-12.753-22.582l-1.381.462Z" transform="translate(-320.584 -514.119)" fill="#b2babb"/>
    <path id="Trazado_12149" data-name="Trazado 12149" d="M936.231,954.19c-1.421-.709-2.792-.239-3.169.732s-.865,1.861.113,2.587c1.766,1.313,7.471-1.11,3.056-3.319Z" transform="translate(-341.161 -573.869)" fill="#fff" fill-rule="evenodd"/>
    <path id="Trazado_12150" data-name="Trazado 12150" d="M981.762,937.709a3.888,3.888,0,0,1,.24-3.428c1.768-2.417,5.217-.2,3.859,1.913-.9,1.4-3.415,2.464-4.1,1.514Z" transform="translate(-373.459 -560.238)" fill="#f8f9f9" fill-rule="evenodd"/>
    <path id="Trazado_12151" data-name="Trazado 12151" d="M911.213,819.093c0-.021.1-7.244-3.289-12.377a10.853,10.853,0,0,0-7.04-5.1h-.008a7.925,7.925,0,0,0-4.405.476,8.253,8.253,0,0,0-3.437,2.677c-1.792,2.366-2.609,5.924-1.553,10.184a84.994,84.994,0,0,0,3.193,9.576l2.745-.962a82.109,82.109,0,0,1-3.078-9.208c-.858-3.452-.257-6.257,1.11-8.063a5.428,5.428,0,0,1,2.234-1.769,4.768,4.768,0,0,1,2.648-.278c1.721.3,3.537,1.516,5.082,3.857,2.947,4.467,2.865,11.005,2.865,11.023l2.933-.034Z" transform="translate(-313.668 -473.151)" fill="#2c3b4a"/>
  </g>
</svg>
